<mxfile host="Electron" modified="2023-08-14T09:34:25.035Z" agent="Mozilla/5.0 (Macintosh; Intel Mac OS X 10_15_7) AppleWebKit/537.36 (KHTML, like Gecko) draw.io/21.6.8 Chrome/114.0.5735.289 Electron/25.5.0 Safari/537.36" etag="swH1uJE_EvCDo_qB3OyK" version="21.6.8" type="device">
  <diagram name="Page-1" id="Af1RCIeI5OXNuscTxlfv">
    <mxGraphModel dx="1238" dy="832" grid="1" gridSize="10" guides="1" tooltips="1" connect="1" arrows="1" fold="1" page="1" pageScale="1" pageWidth="1169" pageHeight="827" math="0" shadow="0">
      <root>
        <mxCell id="0" />
        <mxCell id="1" parent="0" />
        <mxCell id="X0zWVbRmTFVxCGLx4Syc-1" value="" style="shape=image;verticalLabelPosition=bottom;labelBackgroundColor=default;verticalAlign=top;aspect=fixed;imageAspect=0;image=data:image/png,iVBORw0KGgoAAAANSUhEUgAAB3UAAANMCAYAAABLovfHAAABV2lDQ1BJQ0MgUHJvZmlsZQAAKJF1kE9LAlEUxc+Uof1BWtSuhdBKsMZmhIJW5kKCFmJFU7txZhoDtdc4EkG0bperPkG0bJktjVq6Ewoi2vYBkmlR8rrPsdSiC5f743C477wLDIV0xgoBAMWS62TTKxFteycSfEUIYYwigWXdKLNkJrNGFnzPwfIeIInZnBO7TpLv9Uarenugnb2k71vaX/9AjZlW2aD5SR03mOMCUow4c+gywcfEUw6FIq4Ktn2+EJzz+abj2cimiBvEk0ZeN4mfiWO5Pt3u42KhYnQziPQTVmlzXeyhnoEGhf6+BBVylxb+8Sc6/hT2wXAEB3uwkYeLCJKkMBRgEa+iBAPziBEriFOr4s6/79fT8ou0+oqeknuaSbmvZSB82tOiTWB6FrirMN3Rf64qeYHyrqr4PF4DRs45f9sCglGg/cj5R43z9iUw/ATUvS8yzWTRyDOctQAAADhlWElmTU0AKgAAAAgAAYdpAAQAAAABAAAAGgAAAAAAAqACAAQAAAABAAAHdaADAAQAAAABAAADTAAAAAAKj7JKAABAAElEQVR4AezdB5hcVf248bPpEJJACISe0HsTpAhIlfpDEFCQSBVBkVD+Ik1ApHdQkKZSlBpQVEBBaui9d0LvkAQIkJ7d/75Hz+TO7LTdnd2dTd7zPLszc+eWcz/3zi3ne865DZ9++mlTMCmggAIKKKCAAgoooIACCiiggAIKKKCAAgoooIACCiiggAIKdLnA1ClTw5D5huTy8dBDD4UeuU++UUABBRRQQAEFFFBAAQUUUEABBRRQQAEFFFBAAQUUUEABBRSoOwGDunW3ScyQAgoooIACCiiggAIKKKCAAgoooIACCiiggAIKKKCAAgooMFPAoO5MC98poIACCiiggAIKKKCAAgoooIACCiiggAIKKKCAAgoooIACdSdgULfuNokZUkABBRRQQAEFFFBAAQUUUEABBRRQQAEFFFBAAQUUUEABBWYKGNSdaeE7BRRQQAEFFFBAAQUUUEABBRRQQAEFFFBAAQUUUEABBRRQoO4EDOrW3SYxQwoooIACCiiggAIKKKCAAgoooIACCiiggAIKKKCAAgoooMBMgV4z3+a/a2pqCuPHj88fWPBpnnnmCT16dF1c+KuvvgoffvhhmDp1aph77rnDwgsvXJDDzvs4efLkMGHChLjA+eabLzQ0NHTewmu8JNajV69eYc4556xqzozfp0+f0K9fvxbjT58+PbCdBg0aVNSk0vetzUuLDHTigHIOrc3GxIkT42+rmGlr58Vvmfn179+/6KRsg2nTpoU55pij6PfFBvKbY5tXSpgw75TIQy3WKc2v2lf2QdJcc81V7SStHg/nzz//PAwYMCD+flo9gxpMUO12YVFjx44Nn376afxdcsyad955a5CDlrOYMmVK3P84X3SXVI0jv5svvvgit0ocMwcOHFj0OJcbqQZvONfwxzmvNanS/lnp+2LLqsYJI6xKJX6Tffv2LfV1q4Z//fXXobGxMf4GS03YWft9qeXXcjjbLJ13WnP8rmUenJcCCiiggAIKKKCAAgoooIACCiiggAIKdJ5AyaAugZh//etfZXPyve99r0ODJOUW/sADD4Q33ngjbxSCTP/3f/+XC1499dRTsbB4hRVWyBuv2g8URj/xxBPhW9/6VsVA1A033BDuu+++OOtf/OIXYZlllql2MZ0y3ksvvRT4W2KJJcJqq61WdJkvv/xyuPzyy8Nnn30Wv2fc3XbbLSy00EJFx8f3qquuCl9++WX8frnllgsjRowI888/fyzEv/HGG8Mdd9yRm/ZHP/pR2GCDDeJnCt+vvvrq8Pjjj8fPBPq++93vhk033TR+bm1ecgspeHPSSSeFd955J/zud7/LBQ7GjRsXjjrqqIIxQ9h6663Ddttt12J4GvDMM8+ECy64IGy77bZxP0vDyzmkcdJrpWW///77cRuQZ9Lw4cPDHnvsUXIbpPkSOLv77rvDjBkzwsorrxwWW2yxQIE/eaPiA4mKBmybNdZYI74nMPTII4/EoDvfU0GD/XbJJZfkY00S259tnU3kY3jzeq299tqhd+/e2a9q9v6tt94KWK633npxng8++GDMB8esWieCSBwrb7rpptysv/3tb4eddtopt8/lvsi8Yfv88Y9/jL+BSvteZrJ2vyXAdsstt8RgENuCfJCGDBkSttxyy5oHJceMGROefPLJeCxpd+bbMAMqNJx66qnh448/DiNHjgwrrbRSG+bScpKPPvoo/uYKvyG4tu6669asklHheeiFF16Ix3KOp9WkSvtnpe+rWUa5cW677bbA8alU4nhU7hx9zz33xONSqfNQdr5cF3C8KfY77+z9Ppuv9rwvdZzgNzVq1Kjc+XqRRRaJ5wqO/SYFFFBAAQUUUEABBRRQQAEFFFBAAQUUmDUFSgZ1CZASZEuJ4AyFohT6p9SRrd7SMoq9Eszlj8L5VVddNQYl3nvvvXD//feHu+66KwbdmI7ADgXs5QqMi80/DaN1H4Ehgl/lWhdSYJ0Cukz78MMP111Ql8AKhesbb7xx0aAugb9zzjknrvpaa60V1/nZZ58NZ599djj55JNbtMp8/vnnw0UXXRTHJ4CBE4HY3/72t+H4448Pf/3rX+O2oKCZQOFjjz0WrrzyyuhIIT7BUfJEcI9WgnxPATUtOYcNG9aqvMRMZP7RwvyDDz6I80zBUQIXKfEdibzxl1KxoAEF6q+//noggPP3v/89jkrrtJQqOfTs2TONGl/LLZtWnqeffnq0/+Y3vxnNCVKcdtpp4ZhjjolBt7yZ/e8DeXzooYdiQJdBaV2pkEAgi2Dt4MGDYytSPmPN/NlnU0s7WpfixjYkz2yXWiV+O5tvvnmcHQE28vDiiy/GV4IvHdHan+319ttv54K6K664YlzXWq1Tdj7/+Mc/wq233hpoibr88suH5557Ltx7773xeElAvlS68847c5UasvtUqfFrNZwANxUxOBaw/3N8e+2118LTTz8dg6/8PmuZ6EEhBY5rOd9q5sVyL2+uqMI+R6LSQ63TmmuuGStdMG8CsK+88ko89lGhgIox7U3VnodKLafS/lnp+1LzrXY4FRaSOxVj+F1S+Sr97kv1IJDm/+6778ZW5MWOz2mcal47e7+vJk/VjFPsOMF57eKLL44tkrlO4xqE8/tZZ50VTjnllKp72ahm+Y6jgAIKKKCAAgoooIACCiiggAIKKKCAAvUjUDKoSxbpMjclAj0UkKdhBPwIpC677LIxELDooovGQBGtaggQMi7TrLLKKrmWURRO05qQgm8SQZCNNtoo17KWlqTMl1bCFPTSkq9YQW7qFppgQSoYJhBIwfEnn3wS53399dfHgk5a7Vx77bWx5Q4Fn+SP7grJH10+0qJugQUWiMvNrg8Ba4JspH//+9+xcJ78FEsEQ0gLLrhgXHcCcT/4wQ9ygeArrrgi5muHHXaIrSAJulH4Stpvv/1il52s+z//+c8YjFx66aUDrV5pZbnOOuvE1q2V5kFXybSMpeUlARtsaRVLgfrf/va3GPRjebSMpZD8oIMOygvU4k7Cg9a2+Bx88MFxXnRXWbgdCCKSGJdpJk2aFMdnXILpBNdJtIyjm1D2kwsvvDD85z//iS3YCOgS7Dv88MPjNqQFKa0HaX2U9o9q8xIXlPmH/80335wZkv+W7UyiggL5orUiQc2UCD5TgQE/9uszzjgjfdXitZwDgW72+UcffTS2aKflZrllUymBABstbffZZ5+4LIwo1B89enTYcccdWyyfAWw79vNsq0uGp98CQTp8Cajy+6PLXb4jkMg0m2yySfytvvnmmzHYSlCqlkFdjgPpuMErvxO6+uW3yH5PwJWW7rwSFCWxPrR8JW8k9ifeE5jhN08gg98HQWi2FetBgHLDDTeM60jwnH2Y3z6VDnBn/RdffPE4P4J87CcMI3/s3+uvv358T0tIAvlseyyYP/n+zne+k/tNx5n87x/rQTrwwAPjfFinc889N+a1VFCX+XOMYr9LLd3jTJr/EWy//fbbYyCS79kfvv/979csUJOOaxz3SOxjLIP15H1KpY7H7DvZ7YE9+y3HLCrZpMRxB0MqFGCaWsi25zzA9mc/5RhKd8csr1ylHY43BBJZL/LYEYlzVdq/WVf2MdadY3EK6pay5FxEK2/GY70493FeIlDMfHBLx+Z0HmK9Sey/TENqz/7Zlv03LrTKf9nKX6mbZfKbzt2lfoucB9h+JAwIZG6zzTbxFdvU+pffCJVGKnU/XM1+/+qrr8b9hf0WW64pmD/XKWkbk49Sy+f4SoU49jUqlnAMouUs5zIS8+ccx3bmd5P9Lo5Q8K/UcSJVDlp99dWjCZOxj5E33Kp9dELB4vyogAIKKKCAAgoooIACCiiggAIKKKCAAnUu0KOt+SMYQnCVoBaFmEOHDo0tVClspDCaloAUshJ4IVhA4SZBGgocCdwstdRSsdvAVGhLYScBR1ptUlBJoT2Bg8KAB/kd/r9WhExLsIsgIoWkFIwTBCWRB4I1FIDznlcCJRSiE3z4xje+EfNFII1UuD4EPMgLiSAU61cqEWggbbXVVrlC/BToZTgBJYKYLCMlPvNHoTGFvwSBaH2MGa3mCPjwfSqIrjQPLGhNTaE5LcQIshIkpsVgarmZll3slYDVeeedF374wx/GgBattyiYpkA7BX+y0xFAo1tqAtAklpdSWh7Tpuc+UkhOIiBEYT7TbrHFFrmC/bSdU3CiNXlJy02vBN8JJqfAaBqeXglqk2h5+8tf/jIceuih0Z9gE4mgGvs1+zfdAxOsY37ZgFUcsflfOQfWn98D80rdTJdbNoFMUgra8J7fFim1NIwfMv8IHLNvELTNFuTze+OPlIIn2fmmwHn2e34vJH6vHZ3S/kB31CT2tWzQjd8zf+QlvSe4TSCayhwEL2glzf5CAIzfKLYM53sCSQRN+O2zHbBN2zcFi5gX25RtyHQcH1JeGIcgCccqKozwOyQYU5jY1zmWsD+n30laDt0ZF0scg6jgwPEq2/MB4/Lbp1IB25tKBWxTji8Mq1Xi+Mm+wTGG4FSqhMNxNwXVyx2PC7cHfuyn5D0lfueYs13YrqklcnvOA8yfIBeBMHoTIJhKa/R07EjLTq+sA8FVjjNpvdJ3Hf2KCfsuf+UsOf7jSeUBzjHsj+y3nJcwpHJOsfMQjrR4JRjfnv2zLftvLe3K/RY5l/H7JfGsYrY7gVzOaSSsOJfze2I/qJSq2e/TcYhzL9coVDTh90wlIbZlpeUzLudx1ov8cf5jO3Fs4hzJ7439lv2XYyDf0WtBsVTuOEHvF1RUwIIWupzLOIZxzEnHoWLzdJgCCiiggAIKKKCAAgoooIACCiiggAIKdG+B/zb5aeM6ULBMYTlBFRLBVQoq03MsCYgRkKDQndaBFIqmLj8ZnwAmgROGE/yl8Dq1zKPQ8rrrrostlVKglmlIFFzScoZuZCnI5I9EKymWTUEqeaIglWUQ5COvFJYTuKCglkSrUgJiKRWuDwEzAh48gzYFJ9O46ZV50FqQRAE760qhLq2oCvOdpil8TV03k68DDjggBkBOOOGEmL/CcUt9xp6EG4FZguoEoQjU0cqPAmAKpnHZZZdd4rjZfwT+UgDxD3/4Q+45fbQuTkHB7PgEsFPiGbwEqUisQxo/tcpieGoBSKE52ynbgvGe5paOqaAes9bmhflnEwHO1DI1Ozy9pyCdhA2tOAm6sh/SZTT5ojCffZLCd/aZtL8QeClM5RwIyBB0JJjAe1K5ZbPNSPwWaF3IvkvLL1KxwBVBM8YjWEtgMe1HjE+++f0RMCL4yb5JcCmlFOBln6cCAgGT7PoxXUc97zblAf9sRYc0vNQrgVq6bWXdWCeCtQTsmA/bjFa5BF8JprBP8jss1rqeABDz4PnJGJNYV4KGWWee75wqcxBgSwHobP7YV7P7cgrKMk5qnZcdnyAavy+Wc9hhh8XjW/b7dDwiGEprZLYDXTtnf0vZ8dvynt4TSAST2Cf4w4NjN78HjgPljscpIJ/dHkzDfsQ+ye+G4Cs2BDcJcKWET1vPA+n4xDmHc8Dw5t8V+zyBNvaFbGI/+P3vfx+XjyPPLu7MlCpYEOQrZ0lPASScNmo+p5FYP/ZlpmP/5jeaPQ+l/bAW+2dr99+YwRr+K/db5LfC75f9k23NMYzfIb9Zflsp2E2L2uzvtlT2qtnv07QsN1VYohU/laY4z3NeqbR8fkvscxxj2b5sS/KdzoFsa4bzx3VCseNspeME1yOpC30qLqTE+ZrlmxRQQAEFFFBAAQUUUEABBRRQQAEFFFBg1hRoV1AXEoKkKRGwpWUiz5SllWPqJpnvCX5S2EiBZkoEX/ijAJOWXBTE07o0mygMLZYILPBHkJDgKwEcWrzShS/d3BYGQVg2z+9kPAIB5I2WMBRqZ1N2fbLDS72n5Q2JoBjzJGBJoiCadS7VWi+O9L9/FNiTCLiSHwp/6TKXFjjVJoK5BPgIovNHYIBAX7WB5exydt1119hKmOXT7TMBptRiKjse7+kW809/+lPcDsObC9732muvXOtiWqGllH2fAooE9GiBmFpZ7b777rF76jQNr63JS3a6cu/pwpOED9a40zIYt9122y223i03fbHvijkwHgXvKVjL53LL/tGPfhQDyHS5yjOHsykFH7PD2PcI+PA7YF8jAEgiiMYfwegUaOM3mU0EnWjRym+H3yx/2ZS2UXZYrd/zu0/Br2rmTVAmBSzoypdjCfs8654CXdXMh+MMLf+ypgRwCDhS+YTEclJAl88EKjnWlEqsC8FXWriTqFxC6/fCRGtjjg20wiXgR95J5InKKfyGSBwTaEXOcYVjJN1K1zJhyR/HQCq/sO4sn/2GwHm543EK6ma3B8cf9jVaOJJfgtPZY33KO+vb1vMABgSi6YaY7cFxid9usQo3HFfYXkzDemFN4hzBdATnOjKlfYX9u5xlCupSKSElfnucN7LB8PRdeq31/lnt/puWX6vXSr/FwmA92439k/2Mih3sT1hnu3gul7dy+z2B2JSy24PjABVHWBbHnUrL59iSjp8EbDmnU5GBIDTnG/JNBRpa1HLc4ThcmCodJziGcB2Dz7bbbhvPA9dcc0245JJLYs8TKSBdOF8/K6CAAgoooIACCiiggAIKKKCAAgoooED3FmhXUJfCSgo7U6K7ZIJEtE6kUJoAJ8ECEgGnFJBJ46dXCpRJFIRmgzy8Ty0c07i88oxSWm3RgpZC0iWXXDL+EQyjdSp5SM8yTNMRVKRFC626yBsF+wR+s8GgwvVJ05Z6JaCWWkcSOKB1bTaRT55pm1IKbGa7Kua75ELBb0pp3PQ5vabhhfOg1RbPKaWbXwqNaXnKHy14CZZWSnSNTQCdlqep4JtA33PPPRfnVyyoS3e1PAuVtNlmm4Xtt98+tjrChURrSbYtrilAwfbkM4X5Z599duxmlmE8Wzgtoy15iQus4h8BFpbDfsu+Q0qBNN7jSsCoNamUQ+E8Ki2b4AQttQnA0qKXAAbT0LVmqiyQnSffkWiplp6tyWcCagSxCCyyjuwD7DcE2Qi8sX1YR34/7DNsZ4IPBMfYZ9g+aZ9kfh2R+N2Rj8KgTVpW2ofSZ14JlqREqzla6rN+qdvaVDkgjVPqFYvCSh8pCJP9DZaavnA401CxIXXPTMtdumMultLxhuNGOnYwHr9bWreeeuqp4aijjooVDFgfjiv80Zqc4wvbpj0JV7ppJ5hIwBhTgv/80RqRbp/TflXpeJzdHniy/7AfcjxmX04By2x+23Me4LxCS0S2Pfs4gT3+aLVJF8TZlCoDXXXVVdnB8RzAOlZzTMybsJUfWAa/obS9Klmm8dJiOD6lY30a1tbXSvtnpe/butxqpmvtb5FzChW38OJ3T/CVfaBSqma/T5VimFfh8Y/POFWz/Ow1UWG+2H8JyHJMZh+mQgXrQAv5bKp0nEiVxQgwpwofVEjht80526BuVtP3CiiggAIKKKCAAgoooIACCiiggAIKzDoC7QrqZgs+Cd4RTCVgtv7660chWsWmoC4BAMahm8QUyKHwkRaOtKylIJSWLKmAkhkQFKUgvzClVsB0x5gtQE0ttooFhAhcEWjIBgDo8jcVnrKM7PoULrPYZ9aNQl4SrdNSYhiBGOZPkDR1G5q60OS7bKJ7RwKxBHl41h4BudQCOI1XaR60EmQ6ulree++9Y4tBWtrim00pYJMdxnuCIHgT5CM4y7ai4JmUbdEYBzT/Y9ulgC6tc7Mtgtm+BNvwJtDOdiKYSCKQxPahu2YCH3w+5JBD8oL5lfLCdBhiknWPC6jwj2lPPPHEONbJJ58c15dAJok8E+wkmMb6sy+nwvM4QpF/5RwYPZtXArPlls2+SBfQ7MeYkofTTjstLpVAO54EAkgEotlWDEuJ3xa2uLAsgsN0h8tzJ2kNRqCY71OAidZgJAKQbGOCpCTm29EptRzOBh+ocJFSasGaPvOaDXzRYpNKHzvuuGMchYBMtUFdWvXxG8U3zZNjFwm3arpyjSP/7x+9CxDQZf+hdW1hC9XkSkUTtlu2S2iWyzYlQEUrQOZDcJfW3XSTzu+XVtt4sH+kLmezy2/Ne45xBH/w4reXTRyj2V8Zp5rjcbJL86C1LscQtg37WLFne7bnPEDrRvZ3Wtjzx/GOCg8MLwzqUmGBiiMpkSe2K/sbv+uOTBhyjmI/wKEaS85P2RabTJ+t4NSe/FbaPyt9355lV5q20m+xcHqO1RzDuGZI58RqgrrV7PccD1KiRXfaf+lRgoAu1yJtXT7zZb8goEtlG3rSYJ607Oc8WxjUrXScSNcQ2cA/vwdSa69j4kT+U0ABBRRQQAEFFFBAAQUUUEABBRRQQIFuIdCuoG6xNaTgnEASBeoU8JMYRoE/gUtakhBY5Xs+E8yglRcF7RTOUvhO4TbvKaznmYKFiRZg999/f3xGLEFQgmAUgtN9LgWaqXCcwnQKOikwpyCYRHCEQB0tZFLBaDYwll1WChgzHvMtDDDTeo5EwG3//ffPTUrh7bHHHhsDR6wH68grAQiWS6AzmwiC00qO5Rx00EHZr3LvK82DdcSbZdO1awpWUzhMSgXgPMOP1qgEfrPP8iOIxPR0bUoeCTal4BbBpsL0r3/9KzeI4G4K8DJwn332iS2UaRl9/vnnx0BKCu7TopeWdhRkk1hnrFIiOENgv1xeCKRef/31sRV3a4O6BNDZ/uwHxx9/fGxNSBe+pPR8XLqwJLEelYK6lRwI2KW8nnTSSWWXTcAOF/ZHApwE3vjMtqclJXnmN0GipXm2W2eG3dP8bGJ+ewSu2O48k5P9gPXDOVVAoCUl+za/CZZD5QOCKykIxm+1lomKBFTwYHmsG+tAPglypm5TOQawruSb4AotVyslfMgzgQ1++yTmy3JYP+bDvlwYCKWSAc8q5ljE8YN5YEVgm+2dnntcafl8z/qkbtJ5f+655+ZNRhA/Pc913333jZUfshUgyAfP3CRPVMigYgf5ohIErfoILqVUrLV2+q41r3SfjPXo0aPjcglGs59yjKJSQ6XjMe7FEvsVAWy2b2FPCWn89pwH2IcJqpFfAtJpfy3Wsh67bLroooviNqZL7NYeM7LzKfaeYy8BOvY3the2nC/S77OacxtmnMdonc/xjd8MgWlS4XmoWB5KDau0fx599NEV91+8OypV+i2yXCyp6JO6RmcY76kgwDUE60jwnG1QLlWz36fpOZZyHuK8yTmTROUYtg2pLctnOvYNKkOwbTn2FmupzHgcI8odJ+gdgnPqqFGj4rUPgedUUYbrEZMCCiiggAIKKKCAAgoooIACCiiggAIKzJoCNQvqUlCZukIkmEeiAJ+CRwIVI0aMiC1UCIQSCKOglhaBqdUawRUKJmltxx8F2QRviz37kEJyxiVYRQAkJYIRdEOcCqEJENLSjRaJtOgjKEvQmD/ySxCCQAaBlWLdPJM/Ap/puZ2bbLJJWlQskE2BJPKeTQThCLrRMpfgJIFplklQjXWjsJiWuBRGkxj/mGOOiUEWgnAERCjUJ1iEE6nSPAgIEYSl0DkVPBP4oLUfiWcFE7wjMEhrQLqIzQZ1KQj+4Q9/GG688cZYUM405IthqcUSw0gEzQjSpZSCv+kzQR+sCLRTOJ4CusyLfSK1EE3jZ6fnGZ+V8kJBflsT+xWBc7plJbicAro8l3DzzTdv1WyrcUgzZLmVls0+SeWAyy67LAagmJZAAgF4pq2U0r6SxsORICddX7Mt+H54c9A0PS+S3x6BAPY1AmQsg4BXavGe5tOeV5bJ/pACI6wjLRAJWGRb6fJsVMYhWEFKx5JSyyYowu+PrrpJHCeYL61cV1hhhRj0I1DG/peOMWletKDk90DgNE1PcJkKB6RCxzRdseFUosim7L7M8Gzrv2LTFw6jFR8VKjgmpcoFtHzfc889q9oHsnkp9Z5KJOy7BEn5S4njY3oOcLnjcWrVnKZLrwTWCKATgGO/LZYIwLKObTkPENTGm2MqfyRseP54pVToXGn8ar5P8+T4lo5xBAE5XmKczkPlLFNFC84/KSjHstn/U/fVheehUr/PlJ9s3ivtn5W+z+6/2fnW6n2l3yLLYZ8icE4glccZUOmCRz2QqIiRzrWcY8ulavb7ND0B43RtgSu9GbCvUcGpLctnHpxP03EtnT/5zWy00UZpsSVfC7ctxyqCwhy/Uj7Zh7gO4LrGpIACCiiggAIKKKCAAgoooIACCiiggAKzpkBDc0Hpf5uw1mj9COAQrCRIQkEkASMCCARcUyLQxGcKNAsThch8TwFqpcR8aYnL+CwvtforNx3BYFLq2pLP5KWaoFm5+Vb6jvUiYEseC7szJtBL4JvC61133TWanXnmmTHgQkAvBaXKzSMtn/XBhGUUM2R7kFLL3TRdesWUAB/bptj0abxqX1kegVoCMgT0WpNK5YXhPMOUfB566KGtmWXeuLRYJghH0KSjt3/egps/lFs225l1Yx9NgaHC6VvzmW1AAKDU9iQvmKbfRDXzZp6l9qFqpi82DuvN9iCf1ewrtHJjfyffbD+mZ12KtdwstjyGcexgPbIVHEqN25nD8SUYT74IMFXjQf5as13wYxkcswnoFtvXMK32eNxaH+bblvMA+WVajnHZ80prl19u/NY4lptP9rtilgR1b7755lihgOM/68X2LgziZedTT+9r6cS6V/Nb5FjFuPw20vZPx41qbMrt91QCo6LPbrvtFq9j2NcKj5u1WD7naPLfmmNusXVjn2If4nzdnfabYuviMAUUUEABBRRQQAEFFFBAAQUUUEABBRTIF5g6ZWoYMt+Q3EAaS9U8qJubu2+qFqBlG13zEgyntU1qvUUrpiOOOKLuAk5Vr1gHjUiLY549O3LkyFyr0w5alLNVQAEFOkwgG9SlxampawWyQd2uzYlLV0ABBRRQQAEFFFBAAQUUUEABBRRQQIHZXaBYULdlU9nZXakL1p+uY+l+me5keSYjLW4I6NJCt95aEHYBT4tF0q0w3fW2t5VTixk7QAEFFOhEAVpYchwr1kq6E7Phov4nQCt/zr8mBRRQQAEFFFBAAQUUUEABBRRQQAEFFFCgHgVsqVuPW8U8KaCAAgoooIACCiiggAIKKKCAAgoooIACCiiggAIKKKDAbClQrKVu6x5yOluyudIKKKCAAgoooIACCiiggAIKKKCAAgoooIACCiiggAIKKKBA1wkY1O06e5esgAIKKKCAAgoooIACCiiggAIKKKCAAgoooIACCiiggAIKVBQwqFuRyBEUUEABBRRQQAEFFFBAAQUUUEABBRRQQAEFFFBAAQUUUECBrhMwqNt19i5ZAQUUUEABBRRQQAEFFFBAAQUUUEABBRRQQAEFFFBAAQUUqChgULcikSMooIACCiiggAIKKKCAAgoooIACCiiggAIKKKCAAgoooIACXSdgULfr7F2yAgoooIACCiiggAIKKKCAAgoooIACCiiggAIKKKCAAgooUFGg19dff11xJEdQQAEFFFBAAQUUUEABBRRQQAEFFFBAAQUUUEABBRRQQAEFFOh4gd69erdYSK+hQ4e2GOgABRRQQAEFFFBAAQUUUEABBRRQQAEFFFBAAQUUUEABBRRQQIHOFxg/bnyLhdr9cgsSByiggAIKKKCAAgoooIACCiiggAIKKKCAAgoooIACCiiggAL1I2BQt362hTlRQAEFFFBAAQUUUEABBRRQQAEFFFBAAQUUUEABBRRQQAEFWghUFdRtbGwM06dPbzGxAxRQQAEFFFCgfQIzZswoOoOpU6cWHd7U1BQmT55c9Ls00PN2kvBVAQUUUGB2FeD8Wupcmky4x+W8alJAAQUUUECB6gS8H63OybEUUEABBWZdgdbcR06cOLHmEL0qzfGGG24I9913XxxtiSWWCD/96U9D3759K03m9woooIACCihQRuCjjz4Kl1xySRg3blyYb775wm677RaGDRsWPvjgg3DhhReGCRMmhN69e4cRI0aE1VdfPTenp59+Otx0003h2GOPzQ3Lvil23n733XfD73//++xo8f1ZZ50VevSoqn5Xi2kdoIACCiigQD0LjBo1KvTs2TP84Ac/aJFNzrEXX3xxeO+99+J5cJNNNgnbbrtti/EcoIACCiiggAL5ApXuR6+55prw8MMPx4m4v/35z39uOXI+oZ8UUEABBbqpQGvvI59//vnwhz/8IZx77rmhoaGhZmtdNqj76quvhgceeCD86le/CoMGDQqnnHJKuPPOO8PWW29dNgPU2qKVEDfRJgUUUEABBRRoKXD++eeHDTfcMFCQTJD2H//4RzjwwAPDlVdeGZZddtkYzH3kkUfCn//857DSSivFYC/jvfbaa2HeeedtOcPmIaXO21tssUU4/vjjc9P89a9/jefpbEA3tVRKFxm0cCo8j0+bNi0GmnMz8o0CCiiggAJ1JsC585577onnzfXWW69o7m688cbQr1+/cPbZZwcqWZ1++ulh1VVXDYsttlgc3/NdUTYHKqCAAgrMxgJvv/12vG8tdz/6+uuvh0cffTQcd9xxMZB74oknxoZCm222WZTjHpP7zex96GxM6qoroIACCnQzgUr3kdnV+eqrr8K1116bHRTf1yJ2Wjao+/LLL8eC5fnnnz8ucP311w/PPPNM2HjjjcMxxxwTb345EY8ZMyZQQHz44YeHv//972H06NGxsJhC55EjR4Z55pmnReYdoIACCiigwOwq8M4778QulAnqvv/++/G82qtXr3ju5PPuu+8eb3bXWWedcN111wXG55zKeZgCZ2pHF0ulzttUxhowYECc5Nlnnw3cbP/617+On08++eSw4IILhhdeeCFwk824VOj67LPPwtxzzx0OPfTQMGnSpNjS9/PPP4834FtuuWUgUGxSQAEFFFCg3gQWWWSReI568MEHS2aNG2wKmKm8tPDCC4f+/fvH8x6BXnq28HxXks4vFFBAAQVmUwEa+1S6H+WelsR5lV6n+vTpE/94HAI9ZFB+TFphhRXCT37yE4O7UcN/CiiggALdRaDUfWSqHJxdj8svvzxss802eYHdWsVOy/a5SHPibECW919++WV87hC1l1OiEJi+oadMmRLuvvvucNBBB4VzzjknFhI/8cQTaTRfFVBAAQUUUKBZ4NNPPw3c8NKFMid5Xp988snw9ddfRx+CqSnNNddc8dzLsNVWWy0sueSS6asWr6XO22lEnvlALbGddtopLp/hnL85p5922mkxoHvzzTeHnXfeOdA1M71uEOy99957Y1CZ7kI4x6fKW2m+viqggAIKKFAvAgRpOV8OHTq0ZJboCnL55ZeP39Oyl8pLPGrI811JMr9QQAEFFJjNBaq5H6VQe6mllgpHH310OPLII2OlYSoq06MULX3POOOMQKXiDz/8MFZcns1JXX0FFFBAgW4mUOo+snA1aCxDBeK1114791UtY6dlW+rSJQYFutUmnrXLTfRFF10Uu68i0yuvvHK1kzueAgoooIACs4UANZUpQP7FL36Ra3l7xRVXxHMnAKkr5NZiVDpv0xUWFxV0MZlNG220URxO6yZa9KaC7gUWWCCQVz7fd9994bzzzovvab1rl1lZQd8roIACCnQ3AW6qr7/++tj7xX777Zc7/3m+625b0vwqoIACCtSLAD1H0Rp3u+22C1ROvuGGG8Idd9wRW/iSRx53QDnxXnvtFXjerkkBBRRQQIHuJlDsPjK7DmPHjg233HJLOOqoo7KD42MJahU7LdtSl+4yvvjii9zC6YqRYYUp22qXgt4999wzZpLnAPJsQJMCCiiggAIKzBQYOHBgDIqm7jmWW265WImKlrSk7LmXrj24Ia4mVTpvU1MsW0sszTM9O5egcHqfvuN1xRVXDMcdd1xYffXVw0svvRR+85vfBC5STAoooIACCnRHAe5rOZdRwYrHEXAeJnm+645b0zwroIACCtSLAI/sW2WVVQKVhtdcc80Y3KVHKu5/eb7uVlttFR9xwDPtH3/88XrJtvlQQAEFFFCgKoFS95HZiXkMEPeZ9IiYHn1HD430lFir2GnZoO7SSy8dXnnllVhwSwT6/vvvD8sss0wuj2+99VZsTZSeVzR+/Phw2GGHxW6Xd9hhh/icIp4NaFJAAQUUUECBmQJ0SUVPGARISbSgpbcLHnPAc+x5lAGtdRnOeIsuuujMiQvecX5+6KGHYhfN5c7bzOe9996LBdYFs6j4kVbEd955Z9hggw3C/vvvHwPSdCFtUkABBRRQoLsIfPLJJ/F8SX6vvvrq2EUzz/NLz5xnuOc7FEwKKKCAAgpUL5C9Hx08eHAsR06P7nvxxRfjY3wefvjh8Nvf/jaee/fYY48wfPjw8O6771a/EMdUQAEFFFCgDgRK3Udmz4WbbrppfATByJEjA901k3hPoLdWsdOy3S9TU5nnEZ1wwglx4QsuuGDYfPPNc91CckLmwfeLL754/J6T9xprrBFb81A4TYuj3XffPX7nPwUUUEABBRT4rwDnSG5m//SnP8UBdGW89957B1rKjhgxIlxwwQW5gO4uu+wSA76l7Lhh5jm5Bx54YAzYFjtvMy2F2aSFFloovpb6Rx4K02abbRa7XibITO8cnPcJIJsUUEABBRToLgKvvfZaGDVqVEjP9uP5fvRgkRKVljzfJQ1fFVBAAQUUqE4gez9KC126YOaZutzjDho0KBxwwAGx5ymeW08LJcqRuR/ebbfdqluAYymggAIKKFAHAjS+4R6y2H3kvPPOmyubXXLJJXO9HadH284333yxzLdWsdOG5ghxUyUTnqdHgHbOOeeMo9JUmAfen3LKKbGbRk7G2ZSeFUitZ5+5l5XxvQIKKKCAAvkCpbpXnjBhQrz5bct5tPC8nb/Etn3i4oUb9j59+oR+/fq1bSZOpYACCiigQJ0LeL6r8w1k9hRQQAEF6l6AFkuUIxc+wo/y5BkzZuT1klH3K2MGFVBAAQUUqKFAa2On48eND0PmG5LLAb01lm2pm8akAJe/wkShbrHC5lLjF07vZwUUUEABBWZ3gVLPy+W5Q21NHXEepgVve/LU1nVxOgUUUEABBTpTwPNdZ2q7LAUUUECBWVGAxj+FDYBYz9RYaFZcZ9dJAQUUUECBagRqUWZb9pm6pTJBMPfggw+OTYZLjeNwBRRQQAEFFFBAAQUUUEABBRRQQAEFFFBAAQUUUEABBRRQQIH2C1TVUrdwMbTOTc/RLfzOzwoooIACCiiggAIKKKCAAgoooIACCiiggAIKKKCAAgoooIACtRMoG9S98MILa7ck56SAAgoooIACCiiggAIKKKCAAgoooIACCiiggAIKKKCAAgrM5gI/+9nPWi1QMqg7atSocOedd8YZ7rz16mGXbdaoauZTm0L4+fglQmioavSajrTtgkPDjgsMrek8nZkCCiiggAK1FrjtttvCqquuGhZYYIFaz9r5KaCAAgooMNsKXHHFFWGPPfaYbdffFVdAAQUUUKDWAh999FF45plnwhZbbFHrWTs/BRRQQAEFZkuBq6++OvBHGjx4cNh5551b5VAyqNvU1Byd/V/qMWi50HvY9ulj2demxqZw5ct3lx2no75cYI6+BnU7Ctf5KqCAAgoooIACCiiggAIKKKCAAgoooIACCiiggAIKKKBAmwSysde2zKBkULctM0vTDOwRwsyQcBra8a9fTZvR8QtxCQoooIACCiiggAIKKKCAAgoooIACCiiggAIKKKCAAgoooEAnCtQ8qNunR0OY2BzRnd4FUd1BvWu+Op24KVyUAgoooIACCiiggAIKKKCAAgoooIACCiiggAIKKKCAAgoo0FKgQ6KgO88/JDz++YTw4sRJLZf4vyE7No/Tv1fPkt+35Yu155m7LZM5jQIKKKCAAgoooIACCiiggAIKKKCAAgoooIACCiiggAIKKFC3Ah0S1L1i9VXCMa+8Fpo++Ljoii/SMDX8ZdDYMEfPdgR1G5r7eF5io6Lzd6ACCiiggAIKKKCAAgoooIACCiiggAIKKKCAAgoooIACCigwqwiUDOo2NDS0ax1PWHbpwF/RNHFcCC/dVPSrqgf26V/1qI6ogAIKKKCAAgoooIACCiiggAIKKKCAAgoooIACCiiggAIKdJVAe2OvJYO6TU0d+FDcHr3C49P7VmW2Zp8ZxcfrPUfx4Q5VQAEFFFBAAQUUUEABBRRQQAEFFFBAAQUUUEABBRRQQAEFZiGBkkHdDl3H5qDuedMXDI9PnFZ2MX1CQ3hq5aFlx/FLBRRQQAEFFFBAAQUUUEABBRRQQAEFFFBAAQUUUEABBRRQoJ4F2tugtmuCus1dJw8YOH9Yc87pLWwHj38vrPbsbbnho8e0rkXuevscF3r17peb3jcKKKCAAgoooIACCiiggAIKKKCAAgoooIACCiiggAIKKKBAVwp0WPfLHb1S56+8QtFFfPjixPD04xNz302cOvN9bmCZN40zmrtr7l1mBL9SQAEFFFBAAQUUUEABBRRQQAEFFFBAAQUUUEABBRRQQAEFupFA17TULQPUf/ACYc5Bg3Nj/LNf9d0vL9w4OWzey4huDs83CiiggAIKKKCAAgoooIACCiiggAIKKKCAAgoooIACCijQ7QXqLqjbp/+gsMq2++Rgj3z5vTCO1rdVpPMWmTOEqeND0/TWrVZDz+bumnvPVcUSHEUBBRRQQAEFFFBAAQUUUEABBRRQQAEFFFBAAQUUUEABBRToXIHWRT87IW/9BswT+Evph1P6pLcVX7/R+Hho/PST0FhxzPwRei20SWjIH+QnBRRQQAEFFFBAAQUUUEABBRRQQAEFFFBAAQUUUEABBRRQoC4E6i6oW6gycolhhYNKfp728Tslv6v0RdOUz8L0j0ZXGq2673v0Dr0X3aa6cR1LAQUUUEABBRRQQAEFFFBAAQUUUEABBRRQQAEFFFBAAQUUKCNQ90HdMnlv8VXvoRu0GFbtAIK65VKvL78MDdOnlxxl2jwzWxeXHMkvFFBAAQUUUEABBRRQQAEFFFBAAQUUUEABBRRQQAEFFFBAgVYKzFJB3Vaue97oDX3nCb2HbZ83LO/DK/8KYconeYNyH2iZW27a3Ii+UUABBRRQQAEFFFBAAQUUUEABBRRQQAEFFFBAAQUUUEABBVonYFC3Wq+GniH0KM715ZeTQuMHY1rMadBCS7UY5gAFFFBAAQUUUEABBRRQQAEFFFBAAQUUUEABBRRQQAEFFFCgNQLFo5StmcPsMu6QpUMYuFDRtX3qwUtD04uvtfhuw5+e1mKYAxRQQAEFFFBAAQUUUEABBRRQQAEFFFBAAQUUUEABBRRQQIHWCBjUrVZr8BIlx5z49dehqemrkt/7hQIKKKCAAgoooIACCiiggAIKKKCAAgoooIACCiiggAIKKNBWgZJB3Z133jk88cQTYe211w4jRoxo6/xni+nmnHve0NTYmFvX+/oODg/3GRyue+rZ3DDeDJtjjvCb5Zpb/JoUUEABBRRQQAEFFFBAAQUUUEABBRRQQAEFFFBAAQUUUGC2Edh1112bG4k2hYcffjgQh21tKhnUbe2MZufxv73vyXmrf88rr4c733wnhI/H5g1fZ8BceZ/9oIACCiiggAIKKKCAAgoooIACCiiggAIKKKCAAgoooIACClQSMKhbSaiq7xvyxhrUp3fo1yNvUPwwrWlma96W3zpEAQUUUEABBRRQQAEFFFBAAQUUUEABBRRQQAEFFFBAAQVmVYGGhvyYYmvW06Bua7SqHHf1gQPC/L16h9enTsubok+PIpHevDH8oIACCiiggAIKKKCAAgoooIACCiiggAIKKKCAAgoooIACCuQLGNTN96jJpw3nHRzWmWdQWKdgbsdMez6EZ94oGNr8cfDiISy6dsvhDlFAAQUUUEABBRRQQAEFFFBAAQUUUEABBRRQQAEFFFBAgdlewKBuB+0CV6y+Sss5P/5ECFNntBw+7euWwxyigAIKKKCAAgoooIACCiiggAIKKKCAAgoooIACCiiggAIKNAsY1O3M3aD/vM1B3Yl5S5zcFMKlX/QKjW+9nTe8PR/ojfvnw4e1ZxZOq4ACCiiggAIKKKCAAgoooIACCiiggAIKKKCAAgoooIACdSJgULczN0SRLpYbZzSGUx99KYRxb9YsJwN69jSoWzNNZ6SAAgoooIACCiiggAIKKKCAAgoooIACCiiggAIKKKBA+wWamppbe7YxGdRtI1ybJptraIvJmmbMCFOaXgnjmoO7tUpDm2ira1JAAQUUUEABBRRQQAEFFFBAAQUUUEABBRRQQAEFFFBAgXoRaGhoewzPoG4Xb8X+za1qP2kO7IbG2gV1x7V9f+hiDRevgAIKKKCAAgoooIACCiiggAIKKKCAAgoooIACCiiggAKFAgZ1C0W64PP6A+YKb0+eHN6dMrXk0of36xvm6NGj5PfZL+bu5WbNevheAQUUUEABBRRQQAEFFFBAAQUUUEABBRRQQAEFFFBAge4sYPSvDrbeveuvHZ74YkLY/clnS+bmP4v3DYv061fy+xZffPRci0EOUECBDhboPySEAQt28EKcvQIKKKCAAgoooIACCiiggAIKKKCAAgoooIACCsxuAgZ162CL01vyAn37hEtXX7lkbhZ58+bm79r+8OSSM/YLBRSoncDCqxvUrZ2mc1JAAQUUUEABBRRQQAEFFFBAAQUUUEABBRRQQIH/CRjUrZNdgVa45VviNgd0G6fXSW7NhgIKFBXwN1qUxYEKKKCAAgoooIACCiiggAIKKKCAAgoooIACCijQPgGDuu3z67ypBy7c3FC3serlbffO1PDGtPzRb12sd1i4N+2CTQoo0CECvft3yGydqQIKKKCAAgoooIACCiiggAIKKKCAAgoooIACCszeAgZ1u8v2X3LjVuX02bdHh7emT82b5rF5VgkLLzB/3jA/KKCAAgoooIACCiiggAIKKKCAAgoooIACCiiggAIKKKBAfQsY1K3v7dPm3H1vgaHh1k/G5k0/b5/eeZ/9oIACCiiggAIKKKCAAgoooECnCzQ1hbce/0+nL9YFKlBOoFffOcMiq2xQbhS/U0ABBRRQQAEFFFCgSwUM6nYpf8ct/AcLLxj4y6bBvQ3qZj18r4ACCiiggAIKKKCAAgoo0PkCTc2LfOOhWzt/wS5RgTICgxYcZlC3jI9fKaCAAgoooIACCnS9gEHdrt8GHZKDdeYe1CHzdaYKKKCAAgoooIACCiiggAIKtFdg+rQp7Z2F0ytQU4EZ7pM19XRmCiiggAIKKKCAArUXMKhbe1PnqIACCiiggAIKKKCAAgoooIACJQQamofPv+TKJb51sAJdI/DjnouESXffX3Lh166xalhl4ICS3/uFAgoooIACCiiggAIdLWBQt6OFnb8CCiiggAIKKKCAAgoooIACCswUaGgIq23/s5mffadAHQg8+e87Q5g4qWROxk+dVvI7v1BAAQUUUEABBRRQoDMEDOp2hrLLUEABBRRQQAEFFFBAAQUUUEABBRSoW4El+vQOH0ybXjJ/fXr2KPmdXyiggAIKKKCAAgoo0BkCBnU7Q9llKKCAAgoooIACCiiggAIKKKCAAgrUrcCQ3r3DtKbG8GVjY9E80m24SQEFFFBAAQUUUECBrhQwqNuV+i5bAQUUUEABBRRQQAEFFFBAAQUUUKDLBUYsslDMw1/e+yA8VaYb5i7PqBlQQAEFFFBAAQUUmG0FDOrOtpveFVdAAQUUUEABBRRQQAEFFFBAAQUUQODAJYZFiI+nTA0rTM5/tm6v6VPDhKtPCqN79BRLgdlKYHKPOcPnfeYLoy88Iq73ytvsEQYvtvxsZeDKKqCAAgooUE8CBnXraWuYFwUUUEABBRRQQAEFFFBAAQUUUECBLhM4afmlWyx76sQJ4c67Pg8TW3zjAAVmbYGpfaaHxh5zh4kTxsUV/WrsBwZ1Z+1N7topoIACCtS5gEHdOt9AZk8BBRRQQAEFFFBAAQUUUEABBRRQoOsEevWZI8w5aHBeBu7oOyR81ZBfrLZg4+Sw9tTP88bzgwLdWaBHc0vdyb165/b/gUMX686rY94VUEABBRTo9gL5V5/dfnVcAQUUUEABBRRQQAEFFFBAAQUUUEABBWorsMq2++TN8Pp3Pw1/++zrvGEjh84dVmn+MykwqwiM/eyL8Oob74VV1tgsrlKDXZDPKpvW9VBAAQUU6KYCBnW76YYz2woooIACCiiggAIKKKCAAgoooIACHS/Qo7ml4jwL53fLPHnslPDJ55PzFj6+38AW4+WN4AcFupnAlJ4fhV7vj3O/7mbbzewqoIACCsy6AgZ1u8m2HfncS+Gusf99fkWlLM/Tu1e4f/11Ko3m9woooIACCiiggAIKKKCAAgoooIACbRBYfeDAMK2xMW/K1QYNyPvsBwUUUEABBRRQQAEFailgULeWmh08rxcnTwmh4Iah2CLn6eVmLebiMAUUUEABBRRQQAEFFFBAAQUUUKAWAj9ffLHw8+DzRWth6TwUUEABBRRQQAEFqhMw+ledU5eP9buVlw8fT5kSnv/yq7J52aH/Z6F/z55hxhcv543X0Kt/6NF/0bxhflBAAQUUUEABBRRQQAEFFFBAAQUUUEABBRRQQAEFFFBAgfoXMKhb/9so5rCh+f8xyy4Vvp4xo2yOF/j6xTD3lA9C4+f5Qd0e/RcJYY6hoWnqhBbTN/Qb0mKYAxRQQAEFFFBAAQUUUEABBRRQQAEFFFBAAQUUUEABBRRQoD4EDOrWx3aoKhcrD5ir4ngzGuYOYa7mv4JES92maV+G6R/fn/dNQ/+FQy+DunkmflBAAQUUUEABBRRQQAEFFFBAAQUUUEABBRRQQAEFFFCgngQM6tbT1qhBXnoOWr7kXBonvh+apn+d//3Uz/M/+0kBBRRQQAEFFFBAAQUUUEABBRRQQAEFFFBAAQUUUEABBepKoEdd5cbMdKhAQ885Ai12Q4++M5cz9aswo7n1buNnL8wc5jsFFFBAAQUUUEABBRRQQAEFFFBAAQUUUEABBRRQQAEFFKgbAVvq1s2m6PiMNPQdHHoP2z40Tf60uRvmB3ILbJw8NvTomQn05r7xjQIKKKCAAgoooIACCiiggAIKKKCAAgoooIACCtSzwIwvXm6RvZ4Dlw6hoWeL4Q5QQIHuK2BQt/tuu7bnvPeA0HPoem2f3ikVUEABBRRQQAEFFFBAAQUUUEABBRRQQAEFFFCgLgQaJ7wRQuPUvLzEoG5mCI29TAooUAcC0ye2ORMNkyZNaio19YUXXljqK4croIACCiiggAIKKKCAAgoooIACCiiggAIKKKCAAgoooIACCrRS4Gc/+1nZKcaPGx+GzDckN85DDz0UygZ1c2P6RgEFFFBAAQUUUEABBRRQQAEFFFBAAQUUUEABBRRQQAEFFFCgwwWKBXV7dPhSXYACCiiggAIKKKCAAgoooIACCiiggAIKKKCAAgoooIACCiigQJsFDOq2mc4JFVBAAQUUUEABBRRQQAEFFFBAAQUUUEABBRRQQAEFFFBAgY4XMKjb8cYuQQEFFFBAAQUUUEABBRRQQAEFFFBAAQUUUEABBRRQQAEFFGizgEHdNtM5oQIKKKCAAgoooIACCiiggAIKKKCAAgoooIACCiiggAIKKNDxAgZ1O97YJSiggAIKKKCAAgoooIACCiiggAIKKKCAAgoooIACCiiggAJtFjCo22Y6J1RAAQUUUEABBRRQQAEFFFBAAQUUUEABBRRQQAEFFFBAAQU6XsCgbscbuwQFFFBAAQUUUEABBRRQQAEFFFBAAQUUUEABBRRQQAEFFFCgzQK9nnzyyTZP7IQKKKCAAgoooIACCiiggAIKKKCAAgoooIACCiiggAIKKKCAArUTGD5seIuZ9VpqqaVaDHSAAgoooIACCiiggAIKKKBAvsAnH38S5h86f/5APymggALNAh4f3A0UUKCcaodNVAAAQABJREFUgMeIcjp+p8DsLeDxYfbe/q69AuUEpk+b3uJru19uQeIABRRQQAEFFFBAAQUUUEABBRRQQAEFFFBAAQUUUEABBRRQoH4EDOrWz7YwJwoooIACCiiggAIKKKCAAgoooIACCiiggAIKKKCAAgoooEALAYO6LUgcoIACCiiggAIKKKCAAgoooIACCiiggAIKKKCAAgoooIACCtSPgEHd+tkW5kQBBRRQQAEFFFBAAQUUUEABBRRQQAEFFFBAAQUUUEABBRRoIWBQtwWJAxRQQAEFFFBAAQUUUEABBRRQQAEFFFBAAQUUUEABBRRQQIH6ETCoWz/bwpwooIACCiiggAIKKKCAAgoooIACCiiggAIKKKCAAgoooIACLQQM6rYgcYACCiiggAIKKKCAAgoooIACCiiggAIKKKCAAgoooIACCihQPwIGdetnW5gTBRRQQAEFFFBAAQUUUEABBRRQQAEFFFBAAQUUUEABBRRQoIWAQd0WJA5QQAEFFFBAAQUUUEABBRRQQAEFFFBAAQUUUEABBRRQQAEF6kfAoG79bAtzooACCiiggAIKKKCAAgoooIACCiiggAIKKKCAAgoooIACCrQQMKjbgsQBCiiggAIKKKCAAgoooIACCiiggAIKKKCAAgoooIACCiigQP0ItCqo+9VXX4VPPvkkzJgxo37WoANz0tjYGD799NMwZcqUNi/lyy+/DLiZFFBAAQUUUEABBRSYlQW++OKLiqs3adKkMH369IrjOYICCiiggAIKKKCAAgoooIACCiigQL5AVUHdf/7zn2GnnXYKm2++edh+++3DBhtsEI466qjw5ptv5s+tgz5R+MPy+eus9NBDD4Vtt902bLfddmHjjTcO5513Xmhqaqpq8ZMnT47jk98tttgiuu28887hkksuCdOmTatqHp09EsZsT4L2KT311FPR/OSTT06DfFVAAQUUUEABBRSYRQTee++9vGu/9q7WtddeG7iGLpUmTpwY/vznP4eXX3651ChFhzM+16opETx+/fXX08e6eeU6n0qhJgUUUKCYQLmygGqOH19//XVVZRKUW7SnYnqxvDtMAQU6VmDq1KmBv2oS1xrljifVzMNxFFCg+wjQuC57L1Qu51wDEJcwKaBAxwm09Vqba/lalRf0qrR6V155ZbjgggviaMsuu2x8feWVV8I999wTHn300XDFFVeEhRdeuNJs2vU9K/vBBx+0ax6tmZjWtb/4xS/iJLvsskt44IEHwjXXXBOWX375sNlmm5Wd1ccffxwOOeSQ8NZbb8Xxllpqqdgagc+XX355eOSRR8IZZ5wRBg8eXHY+nf3lc889Fw4++OCw9tprh3POOScunpMA7sOGDevs7Lg8BRRQQAEFFFBAgQ4W+PDDD8P9998fKyCuuOKK7V7aVlttFW644YYw//zzhyWXXDJvflzPU1F07rnnDq1d1gsvvBBGjx4dvve978V50wsO81p11VXDRhttFHr0qKqeal5+avnh/fffD3/5y19y1/+rr756GDFiRJhrrrlquRjnpYAC3VTgP//5T7jvvvtiL2DLLbdcPOausMIKcW2qPX688cYb4fTTTw/nnntu6NevX1EJCphuueWWcMcdd8QC3QEDBgQql6+55prh888/DyeddFLR6XbYYYew7rrrFv3OgQoo0DkCF198cVh00UVjQ5pSS6RS29VXXx2eeeaZOArljT/84Q87vEy2VH4croACnSPAeZ2GV0cccUTJBXKv9Y9//CPcdtttcRyuATy/l+TyCwXaJECFqptuuince++98Vp7nnnmCT/4wQ8C9/+VEufuCy+8MBxzzDE1OW+XDepyU0Awk3TkkUfGlqu8Hzt2bCDYSW37v/71r+HAAw9kcIel/v375w5KHbaQzIzHjBkTP2255ZZx3bgJOvTQQ8Ozzz5bMajLTRYBXC7GeL/gggvGeb3zzjtxXi+99FK46KKLYkvnzCLr8u1aa60V3Xv27FmX+TNTCiiggAIKKKDArCxA5Ul6yFliiSWKriY373//+98DwQECBa1N3/zmN0O6zqZiYnsDpIsttljYcMMNw8033xx22223vEqMd999d5gwYUIc3tDQ0KqsEsylQikFmfSCQ0VLgqY33nhjDJJ897vfDXPMMUer5lmrkWkNxzU/2+hXv/pVvLkjn5dddlkYOXJkrRbjfBRQoJsKENC9/fbbY+Blvvnmi70Z0IMXvWFxn13p+PH444/HitZ33XVXRQGOsxx/99lnn7DQQgvFwM8f//jHeCymfGLPPffMmwe9IDz88MNW4s5T8YMCnSfA495oYEE5IRXY+J2WSlzz0YPgnHPOGQ4//PBYoe3WW2+NjUao8NGnT59SkzpcAQW6oQAt9zlH07MSAaThw4eXXQvulQjo/vSnP42VYFNDPK4HbKxVls4vFaha4G9/+1vg2vzHP/5xmHfeecMTTzwRqJRFj8aUhZRKVK6kfKCWqWxQlxarn332WVzekCFDcsvl/f777x+4acgWylCoQbdrrBw16IlS77jjjrnoMzcN1N5fZ5114ryuu+66eOFB4JOWq8wzJboCvuqqq+Jwbkq4eGFZBJdTevLJJ8O//vWv8OKLL4aBAweG1VZbLUbHs61guUCipgrjcBBbf/31w9Zbb52X7zS/9Dpo0KD4losqDqJcYJGIvpdLqRUB49AaNwV0+cyGPfXUU8Pee+8db7SoTbf44ovH1rscoInqEyBnWdzsUcj2/e9/P97oMT2JCz4KiQgucyH3jW98IwbXUyEWOxHj7LXXXrFru6effjoce+yxsTUEtXq4oWRZvXr1ioVhBObJA8vlBEF69dVXw4knnhiNcCCoT0sL8psS86K1BN3ecXIgH+S1d+/ecZRsPtje7OAUvtGNddr2aV6+KqCAAgoooIACChQXoEVrCpAWuw7l5p1HZ1ARsa2JgDA3JASHuY5sb4B0jTXWiHki4PqjH/0o9O3bNzz//POx0HLXXXdtU/CVlribbLJJLKCgAJMANMFjAse02KVL59SKt60ObZ2O+xvumbhWphUyibzQ0xH3UeT997//fbzxGzp0aPye+xK262GHHRa7SB01alS8XuZLCnS5Ru/onpBiRvyngAIdKkBtfsorOD5wz0zit/3tb3873pNz71/u+MFxny4XufenwnW6Zy+VaVoDc2ykUjqJe3XuxSkUpuJJtpcEKrIz/i9/+cs4Hsf/P/zhD+H//u//cuUGjE85Bccoyjpo9cPxLa0L5QuUCXGso+yD80c1LRVK5d/hCsyOAgRr6RWRxiHl0vjx42N5XrbgmEfk0XqP6yKuH/xNlhP0OwW6lwAxEGIS9IC0zDLLVOyenZb83GsQGyHREyf3TcRnSCk+QlyA8zmVeSvFR+KE/lNAgZwAMU/KXlZeeeU4jOtfesmhR51SQV3O8/TeS+V0YpTZ1J7zdtm+yviRc/Ag0TSYrpjJJC14acJPoDXVQKerXmqDENDj5oQLewK8e+yxR6C7ZhJdvHFTQ/e+BBu5MaBPeIYxb7oeSunOO++Mw7kR4o+CD5o3p0TB0wEHHBDH4UaHQCcFOvvuu2/sWojxCD7ut99+uXEIRNLlUKluh9K8ueHh4Pfuu+/G2qx/+tOf4o0Uz9gtl8gDicKsYhuSFhSpC2sKt0jcSLH+BLRZPwLjPIvsd7/7Xax9hzWJIDc3gwTCx40bF4256WI6bgRJ1N5lXj//+c/jvMg/24XtgDfd69G6mlYSLOsnP/lJbHXN9nrsscfiPNhuFBByUUghIfNjh03plFNOifNi+3ByefDBB8P5558f3VOf/SkfbAuWQxfOvP6///f/4jZJ8/JVAQUUUEABBRRQoLQABfNUriNAynVXNnEdTRc+FLBT4N+eRAEAAVKuO7me5hqwLYnWaNRC/c53vhMrbnKDw3Ugw7n54b6C60oKE9qSVlpppXg9zLUrFQcJmBJwoPtBKoMyvLMT186kFNDlfaoMi8X06dMDPfZwP5MSz9Lhnor073//OwZd6CKVbcC9Ea34TAoo0P0FuG/nHpnKLZSTUKbCPTzHWlrVVTp+IEC5BI+AooyhUqK8JZXfpHE5vhMMyiYKlzhm0uVyqkCSjlWXXnppDApzbiEgTItAxqd3BILMHJ/4zDmI1gr0JkH5AwFk1pFCZZMCClQnQIMOft/8pYpfpaak0QWNXPitpZSuJWjY4m8yqfiqwKwhQMOpdHxIsYRya8Z1AmX5xEu4RyR+wDGG+yRiAVQyJQDFOZvKZZTT0xjMpIAC1QvQWzHX5ikReyNRSb5UIj5J7zxcM2dTe8/bZYO61Ar59a9/HQuKOABQ45wa99TepDUntTxSInBI8JaaYhROcBDhGa1MR5dC2cTNCy1maXXKd9/61rfi19mapxT+kDiAFSYKSOhehHTmmWfGAxVAw5u7IqDgiIAjgU5axpLocoiDGYFhaq8RqKSVb6lEQUsqmKG2HDcv3NykAppS06WadUsvvXSpUXLPFyNIm01sfPJHPilMo3COgCm1aklnn312tORZv9hivOmmm0bz66+/PjurWBB3/PHH5541RqEXiS7hmJaCQWrwsm04gB999NG5bcSOiSXPRCtMFMJx0CdvdAfIfLHkBMG2J+/ZRBCb7+n+IW1HAssmBRRQQAEFFFBAgeoEqNFJLytcU6XEDTu1OrnurlQImKap9Mr1HQFSCgsp7E+VBitNl/2ewDPXmQQstt9++/DRRx/FyoW06uK6kBaqVGgkwNHWtMACC4Tdd989Bg5oPUZgl2vi1O0zvc50ZiIQUvh8y9QFIt9VSgRbKKildRuFMXs2d49KzV+CJiYFFOjeApQrkHj8Ej2L0SqGSi2nnXZavBdv7/GjmE46/qTvOD4VVgqiS0YCwJxDChMVycknx1SO21T0p7I2PYlts802cXQqiVMmQ+K4xTGLSinc81NJ3aSAArUXIMBD74NcE5IoDKYskN8qj9LwN1l7c+eoQHcSIIDLeZvWuTy3k96E6OWD6wLO2yR60eScTaM1Km8VXjN0p/U1rwp0hQBxxbnmmisuOvVyQ2UJej8rlt5+++1YjkM8NdvbMeO297xdNqjLAihgIBBIjTC6PaPAh6AsBUu0giXIR6JgiUTBEwU4RKpTV7vUEMnWyGceBIsJwnJzQ3N/EsFEEivM9BQqFUNhfiRuLFJAmHnSApdgM90EEawkaMn33IgwP26qUnAxPTg8zijzj24JaMHK96mWK+tLiwVaG9A6mANjsZRq4Jd7Bm26AKN1cTbReiF1G02QlJspEjdcbGRqybKOrDPrgnG6CaPbuWyixTTrSRCa5VFjlubdjE/Qm5bAqUZfa266mI5E3lLgmuD3z372szg8G5RnALV5OUHgwY0hKdVGjh/8p4ACCiiggAIKKFBWgGs5AqT0aEOFP65vCZyuuuqqeV1plp1JlV9S6ZBrRAoEKCBsbeI+gOs+rpm5/qawgHsJaoMTiOb6mnEodGhPoqtBCidS92IERhlGwDe1OmvP/FszbeHNGdOmgGyx7wrnTYVKbI444ohYiZRWvVSgJVhtUkCB7i2QjgXcm3MPTQWUQw45JLbepZJ5sWNEmqbYd9VopOnTuJQ7FB5P6JmLYGyxbv0po0mJ8gd6SEh5SY99ouIO5TQc5ynXoQc3Km+nbvLT9L4qoEDtBSh35DqQ3x1lrjwKjeRvsvbWzlGB7iTAoxVpbEZLXCqPcWzgnuyBBx6IlYCJNdCI7OSTT44xAu73so9l6E7ral4V6GqBRx55JPbAw7UxjVqLxQLprYeGpjxaqdg1d3vP2/+t4lVCgoAfGaBGGLU4+OOmgK6D6TaIG5Hf/va3sXAmtVKlJWmxRPQ6JWqGZAuKUmCWLtOoMUoNfhI1QdMNRJqWVwKTJLqjyyaeD8sfKbXEpfCLv8KUouGFw+kGmnWhgIWuhglW0+KXghaCvHyXWvEWTpuWTVC6VGJ6UuFDygufPZPWjQK81C01hXjsCIWpsIs8CvmyiYB62l7Z4a19TzCZxIkgm1JeC9c768QNn0kBBRRQQAEFFFCg9QJUguRZhbTI4HqZm4JUYa71cys+BZX3+GO+6XmJxccsPTQFoCkw4Pqba3xqrmYD0cUqbJaeY/43tDajZxvuF2hVvMgii4TXX389DqPCIRUYUwXK/Ck77hM3ctwvkbdU2z09uyoFQAqXng26UJhywgknxHsXti12VJqlh51UC7hwej8roED3ECAoSuJZeClRkZuKLZSP0NNCa48faT7FXrnnLuxlge6Qs2UvLJcyiVTZvXA+heUvhQHhND7noeOOOy5WpqcXBnrx4o9n9KbygTSurwooUBsBGqpQBksZ4D777JN7fjZz9zdZG2PnokB3FKCyFQ3geAROetYnFck4P9Oqn95SqVRGj6vEdKiIRQ+gO+20U8nrge7oYJ4V6GgB7uPp1YzKElTEpsI6cdNiiQaaXHfzu+MvNQblenm99daL5/D2XEuXDepSoEC3vxQ2EBQkEXkmaMjzUWk6TCENrS+5gOCVACjvCxPPqaXVKSkb7OMzXQIRMGZ5BHTvvvtuBpc8sKQCjtSdURy5+R9BRQp2KDyiGzMSBy66AipMpYKMqRXwjjvuGPNFARpdC1MTjpufVVZZJbYCKJwfn6nlQuLgyEVWaukbBzb/o+Z9eu5uYX/4hV0ipcIg1jWtC66pS+k0T14Lb7Sy60YrhtSSlhbIBKtpAU1XDKmVdXZe5d6nlsSFrW1TgLxc/+Hl5ut3CiiggAIKKKCAAuUF6OqHVlC0SOX6tPD6r/zUpb/lGpQeeKgESI1ultOeRAB6u+22iwForoW5B6BXGa5jN9544zbPmutPnt9I4JTul7neTYFouh6k1VlXpHS9z3V+qviYesTh2jjdrxC4SYmgdEq0mKN1MTeE/NEjEI+noRvptgbX07x9VUCBrhVIx4fsM2055lLAwzEsfV/q+NHa3HMsGTNmTG4ylkUPDBTspkThLqm9rXMonOL4RqEUf1Q+55nBPLLJoG7S9lWB2gpcdtllsYtzCoELy1X9TdbW2rkp0J0EqJBFwCiVz6e8M5wgFI3FiEdwr0FPR5yzecYuMZhSlbzSPHxVQIGZAvQyTED30EMPzd37z/w2/x3xt+w1eIr9cQ/A46jae94u269XCjxy4Z8Csil7r732WnxL7VNqmqabgnHjxsVaIdQMIbhKUJi/Ys2Q07x45cBC4lmt1FKnNW+pQqVUYMKzc1O/8ExL18s8H5ZCn3QjQYEINffJD39EyWmBm1ryMl02pe7ggE0pdYXMZ2r/F3adnMZbc801Y8Cbz3RDlK0lS54YRiLQnLzigOZ/BI1TrX2erUMrBBJ5pys5nJkHr2ldJk2aFNeFaUuldFPHttxrr71ilywUtqXhhdOlWgOFw/mcgtYUqGW7baaLBxL5MimggAIKKKCAAgp0jAA34VzPlWoB2tqlcuNPLzVcTxMoLXXt3dr5Mh9a/NLlF3/Mn0B0YQuwaudLkPQvf/lLvLfgupwKoTxahOt6aph3VUCX/NNVKTdm1Lilgik14rmOpxJs9lm7VFodO3ZsvHnjWVcpcU/FNqCwJVWW5bvCwto0vq8KKNB9BKi5T8CT4yC/de7nOVaQOEZUe/wotca0wqUL1vSYJMojqBhy1113xcc1sSwqlGR78qLXMyrZtPc8wrpcfvnl8ZjGsYvjG8ljV6mt5XAFWi9Az4H8ximn4zqBFnYUEFPWSE966Y8yRH+Trfd1CgW6swD3HBwfqBhG4j6RIO3DDz8cjwe855iRHqPAvdPtt98eaETGPSDl+jy20aSAAtUJELejMjxxPYKy6RzMa6rInT1v06MvlebTH4/UIhEDJYbW3vN22Za6BB432GCDeFCgf2ie50o3Z9Tkf+yxx2JGKFihpcDee+8dW6ieccYZMWDIxTzRa1aMwpZsoUacsOAfBx9uLlghEl0vl0oEfOnOjW7daH1KV2vUCCX4TPBy3XXXjYVGINNqdt99940tGzjQpUIUWqwWS9RQId8UHFGDltquBDFTIhh8/vnnh4MOOigNyr1SUEWk/sADD4zdHvAcMQqZ6AaB6bjZoTYu3xem0aNHx64Q6IaZA3Bq0YsDgWTWk25WeI7xzjvvHA/C3BwyT7pdKZXo0olEa2Na+XLjiAmBcxIFTGzX1PqZfLINU5A9jvS/fzz7mEInAsI8t5d9g5tG5kfac88946v/FFBAAQUUUEABBepfgOt5rhW57qt1t8W0MuVZsVyD7rrrru0KINx7773x2p+ABYnrTwLF9MaTerTpKm3c9t9///g8XCqOkqiAWvjIFALQ/BEApqumVIGT3oF41g5dMKfENXd6rEsa5qsCCnRPAe7dCayeddZZcQU4BnDMSJXJqzl+lFpz5ksZSDpeUEZC+cuoUaNyk3D8XWyxxXKf6SmgWAWe1la6YVlUuKGlT0oEj+k5waSAAq0XKPYbpBJGal2fHnd29dVXt5g5DVz8TbZgcYACs7QAgVmOD3S5TCJwRAUQKlyltOWWW8YAFMcXYjNU9koNw2iIV6xn0zStrwookC9ABUauvYmDpVhYGoOK98Qas+ft9F3hazrft/e83dBc2NJUOPPsZ4KGHBAI5mUTAdgRI0YEgropM7Tm5YHb2We8chPDQ7op8KB7saOOOirWLMsWXKT5XnLJJbmDDwUdqbtf8pC6A0jPxyUCfs4558QIeZqegCWtYVMLY8YhEJoKTRiPcY488siyrUo5yNG6OCVax9ICmEKvH//4x3HwscceGzg4Fku0Vj7zzDMDgdpsYh0I+tJSNiXmR4CVgh+6pmNdSQR/CcKm1rHUBuDm7He/+12aNLbaJUBMywcS1tzEsa3o6i6la665JtbeSZ+5ieOgf+mll8ZB3GCutdZacdtQk4d0+OGHx/Wlm212MtaHxA58+umn5+28FFyxXVNei+WDQqyRI0fGHZztZlJAAQUUUEABBRSYtQWo2Mj1eKo8OCus7ScfNz9iZej8RVeFljPc82RbwHFfwPNxuf+g0iv3AeneKTsT7gHokgmrWgfYs8vxvQIKdJxAueMDLenoaYugbrFU7PhRbLxqhrEsjr0sq1Zd9ZdaLsctlsVxr1JF/lLzcLgCs4tAuWNErQz8TdZK0vko0LkCtTo+ENjlvqLYNQA9j3K9QU8i/fv379wVdGkKKFBUoJrz9vRp08OQ+Wa2rKeXnopB3bQ0muVT254ufgjo0iVwqQIHAn/UnqfWR7ZQI82rlq+sOC2HOVjx3KpiNy2MQ1clqavoYuMU5okbIaLrPLeLdW1LYh48h5eup6kdW6wL6hTU5ZnFBKMJymJWapkEd8kXhWT4ltoGhfnlRotauRQm4URhEtuJg3k2b9Q44CCPVbECpzRfxmN+zCsbpE7f+6qAAgoooIACCiigQHcRoCea9IgX8lz4Oa1HawtcUlCXCqL0eGRSQIFZV6C1x4dZV8I1U0CBYgIeI4qpOEwBBRDw+OB+oIACpQSKBXXLdr+cnRF9RWe77cl+V/iePtk7q192gq7ZVqmFeeEz46QuiYp9X2wYwdJq17fY9AxjHtnCoVLjpeGMXymfBKTbUiBEDZzCvBTbTtXWrmW8SnlN6+WrAgoooIACCiiggAKzowD3Icsss0x87s7suP6uswIKKKCAAgoooIACCiiggAIK1E6g6qBu7RbpnBRQQAEFFFBAAQUUUECBWV+A3oR4nIlJAQUUUEABBRRQQAEFFFBAAQUUaK+AQd32CrZz+jPOOCPQTXNntWxuZ3adXAEFFFBAAQUUUEABBRRQQAEFFFBAAQUUUEABBRRQQAEFOlnAoG4ngxcubvDgwYWD/KyAAgoooIACCiiggAIKKKCAAgoooIACCiiggAIKKKCAAgrkBHrk3vlGAQUUUEABBRRQQAEFFFBAAQUUUEABBRRQQAEFFFBAAQUUUKDuBAzq1t0mMUMKKKCAAgoooIACCiiggAIKKKCAAgoooIACCiiggAIKKKDATAGDujMtfKeAAgoooIACCiiggAIKKKCAAgoooIACCiiggAIKKKCAAgrUnYBB3brbJGZIAQUUUEABBRRQQAEFFFBAAQUUUEABBRRQQAEFFFBAAQUUmClgUHemhe8UUEABBRRQQAEFFFBgNhRYaqml8ta68HPel35QQAEFFFBAAQUUUEABBRRQQAEFukDAoG4XoLtIBRRQQAEFFFBAAQUUUEABBRRQQAEFFFBAAQUUUEABBRRQoFoBg7rVSjmeAgoooIACCiiggAIKKKCAAgoooIACCiiggAIKKKCAAgoo0AUCvcaMGdMFi3WRCiiggAIKKKCAAgoooED3E5jw5YTul2lzrIACnSLg8aFTmF2IAt1WwGNEt910ZlyBDhfw+NDhxC5AgW4pMHzY8Bb57vWNb3wjDnzxxRfDCius0GKE9gzo8fZVeZM3DhuR99kPCiiggAIKKKCAAgoooEB3ERjz2piw0sordZfsmk8FFOhEgeefe97jQyd6uygFupuAx4jutsXMrwKdJ+DxofOsXZIC3U3gg/c/aJFlu19uQeIABRRQQAEFFFBAAQUUUEABBRRQQAEFFFBAAQUUUEABBRRQoH4EKgZ177333jDHHHOEE088sVNyPWHChPDjH/84/j300EN5y7z77rtz302ZMiU0NjaGfffdNw4766yz8sZ94403cuNOnDgxvPrqq7nPvG9NOuaYY+K0l112Wd5k77//fm6ezz33XN53lT7ccccduWmffvrpSqP7vQIKKKCAAgoooIACCiiggAIKKKCAAgoooIACCiiggAIKzKYCvapd75NOOimOevTRR1c7SZvGe+aZZ8LVV18dp/3pT3+aN4+bbropfjfffPOFvn37xkDtX/7yl9w4e+65Z5h33nnj50ceeSQ37pxzzhnuv//+3HxPO+203DSV3kyaNCmceeaZcbSVV145b/S0DAa2xuXrr78Oe++9d/j000/j/NZYY42w2mqr5c3bDwoooIACCiiggAIKKFB/AtM/fjA0ThgTQuO0mZnr0Tv0GLhU6DX0WzOH+U4BBRRQQAEFFFBAAQUUUEABBRSooUDFoO63v/3tcNttt4UtttgidEZg96mnnsqt3oorrph7z5vUcpc8kQgAZ9P1118fUiA4zWeDDTaIozz22GPxdeGFFw5DhgzJTlb2Pc8aTik9fzh9fuKJJ+LbAQMGhOHDh6fBFV/POeecXECXkbPLqDhxHY3w5Zdfhl69esWW3HWULbOigAIKKKCAAgoooECHCMzf663Q+PnHLefdHOBt/PylML35m0qB3bfffjs8/PDDYeedd87N5+OPPw733XdfoIchKq9+85vfDEsssUTu+8I3Dz74YJg6dWrYaKONcl+98MIL4dlnnw3Tpk0Lc889d/xu4MCBue99o4ACCiiggAIKKKCAAgoooIAC3VugYvfLrB5B1F/96ldxTQns0iVzR6VHH300zpqWq7SwTYkCjtRN8VprrRUHp0BtGufSSy9NbwOtaEkUiJDS5/XXXz9+rvbfk08+mRt1lVVWyb3nTXaeF198cQx8n3DCCblxRo0aFYftsssuYfp0inhCoFvoFBzfbbfd4rDWdt0cJyr49/jjj4d77rmnYGjHfrzuuusCXWKXS//85z/Da6+9Vm6Uuv+uK2zrHsUMKqCAAgoooIACs6HAwB5jy651bMFbYox333033HXXXWH06NG5e4M06u233x4Dsdtss01YcMEFY4B38uTJ6evc6/PPPx9uvfXWeH1NUDcl5s01K/dQW221VWhqaooVc9P3viqggAIKKKCAAgoooIACCiigQPcXqCqoy2rSvXAK7NJqt6MCu2m+6667bp4uBRgppRazKajKM3hJBEdpvUvt9BQcZlye0/vSSy/FcVJAOH6o4l8KHC+99NKxoCVNwjIeeOCB3DwJOpN3CmlIFMIceuihcRhBcVq0ko444oj4usMOO4Rdd901vievPB+4NYnlZ9MHH3wQ3nzzzeyg+H7GjBkthqUB6TsKfdL79F2518JlZ8fNFi4x/PXXX89rlcwwAtytXd+Uv1J5ZX5pHJZRTSo1fuH6lbKtZhmOo4ACCiiggAIKKDDrCPQIpa+t41pmu2QuWO0ePXrE+4mhQ4cWfNPck3PztSw9//AomaWWWuq/sypyf9C7d+8w//zzh/79++fNg6AurXOXX375wKNqeGwM9yckKlnS49E111wT/vznP8d7GO4/eM9fqsT6ySefBCptXnHFFYFH3BT2ipS3QD8ooIACCiiggAIKKKCAAgoooECnC1Tsfjmbo/TcWFqaEtilW+bUFXJ2vLa+//DDD3MBwDXXXDNvNqmwgYEUUkyZMiUXuN1+++3DRx99FG655ZZw1VVXhdQClnFpXZttCZsCwnyXEoHCL774In2Mr/369Qv80TUa6Vvfyn8+1ssvvxyH82/11VcPPCeXRACQdOWVV8Z1obvnFHT+z3/+E3guMOnXv/516NmzZ3zPv/fffz8suuiiuc+l3rCetEgmaNzQ0BAIUlO4Q8180nnnnRdGjhwZ/va3v8WCGNZt0KBBYffdd48FPKecckqswU9AfLvttgvvvPNOriCH5e+11155+crm46233orPJWbZLJNA9UILLRRHobCI7qhZHsP32GOP8O9//zt89tlnsTUBr7SaJu+pgIkCK/JVKlWTVwyuvfba8Morr8RlU8g1fvz4cOyxxwaenfz9738/dl1Hvn7zm9+EX/7yl3H9KKxiWzH92muvHVs0YHjzzTfH+VDotuOOO8ZxCm1L5dfhCiiggAIKKKCAAgqUEuC+gL9XX301jB2b3+KXCqQEXrkneO+99wKB32yvRWmeyy67bHzLtXW2giL3BNlKk/QOxL0MiWtves5Zb731Ao9PIVhLF888poZ7Ae6VuEeiwirTbLLJJrGyKL0kESTu06dPnI//FFBAAQUUUEABBRRQQAEFFFCgawWqbqnbGdlM3SuzLLoOy6bUYpaCBYKUqeUt4xC4JRhJuvzyy3PdIqfWtdmA8EorrRTHy/4jIEg3Z9k/aq1//vnnua6DywWZKQRZbLHF4ixpLUvA+fjjj4+fTz/99FhowrCDDz44DuPZV1999VUgiJ0Seagm0RJ4rrnmigFKgtesG/NbddVVYx7222+/GOClsOYnP/lJDG7yzF9q25Nohco0qUtonrt1yCGHhMMPPzwGYAnUl0oEzAnEHnfccXH6SZMmxVFxIvBJIJfAKa0DCBoTzGZbbbrpprESAEFenutFwHXfffcNY8aMiVallldNXlkOBWP7779/OOaYY2JAOXV1zfTpPcugoIu/G2+8MQ6nkgJezIOCrzvvvDMGyVkHAr33339/zHvWtlReHa6AAgoooIACCiigQFsFCLZynfrpp5/GYC33DoW9x5SbN5UqCb5SkZH7BYLD66yzTm6S5ZZbLiy55JK5eywqpS6++OLxPoqRuGamUiOVN+l5h3ufWlbezWXENwoooIACCiiggAIKKKCAAgoo0GaBVrXUPfHEE3PPg611K13WIPvs1WWWWSa3UhRopBauPGeKlAK1BBBpnbn55pvHYCIFIUcddVQch9ropBQQpoUvAdHCRBfB1JrPJmq7MzylwmAwrW5Ja6yxRlwuBSgpXXLJJbFAhu9oRUy68MILc90j8+zblLc0DYHJzTbbLH0s+UpQ+4UXXogtcglaE8ykAIeWs7T85T3fE3xdZJFF4ny++93vhgsuuCBXMETtewp2CFwzTbKl1SotkLfeeusWyydwS+ES/hT4sOzUdRxdvRGwppY/LZs//vjjQCCZPDFuatVLEJpgPMHdZEsBEi0FSqVKeR08eHBeXsj7H//4x1Kzi8MJ4NJlHS18SRgQ3MaMAC8teFm/PffcM36XtY0T+E8BBRRQQAEFFFBAgRoJcJ1NZU/uZ6hkSoCXSohUFs3eE1VaHNNxnc01O9fQ2V6ACrtrpuIliWv1lNZff/1w9913hzvuuCP2ZsP90bBhw9LXviqggAIKKKCAAgoooIACCiigQBcLVB3U5XmxdLtM6oiALvPNFjbcfvvtsUtcuhU79dRTY+EG4xCgJNHVL4luw0gE3mgZmh03ta598MEH4zgE6ui+OJsIPhKoTMHi7HfZ1sB07Uz3wQQAWX+6NybttNNO8ZXgckqHHXZYfEv3wRSUUEhz5JFHxmE8K5ha8ikxLwLRL774YhpU9pVWyQRraYlLEJVu2g444IC8aQgwZwtoyDMpBZ4JgqfPc8wxR67Ah4IfWtIWS2naNC/GScugJQCB7BVXXDEGiylIKpYuu+yy2NUcAfOtttoqdpVdbLzssEp5xYFgdErZ/KVhvGZbOrAuQ4YMyQW9WW/+2C7sMwTF2WdoqZueI52dl+8VUEABBRRQQAEFZk+BxtAzlH2ubo/erYZJXTGn617uT+gGedy4cVXPi9a1PA6FaXnESrlKk6VmSkth7rW4/6IXIa6zuR/iGt+kgAIKKKCAAgoooIACCiiggAJdLzCzanaZvBDQ5Rm6JIJcHdUV10bN3QintMMOO8QWuLSsPfnkk+NguvclsEoimElKgVve/+j/s3cfUFIVaQOGS8QAZsCIImZFTIgYUTFixuwuJkTMuu6/RsxZdw2whsWECTGzKgZEAQMKZlRMiIABzAkjiPjzllvtneb2zBCGSW+dM9PdN9Z97sC5XV99Vfvvz0uhMCzy559/HocfYyGBWIYZy/6Ul9XJnFVsS7n00ktjli9B0JR9S5CY4XspBBbJok2FIHEKOKe5iGlkodf99ddfX/jp2LFj3CU77286Rt4rgVGyhDt06BCOPPLIeF6ukZKGGqZHP1nPzC1LAHPAgAExYJ7mw0pBULZjji0yirmnDIfMvFp5ZbHFFotZwByLQqA6BcjJuuXYzF/bqlWraJ6CwGybAqoEfzkPdWceMAqNR+WViurKPeJayXCgkFmQCoH+lBFMgDYVArjMgUxdCLIzfxgNYWSi03hGti/Xkh32LtmmY/iqgAIKKKCAAgooUP8EJk5tVu5FN1h45XLX561MnUMZXYiAKs/MTHOy1FJLxed7votlp23JO8arr74aO1zy3YKOlzx/z+jzK8/RjLrD9x2+1/Acnn2mzzuvyxRQQAEFFFBAAQUUUEABBRRQYM4JVJipWxzQTQHKqqgimZIEDU888cSYhcoQYqkwXypzv1KYjzZl0Wbn3mV/AsNPThvemEKAkYBdeYXAb6lCgwj1Oe6442J2bnY7gn6XXHJJbPRIywmSpnqlOXVfeOGF0Ldv37gJ26ehztI+DPlLYbvKFOanvXnavMHM+0pAtGnTpoHAJu+Z1/byyy+PTgwx3LNnz9gYQ8D1wAMPLBw+BUqZN5ZhnwlYs4ws3eLAeGGnaW+Yh5drSXMfEzSl0HufodqoE8dhWGYCrQzDzJBtzFVLEJftGBKOoDQOzP117733FuZDjgcr+lVRXbk2Mgm4brYlcJ4KQ1xzLoZUximV3XffPQbVU325BzRc8bfzwAMPBLKyaQTjb4trbNmyZcH2//7v/9JhfFVAAQUUUEABBRSoZwKfT2kZmizRJEydOHpa78Rf/7z6aRm6BHQbLrnJn8sq+Y7nYkbjoZMnz7UUnj/pXEpwl2GY2YahmUsVgr50UrzjjjsKm/BsnP0OUFhR4g2j6fDdady4cTGYy3M1nVgtCiiggAIKKKCAAgoooIACCihQMwTmmtZQECeDZfhfgqDFJQV1ydCd0YBugw9uL3O4qct3LvO5vA80TJA1yXytyyyzTGGo3/L2qcp1aa4rgohkevJaXYUe8xMnTox1oCd9qUJg8pdffsmdRzi7Dz35yQpgmDdeGWqtuJCpm7KWOTeNPCngyrYElVlOYJhgOIH3vPmLyQxmP+pNJiyB+7zs4BYtWsQhkovrka1rdh2NWNSd81555ZUhBdU5Bw7Zob3TfjSSEbQluJwKx+A6qHsKWqd1viqggAIKKKCAAgrUb4HR740OrddqXSUIPOMzmgzPyaWmFKmSE2cOmurAc/DMDOGcOZRvFah3AiPfGFll/z/UO0wvWIE6KOD/EXXwpnpJCswmAf9/mE2QHkaBOigwYfyE0GzxP0cMYwTjP6NZJS6YIWoJfs3pQk/08nqjz+n6EFzmpyYUgqLFGb959SJYmRdYLd6WRptsAJOgZnHJNurkzbtLIDfrU+q8jRs3LhyaYxKEzTtfqXl5i+uaDpaC7BwvWzhHtu7ZdXkBcRrQCGBbFFBAAQUUUEABBRSYkwI845d6hp5T9agJdZhT1+p5FFBAAQUUUEABBRRQQAEFFKhtAhUGdWvbBVnfWRMgqMkwxHOqMCzy7DxfkyZNwiGHHDKnqu95FFBAAQUUUEABBRRQQAEFFFBAAQUUUEABBRRQQAEFFKhygQZVfgZPoMAcFCAo3XLaHGQWBRRQQAEFFFBAAQUUUEABBRRQQAEFFFBAAQUUUEABBeqKgEHdunInvQ4FFFBAAQUUUEABBRRQQAEFFFBAAQUUUEABBRRQQAEFFKiTAlU6/PLU5TvXSTQvSgEFFFBAAQUUUEABBRRQQAEFFFBAAQUUUEABBRRQQAEFFJhTAmbqzilpz6OAAgoooIACCiiggAIKKKCAAgoooIACCiiggAIKKKCAAgrMhIBB3ZlAcxcFFFBAAQUUUEABBRRQQAEFFFBAAQUUUEABBRRQQAEFFFBgTgkY1J1T0p5HAQUUUEABBRRQQAEFFFBAAQUUUEABBRRQQAEFFFBAAQUUmAkBg7ozgeYuCiiggAIKKKCAAgoooIACCiiggAIKKKCAAgoooIACCiigwJwSMKg7p6Q9jwIKKKCAAgoooIACCiiggAIKKKCAAgoooIACCiiggAIKKDATAgZ1ZwLNXRRQQAEFFFBAAQUUUEABBRRQQAEFFFBAAQUUUEABBRRQQIE5JWBQd05Jex4FFFBAAQUUUEABBRRQQAEFFFBAAQUUUEABBRRQQAEFFFBgJgQazsQ+ld6lwQe3l9l26vKdy3z2gwIKKKCAAgoooIACCiiggAIKKKCAAgoooIACCiiggAIKKKBA+QJm6pbv41oFFFBAAQUUUEABBRRQQAEFFFBAAQUUUEABBRRQQAEFFFCgWgUM6lYrvydXQAEFFFBAAQUUUEABBRRQQAEFFFBAAQUUUEABBRRQQAEFyhcwqFu+j2sVUEABBRRQQAEFFFBAAQUUUEABBRRQQAEFFFBAAQUUUECBahWocUHdrl27hn79+uWiHH300eGOO+6I6wYPHhzY9umnn55u22eeeSZ069Yt/PTTT3Fdr169Qvfu3afbrqIFla1LRcdJ68eNGxfrfOmll6ZFviqggAIKKKCAAgoooIACCiiggAIKKKCAAgoooIACCiiggALlCtS4oG7fvn3DK6+8klvp3r17hxdffDGuGzVqVGDbQw45JHz//fdltid42qdPnzB58uS4fOjQoeH+++8vs01lPlS2LpU5FttQJ455xhlnhC+++KKyu7mdAgoooIACCiiggAIK1BOBKZ89Fya/d2uY/O6Nf/5M+8xyiwIKKKCAAgoooIACCiiggAIK1F+BhrX90sePHx/OPvvscNlll9XoS5kyZUq47rrrYqbujTfeGO68885w7LHH1rg6f/3112HhhRcODRvW+j+N2WL77bffht9++y00bdp0thxvRg7yyy+/xI4J3I9ZKT/++GOYa665QuPGjWflMO6rgAIKKKCAAgooUMUCBG6nfvv29GeZ+mtcPmXamoZLbjL9+sySSZMmhbvuuivsvffeoVGjRnHNzz//HBjp6Kuvvgpzzz13WGWVVUK7du0ye/3xlufPIUOGhC+//DJut+qqq4a2bdvGlW+++WYYOXJkYZ8GDRrEcxQW+EYBBRRQQAEFFFBAAQUUUEABBapUoMZl6s7o1Z522mnhmmuuCcOGDZvRXWfL9jSa7LzzzoFAbbb8+9//Dvvvv39h0aBBg2J27lFHHRU6deoUrr/++vD7778X1lfFmwcffDC89957M3Toq666Knz44Yfl7kNwOg1tXe6GNXhlZa5h4MCBoUePHuGpp56qlit54YUXws0331zuuStzj8lSf/jhh8s9jisVUEABBRRQQAEFql9g6sTR5VaivPXfffddYBqa++67L37PmDp1auFYTz75ZHx+79ixY1h//fXD22+/HcaOHVtYn94Q0J04cWLYdtttYzCXQO7o0X/U6aOPPoodHTfddNPAzyablB9cTsf0VQEFFFBAAQUUUEABBRRQQAEFZo9ArQ/qHnfccWHdddcNhx9+eKAH+pwu8803X8yA7NmzZ+HUNKAwb+7yyy9fWHbTTTfFerZq1Sr85S9/icHW559/vrC+sm/IGi1Vite9//77lR7m+ddff809LNdSvO7jjz8OBLOzhaGuZyRIna1r9n32mMXnza4r9T7vWFwDmdLZkncN2fW8f+edd8Lmm28e9thjjzKrsufIvs9uxDn5SaX4/Gl53ivHzO6b3SYNKZ6W5d1jzlVq/1L1zbt/HCOv3tznUsdJ9fJVAQUUUEABBRRQYCYEpmXkllvKWc/ILAsssEBYaaWVpjsEz3qLL754WGKJJWKWLtsWP8+zE1PEtGnTJiy11FKBLF32SUFdgsZ8vyH7l+M0b948nmf48OExu7dfv37h1ltvDQ888EAYM2ZMnHaGz48++mjcjvOx7pZbbonbPf744zP0/SEexF8KKKCAAgoooIACCiiggAIK1GOBWj/G7jzzzBN69eoVNtpoo3DxxReHc845Z47fTjJy99133/DGG2+EtdZaK7z00kuxQWSfffaJdfn0009jA8bll18eP9PzfaGFFooNGtS7MoXMWLKBGQqNRpgmTZqEli1bhl133TW8+uqroX///jEAx3G7du0a7r777vDNN9+EAQMGxNeddtop9zTPPvtsoEGFAN4iiyxSCNYRUL3hhhvCJ598EvfjuAwXfckll8TPZLB27tw59vincYYgH/XaeuutYyA072TPPfdceOutt+I+BOAPPPDA2KDD8MDcxz333DMQ9GZOZOYeZvg3ltNwtM4668Qh4q644oo43DbHf/fdd8NDDz0U/vGPf8R60mhUfCwyFV5//fXYYMTww4cddli48sory1wDDVbFhWvHmixd6vHaa6/FoDyB+N122y1mNrCMACduXAuNXv/85z9jBgOZDKzj/o4YMSJ2OJh//vnDMcccE4e3Lj4fn5kbmuB/usccNw2DTUbuyy+/HI/JsoMOOig2kGXv8QYbbBCYdzplUa+88sqxXhybhjX+bXCfuJfMRc2Q0tQt7/7lufE3x7ZpzuvlllsudOnSJQ7NxzksCiiggAIKKKCAAtUnwJQdBGR5dqVzYrbwLP3000/HIZiZboVn7BVXXDG7SezImZ5t0wqeG3k2ZTnHZXQk3lNat24ds3559uTZl+9BzZo1C2QFDx06NK7juZWgL98pGA3ohx9+CNttt118Zue7Ac+oeUHodH5fFVBAAQUUUEABBRRQQAEFFFDgT4Fan6nLpdBIceqpp8aAGoG2GS0EX2kAST8p6FfZ49AwQYMHgTcKr2ussUasF5+Z04rCUMhk8F599dWxwePmaUPr0uO9MoUgG1mT3bt3D0cccUScD4uGFeZ8ZXjd/fbbLwY7l1lmmdCnT58Y2CUoSJB1++23zz0Fc2o99thjMUh59rR5iWmYSY00KTB98sknB4a4JghLEPWUU06JxzryyCMDQUOCqhtuuGEMGG622WblDoNNoJjGHIKBhx56aAxq0/hDsJE64sQ2t99+ezw2deK6GAKO5dQtm4FKgDJlGNDjv/hYNBrx90DA9ayzzoqBcIY0Lr6GPByCpgQxydTl/nJ+gpnUh0wHjtutW7dw5plnxnt/2223xcOwjnqdccYZMaBLwxfDc/OZ+hNgLlXIbkj3+Pjjjy9knnOPuR/UCSuCxwSXCd5n7zFZEDTmUSeC12RVJB/uH/WlHmzD3wgl7/6xT54bnQeo/9///vfA3wUBZf5+LAoooIACCiiggAI1W4DnaZ5FCdDyHYL3dIbMlvSczVy5qTD/LsvZlhGKGHaZDq2rr756nF+X51QKz6R8l2rRokXMFuY7yZprrhlWW221wPEI/PLKczIdGemcSkdXnmstCiiggAIKKKCAAgoooIACCihQOYEal6lLcJRszuJCtiuFbMe8ctJJJ4V77703Bq4YinlGyg477BDosZ4KwUFKZetCnQ444IAYjCS4fOeddwaGhabQYHLttdfGY9FjPZWUgUkgj2zHisoHH3wQyLalMYXh0NLQzqkXPkE+fmhwobGGBhgaTuiFn85VfA6CtGTBrrfeenEVwUt6zFPIMKUxhkxeet4TbCRgyfkpvHL8E044IQYACTqPGjUqrivvF/vtvvvuMVBL485nn31WCDCmoCdBRa6V46+yyiphySWXLO+QJY/FEMs0MBEkJhOBTFY6AHBcSrqGvIPjVuy31VZbxQYsAsgEtJdddtm4K9nSzOtM4JfSvn376E/wmuza9Pe06KKLRsO4Uc4vnJnnjL8nftq2bRsD6exHkJdMcDIdMONvs7iO/A0yPxrBXYZlpqThk6kv95Oy4447xjmdaaDLu3+45LkRCObviqxwCpnZ/P1xPIsCCiiggAIKKKBAzRWgwx6BWDpjEljl2Z0Oi3QATYXnPEp6fuQ9z7c8Ey+44IKxcyPLKByHZ/8JEybEz3ynSIXt6USYCs+MlLXXXjt+T6HTIz8842bPn7b3VQEFFFBAAQUUUEABBRRQQAEF8gVqXFCXbFGCUgQmGb4rlYcffji+JQM2rxAEu+6660KHDh1iNmPeNqWWlQqqzkhdmCeXwB7D544fPz7stdde8XQESceOHRsDvQzbmwoBTAKW1LnU+dO2vLI9P6nQGENhGQ0wBBBTocEm9bRPy0q9pkYW1vM+fSYAPWjQoNhgQ6PN559/Pt0hqAOZx9wngqUEAl988cXptssuoEGIkupHb/7UgMQ1kB1LSct4n4KwvM+WFEQtdSzm+iIYSuDxzTffjEMHk2lKxuvMFI5HwTxbp1TXdH/SZyyz21V0zlLH5e+JvxOyHbi3Kfu2+Hhp6OZ27doFOioQzE4lW4/0nga7Uvcvz41j0WCX/tZ4zTbYpXP5qoACCiiggAIKKDCTAg3mmfagXM68uqyfwULHTJ6Xl1566bgnz6p0EuX7VrbQEZTnVzq7sp7CqEJMYcLwyXQyLZ46Jj2HZ49T6j0ZwnR+5HsbxyKwSwfSUqMKlTqOyxVQQAEFFFBAAQUUUEABBRSorwJ/jq1VQwQYNpbC/KoEqch0THPlkp1YXlYgjQzM+/rFF19MdzU0WjAscvEPAddSZUbqQlYlQVrmTGUosZQVSVYn9S5urKDBhHlNmdO0vCF5U92aN28ennnmmdhbnoxOslApzAdLcLXltCHMttxyyxhwZJjclJ2bAp/pONlX9iVbluxOCgHo1DBDFu8KK6wQg4MMi5aGaUv7c1yG36WR6K9//WsM/qZs6rRN3msKGtMzf9555431pd7MpcX8tQROWc5cwBQakNJxUwbAuGlz7lJPMpMppY7F8MvnnXdewI4htsnUzQany7OJBy76leqOG0Np0+BFIJa6LrDAArHeRbvM0Ecyf5nrjGAr3gy5TCHrFpO99947zjnMNaQAMuvTdRD8ZbhoOjZwbyjpflLftGzIkCHxb5Jh+PLuH/9W8tzS38v6668fz8PwzgynbVFAAQUUUEABBRSYPQINFl653ANVtD5vZ54j+W5Ati5TcvCMzPeJpk2bxs35vpW+Dyy22GJxdBi24zmc50c6YfIczPeD9N1p5MiR8TkzjVyTd97iZXT+TFN3MIoOnT2zz7TF2/tZAQUUUEABBRRQQAEFFFBAAYtPYrUAAEAASURBVAXKCtS4TF3mLGVuJuYFPeqoowq1XXfddWMmbGp8SCtS1mH6zH4MaUyAKxUaMZi7ad99902LCq9k1xK8zCszWhcybpnzlnmmKJyTuVa5DnqkFxeyeQmekVHJcGTlFba98cYb4/ZcD1mxNNDgwbDABMBpbGEZWcMUhmgm25bGmE6dOk13eDJsCQAyXDT7MpxvClwSpMbx3HPPjVmznI9GGLJACaJeddVVcQg23l922WVxPxp1CEbS4575topLOnZajm/fvn0DWcGsoy4ER9NyAt6UFKBmWGCCv717944ZsNk5uNI+2WPRAMWww1dccUW8BgKcKVs6XQNWpbK/Uz3Ta6r/xhtvHMaMGRN69uwZ64058/bmlbRP3rriZXRkICOXvwlKymomQ5dALPPpcjyGoyZIyzDM2XvMdmS5Dxw4MP594MaQ5NSPnx49esTjcp/TnMF5948Guzw3srEZZo/sXupBlm76W48H9pcCCiiggAIKKKDALAk0XHKTMGXaEaZOHF02Y3dahi4BXdbPTKHjHx0o77777rg7z3E801J4vuMzz8Rk0vI8mbbjeZuRYnj2owMrHRDpaEqhox/PkpV53mUbOlg+8sgj8bsPn8kY3myzzeKx/KWAAgoooIACCiiggAIKKKCAAhULzDWtF3Yc05d5bFu1alXxHjOwRYMP/hz+ld2mLt+50nuTfUqG5ldffRXnLk3D8lb6ALNxw5pQF7I2CfLRmEIgm0AqAUo+UwhYknWbAoHZy2fYtDTHanY5QU8Cu+zLXLxkFGcLGaD00qeRh20I2DL8WnEh45MsWoKFHId7VjycG/vw95UX3Cb4XXxutue4LCeYTeZzytJmewK8BCqLS96xGK44XUdxJ4CKbIqPn/2cMmrzzLPbZd/zt0SWRHEhKyJ1LsCQ60vBbLbFHw/uBddAhkXeefkboJGM+8F1sy33hZK9n3HB/34V3z/2Zb9SbhyH68i7l9nj+l4BBRRQQAEFFKhrAqPfGx1ar9W61l4Wz4o8Y+Y9R2cviu14hkzPkWlded850jYVvXJsMnTpzGlRoC4JjHxjZK3+/6Eu3QuvRYGaKOD/ETXxrlgnBWqGgP8/1Iz7YC0UqIkCE8ZPCM0W/3OaWqYxqnGZugmOntsMm8tPdZeaUpc77rgjZmaSeUvQjazVVPicF+RjPcFHAnfFJc3Nyr55QdVsQw7b5AV0OSaBxlRonGGotrzzEQjMK3nnZrvscbP7ldqebfLWESDlJ69UZJO3T1pGg1gp87RN3mueTbZ+eQ1c+JMJkUqp82bvUfaY7Je9n+k4vGads+cu5VbqONlj+l4BBRRQQAEFFFCg5glknxXLq12p7cr7zlHe8bLrSh07u43vFVBAAQUUUEABBRRQQAEFFFBgeoEaG9Sdvqr1ewnDITP3FMP+ktFZPAx1eTpsu+W0eWvnVGHoXn5mV2Ho6OIsgdl17DltQweBOXkvZpeTx1FAAQUUUEABBRRQQAEFFFBAAQUUUEABBRRQQAEFFKg+AYO61Wc/w2dmCOrqHIZ6his8m3ZgiGiLAgoooIACCiiggAIKKKCAAgoooIACCiiggAIKKKCAAvVVoEF9vXCvWwEFFFBAAQUUUEABBRRQQAEFFFBAAQUUUEABBRRQQAEFFKgNAlWaqTt1+c61wcA6KqCAAgoooIACCiiggAIKKKCAAgoooIACCiiggAIKKKCAAjVWwEzdGntrrJgCCiiggAIKKKCAAgoooIACCiiggAIKKKCAAgoooIACCigQgkFd/woUUEABBRRQQAEFFFBAAQUUUEABBRRQQAEFFFBAAQUUUECBGixgULcG3xyrpoACCiiggAIKKKCAAgoooIACCiiggAIKKKCAAgoooIACChjU9W9AAQUUUEABBRRQQAEFFFBAAQUUUEABBRRQQAEFFFBAAQUUqMECBnVr8M2xagoooIACCiiggAIKKKCAAgoooIACCiiggAIKKKCAAgoooIBBXf8GFFBAAQUUUEABBRRQQAEFFFBAAQUUUEABBRRQQAEFFFBAgRosYFC3Bt8cq6aAAgoooIACCiiggAIKKKCAAgoooIACCiiggAIKKKCAAgo0rEqCBh/cXubwU5fvXOazHxRQQAEFFFBAAQUUUEABBRRQQAEFFFBAAQUUUEABBRRQQAEFyhcwU7d8H9cqoIACCiiggAIKKKCAAgoooIACCiiggAIKKKCAAgoooIAC1SpgULda+T25AgoooIACCiiggAIKKKCAAgoooIACCiiggAIKKKCAAgooUL6AQd3yfVyrgAIKKKCAAgoooIACCiiggAIKKKCAAgoooIACCiiggAIKVKtAjQvqdu3aNfTr1y8X5eijjw533HFHXDd48ODAtk8//fR02z7zzDOhW7du4aefforrevXqFbp37z7ddhUtqGxdKjpOWj9u3LhY50svvTQt8lUBBRRQQAEFFFBAAQUUUEABBRRQQAEFFFBAAQUUUEABBRQoV6DGBXX79u0bXnnlldxK9+7dO7z44otx3ahRowLbHnLIIeH7778vsz3B0z59+oTJkyfH5UOHDg33339/mW0q86GydanMsdiGOnHMM844I3zxxReV3c3tFFBAAQUUUEABBRRQQIEyAlM+ey5Mfu/WMPndG8v+TFvGOosCCiiggAIKKKCAAgoooIACCtQtgRoX1J1R3vHjx4ezzz57Rneb49tPmTIlXHfddTFTl5Pfeeedc7wOeSckIP7zzz/nrXKZAgoooIACCiiggAIK1EABgrZTv307hKm/Tl+7actYV1Fgl1GNHnrooXDbbbfFjqcjRoyY7lh0kmWkJDrU5pVPPvkk3HvvveHWW28N99xzT/joo4/KbDZp0qS4zu8bZVj8oIACCiiggAIKKKCAAgoooMBMCVQY1M0b3jidqbx1aZuqfj3ttNPCNddcE4YNG1bVp8o9Pg0VO++8c7jxxhvLrP/3v/8d9t9//8KyQYMGxezco446KnTq1Clcf/314ffffy+sr643d911VxgyZEh1nd7zKqCAAgoooIACCiigwAwKTJ04usI9KtrmkUceCXQ87dixY1hvvfXCa6+9FhjxKFuefPLJOPoR2xWXX375JTz++ONhqaWWCjvttFNYeuml4/cKln/33XeBKXHuu++++J1n6tSpxbv7WQEFFFBAAQUUUEABBRRQQAEFZlCgwqDuBRdckDtvLQFd1lV3Oe6448K6664bDj/88GrJOJ1vvvlC48aNQ8+ePQsUNFowb+7yyy9fWHbTTTfFerZq1Sr85S9/Ce+99154/vnnC+sr++bXX3N640/b+bfffss9BMvzgseljpN7kP8df0YbY0rViXOUt65UHVyugAIKKKCAAgoooIAC0wTyMnSLYcrZhuf6H3/8MWyyySZh8cUXD2ussUaYf/75w2effVY4yvvvvx8mTpwYv+sUFmbepOlkNttss9C0adOw0UYbxe8dX3/9dZhrrrnCAgssEFZaaaXMHn+8ffDBB2OHXDKAyfB99tlnwwsvvBDf8zlNxfP5558HOqDecsstMZuYoLNFAQUUUEABBRRQQAEFFFBAgfos0LCii3/sscfC9ttvHzfbfPPN42sK6LKuuss888wTevXqFRsRLr744nDOOefM8SqRkbvvvvuGN954I6y11lrhpZdeilm5++yzT6zLp59+Gh544IFw+eWXx8/bbrttWGihhWIDBY0flSkck+HRCNA2aNAg7LnnnqF169bh1VdfDf3794+97Dlm165dQ8OGDUOPHj1ib3mGQKNRhexgeuDT+555felBjx3bLrPMMiWrwPDMBKS//PLLeBwabAhkE0S/5JJLwt577x1WXHHFWC/sTzzxxDD33HPHa5swYULcZ8MNNww77LBDbIyhceftt98OTZo0Cd9880049dRT4zZjxoyJ9erevXu8vpIVcoUCCiiggAIKKKCAAgrMkgDfJ/iuQiCXQvCW7wc861MYLnn48OFhxx13DIw4lFeWXXbZeIy0bvToP7KHec7nuG3atInHfOedd9Im8ZVhn+nguummmwa+axCs5ftF+/btw4cffhi/U7EvwV6Os9VWW4WxY8cGhocm+DzvvPOWOZ4fFFBAAQUUUEABBRRQQAEFFKgvAhUGdYHIBnb5TJC3Js2LtM4668Tg4EUXXRT22GMPqjhDhQaN1AjBjl26dAnHHntspY+x3XbbxSAtvc4J6vJKgwP1otDDnELjBRm8lGbNmoWbb745EIheZJFF4rLyftGY0q5du9iwMmDAgDB06NBAQ8r9998fOnfuHFZeeeU431WfPn3CgQceGIO8zZs3j0Fe5rlif4K6t99+e1hllVXCXnvtFeh9zxxa5ZV+/frFYxFs5Z4z1HUqZPtmh2Kjxz8/XD/LTz/99BgMvvbaa8Nqq60WGKoaZ4Z4w+eKK66I83OxjqxlMptpYLIooIACCiiggAIKKKBA1Qo0atQonoCMWIZRpoMo3ykoTzzxRHy/2GKLxc95v+g4moLCBG55nl911VULy/L2SctWX331QhYvQV2+p6ywwgph0UUXjZ1Q+S7B9wICzczr27Zt25hRnPb3VQEFFFBAAQUUUEABBRRQQIH6KFCpoC4wzF2bMnarMkOXxoS33npruntBtislNRwUb3DSSScFgpfdunWLWaTF68v7TBYpw4SlQmCWUtm6UKcDDjggBkzJPL3zzjsDw0JTyKwlqMmxCMSmQoYshaApQeSKCg0sNJSQ/UpQ9uCDD4691dmP5fwwhBoZtWmYZDKCaQxZc801YzD122+/jYFV5rxiOcdZcsklyz01mb4EYblGfmhQeffdd8vdh6xbMnJxoJC5+/rrr8f3ZPVuvPHG8T2NPmQA8Dpq1KgYjI4r/KWAAgoooIACCiiggAJVLsBQx4w2xHy4ZMRSeNZnRB2muBk/fnygIyfflciq5TtNtjClCgFgvqvxHYoM28oUvitkS+rkmu3gybDOQ4YMiccngEyH1ez0Ntn9fa+AAgoooIACCiiggAIKKKBAfRCodFCXoZdTMDcNw1wVQAwp/Oijj8bgJNmsqTz88MPxLRmeeYWA43XXXRc6dOgww0MwlwqqzkhdmCeXLFaGKqbxg0xYynPPPReHCyPAudtuuxWqTrCXoCp1LnX+wsbT3jDcMgHVN998Mx6TADENLwRMl1tuucKm9HpPQV2GV6bQCEJJc+uyTyrZhpO0LPuahntOy7L7pmW8ZufoZR/uHZnEFOrHD40y2Xu6xRZbhOuvvz4G8RlGjd75FgUUUEABBRRQQAEFFKhAoMG05/xy5syNe7NNOYWA7siRIwPB0+zctwRvKTy7U3i2p9Mm3y2YViVbHnnkkRjs3WWXXeL0Ktl1s/qe7zS77rprIHBMoJmMXqZxocOqRQEFFFBAAQUUUEABBRRQQIH6KDBDY90SzK3KgC434LDDDov3gSAmAdKXX345DlHMfK30DGdep1KF+WkZNvmLL76YbhMyWBkWuPiH+ZlKlRmpCwFXgrTHHHNMIEM2zVN7yy23xHqnLOd0LgKthxxySMy2TVmsaV3e6/nnnx+++uqreP3MY8tQxgRBaeRo2bJl2HLLLWODC3Pspizg4uMwfBrBU4ZvpnzyySexV33xdtnPBGaZQ5kh0Bj+jLl9U6FhhyGcKdksZAK4ZA3zt0JWLvNhMWwaJQWYec+xF1xwwZitvP7667PIooACCiiggAIKKKCAAhUINFh45Qq2CKG8bfgOQUCXZ/AWLVrEDpp00iSQyvcapnNJP2TVsoyALt+p+G7AtCx8lyCDl1GP+J7G/tmOnhVWsIINyABmVB+GiaZjL98jUifVCnZ1tQIKKKCAAgoooIACCiiggAJ1UqDSmbpz6ur322+/wDDBZ555ZjjqqKMKp2X4LzJhmzZtWljGm+JMU/ZjSGOyZVMhyEmP83333TctKrxyzFIZojNaFzJumXt2//33j8fnnMxZy3WQSVxcyOY977zz4rDNa6+9dvHqMp8J2j7wwAOBjGUCrHgstdRSMVuX4DeNHARsyRgur3BNffv2LQzdnLJ5S+1DcJ1sYupJyQ6Vtummm4aBAwfGoZ+z92X33XePGbgE4qkXQ0fTEENwNxvU5Xg0DtFgs8kmm/DRooACCiiggAIKKKCAAhUINFxykzBl2jZTJ46ePmN3WoYuAV22KVWYR5cAKR02s502KxpCmSAunWLZjmlaKHSazZadd955uu9s2fWVfd+uXbv4/WHcuHGxrgSO6URrUUABBRRQQAEFFFBAAQUUUKC+Csw1rZf171w889i2atVqtjo0+OD2MsebunznMp/L+0DvceZmIjuVjM4mTZqUt3mVrqspdaEeEydOjNmt2WAsPep/+umnuLyyEByHhpEUZH3nnXfiMbL7EwxPwWYyb+ebb7449POIESMKcwaTMUyQORvsTcegBz/1LJU5zHYM2fbhhx+GI444Iu3mqwIKKKCAAgoooIACNVJg9HujQ+u1WtfIutXFShF45nsI3yn4LmJRoCYLjHxjpP8/1OQbZN0UqGYB/4+o5hvg6RWowQL+/1CDb45VU6CaBSaMnxCaLf7nNLXDhg0LNS5TNxkxd2vz5s3jT1pWXa81pS7UgyGUiwvZygxjPCNl4YUXLrP5Dz/8EPjJlmzgOC9oy7Y0rpRqYGGotPLKf/7znxi4P/jgg8vbzHUKKKCAAgoooIACCihQDwXogDqj33PqIZOXrIACCiiggAIKKKCAAgooUE8EamxQt57415jLZJ6sypQ2bdqE1VZbrTKbVrhN+/btY5Ca4L1FAQUUUEABBRRQQAEFFFBAAQUUUEABBRRQQAEFFFBAAQXyBQzq5ru4tIQAPeVnV2/51q0duq4Es4sVUEABBRRQQAEFFFBAAQUUUEABBRRQQAEFFFBAAQUUKAg0KLzzjQIKKKCAAgoooIACCiiggAIKKKCAAgoooIACCiiggAIKKKBAjROo0kzdqct3rnEXbIUUUEABBRRQQAEFFFBAAQUUUEABBRRQQAEFFFBAAQUUUECB2iRgpm5tulvWVQEFFFBAAQUUUEABBRRQQAEFFFBAAQUUUEABBRRQQAEF6p2AQd16d8u9YAUUUEABBRRQQAEFFFBAAQUUUEABBRRQQAEFFFBAAQUUqE0CBnVr092yrgoooIACCiiggAIKKKCAAgoooIACCiiggAIKKKCAAgooUO8E5lhQ96233qp3uF6wAgoooIACCiiggAIKKKCAAgoooIACCiiggAIKKKCAAgooMKsCcyyoO6sVdX8FFFBAAQUUUEABBRRQQAEFFFBAAQUUUEABBRRQQAEFFFCgPgoY1K2Pd91rVkABBRRQQAEFFFBAAQUUUEABBRRQQAEFFFBAAQUUUECBWiNgULfW3CorqoACCiiggAIKKKCAAgoooIACCiiggAIKKKCAAgoooIAC9VGgYW2+6PlfuaFM9X9pc2iZz35QQAEFFFBAAQUUUEABBRRQQAEFFFBAAQUUUEABBRRQQAEFaruAmbq1/Q5afwUUUEABBRRQQAEFFFBAAQUUUEABBRRQQAEFFFBAAQUUqNMCBnXr9O314hRQQAEFFFBAAQUUUEABBRRQQAEFFFBAAQUUUEABBRRQoLYLGNSt7XfQ+iuggAIKKKCAAgoooIACCiiggAIKKKCAAgoooIACCiigQJ0WqPag7tNPPx0aNWoUzj///DkCPXHixNC1a9f4M2zYsDLnHDJkSGHdpEmTwtSpU8Nhhx0Wl1122WVlth0zZkxh259++imMGjWq8Jn3FgUUUEABBRRQQAEFFFBAAQUUUEABBRRQQAEFFFBAAQUUUGB2CDScHQeZHce44IIL4mFOP/302XG4ksd47bXXQt++feP6I444osx2/fv3j+sWX3zxMN9888VA7W233VbY5uCDDw5NmzaNn59//vnCto0bNw5Dhw4tHPeSSy4p7OMbBRRQQAEFFFBAAQUUUKBKBT5/O4QPnvvjFMtvEsISa1Tp6Ty4AgoooIACCiiggAIKKKCAAgrMeYFqz9TdfPPNw2OPPRavnMBuVWfsvvrqqwXlNddcs/CeNylzlzpRCABnyz333FP4mI7Tvn37uOzFF1+Mr82bNw/NmjUrbOcbBRRQQAEFFFBAAQUUUKBKBQjo/vrzHz8puFvihB999FHge82tt94a7r333vD555+X2PKPxZMnTw533HFH7PBa7oauVEABBRRQQAEFFFBAAQUUUECBKhWo9qAuV0cQ9bTTTosXSmCXIZmrqrzwwgvx0Ouuu24gwzYVhlAeMWJE/NiuXbv4mgK1aZvevXunt4FMXcoGG2wQX9PnzTbbLH6uzK/nnnsubL/99mGPPfYobP7mm2/GZSwfN25c6Ny5c/w8ePDgwjYHHnhgXDZw4MDCMt8ooIACCiiggAIKKKBAPRUgoJtK9n1a9r/X7777LvC9YoUVVgg77bRTHIWIDrYEbkuVJ598Mq6fMmVKqU1croACCiiggAIKKKCAAgoooIACc0Cgxgy/nIZdJqhLQJPGhZQxOzsdUsB44403LnPYkSNHFj63adMmvk+BWubgvfHGG8Mbb7wRs3dbtWoVUnCYbZmn9+23pw15Nq2kgHD8UMGvhg0bFgLYzOHLkM8XXXRRXLbLLruEhRZaKPTr1y8e5V//+ld8/fbbb2PPej7M6DDPv/32W5h77rnjcYp/Zddl32e3oyGHOheXvO2Zj5if4u3Zdq655goNGlSuP0HxsfPq8Pvvv8dzFV/br7/+GuaZZ54y1S1VL5ZzruLt2bm4DumApZan9b4qoIACCiiggAIKKFCTBMjS5Zm5bdu2sVodOnQIt9xyS5gwYUJo2bLldFV9//3343edbGfYDz74IHaGbdSoUfj000/j8zOjFzHqER1lWb7zzjvHDrR896KjKs/rCy64YNhxxx3j+ulO5AIFFFBAAQUUUEABBRRQQAEFFKhQYPoIXYW7VN0GVR3Y/eSTT8IXX3wRLyA1ZKSreeWVV9LbsNZaawWCrClw26lTp9hg8fDDD4fbb789HHDAAYVt11577RjsTQtSQDh95pVGDHrFZ8v8888flltuucKir7/+OvBz3333xWXnnXdeSEM8s2CNNf6YFytlE2eXxR1K/GL7Rx55JAZSf/7559joQmYwQ08TQCZjmeD1brvtFsaOHRuD1tR3kUUWCWQEM7/wxx9/HPr06RMbaQjIbrHFFmGrrbYKeDJs248//hiPu+eeewYC3lzD66+/Hq+bBqDDDjssNuJce+21Bf9lllkmdOvWLTfITJC8R48eYckll4wNTDQ8EYR/9tlnY/B26aWXDkceeWS84gceeCCke4dnly5d4jnIqv7ll1/idRNoJxMhr14Ezm+44YZ4LRyQz8cee2zg/gwfPjyQDU0gmfrSaHXGGWfEIeryrrvELXCxAgoooIACCiiggAI1QmDeeeeNz9OpcyLfDyjff//9dPVjHc/DBGIHDRpUWE9WLx1NCd5uu+22sUMq61ddddX4/WbIkCHx+xHP5ny/2HTTTcMCCywQyPjle8eWW25ZOJZvFFBAAQUUUEABBRRQQAEFFFCg8gKVS5es/PFq9JbZgCjBzGxJQy0TPCWgmTJv2YbALcFCys0331wYenmVVVYJiy66aCGoyPrWrVvzUqa8++67gUBk9oegIEHLVL788stC5u3hhx8eVltttcJxCWimDNIUwCRQSWZvRYWAJMHNrbfeOpx99tlho402ipm+BK3JZOV4++23XxxSjTmECbSeeeaZMbh52223xcPzyhBtZ511ViDATYMMDT/06icAfs4558Ts6rvuuiv88MMPMTBMQJjtmzRpEoPjeH711VeBwP1JJ50Uvvnmm9jIk1d/smap90orrRTrvNhiiwWGqj7qqKPC3/72txiA5VgEvQke//3vfw8nn3xyPCYZ3k899VQMIlMvAvBcI1kDXF9xvV566aUYBGZ/hgCn8Yr7RUMVwXCuF7eFF144NoAR8M67biwtCiiggAIKKKCAAgrUZIHUqfTRRx8NY8aMCbxS8p5ln3jiibDyyisHnsWLCx09t9lmm/j9hmMSLOY7y7LLLhuf/3mmTqPo8NzP96uOHTvGDqDFx/KzAgoooIACCiiggAIKKKCAAgpUTqBGZeqef/75geGXKVUx/PJ7771XUKEneSo0YvTv3z9+JKOTkoKnZKouscQSYbvttotZq2T6du/ePW5Dr3NKCggT4GRYseLCsGXNmzcvs5igLEMQEximXgRK77nnnrjNKaecEl9TpnB2SOc0fPSGG25Y5njlfSDrNB2DxhcyXhk2jULG7eqrrx4DlTTa0BBD2XXXXcM111wTA7E0yjCEGg0z6623XuyFT9CVQOlnn30Ws3jZh4AnWb002pDRvOKKK8Y5h9dZZ504bBvbXHHFFbFxaN99943rWVaqUDcajJZaaqkYVOU+UFhGhgDDYVOndO9Y/s4778QGJuYmvvLKK6MvwWAyhvPqxT5k4WLCcHRcF8d+66234j4E9Ck0QnFsgtl51809xtGigAIKKKCAAgoooEBNFSC7liGXGSqZTpMEZOkAyvJsoZMjwVg6wo4fPz4GfRlVKGX08gyeplPhfXb/tJwOrHzXoXMnz9Z8J0nfn7Ln8r0CCiiggAIKKKCAAgoooIACClROoMYEdQlWVmVAFw6G/Url8ccfDzvssEOcL/Xiiy8uNFAQzKS8/PLL8ZX5oShkyjK3bnbbNIQzDSIUGi0YojdbGM6XQHEKFmfX8Z7gMkFdslcpZMkSxKSkAC5ZshSySgl2U9K544cKfhG4TCW9Z8g1SgqUEpBNDTAsp3GGknrtZ+fGpWGHDGVKixYtCtvSKMTxjj/++BgAJbDK8Mhk0x500EExm5b3NOqQ8Yx/8dzG8aD/+5XqQ51TfbLrqTMNSCnjgFcyagnEEpwmM5fAL41WxxxzTG69CDwzXBxBcn4+//zzeAqOnS0EeylkEVPyrjuu8JcCCiiggAIKKKCAAjVUgAAuHRj32WefWEOe9fv27Vt4tk/VTsFbhlKm8GxMZi/fiRiJpzKFjqF0euR5n+9IdKJkRJ3OnTtXZne3UUABBRRQQAEFFFBAAQUUUECBIoEaMfwywcvtt98+Vo0hcDfffPOias6ej9n5m5hXlgAkmbUXXnhhPAGBxw022CC+JxBIyQZP999//7gs/WL+XIKABDkp/fr1i8MUE4RNP8zXWl4hqJgKWcHM55pKs2bN4lvmcaXhJQWYWVg8fHTaJ++VBhUCqRSyimmUIShJSUHeFFymBz7rBwwYEIPg9LAnoDp48OC4PUFZGn4Yho1h1tgWV4ZKppGG4ZeZD5jMZOqMJ0ZDhw4NV199dfRkKOumTZvGrN540Jn8RZ3Jml1//fXj38zo0aPDhx9+GG666aY4Fy5ZCMy9yzWSSZtXL7IQuFcEmPGnoYtrSsfGjQA4QzFTyPbNu+7KDIU9k5fpbgoooIACCiiggAIKlC8wTybTNvu+aC+CsgRXeabnmZc5c3nWZ5oYOjHyveyTTz6Jz+xMW5J+6BzL96IZGS2I5/KHHnoofj/g+Hz/4JwWBRRQQAEFFFBAAQUUUEABBRSYOYFqz9QtDugy52pVFQKPBCtPPPHEmMGZeqBzPgKnzM1KITCZ5tTNBk/ZnwAmQyVTWrVqFRtF4ocSvwj8llcIKKbC3K3Z4ZuZ5/WII46IWcSck7l2r7322rg5dalsoaHm3nvvLcwJSwAzZS2noC496Ol937NnzxgEJXBJIw7r99577zg0NI0+NAQxFDGvzMVLgJeALdsRRKWxhmGcGWaZ85LZuttuu8Ve+s8//3w499xzY0Ywmb9bbLFFZS8hHr94YxqVRo0aFS699NK4nixdAu8EkW+elgnMnLqcnwAyjVAEdovrRb0JxlMv6kvQlmxo/h6Yh/juu++Ox0jZwGQP51138iyuo58VUEABBRRQQAEFFKhygeU3CeGDP0YPCrwvUXje5fvJiBEjwquvvhqfy3mGp5C1O3bs2Pg8TBC2VEnfH0qtZznb8J2ADpQ8a6d9sh1my9vfdQoooIACCiiggAIKKKCAAgooML3AXNOyOGN3aTISCVJWVSl1/BTUJUN3RgO6879SNgv2lzaHVrr69ED/6quv4lBjzKmahvqt9AHm0IYEnpnHt2XLljNVR4ZsZti0E044IXz33XexkSY1quRdAj30yVbNBpfTdtSF4aSLS97ySZMmBTKECbRmbX/88ceY+cpy6kOgtbgQGE5ZysXr8j7TAEU2LfN0pUIWwMSJE2NWbXaOr7x6sX+qK0HglK3LsMzMJcyxmE934MCBhcA/58m77nR+XxVQQAEFFFBAAQXqnsDo90aH1mu1rhMXxog3jRs3rvJr4fmbIZ/pBJn9XlDlJ/YECsxhgZFvjKwz/z/MYTpPp0C9EPD/iHpxm71IBWZKwP8fZorNnRSoFwITxk8IzRb/Y0RfLpgRhqs9U5ehlgmozelC7/PyeqDP6fqUOh9B1LxAaqntSy0nkJvmwS21DcvJoM0L6LKuVD3yljMccd6QxNmMVgLIBF6LCw0/M1LIGuYnW7hesm6LS169svvT0ETjFsFdsrUJ5hJgZojtNER4Ombedad1viqggAIKKKCAAgooUJMF5kRAl+vPe/6uyS7WTQEFFFBAAQUUUEABBRRQQIGaKlDtQd2aClNX6rXGGmvU2OA1wyIznHVNLAR3Gaab4Z3JAl599dXj8Mw1sa7WSQEFFFBAAQUUUEABBRRQQAEFFFBAAQUUUEABBRRQoG4LGNSt2/c3DnOWzY6t45c7Wy+PwC7BXIsCCiiggAIKKKCAAgoooIACCiiggAIKKKCAAgoooIAC1SnQoDpP7rkVUEABBRRQQAEFFFBAAQUUUEABBRRQQAEFFFBAAQUUUEABBcoXqNWZur+0ObT8q3OtAgoooIACCiiggAIKKKCAAgoooIACCiiggAIKKKCAAgooUMsFzNSt5TfQ6iuggAIKKKCAAgoooIACCiiggAIKKKCAAgoooIACCiigQN0WMKhbt++vV6eAAgoooIACCiiggAIKKKCAAgoooIACCiiggAIKKKCAArVcwKBuLb+BVl8BBRRQQAEFFFBAAQUUUEABBRRQQAEFFFBAAQUUUEABBeq2gEHdun1/vToFFFBAAQUUUEABBRRQQAEFFFBAAQUUUEABBRRQQAEFFKjlAgZ1a/kNtPoKKKCAAgoooIACCiiggAIKKKCAAgoooIACCiiggAIKKFC3BQzq1u3769UpoIACCiiggAIKKKCAAgoooIACCiiggAIKKKCAAgoooEAtFzCoW8tvoNVXQAEFFFBAAQUUUEABBRRQQAEFFFBAAQUUUEABBRRQQIG6LdCwNl/ewIu6lKn+dqfeVOazHxRQQAEFFFBAAQUUUEABBRRQQAEFFFBAAQUUUEABBRRQQIHaLmCmbm2/g9ZfAQUUUEABBRRQQAEFFFBAAQUUUEABBRRQQAEFFFBAAQXqtIBB3Tp9e704BRRQQAEFFFBAAQUUUEABBRRQQAEFFFBAAQUUUEABBRSo7QIGdWv7HbT+CiiggAIKKKCAAgoooIACCiiggAIKKKCAAgoooIACCihQpwWqPaj79NNPh0aNGoXzzz9/jkBPnDgxdO3aNf4MGzaszDmHDBlSWDdp0qQwderUcNhhh8Vll112WZltx4wZU9j2p59+CqNGjSp85n1NKU899VQ44ogjQqdOncKll15aU6plPRRQQAEFFFBAAQUUUEABBRRQQAEFFFBAAQUUUEABBRRQoJICDSu5XZVvdsEFF8RznH766VV6rtdeey307ds3noNgZ7b0798/rlt88cXDfPPNFwO1t912W2GTgw8+ODRt2jR+fv755wvbNm7cOAwdOrRw3EsuuaSwT3W+IbjcsWPHQhXWWmutwnvfKKCAAgoooIACCiigQN0TeP2h3mHci4+HlhtsG9be+ZC6d4FekQIKKKCAAgoooIACCiiggAL1VKDag7qbb755eOyxx8L2228f5kRg99VXXy3c6jXXXLPwnjcpc5c6UQgAZ8s999wTs15Zlo7Tvn37uMmLL74YX5s3bx6aNWsW31f3L+pLWXfddcMTTzwR5p9//uqukudXQAEFFFBAAQUUUECBKhQgoEvhtbyg7t133x1+//33MjVZaqmlwhZbbFFmGSMdPfnkk+Hbb78N88wzT/xuscYaa8RtPvnkk/Dss88GRi5i9KWNNtooLLfccmX294MCCiiggAIKKKCAAgoooIACCswegWoffpnLIIh62mmnxSsisMuQzFVVXnjhhXhoAp1k2KZCQ8SIESPix3bt2sXXFKhN2/Tu3Tu9DWTqUjbYYIP4mj5vttlm8XNlf3344YdxiOcWLVrEhpA2bdqE7Hk6d+4cA96DBw8uHPLAAw+MywYOHBimTJkSdt555/i5X79+cZjlJZZYInTo0CH07Nkz7jN+/PjAcRo0qBG3u3AdvlFAAQUUUEABBRRQQIHqEeA7T/pZb731AtPPLLLIItNV5qGHHorB3B133DEw8g/fpwjm/vLLL+Hxxx8PBIJ32mmnsPTSSwems2G5RQEFFFBAAQUUUEABBRRQQAEFZr9AtWfqpktKwy4T1CVrl+zdlDGbtpkdrylgvPHGG5c53MiRIwufCaxSUqCWOXhvvPHG8MYbb8Ts3VatWsXGDLZhW3qvv/3223yMDSPxTSV+/fbbb2GrrbYKBF3XX3/9sMkmm4QHHnggHH300aF169ZhpZVWCgRqKf/617/iKz3kUwYuwzwzxPKgQYPiunRtCyywQGxM+f777+NyGlr4mWuuueLnyvyibnPPPXfuptl12ffZjQk2N2w4/Z9X3vbMXcxP8fa//vprbEDKHre898XHzqtD8TbpeHnnKlUvlnMcMhWyhUwHfvKC56XOm93f9woooIACCiiggAIKzCmBli1bFk7Fd5Bll102ZuEWFk57w/ccnpM33XTTsPDCC8cRid59993w3nvvhRVWWCFumjq1kqX7/vvvh6+//jrQcfXnn38O33zzTfjhhx9isJiA8PDhw2OnVKa72WGHHWIgecCAATELmO8qBIa32WabGfrekq2v7xVQQAEFFFBAAQUUUEABBRSoywLTR92q8WqrOrBLj/IvvvgiXmHbtm3LXOkrr7xS+EyDAz3VU1Zvp06dwqeffhoefvjhcPvtt4cDDjigsO3aa68dg71pQQoIp8+8Euj77rvvsoviUMgff/xxDOiygkDufvvtF6666qrYGEIQMA3xzPo0xFnKJk7LUtCXzwcddFAcHpphlqk/DSsUAuSLLbZYfF/eL4LFH330USAYzPkXWmihcMghh8R5hC+66KLYyEOge7fddgtjx46NAW6ujR79ZA/TOMM19enTJw7BRsMMw7cRuMb+1ltvDT/++GMMhu65556B4Ph9990XXn/99WhE5vRhhx0WJk+eHLOV6eXPMcggoPd/XqGhqUePHmHJJZcMEyZMiIFoAvYMA0fwlYahI488Mga5b7nllrgNx9xwww1jQ9JLL70UyD5IwVjqRUA9r1543HDDDfFaqAufjz322Dj/MnZvvvlmrCJ1IaB83HHHlbzuvGtxmQIKKKCAAgoooIACc1pg3Lhx8btKx44dpzv1vPPOG5cRmCWoS+FZnWd6gsD77LNPXMav0aNHx/dNmjQJ77zzTvxewfcqpqZh+OahQ4fGjqx05CS4y/cDgr8ce7vttovHfO6558KYMWNi59bCgX2jgAIKKKCAAgoooIACCiiggAJRoF6Nx5sNiDL8crakoZYJnhKkTJm3bEPgtkuXLnHzm2++uZDBu8oqq4RFF100ZAPCBASLC73ZCS5mfwhw8pnAIIXg6fLLLx97s59zzjmBwGQ6Lu9TVmhaRqBzvvnmKwR+aTC5+uqrY+B19dVXLyynB31lArrUgQYagqTdunULZ5xxRmy4IUBLoYc+5ybwzHbMN8x2Z555ZryG2267LW7HK+c866yz4lDQNOAQJCagSh25NjKx77rrrtiAw3EICLM9DUAE0p966qmw4IILxm0JoHNegsx5hcAtAVSyms8+++x4rTQGHXXUUeFvf/tbbCz66quvwn//+9+4HR0HDj/88HgPaTAiyxlL6kWgl8YmAuJ59SIATKeAk08+OQ4XTvYB95a/Hf5ejjnmmHDqqafGBqk07FzedWNpUUABBRRQQAEFFFCgJgjw/M33EL5bFBc6i9LxkudzgrZMCcN3AZ6/6SjJegpBXDp/rrrqqoVlfKeiwyvTzDCS0DLLLBPWXHPNsNpqq8WRbZj+hhFueM7n+0LLaZnD2267bewoWlwPPyuggAIKKKCAAgoooIACCiigQAg1KlP3/PPPDwy/TKmK4ZcZJiwVGhxSIcjWv3//+DFlhKbgKdmnzFFL73HeE9Tr3r173JZhyCgpIEzQkmBkcWEYsubNm5dZTCCRxg3Oc/3118chlcl+JSOWLFOuP2UKs20qaYhlApAUApgUgq3Z4ZIJQFJSHeOHSvxaeeWVY4MLmzJvFnUjcEoh45aAMYFKtqN3PmXXXXcN11xzTSB4SqCTOX6pC3Nz4UyjD402n332WcziZR8yY8nqpbGH7OcVV1wxzk+8zjrrBIbCJuv1yiuvDATOCdBmr439iwt1o2GJYabJIuCeUVhGwxMBXLzvvPPOuJzjkSHMddAARZYv5zr44INjg1ZevTgWjVHcHzKauS6O/dZbb8Xr5O+DQhCe+0KAPO+6+XvA0aKAAgoooIACCiigQHUKMLULz+9pVKC8utAhk7lyhw0bFju08sybOpwSkH3iiSfiqEZ8F8qOWtSoUaPC4QjepkxfFvJcTaHz7JdffhmPnY6/9dZbx3X+UkABBRRQQAEFFFBAAQUUUECBsgI1JqhLsLIqA7pcNkG9VB5//PE4/C4NERdffHHsHc46ApSUl19+Ob62b98+vtJwwdy62W3TEM4psEpQkGGas4VMXALFKVicXfePf/wjDgtM9iiZor169Qp///vfAxYEDFMAl8xXCoFagr0Uzk1GaapnNvDL+lSnVEeWVaZk54NN7wnAUlKgNA1VnI6XAq4pAzU7Ny7zBZPNTKGXftp2ueWWi8c7/vjjY89+grjM5UWglWGkCRiTLcs8xjTwkAWbzp/Om31NdaWBKJ0ju546M/RbCkRzfn7I8MWI82NGpu5pp50W8upF4JnMXgLq/Hz++efxFBw7GbEgZRWnYHjedWfr5nsFFFBAAQUUUEABBapDYNSoUYFn9/Kes+nUSgfXFKRl2hEyeymPPPJI/B61yy67xFF3ZvQaGN2G71tk/H7wwQfxuZ8OlASSLQoooIACCiiggAIKKKCAAgooUFagRgy/TPAyfXEnoLb55puXreVs+rTlllsWjrTHHnvExgsyay+88MK4nGDiBhtsEN8TSKRkg6L7779/XJZ+0ROdwB6BSwrz2xKAzf4wB2upQtCyd+/ecTjgvn37xuHM2Hb99dePjSsEISkMhcx8VSnAzDKGjy4eIprlFIYvS+uyveX/WFv+b7KZv/nmm7gRPfIJSqcgaepRT/Yt23399dcxmDlgwIAYMGcuWbZlWDYKAVqui+GfmY+LwCf3gEAqQ7gxf9Z5550Xs5i5PuzxvOmmm8LAgQNDhw4d4ny4nDcFUOOBZ+IXAVzm/uJvK825S5Yt2eFkGJOVvPfee8dAOfN75dWLoZa5tzvssEPM2qYRimsimJ88OEcKqBPMzrvuvKHtZuKS3EUBBRRQQAEFFFBAgVkS4Bk7dcDMHoiOo+n7BJ0feXan4yKj3zASDc+/PDPzfYBnY74z0MEzdfLMHqu894x4lDqt0oGS72bZzpLl7es6BRRQQAEFFFBAAQUUUEABBeqbQLVn6hYHdMlarapCMJEA5IknnhgzQAl+pkLglCxZCsHG1IiRnXuX/QlKMk8spVWrVnEo3vihxK/ygqpXXXVVnE+WrGF+KAQdr7vuuvieuVuPOOKIGKTlnMwFe+2118Z11CXNd8twadnhzGh4SSVvjt+0Lu+VIGSPHj3iKrKTCXSnkoK6BEVp0OnZs2ccOo19mBeX9QRG6b0/fPjwOCxbx44d4yvDQxPgJROW7QjYksHK8MdXXHFFDAaT2brbbruFpk2bBuYuJnuZZXxm7q3KllTP7Pa77757HEqaY7Ke8+LG/SRD+OGHH47Z0dxv5jrOqxf7Ebg/99xzY30ZoplGKDoiMHQ2HhQyHciipuRddzZjPG7kLwUUUEABBRRQQAEFZpNAyw22DeNefDzwWlHhew/P5MWFDF6+X/C8zAg1dPbkuwfPw3y/oNNmmirmwQcfLLM7U7HkPY+X2WjaB7ahUyfZvkzHwmc6iG622WbFm/pZAQUUUEABBRRQQAEFFFBAAQWmCcw1bQ6lOLYu84ISpKyqUur4KahLYGxGA7oDL+pSprrbnXpTmc/lfaBnORma9ExnntQ0fG95+1TVOuaa/e6772IwsLinPIFnhjxr2bJlldeRxhQCtJ06dYpza2UDxXnXzhDRZKvmzSNMvemxX1zylhMAZS4vzpfuAz30mZOW+jDUGz7MRVtcaIRKGc3F6/I+cx6C1dkhosk64FxcR5ofjH3z6kX2QaorAWeun/vDHLubbLJJPCWBX+qdhvJmYd51x439pYACCiiggAIKKFBrBEa/Nzq0Xqt1ranv7Kwoz8AMk1yZgO2MnpfsX57/7fw4o3JuX5MERr4xst7+/1CT7oN1UaCmCvh/RE29M9ZLgeoX8P+H6r8H1kCBmiowYfyE0GzxP0b0pY6MMFztmbpkptJAMKcL2Zj81ITCsMX85BUCo3nB0bxtZ9cyApvZ4Gap4xIYzQvosn2pOuctZzji4iGJaSwiEzYVAsgEXotLyogtXl7qc5oLLLuejACyDYpLXr2yNgSgGzduHIPOTzzxRJwDmGV0Fjj00EPLHC7vusts4AcFFFBAAQUUUEABBWqwQN5z9OyqLs/UFgUUUEABBRRQQAEFFFBAAQUUKF+g2oO65VfPtXNSgKGSq6Ln/ey4BoZgZqjkmlgYbvmUU04JzLlLtjHz7loUUEABBRRQQAEFFFBAAQUUUEABBRRQQAEFFFBAAQUUmF0CBnVnl2QdOA6BU8vMCTAU3TrrrDNzO7uXAgoooIACCiiggAIKKKCAAgoooIACCiiggAIKKKCAAuUINChnnasUUEABBRRQQAEFFFBAAQUUUEABBRRQQAEFFFBAAQUUUEABBapZoFZn6m536k3VzOfpFVBAAQUUUEABBRRQQAEFFFBAAQUUUEABBRRQQAEFFFBAgaoVMFO3an09ugIKKKCAAgoooIACCiiggAIKKKCAAgoooIACCiiggAIKKDBLAgZ1Z4nPnRVQQAEFFFBAAQUUUEABBRRQQAEFFFBAAQUUUEABBRRQQIGqFTCoW7W+Hl0BBRRQQAEFFFBAAQUUUEABBRRQQAEFFFBAAQUUUEABBRSYJQGDurPE584KKKCAAgoooIACCiiggAIKKKCAAgoooIACCiiggAIKKKBA1QoY1K1aX4+ugAIKKKCAAgoooIACCiiggAIKKKCAAgoooIACCiiggAIKzJKAQd1Z4nNnBRRQQAEFFFBAAQUUUEABBRRQQAEFFFBAAQUUUEABBRRQoGoFDOpWra9HV0ABBRRQQAEFFFBAAQUUUEABBRRQQAEFFFBAAQUUUEABBWZJoOEs7V3NOzcaMKhMDX7uuHWZz35QQAEFFFBAAQUUUEABBRRQQAEFFFBAAQUUUEABBRRQQAEFaruAmbq1/Q5afwUUUEABBRRQQAEFFFBAAQUUUEABBRRQQAEFFFBAAQUUqNMCBnXr9O314hRQQAEFFFBAAQUUUEABBRRQQAEFFFBAAQUUUEABBRRQoLYLGNSt7XfQ+iuggAIKKKCAAgoooIACCiiggAIKKKCAAgoooIACCiigQJ0WqHdB3a5du4Z+/frl3tSjjz463HHHHXHd4MGDA9s+/fTT0237zDPPhG7duoWffvopruvVq1fo3r37dNtVZsGkSZPC1VdfHfbbb7/QqlWr0KlTp3DhhReGb7/9tjK7l9xm+PDhsf5Tpkwpuc2srOC46fpn5Tgc49dff52VQ7ivAgoooIACCiiggAIKKKCAAgoooIACCiiggAIKKKCAAnVaoN4Fdfv27RteeeWV3Jvau3fv8OKLL8Z1o0aNCmx7yCGHhO+//77M9uPGjQt9+vQJkydPjsuHDh0a7r///jLbVObDZ599FrbbbrtwwgknhLnnnjt06dIlLLHEEqFHjx6hbdu24c0336zMYXK3GTt2bKz/77//nrt+VhcS/G7atGmYOnXqLB1q9dVXj9c7SwdxZwUUUEABBRRQQAEFFJhO4KYPPw5LPPJE/OG9RQEFFFBAAQUUUEABBRRQQAEFaq9Aw9pb9TlT8/Hjx4ezzz47XHbZZbP9hKeffnp44YUXwoABA8IWW2xROD5B3m222SYceuih4dlnnw0NGtS72HvBwjcKKKCAAgoooIACCigwcwInj3wnfDF5UtyZ911aLJt7oEGDBoUvv/yyzLp55pkn7LHHHmWW8YFRiz744INA51E6pHbo0CHMO++8cfSdIUOGhC+++CLMN998Ye211w6rrrrqdPu7QAEFFFBAAQUUUEABBRRQQAEFZk6g2qOFecMbp0spb13apqpfTzvttHDNNdeEYcOGzdZTvf/++zHblwBuNqDLSWj8uOSSS8KIESNiwJdle+21V3jsscfCFVdcEdq1axfXMXQxwz63adMmtGjRIuyzzz7htddeY/NC+e9//xs23njj2OCy8847h7fffruw7pdffgnnnntu3J9Gl//7v/8rM+wzmcppX85x+eWXx8abiy66KPzrX/+Kx9lhhx3ikNUPPfRQ6Ny5c3jnnXfiK0NXU6jz9ttvH+tHHVnO0NJcP8tp9Ln22msDx/ntt9/iPrfddlthH5bfc889cTm/Sp2nsIFvFFBAAQUUUEABBRRQIAqkgC4fsu+LeVq3bh2/Y/A9gx8Kgdni8sYbbwRGBNp8881jMJdn+fQ96ZFHHgk///xz2GqrrcIqq6wSmA5mdkzXUlwHPyuggAIKKKCAAgoooIACCihQXwWqPVP3ggsuiPY0DGQLAV3WFS/PbjMn3h933HHh4YcfDocffnh4/vnnQ6NGjWbLaV9//fV4HIK1eWW33XaLiwns7rjjjnFu3w8//DAw9PMuu+wShz7eddddYybvOeecExZeeOFw3XXXhW233TakY3OAY445JhCYJtuXQCzDSaeGl7/+9a/hpZdeioFh1p9//vlxHb3vySAmAMvcwSeffHJ47rnn4nGWXnrpOPcvwya/9957MaN4+eWXD2+99Vacq/jVV18Niy++eNh///0DjT7MEUzwlkDwV199FY+15JJLxiGnGXqa+8yx6OFP+ec//xnOOuuscMABB4SDDz44PProo+HAAw8MX3/9dbwHn3766XTniTtW8heBY4a6Li7Fy4s/p+2ZS7hhw+n/2eRtz7K55pprukxr5hAm86GypfjYeXUo3iYdO+9cperFUNqsK64bWRj85GWMlzpvOr+vCiiggAIKKKCAAjVfgOfzVNJ0NB07dkyLCq+TJk2KwV46a1IaN24cM3QnTpwYO27SyXT++ecPfGdgG56byerlOw3fo3iW51mzffv28XsHQV+W0/mUY/HdgO87PHsuuOCC8XvQ7Pr+VbgI3yiggAIKKKCAAgoooIACCihQSwWmj07N4QtJmZycNgVwU0CXddVdaHTo1atX2GijjcLFF18cCKDOjkLjBqV58+a5h6NRg+AoGa2p0MDx8ssvh+WWWy42eDA0M3PbEjilbLnlljEAyjap3HLLLTELls8E7U455ZSoncUvAABAAElEQVRAYwzBXAKmTz31VKE3Po0rZOQ+/vjj4ZtvvomHoGFms802i+do0qRJbIQh4EzDTf/+/cM//vGPGOwjqEsh0IwT5cEHHwxbb711uOmmm8Jiiy1WWMZ8xRyLfXv27BkzlXnPMQnoEsz9z3/+E7f/y1/+EhuKzjjjjBiQjgun/cqeJy0r9Uqm70cffRTnRiYIudBCC8Vj0VhEIHy11VaLgXCyngngk+3MukUWWSR6ch8IcuOVgp777bdfzEAgiI0DgVaOSyCcBiiyj8lcoCyzzDIxOM5n5m0mQ5pgL1kQO+20U261sWBuZRrYJkyYEAPRZE1zz7mPNJQdeeSR8VjcY7bhmBtuuGG839xfsppTMHbPPfeMGeB59eJ4N9xwQ/jkk09iXbiOY489NjbYYZfmdqYuXCcdHfKum3tqUUABBRRQQAEFFKi9AmTaMrIPIwnldYSkMyYj8/DMzLPnDz/8EL8r0HmT7fkeR+CWdWzL8+7kyZNjwJfgLB1Q2YbhnhmdiO81DNlMZ1DekwW86aabhgUWWCA8+eSTsVMt33EsCiiggAIKKKCAAgoooIACCigQQrUHdbkJ2cAun8nspEGhppR11lknnHrqqTHbNG9eqYrqSWB09OjRhc26dOkSM21Z8N1334VmzZoV1qU3BA8JAhJQTIVAIo0dFBo+KAxPnAoNJwQfKQR7KTSKpNKyZcv4lqAiveUpBFWLC5m8ZPgScKbhhWAijSn01k/DsRXvkz4TDEyFwCvbEwwdOXJkrBtByVKBzBTA3nvvvdMh4uu+++4b7r///kCmcirZ86RlpV5pSCJIethhh0VPAqt9+vQJBIyxIJjJ/MVkOBPQJTt5qaWWigFYhoImu5kAKcFz/hbuu+++cO+998agKvVi2OmVV145mnNcGsFo2GLOZM595ZVXxgYqgu0EfPlb4lq5R5jmNZgRaCWAutJKK8V6X3XVVTFb+qijjorbc984x8CBA+N2nIt50AjaEqSmoQx7sryZs3no0KExIJ1XL/7O+CEjm2wKhv5+9913Y/CfRj3+Fgj0ch0EiRk+O++6CfZaFFBAAQUUUEABBWqvAFm6DLvMSDx55fvvv48dDHkeTM+wLKPTKN9feLbmWZ/ndr6vLLvsH3P4EuTdZpttYmdQvs/QwZXvGBQ6BvLdLx2PzqV0iuQ5mVFnLAoooIACCiiggAIKKKCAAgoo8IdAjQjqUhWGCCaYS6nKDF2CUymrNJ7sf7/oUU5huLC8ctJJJ8VAHgE/hmKekULgleGDU1lrrbUK5yHISeCuuKRsWwK1qWQbV+gVTykeKjdtm15LDVdGgwslBXrT9syru95668U5eNOcvvSSJ5OTIZSZA/i8885Lm0/3SgZpKgQcyepdd911Y3AxzbOb1he/0hhEKZ6/K33OBvqz5yk+Tt5ngq40DlEIdF5//fWxQYrPDO/M8NWDBw+OwdnU+ERQmvmUyVTFkSxmCkNm45eGuWZYbn5+/PHHGFhNgXfmP+a8BKVXXHHFOKcYxyI4yjxjKUAbD1riF3OS0QhGkJk6LrHEEnFLlhEwHjNmTMxkuPPOO+NyGsOoF+elTmTwci6yn9M9L64Xf3/Y8LdIRjPBZI7NvxMyKFLHAhreGIab7AxK8XUTiM4bojlu7C8FFFBAAQUUUECBGi9AMHaNNdYoWU9Ga+GZlGd8nkfJsqVT6frrrx/34dmV71t0WmWqFoK3vOcZNT0n8j77HSUtZ1QYnlvpVMhzKN/Lsh1US1bKFQoooIACCiiggAIKKKCAAgrUE4EaE9Rl6OUUzE3DMFfFPWjdunXMHCWrMZshyxBilFKNGDQqMFQvc7/O6BDMZOYWF3qyE9xlqGKCh4suumhhEwJqzG9Lg0gaWpmV2QAuQUIKPeDJHqUwPDPZmQx3XFFJwWKyUFNQmTmtLrzwwjj/FZmpZJP+7W9/i0FMAoFk0JIJWl5QNzXKcH68uEayRFPP+xtvvLFk1dI1sX22AYc5fikrrLBCGD58eHyfPU9cUMGv7PbZ9+xGwxQlDVUcP0z7lepMkDO7DxkDH3/8cdyebVIQl/1w5XhkvRJcpUHq5ptvjhnVBEUJGJMNzH1LGdEpUJvOm31N56XRLNUnu54683ecAtHUhR/uadu2bWNAmkAspnScyKsX10dmL0M38/P555/HU3BsflLhb5bCsrzrNqibpHxVQAEFFFBAAQVqnwCj1/C8R2C1VGH0G547eTaltJw2EhCBYKYtocw777zxlV88L6bnx8LCct7QgZNnaZ6Z6XBLh0OmimFUHIsCCiiggAIKKKCAAgoooIACCoTQoCYhEMytyoAu18oQvBTmGCX4SUZsmiuXICpZnKUK8+oy7C9D1RYXgsTMIVv8w7xQeYVGDgKlrOea+/XrF4e8ZahihnhmXtvLLrusTLA3exyyf8mgJGBMoJMGj+OPPz4GFFPGc3b74vcMq0yQdP/9948NJvS6Z38CsTTkMIwa8+8SxKWOBCc/++yzmLnJsVL2LNeb5gcuPgdD+dIgQxCT/Zkvl8aZ8ePHxyF82Z6GH+4Bc2txPQcccEA4++yzA/PEkhHKfMY44c7cWjNbyBRI8wSTUcC9JmCaGqQ4LlmpbEdWNYFLhi3mnCwnC5cgN4FLrpksZJbTUEVjFsNTsw+O3I+rr746BlXTUNsEgfl7Yz86BjAfLudOAdSZvS4CuNSNvyEawPBNnQIYapm/Z4LxZEHzN5JXL4Za5m8h/U2R0cu18HeQPDgHweHklHfd3G+LAgoooIACCiigQM0RWHze+QqVyb4vLMy84Vmf5+PU4TGt4lmd7FkKHVF59ud5medBOiqSdUuWLfumDpg87/P82KJFi3SYCl8JDtOxlBGJGJWHfXkmtSiggAIKKKCAAgoooIACCiigwB8C9S4Kw7y0zAF15plnxuFv0x8CQwQz1G7Tpk3ToviaMiXTQvYjAEtDRSoEswiCMsxuceGYBMzyCtmoL730UqxHtgc6wTQyhxm+rFRhbtb+/fvH+V8JElJ22WWXcOutt8Z5UdN+2aBles81EUwlOEmQm/mtKAQFmROWhhzmAaYBh0BvKmTdMmwxhW25LualxYSGnOLCUM0EqFPWLYFkAsUE0RnOmfVkCpP5+8ADD8R5by+//PJYtyOOOKJwOAK6KTu6+H4UNqrgDdfbo0ePuBUZzwcddFCZgC4ruCaGM2a+WqzYh6GZaVTiGrClYM/fEX8r3COCtWl7PBgqmaGJzz333Ni4xd8H8+wSLCVrl2shOMz+zH9b2ZLuX3b73XffPd4Tjsl6hl0m23zLaUFmTPk7IhOXv2+yuPl7K64XQzTzN81yOhuQaUHWPJm9BPTTvMtkFBMcLnXd2Xr5XgEFFFBAAQUUUKD6BS5pvXo4eeQfU2fwvrxCoDY7LHLadtSoUfH7Ac+Y7du3D4888kj8HsJ6nqvTd4mtt946DsdM50wKo/AQmB09enT8XN6v9BxLZ0OeS9NzLyPPWBRQQAEFFFBAAQUUUEABBRRQ4A+BuaYNcxW7P5NJ2apVqypzqYrjNxowqEx9f+64dZnP5X2gZzlZpGQzMoRYkyZNytu8ytcx9DG93pnbNA1fVtmTEqSm4WNG90vHpzc8QwovtthiaVHhlWHQMKKBpzjgXdionDcEFHHm2CnTlqxmPhNALFXYj2wBgsWzmgF6++23xwAtQ1lzPcXZB8V14NwEYAneZguBWPZP15HWsZz7V7w92Qn8nWXPR7YBw9YRMMaUDN68bF3+LZaa3zmdN/tKvWhUy1pxbs5FvbJDd+fVi/ufbLgerp+MdObY3WSTTeKpaGCj3gwXTil13XGlvxRQQAEFFFBAgTooMPq90aH1Wq3r4JXN2CXR0Y9nzcaNG0+3I8/FPOemwOx0G1SwgGMz8gzP3DPbobOCU7hagSoRGPnGSP9/qBJZD6pA3RDw/4i6cR+9CgWqQsD/H6pC1WMqUDcEJoyfEJot3qxwMUzpWe8yddPVE1Bs3rx5/EnLqvOVBpFS8/lWVK/sfLwVbZu3vjgYmd2GBpk0X2t2eWXfE2Qs3j87l3Gp47Af92d2FgKb2eBmqWNz7jwTGpWKA7ocg+V52+dtWxx8J3hK4LW40Eg2I4X7VFz4G88L1OfVK2vD9fD3yDGfeOKJOHw2ywjuH3rooYXTlLruwga+UUABBRRQQAEFFKiTAmkqlryLywv05m1XahnHLu/4pfZzuQIKKKCAAgoooIACCiiggAJ1XaDeBnXr+o31+v4U6Nix40xnCvx5lKp5x3DJ/NTEwnDLDJfNMHhkG5caRrwm1t06KaCAAgoooIACCiiggAIKKKCAAgoooIACCiiggAJ1ScCgbl26m15LrsDMDBude6B6uJAhoNdZZ516eOVesgIKKKCAAgoooIACCiiggAIKKKCAAgoooIACCihQcwQa1JyqWBMFFFBAAQUUUEABBRRQQAEFFFBAAQUUUEABBRRQQAEFFFBAgWKBWp2p+3PHrYuvx88KKKCAAgoooIACCiiggAIKKKCAAgoooIACCiiggAIKKKBAnRIwU7dO3U4vRgEFFFBAAQUUUEABBRRQQAEFFFBAAQUUUEABBRRQQAEF6pqAQd26dke9HgUUUEABBRRQQAEFFFBAAQUUUEABBRRQQAEFFFBAAQUUqFMCBnXr1O30YhRQQAEFFFBAAQUUUEABBRRQQAEFFFBAAQUUUEABBRRQoK4J1Jmg7ltvvVXX7o3Xo4ACCiiggAIKKKCAAgoooIACCiiggAIKKKCAAgoooIACCoQ6E9T1XiqggAIKKKCAAgoooIACCiiggAIKKKCAAgoooIACCiiggAJ1UcCgbl28q16TAgoooIACCiiggAIKKKCAAgoooIACCiiggAIKKKCAAgrUGQGDunXmVnohCiiggAIKKKCAAgoooIACCiiggAIKKKCAAgoooIACCihQFwUa1sWLml3X1GjAoDKH+rnj1mU++0EBBRRQQAEFFFBAAQUUUEABBRRQQAEFFFBAAQUUUEABBRSoagEzdata2OMroIACCiiggAIKKKCAAgoooIACCiiggAIKKKCAAgoooIACsyBgUHcW8NxVAQUUUEABBRRQQAEFFFBAAQUUUEABBRRQQAEFFFBAAQUUqGoBg7pVLezxFVBAAQUUUEABBRRQQAEFFFBAAQUUUEABBRRQQAEFFFBAgVkQMKg7C3h5u3bt2jX069cvb1U4+uijwx133BHXDR48OLDt008/Pd22zzzzTOjWrVv46aef4rpevXqF7t27T7ddZRZMmjQpXH311WG//fYLrVq1Cp06dQoXXnhh+Pbbbyuze8lthg8fHus/ZcqUktvMygqOm65/Vo7DMX799ddZOYT7KqCAAgoooIACCiiggAIKKKCAAgoooIACCiiggAIKKFCtAgZ1ZzN/3759wyuvvJJ71N69e4cXX3wxrhs1alRg20MOOSR8//33ZbYfN25c6NOnT5g8eXJcPnTo0HD//feX2aYyHz777LOw3XbbhRNOOCHMPffcoUuXLmGJJZYIPXr0CG3btg1vvvlmZQ6Tu83YsWNj/X///ffc9bO6kOB306ZNw9SpU2fpUKuvvnq83lk6iDsroIACCiiggAIKKFALBW768OOwxCNPxB/eWxRQQAEFFFBAAQUUUEABBRRQoPYKNKy9Va8bNR8/fnw4++yzw2WXXTbbL+j0008PL7zwQhgwYEDYYostCscnyLvNNtuEQw89NDz77LOhQQNj+wWcmXjzww8/xKB5o0aNZmLv8nf5+uuvw8ILLxzIuKYssMAC5e/gWgUUUEABBRRQQAEF/idw8sh3wheT/3iO5H2XFsvm2gwaNCh8+eWXZdbNM888YY899iizjA+MKvTBBx8EOnfSYbRDhw5h3nnnLWz33HPPxc6pW265ZWGZbxRQQAEFFFBAAQUUUEABBRRQYNYF6nw0L29448RW3rq0TVW/nnbaaeGaa64Jw4YNm62nev/992O2LwHcbECXk6y66qrhkksuCSNGjIgBX5bttdde4bHHHgtXXHFFaNeuXVzH0MUM+9ymTZvQokWLsM8++4TXXnuNzQvlv//9b9h4441jg87/s3cm8FpN+/9fkXluEplnSaWbWaYMGSJzKKRwjdcf1zwkMz/JRWUmCReJQrhkyJwMpVBkKmOmUDL9ey93PXef5zzP6Zw6p87w/r5ez7P3XnvtNbz3I+usz/p+1+677x7Gjx+fuzdjxozQq1ev+HzLli3DSSedVCLsM57K6Vnq6N27d5wcuuSSS8IVV1wRy9lll11iyOphw4aFgw8+OLzzzjvxSOhqjDbvvPPOsX20kXRCS9N/0r/66qtw/fXXB8r5/fff4zN33HFH7hnS77333pjOV7F6chkKnNx3333h8ccfL3Bn7pOuvfba8PHHH4ehQ4fGz9yXaAkSkIAEJCABCUhAAnWFQBJ06W/2PL//LVq0iH8D8HcAH2yRRRbJzxbGjBkTiNiz9dZbRzGXsXb6O2bs2LHxb4sJEybkIg6VKsAECUhAAhKQgAQkIAEJSEACEpCABOaYQK331L3ooosiHCYesoagy7389GyeeXF+wgknhIcffjgcddRR4eWXXw6V5e351ltvxeYj1hayPffcMyYj7O66665xb1/EQ0I/d+zYMYY+3mOPPaIn7/nnnx+9RW+44Yaw4447hlQ2BRx33HEBYRpvX4RYwkmniZ2DDjoojBo1KgrD3L/wwgvjPVb340GMAMvewaeddlpgRT/lrLDCCnHvX8ImMyGER/Gqq64axo0bF/cqfv3110Pjxo1Dly5d4qQSewQj3iIET506NZa1/PLLx5DThJ7mPVMWHgTY5ZdfHs4777zQtWvXcNhhh4VHH300HHLIIQGPWN7B559/Xqqe+GA5vvBWYC9gvBqyRghpBOX8dPKw329F0rPlUiZhtctr2fwprHW+l3Y2TyqXvHzq1y/5z0WxtsOAcstTdqqjUL3pnkcJSEACEpCABCQggaolwPg5WdoupkOHDikpdyR6DGIviymxxRdfPI5nOWdMi+cuUWyyhlcvf3Pwdw5jbfK1a9cu/l3AIlLSWRxKWYzd+XuEcfWSSy4Z/06prL+Psm3yXAISkIAEJCABCUhAAhKQgAQkUBMJlFRpamIPZtPm5MlJtiTgJkGXe/PbmNTo379/2GyzzcKll14aEFArw5g8wZo1a1awOCZNEEfxaE3GBMprr70WVl555TihQmhm9rZFOMW2nRVCDQGUPMluv/326AXLNcLf6aefHkMFI+YimD7zzDO51f5M3uCR+8QTT4Rvv/02FoH371ZbbRXraNCgQZzkQXD+4YcfomfqySefHMVBRF0MoRlO2EMPPRTat28fbr311rDccsvl0tivmLJ49uqrr46eypxTJoIuYm6/fv1i/gMPPDBORJ1zzjlRkI6Js76y9aS0so7vvvtufHcwoO7jjz8+8rjpppvCZ599Fh9daqmlYjoeDrBlUuynn36K4eqOPPLIOAlGOnwoZ5lllsl5F2frRtjGcxfxlDIRx6mzkDEph4iOAEtdyy67bHy/eFIwWbbFFlsEJuxo44ABA2IefpP77LNPFNfvv//+KOKTl98M7WSvZ/aHxhO7Xr168f3utttu4csvv4zpTM5ha621Vvy9cH3zzTfHkH7kp62rrbZaZFyRvhTqn2kSkIAEJCABCUhAApVHYPr06THyDpF+Ci0eZLEkkXNYlMq4DgGXsTy27rrrxiPjfBbsJWPsSCQdxFkWiPK3GOGeiR7E3x0jRoyIizU5xwt4yy23jFuOPP3003HRK3+DaBKQgAQkIAEJSEACEpCABCQgAQmEUOtFXV5yVtjlGs9OJiyqi7Vq1SqcccYZ0du00L5Vs2snwujEiRNz2bp16xY9bUn4/vvvQ6NGjXL30gkTLYRLQ9hN1rlz5zixwjXCI0Z44mRM4uBhiyH2Yky6JEOowxD7WI2PIarmG568ePgiODOxQwhmJmsQF1O4t/xn0jViaTKEV/IjHiNS0jZEUQTGQpYE7P3226/E7QMOOCAMGTIkhjlON7L1pLSyjgi0J554YsxCCGtEXtjDGE9kvFwJeU06AiuewXgL44VMiGWEVxjwW91rr70CvwnEXfqTNSbEaCuhqBFNeQ8DBw4MeHwXMuriGYRseCOIT5kyJZx66qnxHT311FORO+I8IbJ53wjB99xzT/jnP/8Zw20feuihUYRFmIUx/cJzgt8sTGkD7473wP6/hPzGCwPPbrggDCNAE8qbST4E9aZNm8Z2VaQvhfpnmgQkIAEJSEACEpBA5RFgHIgnLmPUQjZt2rS4+JDxZRJ9ScNDtyxDACYCD5FcEG9ZgMrfABgL/vjbLJXHeHHFFVeM40vGspoEJCABCUhAAhKQgAQkIAEJSEACfxGoE6IuXSW0L2IuVpUeunhOJq/SWNl/vxC5sEUXXfS/KSUPiGzszUo4YsIAV8QQ4hAJk2244Ya5ehAF11xzzXQrd0zetgi1ybKTNylsGl6bZVmxcGgIu1gSelMZ7Ku70UYbxYmftKcvq/DxaCWEMoLgBRdckLKXOhKeORn72OLV27p16xiaLe2zm+7nHxEYsfz9wdJ1VujP1pNfTqFrOOIFi/EbgB/e10xI8Q4++eSTKGziqYAhiq699trxHO54syL4whM+GOGjCUudNTwjMEJ188H79uuvv46Ta/nhjtNzePyuscYa8RJvW4TwJZZYIk6oIe7jwUz9X3zxRRSIyYhn7qeffhq9he+88874/MYbbxzFZgT0t99+O1xzzTWxD8ccc0ychEOkZk9lxN0koCPmMmmH0A5nxNz0O5uTvqQ+eZSABCQgAQlIQAISqHwCbMey/vrrFy2YKCss4mMMjlCLly2L/gr9vZEtBME2jVU5z/4NkdIJAc34mPEkf0/xd1N2AWm2PM8lIAEJSEACEpCABCQgAQlIQAJ1kUCdEXUJvZzE3BSGuSpeeIsWLaKohdCW9ZAlRBlWbJKESQs8G9n7taIhmPHMzTfEOsRdPDPxaE2CI/kQFtnfFvExhVYmPSvgJhEQj128RjHCMyMIEu54dpbEYvbYTZM8CIcXX3xx3INr2LBhUfj7xz/+Edj3F+9WPGivv/76MkXdNOlD/fCijyNHjsyt7MebtJilPpE/O0GElyy2+uqrh5deeimeZ+uJCbP5WnjhhUvloB5Cy2266abxQ3jiZPn706Z0JseScZ69Jh2xlYkwPBySwZpwzcXanF9Gft08i7E3WvKQoHw8LvA+RnxFxH3wwQdjKGY8d1daaaXoxcvvI3leExKa3z2/ERYaIAZjtJlPshSOb076ksrwKAEJSEACEpCABCRQuQTYjoNxWlp4WKh0FgMyDkzjSxZwIgRXhrHAknEtHrwsiGVhJFu5EKFGk4AEJCABCUhAAhKQgAQkIAEJSCCEBeoSBMTcqhR0Ycmeoxh7kiJ+4hGb9spFRN11113j/UJfeHYS9peQvfmGWMYesvkf9p0qZIhzCKXcp8+DBw+OnqB4URLimdC+V155ZQmxN1sOohyhmRGMETqZUEHgY2V+8njO5s8/J6wyImmXLl3ihAyr+nkeIZaJIsK0sf8uIi5tZDU+nqLsrYUl71n6m/YHzq8DcZIJnzfffDM+z365TP5Mnjw5hvYlP2Ir74C9u+gP3qQ9e/YMhBtGrGQ/YzjBHe/VyjQ8b2GQWOK9nBU38+ui7wjfeCdgeOkmwTXlJQ+TbUygEa6Z8mCbL9Sm/OU5IvjDibIoExGe9423MV7ThG0mxDeeugjT/K7xkmYBwtFHHx0n9UiHO7810tOeybSf59O+vngs4wGMVUVfytNf80hAAhKQgAQkIIG6QqDxwovkupo9zyVmThiLs0iQ8X7WGEun8SnjRsbmRAliTMoCv6zXbfa5ip4jDrPwkzEoUXNYcFjW2Lmi5ZtfAhKQgAQkIAEJSEACEpCABCRQ0wnUGU/defWi2JeWPabOPffcQFjaZIQI7tu3b26v25Se713JcwiwCGTJEOwQQdn7Nd8oE+GwkOGNOmrUqNiO7Ap3RFU8h7fffvtCj8U0wgPjeUk4aEQ6rGPHjmHAgAElBMS0Sp/76Zw+IRIiyCJys38Wxqp79n9logiRkAmitA8t9/G6vfHGGzmNeenXgQceGFkSji3fCNWMQJ28bhGSEYoR0QnnzH08hREm8TLFs6B3796xbX//+99zxSHoJu/o/PeRy1SBk8Shbdu28V326tUresASBhlv8fbt2+dYUWzKj2c3rO++++6Yhud0upeqb9iwYXxvCKvcgzOMyrL8MvKveZbf7aBBg6LXM/dpBxNp7NuL6M0iAQRaQu3Rhttuuy0yI43rddddN2ywwQbRSx3Bl77yuyWkOJ7YeFDzHkjjHu2ek76U1U/vSUACEpCABCQgAQmUJHBZi/XCaWP/2r6D87IMobaQQPvee+/F8TsRh9q1axceeeSR+HcCZTFeTWP9YmUXGnvm5yUP404WRfK3UHqG8bQmAQlIQAISkIAEJCABCUhAAhKQwF8E6s0KcxXjouIp2bx58yrjUhPLX2z4kyV4TO/QvsR1WResXMeLdOrUqTFEWYMGDcrKXuX38ABlVT17vCKqVcQQqZlYqehzqQ5W2//6669hueWWS0m5I2HWYMQEEiJfRY09W+FM2cnTFq9mrlMo4UJl8hzeCIjFc+PlWqjsbBr9po8I2QigeOuyr21ZRj72ysWzu5iRh3eK+I7hdcx11uhXy5Yts0mzPWfxQH697EWc+pBEb7wmEMkRZ7OTf7SB3wppPEd+PKnTHsJc4yGOOJxC++X3ZbaNNIMEJCABCUhAAhKYTwQmTpgYWmzYYj7VXn2qZZzH3zuzG9fOSYspm+1iGNunseeclOMzEpjXBMaOGeu/D/MauvVJoAYR8N+IGvSybKoE5jEB/32Yx8CtTgI1iMCUyVNCo8aNci1mK0w9dXM4KvcEQZGws3yqgzHhUmw/39m1L7sf7+zyFrqfhMdC9xD/2JdrTg3hMv/57F7GxcrluXnxbvBeSHsVMylVnokv8uULq/n9IE+WK8I5n6ylerNpszsvVC+hsFM47PR8MZE/27/sM3fddVdYddVVY1hm2p72Waa8/L6kOjxKQAISkIAEJCABCVRPAtlxXmW3sNDYs7LrsDwJSEACEpCABCQgAQlIQAISkEBNJKCoWxPfmm2WQB6B6hyajratscYa4YMPPoihwufEIzuvu15KQAISkIAEJCABCUhAAhKQgAQkIAEJSEACEpCABCQggTpFQFG3Tr1uOyuB+UOA8OPzOwT5/Om5tUpAAhKQgAQkIAEJSEACEpCABCQgAQlIQAISkIAEJCCBuSewwNwXYQkSkIAEJCABCUhAAhKQgAQkIAEJSEACEpCABCQgAQlIQAISkIAEJFBVBPTULYPs9A7ty7jrLQlIQAISkIAEJCABCUhAAhKQgAQkIAEJSEACEpCABCQgAQlIQAJVT0BP3apnbA0SkIAEJCABCUhAAhKQgAQkIAEJSEACEpCABCQgAQlIQAISkIAE5piAou4co/NBCUhAAhKQgAQkIAEJSEACEpCABCQgAQlIQAISkIAEJCABCUhAAlVPQFG36hlbgwQkIAEJSEACEpCABCQgAQlIQAISkIAEJCABCUhAAhKQgAQkIIE5JqCoW05048aNK2dOs0lAAhKQgAQkIAEJSEACEpCABCQgAQlIQAISkIAEJCABCUhAAhKoPAKKupXH0pIkIAEJSEACEpCABCQgAQlIQAISkIAEJCABCUhAAhKQgAQkIAEJVDoBRd1KR2qBEpCABCQgAQlIQAISkIAEJCABCUhAAhKQgAQkIAEJSEACEpCABCqPgKJu5bG0JAlIQAISkIAEJCABCUhAAhKQgAQkIAEJSEACEpCABCQgAQlIQAKVTqB+pZdogeUmsNjwJ0vknd6hfYlrLyQgAQlIQAISkIAEJCABCUhAAhKQgAQkIAEJSEACEpCABCQgAQnoqetvQAISkIAEJCABCUhAAhKQgAQkIAEJSEACEpCABCQgAQlIQAISkEA1JqCoW41fjk2TgAQkIAEJSEACEpCABCQgAQlIQAISkIAEJCABCUhAAhKQgAQkoKjrb0ACEpCABCQgAQlIQAISkIAEJCABCUhAAhKQgAQkIAEJSEACEpBANSagqFuNX06hpnXv3j0MHjy40K1w7LHHhrvuuivee+qppwJ5n3322VJ5n3vuuXDEEUeEn3/+Od7r379/OPPMM0vlK0/CL7/8Eq677rrQuXPn0Lx589CpU6dw8cUXh++++648jxfN89JLL8X2//bbb0XzzM0Nyk39n5tyKOPXX3+dmyJ8VgISkIAEJCABCUhAAhKQgAQkIAEJSEACEpCABCQgAQlIQAJlElDULRNP9bs5aNCgMHr06IINu+WWW8Krr74a77333nuBvIcffniYNm1aifwffvhhGDhwYJg5c2ZMHzlyZBgyZEiJPOW5+OKLL8JOO+0UTjnllLDggguGbt26hSZNmoQ+ffqEtm3bhrfffrs8xRTMM2nSpNj+P//8s+D9uU1E/G7YsGH4448/5qqo9dZbL/Z3rgrxYQlIQAISkIAEJCABCVQBgVs//jQ0eeQ/8cO5JgEJSEACEpCABCQgAQlIQAISkEDNJVC/5jbdlpeHwOTJk0PPnj3DlVdeWZ7sFcpz9tlnh1deeSUMHz48bLPNNrlnEXl32GGH0KNHj/D888+HBRZw7UAOTjU6QeyvX79+WGyxxapRq2yKBCQgAQlIQAISkEBlETht7Dvhq5m/xOI477bKSkWLnjhxYnjjjTfCjBkzQtOmTcOWW25ZcJxI1J+PPvoosPiSBZ3bbbddWHjhhcMnn3wSiLYzffr0sPjii4ett9463i9aoTckIAEJSEACEpCABCQgAQlIQAISqBAB1bYK4SqduVB445SrrHspT1UfzzrrrNC3b9/w4osvVmpV77//fvT2RcDNCrpUss4664TLLrssTgoh+GL77rtveOyxx8JVV10VNtlkk3iP0MWEfW7Tpk1YZZVVwv777x/efPPNmD99PfDAA2HzzTePE0K77757GD9+fLoVJ5x69eoVn2/ZsmU46aSTSoR9xlM5PUsdvXv3jpNPl1xySbjiiitiObvssksMWT1s2LBw8MEHh3feeSceCV2N0eadd945to82kk5oafpP+ldffRWuv/76QDm///57fOaOO+7IPUP6vffeG9P5KlZPLsM8PLnnnnvCiBEj5mGNViUBCUhAAhKQgAQkMC8JJEGXOrPn+W347LPPwgsvvBCIQtO+ffvw7bffhpdffjk/WxgzZkwgog6CLWIuY2H+zvj+++8D27+svvrqYbfddosRcRhHp8hApQoyQQISkIAEJCABCUhAAhKQgAQkIIEKE9BTt8LISj5w0UUXxQQmNrKGoMu9/PRsnnlxfsIJJ4SHH344HHXUUXFiprK8Mt96663YfMTaQrbnnnvGZFb777rrrnFv348//jgQ+rljx45xomePPfaInrznn39+WHrppcMNN9wQdtxxx5DKpoDjjjsuIEzj7YsQSzjpJFAfdNBBYdSoUVEY5v6FF14Y7+E9gAcxAix7B5922mlxkopyVlhhhbj3LxNWEyZMiB7Fq666ahg3blzcq/j1118PjRs3Dl26dImTVuwRjHiLEDx16tRY1vLLLx9DThN6mvdMWUxqYZdffnk477zzQteuXcNhhx0WHn300XDIIYeEb775Jr6Dzz//vFQ98cFyfLF370ILLVQqJ2Iy4a/zjXS41KtXr8StYuWUyJR3ka2D/Yjx8M23bJ50jzTqz/fWLtYGJv7oY36bC5VNHXiIEEK7UP9TGzxKQAISkIAEJCABCZRNgPF3s2bNQosWLeLYinE6Hrv59ssvv4RFFlkkLnjkHh65jOvw0mU8xhYsGGPj22+/PUyZMiWO6/ibgL9DGAsz1mvXrl0ct7PIk3QWb1IWY2v+XmCMt+SSS8a/Iyrr75fYML8kIAEJSEACEpCABCQgAQlIQAI1mEBpZaYGd2Z+ND15clJ3EnCToMu9+W1MmvTv3z9sttlm4dJLLw0IqJVhhFzDmPwpZEzKII7i0ZqMCZrXXnstrLzyynHChtDM7G2LcIptu+22UQAlTzImg/B2xRDvTj/99MBkEmIugukzzzwTPX+5z+QQHrlPPPFE9C4gDe/frbbaKtbRoEGDOImE4PzDDz+EoUOHhpNPPjkKjoi6GBNYcMIeeuih6Klw6623huWWWy6Xxn7FlMWzV199dfRU5pwyEXQRc/v16xfzH3jggXGi65xzzomCdEyc9ZWtJ6UVO9JXPHyZ3EIc3WeffeKEGwI0fUBkXWqppaKIjdjKnsaI10yuIY7Cd6ONNooTZHgvM0HH74K8K664YrFqw9133x29Ltg7mTrWXXfd6KXMNe3o3LlzFLQLtYNJODyY8d7AqAeBnWv2fqYNtA2vbbw5mOh78MEHo7cz6XiI8N/Tp59+GvB8TmH8uAe79ddfP+ZP+0vzm2JPZ8Xdoq/TGxKQgAQkIAEJSKAoATxtGe/eeeedcdzHWJ4FjPnGYkYi27BolHHZjz/+GMfaRLJhrJ4W4jF2w9juY9FFF41jSMRZFnDyt9KTTz4Zo/swhiNyDB7AnOMFTNjnJZZYIjz99NNxUSp/I2gSkIAEJCABCUhAAhKQgAQkIAEJhKCoWwm/gqywS3F4dqaJjEoofq6LaNWqVTjjjDOit+nee+9d4fIQRtljKxniWcOGDeMlE0CNGjVKt3JHJnQQ8BB2kyECMlmDMXGDJcGWcyaJ8LDFEHsxJnWSrbbaavEUQRAREENUzTc8efHwRXBm4ogQzEwGdejQIScA5z+Tro8//vh0GsVDREfE47Fjx8a2IUQjQhayJGDvt99+JW4fcMABYciQIQFP5WTZelJasSOTXrQDj2fCWY8cOTKstNJKsUxCRq+11lqR18CBA6MojgBL3/FUvu++++KkGaIuk3Rrr712DIVNWxFLyzI4f/311+HEE0+MnsaIsa1btw5///vfw4ABA6L3M/ut0bf8dhCSG89m9l3G+/aaa66Jk3QI9gi+/B5pA++Z94Jovemmm8b/dv7zn/9Ezw1EXepBTN5rr73iggBEbLxBEJLxKPl//+//xT3crrvuuhgqG0aaBCQgAQlIQAISkEDFCDC+wquWhaDLLrtsFFQJp8wYLGuItIi3iLhpMR1pjPHZT5dxc/PmzXNjdcpF1EUA3mGHHeLCQPKyQJQxOsZiSf52SuUR+pkFgYwReV6TgAQkIAEJSEACEpCABCQgAQlI4C8CirqV9EsgtC9iLlaVHrp4ZCav0mzTCWWGMWlSyE499dQo8OEtSSjmihjCK+GDk2244Ya5ehA511xzzXQrd0zetgi1yQhznIxV/Rgeo2VZsXBrCI5YEnpTGeyri4DZpEmTOJmECMoq/5tuuimK2uwBfMEFF6TspY54uCZ7/PHHA169CJmIhWmf3XQ//4gHMUZIuqyl66zQn60nm7fQOaIte5ox0YYoiydwErVJ5/PTTz9FAZZJNgwxG2/aDTbYIAryTLzRPgRp0imHMNKzMzxiCY2NtwS2/fbbxwk3JtrwvMZTA8tvRxLv2UOZ9iNsr7HGGoEQe2+//XYUeWnDMcccE8vjvbCf8v333x/whMZoM+85tXnjjTeOojb3WBTAxB8iL8ZEIW1R1I04/JKABCQgAQlIQAIVIsD4kLEhi+kwwiizkJBIMYyzkrGwjrEhY2TS8bJlUSbRaQi5zOJK9uZlLMg4Lo3lGbdRB8Z5Suc6pVM/48Px48fHv3f4uya7wJO8mgQkIAEJSEACEpCABCQgAQlIoC4TUNStpLePV2ESc1MY5koqukQx7HPFCng8KLMesoRAwxDhChmTIuxZy2RLRUMw45mbb3jiIu4SqphwuKzoT4ZnJvvbIkCn0Mrcywq4CHwY4hyexBgiIR6phDuenSWxmD12k6iMYHjxxRfHPb7w/MQT9B//+Ef0TEVcxIOWkMBlibppUon64UUfmdBKngM333xz0aalPpE/OwHFHr/Y6quvHj0YOM/Ww3VZRrhlJtYQQ5kko/wkribxlOdhkkTdxDpNwjEhh6V+cF6eNqT8qZxULs9jlEue/HYw2cdexnjTsgjhtttui17ZeGTgZYyAy7tn4g9hF9Gd3zO/hWWWWSa8+uqrub78VdNf36l/1MtkYKqXI3VqEpCABCQgAQlIQAIVJ0C45YUXXjj3YPY8lzjrhO1GGMulsSELLIlGg4DL3wBE+MHwsGXbD/5GSIs5440yvlgAyXiW8SILVlk8ylYrRITRJCABCUhAAhKQgAQkIAEJSEACEpil6wih8ggg5laloEtLjzzyyNhghD7ETzxi0165iKhleSoSTo2wv2mf02zPEYnZQzb/w75WhQwhD6GU+/R58ODB4d13342CMyGe2df2yiuvLCH2ZsvB+5fQzAjGhGpjwoYwvwhzyeM5mz//HE9URNIuXbrECR+8BngeIZYV/oSBY/9dRFzaiLDIXrDrrLNOLCp5z9LftD9wfh3sOcuEEgIkz7NfLpNLkydPjl6k5GfCi3fA3mD0p2vXrqFnz56BvYDxHGU/YzjBPXm75tczu2sEckIZ824RpvG4pe8I60ykbbvttlFchQFtLmTskUZb8VzGPvvss9i3QnkrkgbPQu3gnRISGTE6hetmf1x+s3hAs7jg6KOPjhOCvB8mAQ866KAYgjl5ndNmRGTajJiLmE1dGPUi4v/tb3+Lvz/Cg2fDW1ekD+aVgAQkIAEJSEACtZVA44X/F0Eme57fXyLqMFZLe+MyrmTsinjLWBfvWQyRlrEzUXwYl7FIj4V2jNkYJ7Ogj8V3jAX5e6Ei0WkYy7EwExGY51ZZZZVYVn5bvZaABCQgAQlIQAISkIAEJCABCdRVAoUVoLpKowb0m31pmWw599xzo4djajIhgvv27Zvb6zal53tj8hwCLMJkMoRARFBC5OYbZSIgFjK8UUeNGhXbkV1Bj6iK5zDepMWMfVUJnUs4aAQ+rGPHjnEP1awwmbwAuJ/O6RMCJYIsIjf7c2Gs6mdfWYRhvASYgELoTYbX7Y033hgvyUu/CBUHk0KhiAkJjECdvG4RkhGKEdHxLOU+nsJ4/j744IPRc6F3796xbew7mwxBN3lH57+PlKesI6It5cOU/XJ51+xlC19EUrjAg76UZfx28JhIoZvzvW7Lejb/XnoX7K1cqB20j5DMvXr1ih7BvFP22cWLA69deCDU8jzCLB67LAKgXLw/yIdXMkLv3XffHUaPHh334qWffPBYJ0zz//3f/8VneOcI/JoEJCABCUhAAhKQwP8IXNZivXDa2L+2y+C8mBEthYV1jDkxxls77bRTPGfMxViLiEDt2rULjzzySG4LDMaTjMURcNu0aRPHmQjCjHnTGD+NG2NhRb7Iw5YdLBLlb5X0DAsENQlIQAISkIAEJCABCUhAAhKQgAT+IlBvVpirGJcVT8TmzZtXGRfLL412seFPlkic3qF9ieuyLlgZz8QLHpyIYA0aNCgre5Xfw2uSVfvstUr43IoYIjUTNxV9LtXBan5CvOHZmW+EcYMRHgQIiBU1RFQ4U3bytMWrmWsmr4oZz+EZjFicFamL5Z9dOu+bcHeI4VkxFmEU9qSX1ygHr+40WYZHMWVkjTa3bNkym1TmebF2sNcvbWciMBneG7SBycLsfmqkJU8PnuMcj28m8/AKQehFxGX/6sSU9075xfaSTnV6lIAEJCABCUhAApVBYOKEiaHFhi0qo6hqWQbjKsZXsxtbETmGvIRtzjfGlYXS8/MVu6Zsorgw9p6TBZHFyjVdAlVNYOyYsbX634eq5mf5EqjtBPw3ora/YfsngTkn4L8Pc87OJyVQ2wlMmTwlNGrcKNdNnOP01M3hqFknCIrNmjWLn+rQciZuiu3nO7v2ZffjnV3eQvfLEjQRBhG959QQD/Ofz+5lXKxcnuP9VJbxvguJ1kx0ldX/QvVnBVbuI4rn73WWFY4LlZGfVqwdSQjP5i8m4GfblZ4jtB9hnAm/N2XKlPgbS4IuZdLOirY12xbPJSABCUhAAhKQgAT+R4AxZ1kLF1POtJVJus4e50bQpRzKLqv8bF2eS0ACEpCABCQgAQlIQAISkIAE6hIBRd269LbtqwQKEKjOYe0IKc3+anhbEx4869lboCsmSUACEpCABCQgAQlIQAISkIAEJCABCUhAAhKQgAQkIIFaSUBRt1a+VjslgdpDAC9dPpoEJCABCUhAAhKQgAQkIAEJSEACEpCABCQgAQlIQAISqKsEFqirHbffEpCABCQgAQlIQAISkIAEJCABCUhAAhKQgAQkIAEJSEACEpCABGoCAT115+Nbmt6h/Xys3aolIAEJSEACEpCABCQgAQlIQAISkIAEJCABCUhAAhKQgAQkIIGaQEBP3ZrwlmyjBCQgAQlIQAISkIAEJCABCUhAAhKQgAQkIAEJSEACEpCABCRQZwko6tbZV2/HJSABCUhAAhKQgAQkIAEJSEACEpCABCQgAQlIQAISkIAEJCCBmkBAUbcmvCXbKAEJSEACEpCABCQgAQlIQAISkIAEJCABCUhAAhKQgAQkIAEJ1FkCirrV5NWPGzeumrTEZkhAAhKQgAQkIAEJSEACEpCABCQgAQlIQAISkIAEJCABCUhAAtWJgKJudXobtkUCEpCABCQgAQlIQAISkIAEJCABCUhAAhKQgAQkIAEJSEACEpBAHgFF3TwgXkpAAhKQgAQkIAEJSEACEpCABCQgAQlIQAISkIAEJCABCUhAAhKoTgQUdavT27AtEpCABCQgAQlIQAISkIAEJCABCUhAAhKQgAQkIAEJSEACEpCABPII1M+79rIWEVh09E0lejOjTY8S115IQAISkIAEJCABCUhAAhKQgAQkIAEJSEACEpCABCQgAQlIQALVn4CeutX/HdlCCUhAAhKQgAQkIAEJSEACEpCABCQgAQlIQAISkIAEJCABCUigDhNQ1K3DL9+uS0ACEpCABCQgAQlIQAISkIAEJCABCUhAAhKQgAQkIAEJSEAC1Z+Aom71f0e2UAISkIAEJCABCUhAAhKQgAQkIAEJSEACEpCABCQgAQlIQAISqMMEFHXr8Msv1PXu3buHwYMHF7oVjj322HDXXXfFe0899VQg77PPPlsq73PPPReOOOKI8PPPP8d7/fv3D2eeeWapfCZIQAISkIAEJCABCUhAAhKQgAQkIAEJSEACEpCABCQgAQlIQAKzJ6CoO3tGdSrHoEGDwujRowv2+ZZbbgmvvvpqvPfee+8F8h5++OFh2rRpJfJ/+OGHYeDAgWHmzJkxfeTIkWHIkCEl8nghAQlIQAISkIAEJCABCcxjAh88E8IL14bAUZOABCQgAQlIQAISkIAEJCABCUigRhGoX6Naa2OrHYHJkyeHnj17hiuvvLLatc0GSUACEpCABCQgAQlIQAIZAp+P+euC4xrbZG6UPCXyzkcffRT+/PPP0KRJk7DddtuFhRdeuGSm/1798ssv4Z577gn77bdfWGyxxXJ5Xn755fDBBx/E69VWWy1svvnmuXueSEACEpCABCQgAQlIQAISkIAEJFBxAnrqVpzZPH2iUHjj1ICy7qU8VX0866yzQt++fcOLL75YqVWdeuqp4YQTTihR5ogRI8LOO+8cPv/88/Cvf/0rkCdr/fr1K/VM9r7nEpCABCQgAQlIQAISkEDZBMaMGRMmTZoUtt566yjmfvXVVwXH+t9//31A/L3//vuj+PvHH3/kCia6z8SJE6OQi5g7YcKE8P777+fueyIBCUhAAhKQgAQkIAEJSEACEpBAxQnoqVtxZvP0iYsuuijWx6RK1hB0uZefns0zL84RXh9++OFw1FFHBVbjZ1fnz039q666ajjllFPCGWecEVZYYYVYFCGdf/jhh9C0adMwfvz43Mr/VA8TRSk8dEorz/H3338PCy64YMGs2XvZ82zm3377LdSvX/o/pUL5mezik5//119/DQsttFC22DLP88su1Ib8PKnAQnWRt169emGBBUqu86Ct3MtvG14bfPLzU0exelP9HiUgAQlIQAISkIAEqi8BPG8XWWSRsMoqq8RGLr744oHxY74xdlxiiSXCmmuuGd55550St9mqZeONNw546DJm3HvvveO4kXL+/e9/h7XXXjuQh3ubbrppFHwRjxmT8/fNyiuvHMf7r732Whxb4iVMerNmzUrU44UEJCABCUhAAhKQgAQkIAEJSKAuESitRNWl3teAvj722GPRO5WmJgE3Cbrcm9+G2Ne/f/+w2WabhUsvvTScf/75ldKkffbZJ4q6Dz30UBSMZ8yYEffw7d27d6WUf++994ZPPvkk7geMCLnUUkvF/YEbNmwYLrnkktC6desoUu+5557RU+HNN9+Mk07LLLNMOOSQQ0Ljxo3DK6+8Eh599NGc6Nm5c+c4QfX666+HoUOHBoRWyu3evXto0KBB9GJ46623YjlMjh155JFx32H2KqZ/TIxtsskmYbfddivYRwTtPn36hOWXXz5MmTIlTnrh+fD8889HoRjx++ijj45l3X777TEPZTJRtssuu4RRo0aFYcOGxfoRY2G8zjrrhOuvvz4wiYatuOKK4Ygjjojl3XTTTeGzzz6L6fTj+OOPjxN8sHv77bdjOm2hn4j75B0wYED46aefoghM+c2bN4/5/JKABCQgAQlIQAISqBkE1ltvvSjSsnCTseSPP/4Yttpqq1KNX3rppUObNm3i2DMr6jK2ZnzI2PCll16KY09COO+4445xjMm9Dz/8MHoBM6Yk4g9j8O233z6OrxmzrrTSSnGx5lprrRXH1yweHTlyZDjggANKtcMECUhAAhKQgAQkIAEJSEACEpBAXSGgqFsD3nRW2KW5hCCePn16tWl5q1atokctYiir8Ctq+++/fwzPlp7r1q1bFBARN9mfCy/gZ555Jt6ek/JTudnjzJkzo9cvwioCLcIqnsD/+Mc/oifC6NGjAyItYeUQdBE68RAm3x133BEFYATSTp06BfpP2Ln77rsviqpDhgwJBx98cGAS6q677orl0gfKOfTQQ8NqszwWbr755jhpRflLLrlk5IenMfk7dOhQ0HMYr1kmwfCGoN3XXntteOGFF8IxxxwT81999dVh6tSp4fHHH4/5zj777PD1119H0XbdddcNTz75ZBSNd9111zB8+PA4McakG8+QFybXXHNNFLERefmcdtpp0av4sssuC++++27AcwMv6eOOOy4K1uTHwwJDSG7ZsmUUkPGY5t1Rbr6Xb/Y9eC4BCUhAAhKQgAQkUL0ITJs2LYqv3333XW5MShrCbHks/Z3y6aefhvbt28fxI4IsXrcbbbRRLILFqoytGUci/iLosuiRcWlWIGasjPcu5Xz55Zflqd48EpCABCQgAQlIQAISkIAEJCCBWktAUbeGvFr2rkXMxarSQxePzHHjxpWiwj622KKLLlrqHgnsb4uoifiJgFkRw4v0m2++yT2y4YYbxvMuXbqEAw88MEyePDkglJIPz9BihuBZEUN0xTMVQ+i88cYb4wQW10ws4aWAUEk+vAWwPfbYI+4hjFcBoabxTsD23Xff6KWAJy6GNwEfvFYRVhE28fK98847wxprrBHD0SEGjx07Nnq9Io4Shi4JtLGQIl+0Da8JJsLwkEgTbKQhzH7wwQcxFN7dd98dS2AijHbRD9qEly91HXbYYbHNZLrqqqvifbwfaB/CMWzwAsajGbaUzW8D716EcAxPYYRlvIh//vnn8MUXX0QRm3tM0iFUw1GTgAQkIAEJSEACEqgZBIg6wxiTiDWML0eMGBEXIzI+LI+lbUYY66ZwyR9//HEc0ydRdqRpcAAAQABJREFUl7DNGNFjqANBN11zJI1xJpFxiIDDeJa/EdiiRZOABCQgAQlIQAISkIAEJCABCdRVAoq6NeTNs5o9ibkpDHNVNL1FixYxpDBCZKNGjXJVEH4NW3/99XNp2RPE3htuuCGGUatoCGY8cwsZIjYiM+F+8YQlzHMy9tVKIYNTGhNQFbHsfrDpPHmdJqGU63SPsplQwhA5s+nsD4Y3AvnJwz5gyRA18bI98cQTo+cBgvCDDz4YhVY8dxGM8eIdM2ZMDD+HF2yqP5WRPaZ6mexK7cnepw28uyRE0xY+TMS1bds2isgIsXhMsFgAb1xEXwTb2267LYrn9A/PXkI380meEZTNJxmevhj9w9h7LbWJOsvqR3zALwlIQAISkIAEJCCBakWAxXqMIxlrYqvNijKDKFte4+8CnmW8nowFjmm8mNLKOjLGRFgm+g3euoRkfuONN+LiQ/4+0CQgAQlIQAISkIAEJCABCUhAAnWRwAJ1sdM1tc+IuVUp6MKFsL4Y+6HeeuutMUxa2iuXCRQ8WosZ++qy72q+2Ep+RGL2x83/TJo0qVhx0RMWb90zzjgj7n1LWOJkeJ0SBpgwxoikvXr1iiv50/3yHCdMmBC+/fbbmBUPBPqXBMk0iYVXKvnwJEbMJGwxngWk44WLJyoTVPSLsMekMwnF5Ne2224bn0FsJnzdBRdcEL0VCDe98cYbR6EUxjy33XbbxdDN1JsE1PL0oVAexFTaxm8l7bmLl+2FF14YQ9rxDvfbb78YCo+w1tddd10UexHX2c8McZpQy6uvvnoUePHKZc9f+o+Hb+JBHYjD2LLLLhsn7shDvxGQKXuRRRYp1ETTJCABCUhAAhKQgASqKQHGdR999FEc/zKuZeEhEWqwiRMnxsgvs2t6gwYN4qJBFj4yZmQPXaLMlNcYuzLu5jmi3TRv3jw+ml1cWN6yzCcBCUhAAhKQgAQkIAEJSEACEqgtBPTUrS1vspL6wT6yCJDnnntuDAWcim3dunUMO4zol7XkNZrSeG7w4MExvFpKIwQb+3AR2jff+vbtG8XD/PR0TXv69esXunfvngvLxr2uXbuGBx54IO7tyjXi5dFHH10hYRfvgT59+vB4DI+M12yyJOpSLuGM2a82eRwccsghYYUVVghbbrllGDBgQHyEfXFpK3wIj4xYm/ITQhrPWYRowhwjHCMEE9KO/HjH4t1MGtfsf1teS+3M5t9rr71iKGnK5D714mGN2IqHMF7XeOLyTjfZZJPo+YAozrvkXW2zzTYxRDPvkXTay2QanuJ49iLEwwPDE5d9djH6P2jQoOgBTL0I1Sm0XszglwQkIAEJSEACEpDA/CXQdNY2J5+PCYFjEWvXrl145JFHYthjsuBlu8MOO8TciL1s5UEkl7KMPXCHDRsWx4bkW2655eK4Mz1TaAyb7nFERGYxIYsEn3322bi4kIgweO9qEpCABCQgAQlIQAISkIAEJCCBukqg3vTp02MsVUKvphXQVQHD8sumWhV8Fh19U4lKZ7TpUeK6rAtW5bOP7tSpU2P4NVbbV0ejjYR4w6OgIsbetoi6nTp1CrP+G5jtBBEiKN6qiLdZQ4jl+XzxknT2mM3PjwCa6kuCOB4HhLmjPUxg4SlbyFuX/z6L7WmcbVM6px4m4dK+ZqTzXqmLdnEvGR4U3MtOlOFZkdpKf+g/XtjssbvFFlvERxF+aTd7DSdDwDcsXqLhUQISkIAEJCCB2kRg4oSJocWGLWpTl4r2hXEr48O0323RjGXcoAwWCGbHo2VkL3WL+hlTM0ae0zJKFWqCBKqIwNgxY+vMvw9VhNBiJVCrCfhvRK1+vXZOAnNFwH8f5gqfD0ugVhOYMnlKaNT4f9ukvvjii0FP3Vr9yue8c0y+NGvWLH7mvJSqf7IiYdwKtQZhMytuFspDGpNI+QIt6Qiz+YJuSi+Un3DE+SGJ8VTAEzYZ4inCa74xqVURS2Hyss/wXvGUyLdCfciyoZ9M6FHmf/7zn7gHMGmI/j16lFwsoKCbT9drCUhAAhKQgAQkUPMI5I9Z56QHc1sGY1fHlnNC3mckIAEJSEACEpCABCQgAQlIoDYSUNStjW/VPs2WAPvzzi7s22wLqaIMhEvmUx2NcMunn3563HMXr1723dUkIAEJSEACEpCABCQgAQlIQAISkIAEJCABCUhAAhKQgASqloCibtXytfRqSiB/b+Bq2sxq2SxCQLdq1apats1GSUACEpCABCQgAQlIQAISkIAEJCABCUhAAhKQgAQkIIHaSGCB2tgp+yQBCUhAAhKQgAQkIAEJSEACEpCABCQgAQlIQAISkIAEJCABCUigthDQU7e2vMkC/ZjRpkeBVJMkIAEJSEACEpCABCQgAQlIQAISkIAEJCABCUhAAhKQgAQkIIGaREBP3Zr0tmyrBCQgAQlIQAISkIAEJCABCUhAAhKQgAQkIAEJSEACEpCABCRQ5wgo6ta5V26HJSABCUhAAhKQgAQkIAEJSEACEpCABCQgAQlIQAISkIAEJCCBmkRAUbcmvS3bKgEJSEACEpCABCQgAQlIQAISkIAEJCABCUhAAhKQgAQkIAEJ1DkCirp15JWPGzeujvTUbkpAAhKQgAQkIAEJSEACEpCABCQgAQlIQAISkIAEJCABCUigdhFQ1K1d79PeSEACEpCABCQgAQlIQAISkIAEJCABCUhAAhKQgAQkIAEJSEACtYyAom4te6F2RwISkIAEJCABCUhAAhKQgAQkIAEJSEACEpCABCQgAQlIQAISqF0EFHVr1/u0NxKQgAQkIAEJSEACEpCABCQgAQlIQAISkIAEJCABCUhAAhKQQC0jUL+W9cfuzEMCi46+qURtM9r0KHHthQQkIAEJSEACEpCABCQgAQlIQAISkIAEJCABCUhAAhKQgAQkMPcE9NSde4aWIAEJSEACEpCABCQgAQlIQAISkIAEJCABCUhAAhKQgAQkIAEJSKDKCCjqVhlaC5aABCQgAQlIQAISkIAEJCABCUhAAhKQgAQkIAEJSEACEpCABCQw9wQUdeeeoSVIQAISkIAEJCABCUhAAnWAwJ/hzzrQS7soAQnMCQH/fZgTaj4jgbpDwH8j6s67tqcSqCgB/32oKDHzS6BuE1DUrdvvf573vnv37mHw4MEF6z322GPDXXfdFe899dRTgbzPPvtsqbzPPfdcOOKII8LPP/8c7/Xv3z+ceeaZpfKZIAEJSEACEpCABCQgAQlIQAISkIAEJCABCUhAAhKQgAQkIIHaQEBRtza8xRrUh0GDBoXRo0cXbPEtt9wSXn311XjvvffeC+Q9/PDDw7Rp00rk//DDD8PAgQPDzJkzY/rIkSPDkCFDSuTxQgISkIAEJCABCUhAAhLII/DBMyG8cG0IHDUJSEACEpCABCQgAQlIQAISkIAEahQBRd0a9brqXmMnT54cevbsWeM6/uOPP4bp06dXSbu/+eab8Ntvv4WffvopfqqkEgstN4Fff/01fPfdd+XOb0YJSEACEpCABCQw3wh8PuavqtOxSEOIjMMiyjvuuCM89thjucWUhbL/8ssvYcCAAQXHvh999FG45557Cj1mmgQkIAEJSEACEpCABCQgAQlIQAIVJKCoW0FgtS17ofDGqY9l3Ut5qvp41llnhb59+4YXX3yxUqs69dRTwwknnFCizBEjRoSdd945fP755+Ff//pXIE/W+vXrV+qZ7P3s+X333Rcef/zxbFKlnV977bXh448/DkOHDo2fSit4PhR0ww035MJoz4fqK6XKt99+O1x//fWVUpaFSEACEpCABCQggflNYMyYMWHSpElh6623Dtttt1346quvCo7Fv//++4D4e//994c///wz/PHHH7mmf/LJJ4HtVJ555pm4GDF3wxMJSEACEpCABCQgAQlIQAISkIAE5phA/Tl+0gdrBYGLLroo9oNJm6wh6HIvPz2bZ16cI7w+/PDD4aijjgovv/xyWGyxxSql2lVXXTWccsop4YwzzggrrLBCLBNvhB9++CE0bdo0jB8/PnzwwQcl6nr//fdz4aFL3CjjggkuvGoXWmihErmY9Pr9999LpZMJz8/8/GWlZwumzAUXXDCbVOZ5Nn/2PPtQsfZk8+SfFyqLPvOpX/9//+x8+umnAe+OxRdfPL+IEtdl8SpUV3q4vPfKypfKSsey2pLyeJSABCQgAQlIQAI1lQBjs0UWWSSsssoqsQuM0xgP5lu9evXCEkssEdZcc83wzjvvlLi9wAILhGWXXTY+9/XXX+fuUc6///3vsPbaawe2W2GsvOmmmwbG2YjHjGP5+2PllVeO4/HXXnstjpkXXnjhmN6sWbNcWZ5IQAISkIAEJCABCUhAAhKQgATqGoH/qSt1ref2NxIgnBreqVgScJOgy735bYib/fv3D5tttlm49NJLw/nnn18pTdpnn32iqPvQQw9FwXjGjBlxD9/evXtXSvkU8u6778b2IgI2aNAgHH/88VHUvOmmm8Jnn30W61lqqaViOh4Rzz//fBQ4CavMxNWRRx4ZmjRpEtOfeOKJ+OwyyywTJ7byG/n6669Hr10EZMrs3r17rDM/H9cvvPBCGDduXPSQJUT0IYccEkPmUS+8YdO8efPA3sXsawwb0hHUW7VqFTbZZJNw1VVX5cJi089hw4aFk08+ORRrBx4cb731Vpy4Y2KQvl1zzTWxeX369AkHH3xwWGeddUo1l4m/QryYAOT30KhRozgByKQiv5Fddtkl3HvvvQHvEPZiRqyFB3szN2zYMFxyySWhdevWcYHAnnvuGb1Q3nzzzdgu2MKC98Ck4hFHHBHbw28ET5TOnTsXbEupRpsgAQlIQAISkIAEajCB9dZbL4q0LKxkjMW2IltttVWpHi299NKhTZs2cayYL+oivvJBuM2KumnBI+NMvICJeEJEHsZp22+/fXjllVfCqFGjwkorrRQXU6611lpRAGZx58iRI8MBBxxQqh0mSEACEpCABCQgAQlIQAISkIAE6goBwy/XlTddRj8Rb/HKRczlg8hbHQTd1GSERDxqL7/88oAAV1Hbf//944QTk058EBPxxt1tt91ye3wRGg7be++9K1p80fx4OZx44onhpJNOCt9++20UeZmkQjA87bTTAqGlEVURRREv2SuX+s8+++zouUo4u6lTp8Z3gQDJ3sItWrSIAmS2UvZzHTJkSBQdybPiiivGPdCyebLn1EX4ZjwgevToEW6//faw4YYbRgGad8++Z+S58847AxNplImgiRcz6UzGIVQnQzilr8XawT3eG4LpeeedF8VmJuxOP/30WMTRRx8d60nlZY/FeFE/7WACkDK7du0aJwQnTpwY93yjrYiy55xzTmDCES9sjPaPHj069mfmzJmxXeQ799xzo/jLvnH8RhCFEbMxBPeWLVvGCcZC7y5m8ksCEpCABCQgAQnUEgIsjGOsxdiOMRVGWmUai0kRfVlIiCHoIuTi9csYLRkL6/Debd++fVzAl9I9SkACEpCABCQgAQlIQAISkIAE6iKB+nWx0/a5NAEExuSxW5WCLl6TeInmG/vYYosuumj+rXjN/rbsU4sARyjmihjemwimyRAwsS5duoQDDzwwTJ48OYqi5Ft++eVTtlJHvGArYng5EHYOo994OeBNiuiKNyjCIWWmiasll1wyeiKQn/DQP//8cxR88ZDdaKONSA477bRT9LSNF//9Sp4ReDDwweMWjwgm4wh9V8gIqbfXXnvFiTrq+eKLL3LCJ2IpXrWIsQjflEGIvLLYUEexduDlixcsIvEaa6wRNt544+jxm9pGW9J5flvL4kVexG4m+hCfaR/eHhjXcMZ23XXXcOONN+aEaCYNeTeI2eRjAhHbY4894v7NhOOGOeIv7wEhmN8MniqF3h390yQgAQlIQAISkEBtIUDkFRbFMc5i/DNixIjoQYvgWllG2GaMMSB1pK040piQtM033zzWO3To0DjeYzzG2EyTgAQkIAEJSEACEpCABCQgAQnUVQKKunX1zef1m9XyScxNYZjzslTKJZ6mjz76aBQdCZ2bjPBu2Prrr5+SShwRe2+44YYYpq2iIZi7detWoqx0gYiN2Eq4XsIDE+Y5GeGP8crMGhNcFTHKyDfCxj355JNx7zD2D/vyyy9zWbJ7zeYSZ50wqZWM8+w16YiwCJt43iZDtCxL1EVAxsiDsWcaZWCUQ7hoLKVxnibZOM8aoidWVjvwWEb0RXR98MEHo2h86KGHZospeF4WLx7Itom24jWcn57y0D6MkNYY1+ke16mvpCOiI+ryGyAsNPnwnC727nhek4AEJCABCUhAArWBAN65LHpLY87VVlstRnmZl31jTIewzBYdeOsSveWNN96ICwQZv2sSkIAEJCABCUhAAhKQgAQkIIG6SKCwG19dJGGf4566VSnogpi9VDH2bb311lvDa6+9ltsrlwkavCqLGV6b7EubL7aSH89U9j7N/0yaNKlYcdEbE29dQjsTUq5Dhw65vHhwjh8/Ptx8881RiOzVq1f0FMhlmMMTQi2vvvrqce/Xxo0bxxC/SWwsVCSCIp60tAVjP9wkxKb85GHiiwm3bbfdNoqVCNDFRGKeS5N0eBIjPtMGnsUDg1DUCJ+kDx8+PFbDHsDJmxovVoy90GgL3sFYsXYQuu+CCy6IIfYIhY2nblbMTqJwLCTva3a8WCCAUR5tXHfddeP1hAkTYshrLvAu4beVRNvUd9pLPry46T99xWuEfm+xxRbxd4bHMufY7NoSM/klAQlIQAISkIAEajgBxocfffRRHCMxxmQrijT+Y6uLNParym4SyYaxGeNNIr6kMM1ljZursj2WLQEJSEACEpCABCQgAQlIQAISqA4E9NStDm+hDrWBvVkR+djD9Jhjjsn1vHXr1jH0LXukZi3rSUk6zw0ePDiGTE75EC8RZQ844ICUlDv27ds3iqi5hLwT2tOvX7/QvXv3XNg3srBH6wMPPBCOO+64+ATh39j7lb1g58SSkNi2bdvYfkRiREYmqfCQZp+wlIfy0znezNttt124++67YxqhftO91A6YEVIYkZx7iJKElS5m+c/DYNCgQQGvWO5RH+JmSscrAksiMeGSEX9vueWW6MGKOI0Vawd9QCS/6qqrYp8RggnnhzFpeO2118b2FvLSLsZrgw02iM9/8MEHcc9fymSyj3TaC4M+ffrEPDDLegWn/vNOef7qq6/OcWPfXwzPENrN7wqxHCvWlo4dO8b7fklAAhKQgAQkIIFqT6DprG1IPh8TAsci1q5du/DII48Ewh5jjKV22GGHeI7YO2XKlBh1JibM4VcajxV7HBGZ7T9YbPjss8/GBXhElmGMpklAAhKQgAQkIAEJSEACEpCABOoqgXrTp0+PMUnZ5zStgK4KGJZfNtWayGfR0TeV6NSMNj1KXJd1wap/PD+nTp0aw7ulcL9lPTM/7tFGQj+nvXErow14ps767y5OSiFGzpgxo4SgXKgO8rFXblnh5siDV28KrUy4Y66zhjDbsmXLbFLuHAGzUPmE4CMdr2X2lE3e1ORH4EVAzVp+O9I99uhN/c4X6z/99NMS3rvpGf5NQvxOzyVeeGlcdtll4bzzzotc2Ictic7s3UubOnXqlHsulVfoyL7GvIPErVCelDYn7y4961ECEpCABCQggZpPgCgf7O1aF4yxG2P2tN/t/Ogz9TOeReRNY7350Q7rlEB5CODVXlf+fSgPD/NIQAIlCfhvREkeXklAAv8j4L8P/2PhmQQkUJLAlMlTQqPG/9vG9MUXXwx66pZk5NU8IoBQ16xZs/iZR1XOUTVNmzado+fKeghvBz4Y4mZ5JsrIV0hwzdZDnqww+eOPPwY+WUv1ZtPSebHyi3lEFMuf345UPgIwn0KGqIp4nG9M5CGqp3YnXgjcyYq1L8s55S10ZIIwy61QnpSWLTO1Jd3zKAEJSEACEpCABGoTgWLjtnnZR/5mKDbmnJftsC4JSEACEpCABCQgAQlIQAISkEB1IKCoWx3egm2QQBUQIFxwZRqer0lcrcxyKYvwzHzKa3hrHHbYYbl9crPPsTfy7EL6ZfN7LgEJSEACEpCABCQgAQlIQAISkIAEJCABCUhAAhKQgASqOwFF3er+hmyfBKoJAfaYrS6Gl+waa6xRsDn5+zIXzGSiBCQgAQlIQAISkIAEJCABCUhAAhKQgAQkIAEJSEACEqhBBBaoQW21qRKQgAQkIAEJSEACEpCABCQgAQlIQAISkIAEJCABCUhAAhKQgATqHAE9devcK6+8Ds9o06PyCrMkCUhAAhKQgAQkIAEJSEACEpCABCQgAQlIQAISkIAEJCABCUigIAE9dQtiMVECEpCABCQgAQlIQAISkIAEJCABCUhAAhKQgAQkIAEJSEACEpBA9SCgqFs93oOtkIAEJCABCUhAAhKQgAQkIAEJSEACEpCABCQgAQlIQAISkIAEJFCQgKJuQSwmSkACEpCABCQgAQlIQAISkIAEJCABCUhAAhKQgAQkIAEJSEACEqgeBBR1q8d7qPGtGDduXI3vgx2QgAQkIAEJSEACEpCABCQgAQlIQAISkIAEJCABCUhAAhKQQHUkoKhbHd+KbZKABCQgAQlIQAISkIAEJCABCUhAAhKQgAQkIAEJSEACEpCABCTwXwKKuv4UJCABCUhAAhKQgAQkIAEJSEACEpCABCQgAQlIQAISkIAEJCABCVRjAoq61fjl2DQJSEACEpCABCQgAQlIQAISkIAEJCABCUhAAhKQgAQkIAEJSEAC9UUggepKYLHhT5Zo2vQO7UtceyEBCUhAAhKQgAQkIAEJSEACEpCABCQgAQlIQAISkIAEJCCBukBAT9268JbtowQkIAEJSEACEpCABCQgAQlIQAISkIAEJCABCUhAAhKQgAQkUGMJKOrW2FdnwyUgAQlIQAISkIAEJCABCUhAAhKQgAQkIAEJSEACEpCABCQggbpAQFG3Lrxl+ygBCUhAAhKQgAQkIAEJSEACEpCABCQgAQlIQAISkIAEJCABCdRYAoq6NfbV2fBCBLp37x4GDx5c6FY49thjw1133RXvPfXUU4G8zz77bKm8zz33XDjiiCPCzz//HO/1798/nHnmmaXylSfhl19+Cdddd13o3LlzaN68eejUqVO4+OKLw3fffVeex4vmeemll2L7f/vtt6J55uYG5ab+z005lPHrr7/OTRE+KwEJSEACEpCABCQgAQlIQAISkIAEJCABCUhAAhKQgATqPAFF3Tr/E6hdAAYNGhRGjx5dsFO33HJLePXVV+O99957L5D38MMPD9OmTSuR/8MPPwwDBw4MM2fOjOkjR44MQ4YMKZGnPBdffPFF2GmnncIpp5wSFlxwwdCtW7fQpEmT0KdPn9C2bdvw9ttvl6eYgnkmTZoU2//nn38WvD+3iYjfDRs2DH/88cdcFbXeeuvF/s5VIT4sAQlIQAISkIAEJFAlBI59c2xYethjod6Qh0t9SOe+JgEJSEACEpCABCQgAQlIQAISkED1IFC/ejTDVkhg/hCYPHly6NmzZ7jyyisrvQFnn312eOWVV8Lw4cPDNttskysfkXeHHXYIPXr0CM8//3xYYAHXVuTgeCIBCUhAAhKQgAQkME8IINj2nfRR0bqmzYrcku5f16pF0XxEZiEKzrfffhsXMhKdpnXr1jH/N998E1gg+f3334dll102bLrppnGRY35hZeWbOHFieOONN8KMGTNC06ZNw5ZbbhkWW2yx/CK8loAEJCABCUhAAhKQgAQkIAEJ1HoCqkm1/hXP3w4WCm+cWlTWvZSnqo9nnXVW6Nu3b3jxxRcrtar3338/evsi4GYFXSpZZ511wmWXXRYnpxB8sX333Tc89thj4aqrrgqbbLJJvMcEGWGf27RpE1ZZZZWw//77hzfffDPmT18PPPBA2HzzzePk2O677x7Gjx+fbsWJr169esXnW7ZsGU466aQSYZ/xVE7PUkfv3r0Dnr+XXHJJuOKKK2I5u+yySwxZPWzYsHDwwQeHd955Jx4JXY3R5p133jm2jzaSTmhp+k/6V199Fa6//vpAOb///nt85o477sg9Q/q9994b0/kqVk8ugycSkIAEJCABCUhAApVC4I5PJpernNnle+SRRwJbd3To0CFstNFGcbxK5Bu24Hj44YfDcsstF6PXLLroomHEiBGl6iwr32effRZeeOGFQPSX9u3bR+H45ZdfLlWGCRKQgAQkIAEJSEACEpCABCQggbpAQE/duvCW52MfL7roolj71ltvXaIVCLrcy08vkWkeXJxwwglxsumoo44KTBBV1qr/t956K7YesbaQ7bnnnjEZr4Ndd9017u378ccfBybAOnbsGEMf77HHHtGT9/zzzw9LL710uOGGG8KOO+4YUtkUcNxxxwWEabx9EWIJJ50E6oMOOiiMGjUqCsPcv/DCC+M99gzGgxgBlr2DTzvttDhZRjkrrLBC3PuXibMJEyZEj+JVV101jBs3Lu5V/Prrr4fGjRuHLl26hDFjxsQ9ghFvEYKnTp0ay1p++eVjyGlCT/OeKWu77baL/b388svDeeedF7p27RoOO+yw8Oijj4ZDDjkk4J3BO/j8889L1RMfLOcXwjGhrvMtPz3/OuVnQrJ+/dL/LBbKT1q9evVKeVozMbnQQgulImd7zC+7UBvy86RCC9VVrF2E0uZeftsQ8vkU8hgvVm+q36MEJCABCUhAAjWXAJ645bGy8jG++Omnn+ICPsaIfBirsg0J6Yyr2rVrF7f0SKIs4w7GUMnYFqVYPspq1qxZaNGiRSyD8TEeu9hDDz0U60sC8pprrhnHOSxCxHiGhYtffvllFJN5jvEOix1btWoV8/glAQlIQAISkIAEJCABCUhAAhKoSQRKqxc1qfW2tdoTSJ6cNDQJuEnQ5d78NgSu/v37h8022yxceumlAQG1Muyjj/4KZcckVCFbfPHF4yQUHq3JmJB67bXXwsorrxzFUEIzs7dtp06dYpZtt902CqDkSXb77bfHSTSumVQ7/fTTwy+//BLFXATTZ555Jnr+cp8JNSa2nnjiiejlQBrev1tttVWso0GDBnEiDMH5hx9+CEOHDg0nn3xynPxC1MWYSIMTxkQak3O33npr9MBIaUzMURbPXn311dFTmXPKRNBFzO3Xr18s48ADD4xeHOecc04UpGPirK9sPSmt2BFP308++STujYwIudRSS8WymDBECF933XXj5CJez3iL4O3MvWWWWSbyZPIRkRteSfTs3LlzWHvttQMiNhwQWikXIXzJJZeM3sd4IWMrrrhiFMe5Zt9mJgyZqMTjerfddivYbFiwtzIC+JQpU6IQjdc075z3iLh+9NFHx7J4x+ShTEIW4t2MWI9XcxJj99lnn+gBjld0frso76abbgp4umD04/jjjw+LLLJI9JJOezvTFvrJQodC/eadahKQgAQkIAEJSCBLAJGU8SReuBhjHMZCDRs2jOMXFkwyViMCDcItoZO5lzUWBhbLR9hmPH3vvPPOOE5hDM3CQYwyWYRImdOmTYtjPMY3jHlZLMkCRMa+jK9o3/bbbx8mTZoUI+Ksv/76YeGFF842w3MJSEACEpCABCQgAQlIQAISkEC1J6CoW+1fUc1vYFbYpTd4dk6fPr3adIyV+meccUb0Nt17770r3C4mstjrK1m3bt1yk1VMRDVq1Cjdyh0RDxHfEBSTISQi6GJMQmEIeMnweEV8xBB7MSaxkq222mrxlIk0PIAxRNV8w5MXD18EZzx/ERMRjAmZhxBZliEGJkN4JT9i6NixY2PbmDQrJmQmAXu//fZLRcTjAQccEIYMGRIn39KNbD0prdhx5syZcQLxyCOPjDwRVgcOHBgQjGGBmMn+xXh6IOjincx+bOQjFDTezQikiOf8Fu6///5w3333RVGVdhF2eq211orMKZdw2kw+smcydV9zzTVxghCxHcGX3xJ95R3BtJDnMEIrAioeJbT72muvjd7SxxxzTMzPe6OOxx9/POajrq+//jqKyYjUTz75ZGSPlzchvNmrjt9UoXbxO+ODRzaTqYT+fvfdd6P4T7hufgsIvfQDkZjw2YX6jdirSUACEpCABCQggXwCKdINHrEsHmRcwdjpgw8+iHvpcs74hUVpLO5kDJqNHMJ4jTFzoXxEJWFxGwsw2ZP36aefjvv37rXXXrEZjI8ZT2GM8wj/vPrqq8e8LJhkvIXwTB2M29q2bVti/B0f9EsCEpCABCQgAQlIQAISkIAEJFBDCCjq1pAXVdObSWhfxFysKj10mURKXqVZZoT1xZIXQfYe56eeemoU8hD8CANcEUN4JXxwsg033DBXDyJnmmhK9zkmb1smopIR5jjZjz/+GE+zE17pXvaYJtGyaZwzcYUloTdezPpiX10mu5o0aZLb05fJMTw5CaHMHsAXXHBByl7qiAdpMgRHvHpbt24dQ0infXbT/fwjHsQYHhRZS9dZoT9bTzZvsXMmAfGYxRA6b7zxxujxyjXhnQlf/dRTT8XJwpVWWonk6A3Mfsp4qsIRTw6MkNnwS2GuCcvNhxCCCKtJeGf/Y+pFlF5jjTWitwhlIY7i5ZsE2lhokS88RvDARWSmjbwXjDQmHpkMXWKJJcLdd98d0xGIaRf10iYmOakL7+f0zvPbxe8PNvwW8WhmcpOy+e+E/Z3TwgLEffasSyEL8/uNEF0oRHNsmF8SkIAEJCABCdRpAqNHj46LEhnDMb7BGLck71yuSWfRG+JvNppNWfkYexBNBFEYQ5RlMRsL0TDGSVkjEguWHbMQlYa9fP/zn//EMRZ1Z8fd2ec9l4AEJCABCUhAAhKQgAQkIAEJVGcCirrV+e3UorYRejmJuSkMc1V0j72z8BxFfMt6yBJ2FyPUWiFD7CVUL3u/VjQEM565+YbXJOIuoYrxaMWzIBmCGvvbIkCn0Mrcywq4iIQYHrtpzy+8DfCMJdzx7CyJxXihJlGZEHUXX3xxWGWVVaJnKt6k//jHP6KIiRCIBy3he8sSdbMTZPCij0ysJW/Um2++uWjTUp/In/UwZo9fDK+Kl156KZ5n64kJs/nK5s+e8xhiKZZCFceLWV+pzcmDI6XjEfLpp5/G/ORJIi734Up5eL0iriKM3nbbbdGjGlEUwRgvEd5b8ohOQm0qP3tMbUXETe3J3qfN/I6TEE1b+PBOmdREREaIhSkLJwq1i/7h2UvoZj5MpGKUnSZEueY3i5FWqN+KuhGPXxKQgAQkIIFaQ2CpWRE8ytovN3WUfGUZgi5RWxBP07iT/IyZ0riDawReLI054sWsr7LyEW45GyY5e56en92RMQzjceolWgljNaKVbLDBBrN71PsSkIAEJCABCUhAAhKQgAQkIIFqRWCBatUaG1OrCSDmVqWgCzxC2WLsMYr4iUds2isXERUvzmJGWDfC/qY9SbP5EInZQzb/w75chQxRDKGU+/R58ODBcRIJwZkQz4Smu/LKK0uIvdly8P7FgxLBGKGTvXFPPPHEOOmVPJ6z+fPPCauMSNqlS5foockeqTyPEItnJ/uOsf8uIi5tRJz84osvoucmZSXvWfqb9gfOr4OJOTygmRjjefbLxRt08uTJMYQv+Zl44x0Qao/+dO3aNfTs2TOwTyweoexnDCe453ta5NdX1jX7qX377bcxC54YvGsEU8TSZHilkg+vaoRLwhZTJ+l44SJyM+lHn/FCJp3Jv9VmhbXedlZ4ap6BI+/juuuui6JqCrWNCMzvjedYGMB+uNSdnchM7ajIEQGXtvEbSnvupkUBhFrm94wYjxc0v5FC7WLykt9C+k3h0Utf+B0kHtSBOIwV63eaiK1I+80rAQlIQAISkED1JdB15WblalxZ+RgrIej+7W9/iwsHWRzHhzEVC/oYt6QtOAi/zPgIz1vG1owPidRSVj48ahlnsT0EZTIWY/yWHePNrhN46DJ+IzILCzx5lrGQJgEJSEACEpCABCQgAQlIQAISqGkEyl52XdN6Y3vrPAH2pWXS59xzz43hbxMQQgQTardhw4YpKR6Tp2RK5DkEWITJZIhZiKCE2c03ykQwK2R4ozJ5RRhe9mVNhpiG53AKTZfSs0f2Zh06dGjc/xWREOvYsWMYMGBAzsuBtOyEVjqnT4ipiJOI3DvssANZoyjInrB4Q7APMGIrQm8yvG4JW4whINIv9qWFCZNv+UaoZgTq5HWLkIxQjIhOOGfu4ymM5++DDz4Y973t3bt3bNvf//73XHEIusk7Ov995DLN5oT+9unTJ+bC4/nQQw8twYYb9IlwxuxXCyueITQzYQLpA2wx2PM74rfCO0KsTfnhQahkQhP36tUrCsf8PthnF7EUr136wqQjz6dQgbHg2Xyl95fNxn5xvBPK5D5hl5mMRGSGKb8jPHH5fePFze8tv12EaOY3TTqLDQhLiNc8nr0I+mnfZTyKEYeL9TvbLs8lIAEJSEACEqj5BK5r1SJ24o5PJhf02MVDF0E35SvUYxawIZAyBuGTjHElW1twZNEfUUUYy7CIksWDLBpkHMJ9xh7F8hGxhkWEjHswxm877bRTqqZcR8ZItIGoN7SVxX+MxzUJSEACEpCABCQgAQlIQAISkEBNI1Bv1urouEwZT7vmzZtXWfstv2y08inNZ7HhT5ZInN6hfYnrsi7wGmACCG9GQtc2aNCgrOxVfo/Qx0xesbdp2uurvJUiUjMJVtHnUvnsz4vHxHLLLZeScke8I2CE5wITahU1BEU4U3bytMXzgutC4YRT+TyHZzBi8dx6gN55551xgo9Q1vQH0boso24EWMTbrCHE8nzqR7pHOu8vPz/erfzOsvUxUfjDDz/E9sAUz5JC3rr8W1tsf+dUb/ZIuxCrs6yom7poVzZ0d6F28f4TG/pD//FIZ4/dLbbYIlaF8MtEKeEJsWL9jjf9koAEJCABCdRRAkS5QIDUKkaA8Un+GKtQCcXyMe5hPFOR8VO2fMZolM2YKUWkyd73XAKVQYAtWPz3oTJIWoYEaicB/42one/VXkmgMgj470NlULQMCdROAlMmTwmNGjfKdY4tH/XUzeHwpDYRQFBs1qxZ/FSHfrEfWLH9fGfXvux+vLPLW+h+vhiZzYPwmPZrzaaX9xyRMf/57F7GxcrhOd5PZRqTdFlxs1jZ1F2ICV7ChSYbSS+Uv1DefPEd8RThNd+YmKyI8Z7yjd94IaG+ULuybOgPv0fKJBwh4bNJQ9zv0aNHrppi/c5l8EQCEpCABCQgAQmUk0Ch8UmhR4vlY9xT1oLBQmVl0xijFRrPZfN4LgEJSEACEpCABCQgAQlIQAISqO4EFHWr+xuyfRKQQJkEOnToED2Zy8w0n24SLplPdTTCLRMumz138TYuFka8OrbdNklAAhKQgAQkIAEJSEACEpCABCQgAQlIQAISkIAE6hoBRd269sbtrwRqGYE5CRtdyxDMcXcIYchedZoEJCABCUhAAhKQgAQkIAEJSEACEpCABCQgAQlIQALVm8AC1bt5tk4CEpCABCQgAQlIQAISkIAEJCABCUhAAhKQgAQkIAEJSEACEpBA3Sagp27dfv/VuvfTO7Sv1u2zcRKQgAQkIAEJSEACEpCABCQgAQlIQAISkIAEJCABCUhAAhKYFwT01J0XlK1DAhKQgAQkIAEJSEACEpCABCQgAQlIQAISkIAEJCABCUhAAhKQwBwSUNSdQ3A+JgEJSEACEpCABCQgAQlIQAISkIAEJCABCUhAAhKQgAQkIAEJSGBeEFDUnReUrUMCEpCABCQgAQlIQAISkIAEJCABCUhAAhKQgAQkIAEJSEACEpDAHBJQ1J1DcD42bwmMGzdu3lZobRKQgAQkIAEJSEACEpCABCQgAQlIQAISkIAEJCABCUhAAhKoJgQUdavJi7AZEpCABCQgAQlIQAISkIAEJCABCUhAAhKQgAQkIAEJSEACEpCABAoRUNQtRMU0CUhAAhKQgAQkIAEJSEACEpCABCQgAQlIQAISkIAEJCABCUhAAtWEgKJuNXkRNkMCEpCABCQgAQlIQAISkIAEJCABCUhAAhKQgAQkIAEJSEACEpBAIQL1CyWaJoG6QGCx4U+W6Ob0Du1LXHshAQlIQAISkIAEJCABCUhAAhKQgAQkIAEJSEACEpCABCQggepAQE/d6vAWbIMEJCABCUhAAhKQgAQkIAEJSEACEpCABCQgAQlIQAISkIAEJCCBIgQUdYuAMVkCEpCABCQgAQlIQAISkIAEJCABCUhAAhKQgAQkIAEJSEACEpBAdSCgqFsd3oJtkIAEJCABCUhAAhKQgAQkIAEJSEACEpCABCQgAQlIQAISkIAEJFCEgKJuETAmS6AQge7du4fBgwcXuhWOPfbYcNddd8V7Tz31VCDvs88+Wyrvc889F4444ojw888/x3v9+/cPZ555Zql85Un45ZdfwnXXXRc6d+4cmjdvHjp16hQuvvji8N1335Xn8aJ5Xnrppdj+3377rWieublBuan/c1MOZfz6669zU4TPSkACEpCABCQgAQlIQAISkIAEJCABCUhAAhKQgAQkIIFqT0BRt9q/IhtYnQgMGjQojB49umCTbrnllvDqq6/Ge++9914g7+GHHx6mTZtWIv+HH34YBg4cGGbOnBnTR44cGYYMGVIiT3kuvvjii7DTTjuFU045JSy44IKhW7duoUmTJqFPnz6hbdu24e233y5PMQXzTJo0Kbb/zz//LHh/bhMRvxs2bBj++OOPuSpqvfXWi/2dq0J8WAISkIAEJCABCdRRAse+OTYsPeyxUG/Iw6U+pHNfk4AEJCABCUhAAhKQgAQkIAEJSKB6EKhfPZphKyRQOwlMnjw59OzZM1x55ZWV3sGzzz47vPLKK2H48OFhm222yZWPyLvDDjuEHj16hOeffz4ssIBrN3Jw5uDkxx9/jKL5YostNgdPl/3IN998E5ZeeumAxzW2xBJLlP2AdyUgAQlIQAISkEAlEUCw7Tvpo6KlTZsVWSXdv65Vi6L5iJxClJpvv/02jpmIHtO6deuYn7EOCxi///77sOyyy4ZNN900LkLML4znv/rqq1xy48aNw/bbbx8XAPL8J598ElhsuMIKK4Rtt9021pPL7IkEJCABCUhAAhKQgAQkIAEJSKCOEFDtqSMvurZ2s1B449TXsu6lPFV9POuss0Lfvn3Diy++WKlVvf/++9HbFwE3K+hSyTrrrBMuu+yy8MYbb0TBl7R99903PPbYY+Gqq64Km2yySbzHBBxhn9u0aRNWWWWVsP/++4c333yT7Dl74IEHwuabbx4n33bfffcwfvz43L0ZM2aEXr16xedbtmwZTjrppBJhn/FUTs9SR+/eveNk3CWXXBKuuOKKWM4uu+wSQ1YPGzYsHHzwweGdd96JR0JXY7R55513ju2jjaQTWpr+k87k3/XXXx8o5/fff4/P3HHHHblnSL/33ntjOl/F6sllKHBy3333hccff7zAnblPuvbaa8PHH38chg4dGj9zX6IlSEACEpCABCQggfIRuOOTyeXKOLt8jzzySGBrjQ4dOoSNNtoojieJTMMWGQ8//HBYbrnlYnSZRRddNIwYMaJgnZ999llYf/31w5Zbbhk/rVq1ivnYEgRBl/EuYu7nn38eFy0WLMRECUhAAhKQgAQkIAEJSEACEpBALSegp24tf8G1vXsXXXRR7OLWW29doqsIutzLTy+RaR5cnHDCCXEy66ijjgovv/xyqCxvz7feeiu2HrG2kO25554xGWF31113jXv7Ih4ywdaxY8cY+niPPfaIk2Lnn39+9Ba94YYbwo477hhS2RRw3HHHBYRpvH0RYgknnQTqgw46KIwaNSoKw9y/8MIL4z32DMaDGAGWvYNPO+208MILL8Ry8K7Ae4OwyRMmTIgexauuumoYN25c3Kv49ddfD3hmdOnSJYwZMybuEYx4ixA8derUWNbyyy8fQ04Tepr3TFnbbbdd7O/ll18ezjvvvNC1a9dw2GGHhUcffTQccsghAS8R3gETgeyJnK0nPliOL7xDmLBcaKGFSuQmhDSCcn46mZjMrEh6tmDKJKx2eS2bP4W1zvfSzuZJ5ZKXT/36Jf93UKztMKDc8pSd6ihUb7rnUQISkIAEJCCB+UMAT9zyWFn5GEP89NNPcYEdYzg+jCXZJoR0xhft2rWLY4327dtHb17GVPXq1ctVzZYkjC/WXHPNwKJBROA0zpgyZUpYd911w0orrRTzc2RMiD300EOxviQg8zzjLhYJYi1atIiLD7/88ssoJlM25bIYMYnGMaNfEpCABCQgAQlIQAISkIAEJCCBGkKg5Cx+DWm0zZRAIpA8OblOAm4SdLk3v42Jpf79+4fNNtssXHrppQEBtTLso4/+CpXXrFmzgsUtvvjicZILj9ZkTHi99tprYeWVV45iKKGZ2du2U6dOMcu2s7wfEEDJk+z222+Pk3RcM2l3+umnx1DBiLkIps8880z0/OU+E3Z45D7xxBNxwo40vH+32mqrWEeDBg3iRBuC8w8//BA9U08++eQ4uYaoiyE0wwljoo7Jv1tvvTVO7qU09iumLJ69+uqro+cG55SJoIuY269fv1jGgQceGIXVc845JwrSMXHWV7aelFbW8d13343vDgbUffzxx0ceN910U8CzBFtqqaViOmI0bAmpzGTmwgsvHI488sjo7Uw6fChnmWWWyXkXZ+tGcMZzl8lNykQcp85Cxh7OiOgIsNRFWEPe79ixY6NX9BZbbBG9ZmjjgAEDYh5+k/vss08U1++///448crkKr8Z2snEKvtDM/HJhCue3bvttltgQpR0PLyxtdZaK/5euL755pvD119/HfPT1tVWWy0yrkhfCvXPNAlIQAISkIAEqjcBRFLGe3jhYozHGEM0bNgwIMiyoJGoKYwXEHjxxOVe1lLYZcYlSfBlwR5jGsZsaZEb4yfKZJEgRpksEqTMadOmRQ/hRRZZJI5JWczImIyxKeMv2kc450mTJsWINXgFM0bTJCABCUhAAhKQgAQkIAEJSEACNYmAom5Nelu2tSCBrLBLBjw7p0+fXjDv/EjEE+CMM86I3qZ77713hZvARNnEiRNzz3Xr1i03Gcb+ZI0aNcrdSyd4RjJBhrdEss6dO8fJMa6Z5MIIT5wMj1c8bDHEXoxJsmQIdRgTdXgAY4iq+YYnLx6+CM54/hKCGcGYkHwIhGUZYmkyJvHIj3iMSEnbmJRDYCxkScDeb7/9Stw+4IADwpAhQ2KY43QjW09KK+uIQHviiSfGLISwRuSFPYzxRGaSkpDXpCOw4hmMtzBeyIRYRniFAb/VvfbaK3qHIO7Sn6wRWpq2Eooa0ZT3MHDgwIDHdyGjLp5ByIY3gjiTnaeeemp8R+xPB3fEebxSeN8Iwffcc0/45z//GSc/Dz300CjCIszCmH4tueSS8TcLU9pAGbwH9v8l5Dcez3h2w4UJWARoQnmzlx6CetOmTWO7KtKXQv0zTQISkIAEJCCB6k8gRaJhARjjGxalMY754IMP4riCc7xtWRTI4kvGLNlIJozbl1hiiRh5hTEI4yXyMR5Kwit5hg8fHsccbdu2zUFh/IqHLsY2IoR/Xn311eNCNxY0pggjjF9ZuMaz2fFxriBPJCABCUhAAhKQgAQkIAEJSEACNYCAom4NeEk2cfYECBGMmItVpYcuk1TJqzTbKkQuLHkpZO9xjsjG3qyEIyYMcEUMIQ6RMNmGG26YqwdRME1kpfsck7ctE13JEBiT/fjjj/E0O6GW7mWPaZIum8Y5E2NYEnrjxawv9tVlMq1JkyZRVGTy7emnnw54tBJCGUHwggsuSNlLHZPnBTfYxxav3tatW8cQ0mmf3VIP/TcBgRHDQyNr6Tor9GfryeYtdg5HvGAxfgPww/t6xRVXjMIse70xachkIcaE5Nprrx3P4Y4nCYIvPOHz/9k7DzCpiqwNl4oBA0o0oJhRURERc0JBRV0Vs5gVMad1fczrIiqmBXUVxKyIwK6KmDEgIqiYMGNAxQTmHBDjz1v7V++dpruZgRnomXnP8/T07XvrVnhvS5fnq3MKI300aamzltIFkqqbF9G3RMASmZLSEGbLc0zE70orrRRPE22LEI5jlOgWxH0iZmifNIgIxBhRMB999FG899Zbb433r7/++lFsRkB/7bXXwhVXXBHHcPTRR8cIGURq9lRG3E0COmMmahyhHc6Iuel7NitjiZ3zjwQkIAEJSEACtY7A+PHj46JB5lhExGJE2KboXD5znsViiL/ZbDOIvrySkf2FjC3Mt5hTMc9iPsk8m7kh55Ix58ka8yIsO28iawx7+T7yyCMxqwhtp/lK9l6PJSABCUhAAhKQgAQkIAEJSEAC5U5AUbfcn5D9qxQBUi8nMTelYa7UjVUsxN5ciFoIbdkI2fvuuy/WRCq3QoYTishGUslVNQUzkbn5hliHuEtkJhGtSXCkHMIi+9siPqbUypzPCrhJBCRiN+0pRjQDgiDpjmdmSSxmj90kKiMc9u7dO7Rq1Srce++9Ufg74YQTAvv+Et1KBO3VV19dUtTNOuDgxRjHjh2bS7tHNGkxS2OifDbCmChZjKiNcePGxeNsO/HETP6kKJFsMdoZOXJk2HDDDeMLB2UyHJiFLLt/HMfZz5RHbMUBiiCbDNalRN38OvLb5l6M55LSF1I/wjvRx4iviLh33XVXTMVM5C771RHtwvcjRV6TEprvPd8RFhogBmP0mVcyvpvYrIwl1eG7BCQgAQlIQAI1T2Cx6fOVUvvlph5QrpQh6LIoDPE0zQspT4aPQvOjNFdIdbJgkjkK0bxYmtswh2ELCTKPtG7dOi6oS9fSvZV5px7my7TLIjvmOCxUW3PNNStzu2UkIAEJSEACEpCABCQgAQlIQAJlQ2DesumJHZHAbBJAzK1JQZfusecoxp6kiJ9ExKa9chFRd9hhh3i90B8iO0n7m/YNy5ZBLCMiIf/Fvl+FDMcXQinXGfOwYcOikwrBmRTPpL7r06dPBbE3Ww+iHKnnEIwROtkbF4EP51uKeM6Wzz8mrTIi6f777x8jVdk7lfsRYolQZV8z9t9FxKWPOOuIFMUhh6XoWcab9gfObwNxkghoHG/cz365RCZPnjw5pvalPGIrz4AUfYyHaNKePXvGdMOIlexnDCe450dy5LdX1c84BWGQWBK9nBU38+tj7AjfOBExonST4JrKUgaHIxHQpGumPtjmC7WpfGXeEfzhRF3UibOV5030C1HTRKuQ4ptIXRyvfK+JkmYBwlFHHRUdq5yHO981zpNmGaP/3J/29SWShghgrCbGEiv2jwQkIAEJSEAC1ULggOVaVqqeUuWYtyDorrfeenEBGVtD8GKOwII7FhumDB+kX0aUXXLJJeNCMeZvZFIhMwlbQJBdhPkK2UqY+zAvZZ5K9C9pk8kQQt35ovDMBkGELvWQMYUFmPSh1JxtZvV5XQISkIAEJCABCUhAAhKQgAQkMLcIlF52Pbd6ZbsSKFMC7EvLHqZnn312IC1tMlIE9+/fP7fXbTqfHxHKfQiwCGTJcFohgrL3a75RJ8JhISMaFecY/WDPsWSIqkQOp9R36Xz2nbR1RF6SDhqRDttpp53CwIEDKwiI2WiIdMyYEAkRZBG5O3fuHO9n71zS++KAQyREbE370FKAqNtrr702V5ZxdevWLbLEuZdvpGpGoE5RtwjJCMWI6KRz5jqRwgiTRJniCOzbt2/s25FHHpmrDkE3RUfnP49coSocJA44F3mWvXr1itElpPsjWrxTp065CBOqTeWJ7Ib10KFD4zkip9O11HzTpk3jc0NY5RqcYVTK8uvI/8y9fG8HDx4co565Tj+I3CXVIaI3iwRwvpLSkD7cdNNNkRnn+EzkDNEsLBpA8GWsfG9JKU4kNhHUPAfOcY1+z8pYSo3TaxKQgAQkIAEJVC+BfuusFUUfb28AAEAASURBVCu85cPJBSN2idBF0E3lCrXOwi8EUuakvJIx72vfvn2c/7EojwwnzEFY5MjiPhb1sfAvlSMi984774y3M0dK81jmyMzxmMcka9KkSZy3ps8zeyfLCH0gKw19ZSFm2iZjZvd6XQISkIAEJCABCUhAAhKQgAQkUE4E5pm+OjrmzSQSrk2bNjXWN+svjVY+c55PwxEjKzQ6tUunCp9LfSBCgCjSL7/8Mqaqxbk0N40IUJxj7PGa9hKrbH8QqXGyVfW+VD8Rn0RNNG7cOJ3KvRN9ASMiIxD5qmpEZMCZulOkLVHNfE6phAvVyX1EBiMWIzTWlDFuxoiQjQBKtC772pYyyhGRgkOxmFGGZ5r2jCPqmM9ZY1xt27bNnprpMY7R/HbZiziNIYneODxxoCLOZvdVpg98VzjHfZQnkpp+4hzlMxHiiMPJWZo/lpl20gISkIAEJCCBMiYwceLEKESWcRfLsmvMfdJcrlgHiepljp2dexQrW9XzzG3oA4JxyhhT1TosL4GZEWDrEhYqaBKQgAQKEfDfiEJUPCcBCUDAfx/8HkhAAsUITJk8JTRr3ix3ma0Sa07tyDXjgQTqHgEERdLO8ioHQ0gstp/vzPqX3Y93ZmULXU/CY6FrOOXYn3VWDeEy//7sXsbF6uW+OfFscAzywhA0ZybopnL5wmqsIPOHurJcEc55ZS21mz03s+NC7eLYzHduFhP5s+PL3jNkyJCw/PLLx7TM9D27n17+WGbWR69LQAISkIAEJFD3CMxM0GXELCarKWNuk51b1VQ71isBCUhAAhKQgAQkIAEJSEACEqhJAoq6NUnXuiUgAQlUAwFSPZer0Tf2zHv33XdjqvBZicgu17HZLwlIQAISkIAEJCABCUhAAhKQgAQkIAEJSEACEpBAuRBQ1C2XJ2E/JCABCdRSAqQfn9spyGspOrstAQlIQAISkIAEJCABCUhAAhKQgAQkIAEJSEACEqgUgXkrVcpCEpCABCQgAQlIQAISkIAEJCABCUhAAhKQgAQkIAEJSEACEpCABCQwVwgYqTtXsNtoORCY2qVTOXTDPkhAAhKQgAQkIAEJSEACEpCABCQgAQlIQAISkIAEJCABCUigJAEjdUvi8aIEJCABCUhAAhKQgAQkIAEJSEACEpCABCQgAQlIQAISkIAEJCCBuUtAUXfu8rd1CUhAAhKQgAQkIAEJSEACEpCABCQgAQlIQAISkIAEJCABCUhAAiUJKOqWxONFCUhAAhKQgAQkIAEJSEACEpCABCQgAQlIQAISkIAEJCABCUhAAnOXgKLu3OVv62VCYMKECWXSE7shAQlIQAISkIAEJCABCUhAAhKQgAQkIAEJSEACEpCABCQggYoEFHUr8vCTBCQgAQlIQAISkIAEJCABCUhAAhKQgAQkIAEJSEACEpCABCQggbIioKhbVo/DzkhAAhKQgAQkIAEJSEACEpCABCQgAQlIQAISkIAEJCABCUhAAhKoSEBRtyIPP0lAAhKQgAQkIAEJSEACEpCABCQgAQlIQAISkIAEJCABCUhAAhIoKwINyqo3dkYCdYhAwxEjK4xmapdOFT77QQISkIAEJCABCUhAAhKQgAQkIAEJSEACEpCABCQgAQlIQAKVIWCkbmUoWUYCEpCABCQgAQlIQAISkIAEJCABCUhAAhKQgAQkIAEJSEACEpDAXCKgqDuXwNusBCQgAQlIQAISkIAEJCABCUhAAhKQgAQkIAEJSEACEpCABCQggcoQUNStDCXLSEACEpCABCQgAQlIQAISkIAEJCABCUhAAhKQgAQkIAEJSEACEphLBBR15xJ4m5VAIQLdu3cPw4YNK3QpHHPMMWHIkCHx2qOPPhoo+/jjj89QdsyYMaFHjx7hp59+itcGDBgQzjjjjBnKVebEtGnTQr9+/cI+++wT2rRpE7p27Rp69+4dvvnmm8rcXrTMuHHjYv9/++23omVm5wL1pvHPTj3U8euvv85OFd4rAQlIQAISkIAEJCABCUhAAhKQgAQkIAEJSEACEpCABGabgKLubCO0AglUH4HBgweH8ePHF6zwhhtuCM8++2y89tZbbwXKHnrooeH777+vUP69994LgwYNCr/88ks8P3bs2DB8+PAKZSrz4dNPPw3bbrttOPnkk8N8880XDjnkkNCiRYtw2WWXhQ4dOoTXXnutMtUULDNp0qTY/z///LPg9dk9ifjdtGnT8Mcff8xWVauvvnoc72xV4s0SkIAEJCABCUigTAkc89KrodG9D4Z5ht83w4vzXNckIAEJSEACEpCABCQgAQlIQAISKA8CDcqjG/ZCAhKYFQKTJ08OPXv2DH369JmV20vec9ZZZ4VnnnkmjBgxImy55Za5soi8nTt3Docddlh44oknwrzzujYkB2cWDn744Ycomjds2HAW7i59y1dffRUaNWoUiLjGFllkkdI3eFUCEpCABCQggXpDAMG2/6T3i473++mZT9L1fuusVbQcmU3IIvP111/HOQ3ZXdq1axfLMxdhgeG3334bllhiibDhhhvGRYLFKvvss8/i3HOPPfYICy+8cBg5cmT44osvKhSff/75w2677VbhnB8kIAEJSEACEpCABCQgAQlIQAL1gYBqTH14yo5xlgkUSm+cKit1LZWp6fczzzwz9O/fPzz11FPV2tQ777wTo30RcLOCLo20bt06XHTRReHFF1+MTjfO4Xh78MEHw6WXXho22GCDeA0HH2mf27dvH1q1ahX22muv8NJLL1E8Z3feeWfYeOONo3PvL3/5S3j99ddz137++efQq1eveH/btm3DSSedVCHtM5HK6V7a6Nu3byDy94ILLgiXXHJJrGf77bePKavvvffesN9++4U33ngjvpO6GqPP2223XewffeQ8qaUZP+c///zzcPXVVwfq+f333+M9t9xyS+4ezt92223xPH+KtZMrUODg9ttvDw899FCBK7N/6sorrwwffPBBuOeee+Jr9mu0BglIQAISkIAE6gqBWz6cXKmhzKzc/fffH9j6okuXLmHdddeN8z0yx7CFxX333RcaN24cs78stNBCYdSoUUXbZK6FOMx8LmVbWWutteLckvklL2zBBRcsWocXJCABCUhAAhKQgAQkIAEJSEACdZmAkbp1+ek6ttkmcP7558c6tthiiwp1IehyLf98hUJz4MPxxx8fnWVHHHFEePrpp0N1RXu+/PLLsfeItYVsl112iacRdnfYYYe4ty/iIQ68nXbaKaY+3nnnnWMk7znnnBOjRa+55pqwzTbbhFQ3FRx77LEBYZpoX4RY0kkngXrfffcNzz33XBSGuX7eeefFa+wZTAQxAix7B5966qnhySefjPUsvfTSce9f0iZPnDgxRhQvv/zyYcKECXGv4hdeeCE0b9487L///uGVV16JewQj3iIEf/nll7GuJZdcMqacJvU0z5m6ttpqqzjeiy++OPzjH/8IBxxwQDj44IPDAw88EA488MBAFArP4JNPPpmhnXhjJf7gwMQhSvRJ1nBq4uTMP08ZnKVVOZ+tlzpJq10ZK9WHYvUwHl6FIrmz9ySnbaFyhfqWvbfQdc9JQAISkIAEJFA5AkTiVsZKleN3/Mcff4wL4Jhj8WKuxzYenG/QoEHYfPPNo0jbqVOnGM3L/GCeeeaZoWnmeMsuu2xcXJcuMi9LlrYhQTzG7r777theEpBXXnnlOC9iER+GIMzCP6J/EZNZMMh8g8WC66yzTizjHwlIQAISkIAEJCABCUhAAhKQQG0ioKhbm56WfZ3jBFIkJw0nATcJulyb24agN2DAgLDRRhuFCy+8MCCgVoe9//5/U/G1bNmyYHWkw8NpR0RrMhxqzz//fFhuueWiGEpqZva27dq1ayzSsWPHKIBSJtnNN98cnYB8xil42mmnxVTBiLkIpqNHj85FZeAQxDH38MMPR4cg9xD9u9lmm8U2mjRpEh15CM7fffddjEz929/+Fp13iLoYQjOcMByBOBdvvPHGGEGSzrFfMXVx7+WXXx4jlTmmTgRdxNyrrroq1tGtW7corP7973+PgnQ8Of1Ptp10rtT7m2++GZ8dDGj7uOOOizyuu+668PHHH8dbF1tssXgeMRq2pFTGWbrAAguEww8/PEY7cx4+1LP44ovnoouzbSNsE7mLgEydiOO0WcgQjQv1AWcpUTk4ZKdOnRq5kwZxzTXXjBHTiMUI3ThtiYA+6KCDYtpFhP3VVlstOnv/+te/hqFDh+bGh/iO2E69REgj2GM8J1I27rnnnoHvy5QpU2K7pG8kUlqTgAQkIAEJSGDuEUAkZT5GFC7GfAnxtGnTpvE3mwWHZDUhgwsC76abbhqv5ff4ww8/jHMC6srOL1M55htkdCGDTFqURp0s4qPO77//PkYIE8XLnJHFhsyZmDsyP6J/W2+9dZg0aVLMKLPGGmvEOVSq33cJSEACEpCABCQgAQlIQAISkEBtIKCoWxuekn2cqwSywi4dIbITx1K5GJEGp59+eow2nZX9xXCevf3227nhHHLIITlnG2Jas2bNctfSAdGSCG8Iu8n22WefKOjyGScalhXdiHglwhZD7MVwwiVbYYUV4iGOQCKAMUTVfCOSlwhfBGcif0nBjGBM1EZKy5d/T/qMWJoM4ZXyiMevvvpq7BtOvx133DEVqfCeHIyIi1nbe++9w/Dhw6PzMJ3PtpPOlXpHoD3xxBNjEVJYI/LCHsZEIuMEJeU15xFaEUyJFkYIJcUykS0w4Lu66667xugTxF3GkzVSS9NXUlGvssoq8TkMGjQoEPFdyBDXC/UBQZjnRMrsDh06xP3ucNhSJ2Ohv/T7l19+Cf369Yvppddff/14DyI1+zGTqhrH7ymnnBIFZsoh6OJ8RUimfhywfJdoh1TdtMtez+ytR1psBOKVVlqpUNc9JwEJSEACEpDAHCKQMsUQEcv8g0VjzAnefffdOJ/hmN9s5hUsjmQOl800wnyB82RGSYJtfteJ0kWwZe6TNeaXROhibPNB+ucVV1wx7t/LgkPmDgjPzCtoh3lLdv6arctjCUhAAhKQgAQkIAEJSEACEpBAuRNQ1C33J2T/yoIAKYIRc7GajNDFCZaiSrMDJ60vlqIgstc4Rhhjb1aiG0kDXBVDeEUkTLb22mvn2kEUTI6ydJ33FG2LIy1Z1sn2ww8/xNNZh10ql31PTsDsOY5xvGFJ6I0fpv9hX12cdS1atMjt6fvYY49FEZAUyuwBfO6556biM7yTnjkZ+9gS1duuXbuYQjrts5uu578jVmL5+7ilz1mhP9tOfj2FPsNxiSWWiJf4DsCP6OtlllkmCrNEr+CUxBmJLbroomHVVVeNx3AnUgXBF57wwUgfTVrqrKV0hKTq5kWkLwIpkb2F0h8X6wMRunwXk4jeuXPn2M8U4U0UDdHcvCiDMIuoi5GuulGjRgFHK31cZJFF4nnEeZy9RHYzjvHjx0fHLSI230lEYMoS3Yvh9CW9o6JuxOEfCUhAAhKQwFwlwO82v/fMgYiIxfitTtG5fOY8C/sQf7PZYFicxm8/GT4mT55M0Ri1yxyHjCQYkbdE1+Zbmkek82QqwbLzGrK6kH75kUceidk+aDs7b033+i4BCUhAAhKQgAQkIAEJSEACEih3Aoq65f6E7F9ZECD1chJzUxrmmugYe38ROYrQlo2Qve+++2JzhZxZXEBgI7UtEQ5VTcFMZG6+EYmLkEaqYiJak+BIOYRF9rdFfEyplTmfFXCT0IZzL+1ZhoiHwEe645lZEovZYzeJygiXvXv3jul8EfiInD3hhBMC+/4S3UoELdGbpUTdrIMPXoxx7NixuaiQ66+/vmjX0pgon40wxhGJERUybty4eJxtJ56YyZ/ksMwWo52RI0cG0gzzwgGaDAdpIcvuT8dx9jPlcZbiYCVFdjJYFxN1S/UhW3c65nuDZfsHC9pNhqCbLMuJftEPDGEa5zBRwq1bt46OWergvwn22sMYQ3Yc8aR/JCABCUhAAhKoNIHFps8nSu2XmyqiXCnjN5usJ4inad5GeX7zC81f0nwh1ckiMxa0Me9JRmYWhF5+98nywT1pQVsqU9l35hfMZ6mDRXBE9JLKmW0jNAlIQAISkIAEJCABCUhAAhKQQG0iMG9t6qx9lcDcJICYW5OCLmNjb1Rs9913j+InEbFpr1xE1B122CFeL/SHqErS/iKE5RsiMXuT5r/YV6yQIbAhlHKdMQ8bNiw6wRCcSfFMar0+ffpUEHuz9RD9S2o7BGOETvbGJb0wzr0U8Zwtn39MWmVEUvZYJVqYfWC5HyEWhx77prH/LiIufSS6+dNPP40CIHWl6FnGm6JH89tAeCQCGsce97NfLm0RIUKaYgyxlWdASkDGQ8rjnj17xr1diXplP2M4wT0/UiS/vap+xukIg8SS6OWsOJpfH+InwjdOSowo3SSSprKUwaFJBDTpmqkPtlkRNpXlvVQfiExOUeWkRKQu9s/F4JUii4m+TeeT+EsZnLQI4kTiMjact4wX22STTeL3mEhcjjEEXJy+fB+J6uVZpcjlWMA/EpCABCQgAQlUicABy7WsVPlS5ZhXIOiut9568fee33VezEFYEMdvddrCgjkBc4Ell1wyLmBkvsB8AsGVTB7pRaeYb6aFXMzxWAiWXRhWqY7/fyEidJmPIhKzQJI+lJpTVaVuy0pAAhKQgAQkIAEJSEACEpCABOYkgdLLrudkT2xLAhII7EuLoHj22WeHo48+OkeEFMH9+/fP7XWbLmQjHTnHfQiwKXUd5xDsEEHZ+zXfqDMJafnXiEbF+UY/2IM1GaIqkcMptV46n30nPfA999wT00ETPYzttNNOYeDAgRUExKzIl44ZE2IqgiwiN6l9MYQ89n/Focc+wIitaR9arhN1e+2113IYyzKubt26RSY4D/ONVM04DFPULUIyQjEiOnu6cp1IYSJ/77rrrrj/a9++fWPfjjzyyFx1CLopOjr/eeQKVeEgcWDPN55lr169YnQt6QSJFu/UqVOFCNxUnihWWJOemHNETqdrqfmmTZvG50a0NNfgDKNiVqwPCM0I/6T8xmmLY5RzSdjGgZsiphs3bhz3KUaQzRrs4UzUN0b/+Y5gPGM+871dYboAjbFXMM8X1vSd/fmKRa7HG/wjAQlIQAISkEBJAv3WWStev+XDyQUjdonQRdBN5QpVRiQu8wDmjLySMS9r3759nJ+xEIvsH/x+swiRxXcsumNhHuUQW0sZ24TMrEyp+8kUQx/IGkNfWSg5q1G/pdrxmgQkIAEJSEACEpCABCQgAQlIoKYJzDN9dXTMi0nEVZs2bWqsPesvjVY+dY9PwxH/SyHH6KZ26VR6kJmrRD0QRfrll1/GKIUmTZpkrs75QyJAcb6xx2vaq6yyvUCkxolX1ftS/aTjI+IDcTDfiO6AEY4+BMuqGtGkcKbuJEgS1cxnRMtixn1EjSAWF4tyLXZvVc4zbsaIyIl4SkQr+9SWMsohoOKwLGaU4ZkivmNEHfM5a4yrbdu2kX1+H/j3ir3pEL6//fbb+Gx5xhh7GyPOpvSLM3PCMibuTdHV2T4UOqYvCNY1yb1Qu56TgAQkIAEJQGDixIlRiJRG1QgwN0lzrardWT2lEXPpA3OIys45qqdla6lPBNh6hoUKmgQkIIFCBPw3ohAVz0lAAhDw3we/BxKQQDECUyZPCc2aN8tdJtulkbo5HB5IoHwIICi2bNkyvsqhVwiJsxoVmd2Pd1bGkoTHQvciGKbUfIWuz+wcwmD+/USIzsy4j+dT04bjkRdGFPDMBN1UrpSgm8pkuSKc88paardUHxBjiz3fmYm5qS32g66KVbbeqtRpWQlIQAISkIAEapbA3BR0GRlzluzcp2ZHa+0SkIAEJCABCUhAAhKQgAQkIIGaIaCoWzNcrVUCEpBArSFAmuWqGAL/0ksvXfAW9h2elajpgpV5UgISkIAEJCABCUhAAhKQgAQkIAEJSEACEpCABCQggUhAUdcvggQkIAEJVIkA0TbFIm7yI5+rVLGFJSABCUhAAhKQgAQkIAEJSEACEpCABCQgAQlIQAISKEhg3oJnPSkBCUhAAhKQgAQkIAEJSEACEpCABCQgAQlIQAISkIAEJCABCUhAAmVBwEjdsngMdqIuEpjapVNdHJZjkoAEJCABCUhAAhKQgAQkIAEJSEACEpCABCQgAQlIQAISmMMEjNSdw8BtTgISkIAEJCABCUhAAhKQgAQkIAEJSEACEpCABCQgAQlIQAISkEBVCCjqVoWWZSUgAQlIQAISkIAEJCABCUhAAhKQgAQkIAEJSEACEpCABCQgAQnMYQKKunMYuM1JQAISkIAEJCABCUhAAhKQgAQkIAEJSEACEpCABCQgAQlIQAISqAoBRd2q0LKsBGaRwIQJE2bxTm+TgAQkIAEJSEACEpCABCQgAQlIQAISkIAEJCABCUhAAhKo7wQUdev7N8DxS0ACEpCABCQgAQlIQAISkIAEJCABCUhAAhKQgAQkIAEJSEACZU1AUbesH4+dk4AEJCABCUhAAhKQgAQkIAEJSEACEpCABCQgAQlIQAISkIAE6jsBRd36/g1w/BKQgAQkIAEJSEACEpCABCQgAQlIQAISkIAEJCABCUhAAhKQQFkTaFDWvbNzEpBAUQINR4yscG1ql04VPvtBAhKQgAQkIAEJSEACEpCABCQgAQlIQAISkIAEJCABCUigbhAwUrduPEdHIQEJSEACEpCABCQgAQlIQAISkIAEJCABCUhAAhKQgAQkIAEJ1FECirp19ME6LAlIQAISkIAEJCABCUhAAhKQgAQkIAEJSEACEpCABCQgAQlIoG4QUNStG8/RUUhAAhKQgAQkIAEJSEACEpCABCQgAQlIQAISkIAEJCABCUhAAnWUgKJuHX2wDksChQh07949DBs2rNClcMwxx4QhQ4bEa48++mig7OOPPz5D2TFjxoQePXqEn376KV4bMGBAOOOMM2YoV5kT06ZNC/369Qv77LNPaNOmTejatWvo3bt3+Oabbypze9Ey48aNi/3/7bffipaZnQvUm8Y/O/VQx6+//jo7VXivBCQgAQlIQAISkIAEJCABCUhAAhKQgAQkIAEJSEAC9YCAom49eMgOUQKJwODBg8P48ePTxwrvN9xwQ3j22WfjubfeeitQ9tBDDw3ff/99hXLvvfdeGDRoUPjll1/i+bFjx4bhw4dXKFOZD59++mnYdtttw8knnxzmm2++cMghh4QWLVqEyy67LHTo0CG89tprlammYJlJkybF/v/5558Fr8/uScTvpk2bhj/++GO2qlp99dXjeGerEm+WgAQkIAEJSEACs0jgxg8+Ci3ufyS+ONYkIAEJSEACEpCABCQgAQlIQAISKF8CDcq3a/ZMAhKY2wQmT54cevbsGfr06VPtXTnrrLPCM888E0aMGBG23HLLXP2IvJ07dw6HHXZYeOKJJ8K887r2JAenjA4Q+xs0aBAaNmxYRr2yKxKQgAQkIAEJVIXAqa++ET7/ZVq8heNDWi1b9PYXX3wxvP7664GMJU2aNAlbb711wXnAV199FVj09+2334YlllgibLjhhnHh3u+//x5Gjx4dpkyZEtto2bJl6NixY5hnnnmKtukFCUhAAhKQgAQkIAEJSEACEpCABP5HQLXkfyw8ksAcJ1AovXHqRKlrqUxNv5955pmhf//+4amnnqrWpt55550Y7YuAmxV0aaR169bhoosuCjgOEXyxPfbYIzz44IPh0ksvDRtssEG8Rupi0j63b98+tGrVKuy1117hpZdeiuXTnzvvvDNsvPHG0ZH4l7/8JToi07Wff/459OrVK97ftm3bcNJJJ1VI+0ykcrqXNvr27RuI/L3gggvCJZdcEqvZfvvtY8rqe++9N+y3337hjTfeiO+krsbo83bbbRf7Rx85T2ppxs/5zz//PFx99dWBenB0YrfcckvuHs7fdttt8Tx/irWTKzAHD/7973+HUaNGzcEWbUoCEpCABCQggeomkARd6s0e57eDmPvyyy/HeRhzGOZRDz30UH6xuK3EfffdFxo3bhwzsiy00EK5+cLTTz8dyNSCGLzJJpuEDz/8MM7pZqjEExKQgAQkIAEJSEACEpCABCQgAQkUJGCkbkEsnpTAnCFw/vnnx4a22GKLCg0i6HIt/3yFQnPgw/HHHx9wzB1xxBEBR1x1RWXiFMQQawvZLrvsEk8j7O6www5xb98PPvggkPp5p512iqmPd9555xjJe84554RGjRqFa665JmyzzTbR4ZjqPPbYYwPCNNG+CLGkk04C9b777huee+65KAxz/bzzzovX2DOYCGIEWPYOPvXUU8OTTz4Z61l66aXj3r+kTZ44cWKMKF5++eXDhAkT4l7FL7zwQmjevHnYf//9wyuvvBL3CMbxiRD85ZdfxrqWXHLJmHKa1NM8Z+raaqutYpcvvvji8I9//CMccMAB4eCDDw4PPPBAOPDAAwMRLzyDTz75ZIZ20lhn9s7evfPPP/8MxRCTSX+db5yHS370TLF68u/Pfs62QXQPEb75li2TrnGO9vOjtYv1gZTgjDG/z4Xqpg1EelJoFxp/6oPvEpCABCQgAQmE8P7778c5zsorrxxxEH07cuTI+Dua/Z1mCw9+5zfffPN4rVOnTuHrr7+Ov7ksyGvXrl1YZpllYh1sCfLjjz/G47vvvjvWz1yP33na4TedBXPYWmutFRfiffbZZ1EkRlSmXRbmrbPOOrGMfyQgAQlIQAISkIAEJCABCUhAAnWdwIye9bo+YscngTIikCI56VIScJOgy7W5bTjTBgwYEDbaaKNw4YUXBgTU6jAcgxhp9wrZwgsvHB17RLQmw8n3/PPPh+WWWy6KoaRmZm/brl27xiIdp6fvQwClTLKbb745RsHyGfHutNNOC9OmTYtiLoIpKQCJ/MVwPhKR+/DDD0fnI+eI/t1ss81iG6QZhAeC83fffRfuueee8Le//S06FBF1MYRmOGE4J3Fk3njjjTFaJZ3D2Uld3Hv55ZfHSGWOqRNBFzH3qquuinV069YtOjb//ve/R0E6npz+J9tOOlfsHeGaCF8ETJyfu+++e3SMIkAzBkTWxRZbLIrYOGHZ0xjxmugZxFH4rrvuulFQJ3oZJyocKJucsoXaHjp0aEy7SEQObay22moxSpnP9GOfffaJgnahfiy66KIxgplIZox2ENj5zN7P9IG+8ex23HHHGOVz1113xWhnzsOd/54++uijGPk8derUwHeKa7BbY401AuXT/tJ8p9jTWXG30JP0nAQkIAEJSCDE337mKsmSGMt2DIsvvng6HRexsQiQTCOIuMwXNt1007ggj+01MOaBb7/9drzepk2beI6yLJijLHWSfWXBBReM8zMW9rFYjnka8z+if4n2nTRpUpwD8Lu+wAILxHr8IwEJSEACEpCABCQgAQlIQAISqMsEFHXr8tN1bLWCQFbYpcNEdiJClYsR/XD66afHaNPddtutyt1CGMVxlwzxrGnTpvEje601a9YsXcq9E1mJgEfUazJEQMQ3DMceRnriZES8EmGLIfZiOAaTrbDCCvEQQZAIYAxRNd+I5CXCF8GZyF9SMCMYd+nSJScA59+TPh933HHpMIqHiI6Ix6+++mrsG45IRMhClgTsPffcs8LlvffeOwwfPjzg0EyWbSedK/ZOFA39IOKZdNbscbfsssvGOkkZvcoqq0RegwYNiqI4AixjJ1L59ttvj1E4iLq33nprWHXVVWN0NX0lTXQpg/MXX3wRTjzxxBhpjBhLdM6RRx4ZBg4cGKOfl1pqqYL9ICU3kc3su0z07RVXXBEdtwj2CL58H+kDz5nngmhNxBD/7TzyyCMx4hpRl3YQk3fdddco9iNiE/2DkEy0+F//+tfoBO7Xr19MlQ0jTQISkIAEJCCBGQkQOctiOOZJzONYNIbxu5o1fv+Z3zG/4DeYcixYZG7BojCMhWNE3LLYKjvnZS6XIoERdZl/rLjiinFfXhb3MUdhYRhtMD/o0KFDhblith8eS0ACEpCABCQgAQlIQAISkIAE6iIBRd26+FQdU60jQIpgBCmsJiN0ichMUaVZSKT1xYh8KGSnnHJKFPiIliQNcFUM4ZX0wcnWXnvtXDuInMl5l67znqJtce4lI81xsh9++CEeJudgOp//XixdNM5ALAm96T721cWB2KJFiyj8IoI+9thj4brrrouiNnsAn3vuuan4DO9EuCZjnzmiehEyEQvTPrvpev47EcQYUSlZS5+zTs9sO9myhY5xqpI6e8qUKVGUJRI4idqc50W0DQIs0cwYYjZO0zXXXDMK8uwDTP8QpDmPuEsa6ZkZkTOkxl5kkUViUaJqiIYl8hbnbEqpmN+PJN6zhzL9R9heaaWVYkTPa6+9FkVe+nD00UfH+nguOH/vuOOOQCQ0Rp95zqnP66+/fm6PZhYF0A9EXgynMn1R1I04/CMBCUhAAhKYgQBzJuZzb775ZvwNZ47GojUyYWSN39cUnct5fvtZhIWImzK0kAUFY66ESJy240jzhXhx+p8UAczcIxn3jho1Ki7i4vebOrNzxFTOdwlIQAISkIAEJCABCUhAAhKQQF0koKhbF5+qY6p1BIgqTGJuSsNcE4NgPzIiRxHwshGy7JuLIcIVMsRe9qxl79eqpmAmMjffiMRF3CVVMelwl1hiiVwRIi/Y3xYBOqVW5mJWwEXgwxDn0j5qiIREpJLueGaWxGL22E2iMmn/evfuHVq1ahUjP4kEPeGEE6KjEXGRCNqrr766pKibdTrCizESGZvS+l5//fVFu5bGRPlshDF7/GJEqowbNy4eZ9uJJ0r8Id0ykSyIoewNTP1JXE3iKbfDJIm6iTXOUozUzVgaB8eV6UMqn+pJ9XI/Rr2Uye8HQjB7GRNNyyKEm266KUZlEzVNlDECLs8eRzDCLqI732e+CziAn3322dxY/tvSf/+m8dEugn9ql3fa1CQgAQlIQAISKEyAfXFZ0EUKZIx5F7/v+Qvo+D1FwE2GwIsx9yPrB3MSIngxftNTxG88UYk//JYzd6Q+BGbmBK+//npciFaJ2y0iAQlIQAISkIAEJCABCUhAAhKo1QT+t+y5Vg/Dzkug9hNAzK1JQRdChx9+eASF0If4SURs2isXEbVUpCL76pL2N+1zmiWOSMwesvkv9jorZAh5CKVcZ8zDhg2LjjkEZ1I8s69tnz59Koi92XqI/iU1M4IxQifpAEnziyMxRTxny+cfE4mKSLr//vvHvdlIx8v9CLFEgLKXG/vvIuLSR4RF9oJt3bp1rCpFzzLetD9wfhs4MYmAxtnI/eyXS2Ty5MmTYxQp5dn/jWdAWkLGc8ABB4SePXsG9gImcpT9jOEE9/zolfz2in1GICeVMc8WYZqIW8aOM3SF6VE3HTt2jOIqDJLjNb+uxo0bx74SuYx9/PHHcWz55ar6GZ6F+sEzJSUyjt+Urpv9cfnOEtXD4oKjjjoqOpN5PiwE2HfffWMK5hR1Tp8RkekzDmDEbNrCaBcRf7311ovfP9KDZ9NbV3UclpeABCQgAQnUVgLNF1gw1/Xsce7k/x+QZpktDpgHkgaZ+QtpmBF2mQcylyGrCIvU+F1O20og2lIGQRgBmAVbpGdmPsL8qKqLqugD8wTqYjEidafFZ/l99rMEJCABCUhAAhKQgAQkIAEJSKCuETBSt649UccjgRIE2JeWtLRnn312jHBMRUkR3L9//9xet+l8fjQm9yHAIkwmQwhEBCVFbr5RJwJiISMaFUcfkZbs7ZoMUZXIYaJJixn7qpI6l3TQCHzYTjvtFPdQzQqTOPqSpWPGhJiKIIvI3blz51iEKFD2lcW5yD7AOCsRepMRdXvttdfmyjKubt26RZaFUhGTEhiBOkXdIiQjFCOiE1nKdSKFSed81113he+++y707ds39o19Z5Mh6Kbo6PznkcqUeke0pX6Y4oTlWbOXLXwRSeECD8ZSyvjuDB48OJe6OT/qttS9+dfSs8AZXKgf9I+UzL169YoRwTxT9tklnTJRu/BAqOV+hFkidlkEQL1E/VCOqGSE3qFDh4bx48fHvXgZJy8i1knT/M9//jPewzNH4NckIAEJSEAC9Y3ARWutHk599Y04bI6LGVtTkNmCBXiIqGRxYY6BkZaZRVbMlfht5p2FbCyo4reZhYEsiOO3nMVZw4cPj/dRB/OjqhhZWaibSGH6waJE5o6aBCQgAQlIQAISkIAEJCABCUigPhCYZ/qK6phXk5XSbdq0qbExW39ptPKRT2kCM15tOGJkhZNTu3Sq8LnUByIWiWgkghMRrEmTJqWK1/g1oiaJeGWv1bR/WmUbRaTGYVjV+1L97M9L9AmRnflGxAmMiAbBSVlVQ0SFM3WnSFuiWficUhMXqpP7iAxGLM6K1IXKVuYczxvRGDE8K8YijMKe85U16sGBmoRZIoqpI2v0uW3bttlTJY+L9YO9ful7NooHBy59QJzNpnzkHJ8ZH/dxTMQ30b6k90boRcRl/+rElOdO/cX2ki7ZaS9KQAISkEC9JDBx4sQoWtbLwU8fNL/ZROJW5reT3+M0/8nyYn7FPKIydWTvS8fMBaib3/yUPSVd810Cc5MA24OwqEGTgAQkUIiA/0YUouI5CUgAAv774PdAAhIoRmDK5CmhWfNmucsENxmpm8PhgQTqDwEExZYtW8ZXOYx64YUXLrqf78z6l92Pd2ZlC10vJWgiDCJ6z6ohHubfn93LuFi93MfzqS7jeRcSrYn8LTX+Qu1nBVauI4rzylpWOM6eL3ZcrB+FHMHFBPxsv9J9RA6Rxpl9kqdMmRK/Y0nQpS/0s6p9LTYGz0tAAhKQgATqAwF+sysrxqbf43wu2UVZ+dcq85m5QFXnL5Wp1zISkIAEJCABCUhAAhKQgAQkIIFyJ6CoW+5PyP5JQAISKGMCRMKWq5FSmr1yibYmPfjsOpHLdZz2SwISkIAEJCABCUhAAhKQgAQkIAEJSEACEpCABOo+AUXduv+MHaEEJCCBekuAKF1emgQkIAEJSEACEpCABCQgAQlIQAISkIAEJCABCUigNhOYtzZ33r5LQAISkIAEJCABCUhAAhKQgAQkIAEJSEACEpCABCQgAQlIQAISqOsEjNSt60/Y8dVZAlO7dKqzY3NgEpCABCQgAQlIQAISkIAEJCABCUhAAhKQgAQkIAEJSEAC/yNgpO7/WHgkAQlIQAISkIAEJCABCUhAAhKQgAQkIAEJSEACEpCABCQgAQlIoOwIKOqW3SOxQxKQgAQkIAEJSEACEpCABCQgAQlIQAISkIAEJCABCUhAAhKQgAT+R0BR938sPJKABCQgAQlIQAISkIAEJCABCUhAAhKQgAQkIAEJSEACEpCABCRQdgQUdcvukdghCVSdwIQJE6p+k3dIQAISkIAEJCABCUhAAhKQgAQkIAEJSEACEpCABCQgAQnUCgKKurXiMdlJCUhAAhKQgAQkIAEJSEACEpCABCQgAQlIQAISkIAEJCABCUigvhJQ1K2vT95xS0ACEpCABCQgAQlIQAISkIAEJCABCUhAAhKQgAQkIAEJSEACtYKAom6teEx2UgISkIAEJCABCUhAAhKQgAQkIAEJSEACEpCABCQgAQlIQAISqK8EGtTXgTtuCUigNIGFxl9XocDP7Q+r8NkPEpCABCQgAQlIQAISkIAEJCABCUhAAhKQgAQkIAEJSEACc4aAkbpzhrOtSEACEpCABCQgAQlIQAISkIAEJCABCUhAAhKQgAQkIAEJSEACEpglAoq6s4TNmyQgAQlIQAISkIAEJCABCUhAAhKQgAQkIAEJSEACEpCABCQgAQnMGQKKunOGs61IQAISkIAEJCABCUhAAhKQgAQkIAEJSEACEpCABCQgAQlIQAISmCUCirqzhM2bJCCBQgS6d+8ehg0bVuhSOOaYY8KQIUPitUcffTRQ9vHHH5+h7JgxY0KPHj3CTz/9FK8NGDAgnHHGGTOU84QEJCABCUhAAhKQgAQkIAEJSEACEpCABCQgAQlIQAISqC8EGtSXgTpOCUig5gkMHjw4LL300mG33XabobEbbrghLLjggqFbt27hrbfeCpQdPXp0eOGFF8Jiiy2WK//ee++FQYMGhUsuuSQsvPDCYezYsWH8+PGhd+/euTIeSEACEpCABCQgAQnUAIF3R4fw+Zsh/P5LDVRulWVNYL4FQmi+WggrbVnW3bRzEpCABCQgAQlIQAISkIAE6jMBRd36/PQduwTmMoHJkyeHnj17hj59+szlnti8BCQgAQlIQAISqOcEEHQ/eaWeQ6jHw0fIT8+/hLD72muvhZdffjn8+uuvYYkllggdO3YMjRo1Cr/99lvMwjNlypQwzzzzhOWXXz5suumm8Xjq1KmBTD1ffvllmG+++cKqq64aNthgg5Kw77vvvtCwYcOw9dZbVyj32WefhREjRoQ99tgjLgCtcNEPEpCABCQgAQlIQAISkIAE6jgB0y/X8Qfs8Oo3gULpjRORUtdSmZp+P/PMM0P//v3DU089Va1NnXLKKeH444+vUOeoUaPCdtttFz755JPwr3/9K1Ama1ddddUM92SveywBCUhAAhKQgATqNAEidDUJlPgefPjhh+G5554L7dq1C9tvv334888/w4MPPhiZMddGcO3UqVMUc8m+Q1nssccei1urdOnSJay33nrh9ddfD5MmTYrXCv2ZMGFC+OKLL6JQnL3++++/R3GYdv/444/sJY8lIAEJSEACEpCABCQgAQnUCwJG6taLx+wg6yuB888/Pw59iy22qIAAQZdr+ecrFJoDHxBeWYV/xBFHhKeffjquxq+OZokMOPnkk8Ppp58e00FTJymdv/vuu7DUUktFR9K7775boal33nknPPvssxXOVeYDziUiDgpZ9lr2OFuWqIYGDWb8p7hQeZxXvPLLEykx//zzZ6steZxfd6E+5JdJFRZqi7JEZMw7b8V1QvSVa/l9wxHHK788bRRrN7XvuwQkIAEJSEACNUTAlMs1BLaWVVvie4CoS3TuGmusEQe19tprhzFjxsTjTz/9NIq9bMWCEbGLsLv++uuHX375JTRv3jy0aNEiNG3aNDzzzDNh2rRpsVz+n++//z5uz7LMMsvE+WL2Om0tu+yygXl7snHjxgUigb/++uvwww8/hMUXXzzQL84zx6VdBGjaI8L3m2++ifNW+tm5c+d4nOryXQISkIAEJCABCUhAAhKQQLkTmFFJKPce2z8JSKDSBFg5T3QqlgTcJOimVfWVrqwGCiL2DRgwIGy00UbhwgsvDOecc061tLL77rtHUffuu++OgvHPP/8c9/Dt27dvtdR/2223BZxaOJ0QIdkT+NBDD41OqgsuuCA6tBCpd9lllxiF8NJLL0WnFE6mAw88MDqXcGY98MADOdFzn332iano2GP4nnvuiU4o6u3evXto0qRJuOOOO2KqO8RQ9ho+/PDDo4OMvYoZH6Iqaex23HHHgmNE0L7sssvCkksuGZ1sCNEbb7xxeOKJJ6JQjGPrqKOOinXdfPPNsQx1brjhhtERRqTFvffemxNjYdy6detw9dVXh88//zy2ifOtR48esb7rrrsufPzxx/E84zjuuOPinsqwI20fRl9wtiHuU3bgwIHhxx9/jCIw9bdp0yaW848EJCABCUhAAhKQwNwnwFwzGyHLIsmFFloodoy5JfO4ZAitSbhdZ511YmpmUjB/9dVXca630korpaIV3h9++OE4l0ak/emnn3LXmHszX9xrr70qiLqU4RpCbrNmzWJU8NixY2NEMAshEXe574MPPoii77bbbhv7+eSTTwb6v/LKK+fa8EACEpCABCQgAQlIQAISkEC5E1DULfcnZP8kMJsEssIuVSHy4mQpF8PJQ0QtYuhuu+1W5W7h2Hn77bdz9x1yyCFRQETc/Pe//x1F3dGjp+8RN91mpf5cxZkDog0QSRFWWf2PsEok8AknnBD3Fxs/fnxApP32228Dgi5CJxHClLvllluiAIxA2rVr18D4EWxvv/32KKoOHz487LfffmGVVVYJQ4YMifUSyUw9Bx10UFhhhRXC9ddfHyMcqH/RRReN/IhYoDxp7QpFDuOAQ0DFcUW/r7zyyoAz6+ijj47lL7/88rjP2UMPPRTLnXXWWTHtHaLtaqutFkaOHBlF4x122CFGOeAsQ9BmbzTKwuSKK66IIjYiL69TTz01RhVfdNFF4c0334yOPdLtHXvssVEIpzwiNYaQ3LZt2yggEzHNs6Pe/CjfzGPwUAISkIAEJCABCUhgDhJI2WKYv7FQdPLkyXFPXbrQsmXLON9jboqY+9FHH+WiYJk3cw8plZkzkq0FAXiBBRao0Hvm0CwqXHPNNQNzzWTcQ3tbbbVVwXkuCyfbt28fiy+yyCIxWpc6MBZSIvzSJnNXFmUiKFOOlyYBCUhAAhKQgAQkIAEJSKA2EVDUrU1Py75KYBYJsHdtitityQhdIjLZAyvf2McWSyv586+zvy2iJuInAmZVjHRqrPhPxip9bP/99w/dunWLziaEUsoRGVrMEDyrYoiuRKZiCJ3XXnttLnJh6623DquvvnoUKilHmjhs5513jnsIE6nasGHDnPNpjz32iBGyL7/8cixHlC8vnF04vxA2cVbdeuut0QlFGjvE4FdffTVGvSKOrrrqqjmBNlZS5A99w1mGyNyoUaOYBo+inMNhRsQCDq6hQ4fGGhCI6RfjoE+k0qOtgw8+OPaZQpdeemm8vvfee8f+IRzDhihgIidgS918N4juRQjHiBRGWMbRh7ONtH2I4xiOP4RqOGoSkIAEJCABCUhAAuVBAFGUbDMIt8wrl1tuudixTTbZJC5uJOvMggsuGFZcccUo7HKRxYnM6cgAg7DKgkYEXPbfTcZ88JVXXomLCBGLSaVMGywgfPHFF+Pcmfkh1zCib9lyBWNenQzxljluMua4GIsHmVc/9dRT8UUa6Wz7qbzvEpCABCQgAQlIQAISkIAEypmAom45Px37JoFqIkDq5STmpjTM1VR1hWrWWmut6OTBYUL6s2Tsm4ul/bfS+fSO2HvNNdfE1fdVTcFMZG4hQ8RGZCbdL44j0jwnIyogpQxO53BAVcWy+8GmYxxNGPuFYXxO1/icImgRObPn2aeWaAbKUyY5x7gHBxhRtieeeGJ44403ooh71113RaGVyF0EYxxlOMFwUhEFm9rn/nxL7eLgSv3JlqEPPLskRNMXXgi1HTp0iO0jxBI9wWIBonERfRFsb7rppiieMz4ie3Hc8frss89iE9TNKxlOPSyl8WvVqlWuT7RZahypDt8lIAEJSEACEqgmAvNNj5r8/Zdqqsxqai0BvgdFjEV6bG/CHJttRhBvkzHfW3fddXNCKZG1bBnCPcz10l67zD9ZXMj/L2SNxYzMT8nYgqU5I3NOziPyMr9Mxrw3K+am88Xe2a5k8803j4tM33///ThvZgFiWvha7D7PS0ACEpCABCQgAQlIQAISKCcC85ZTZ+yLBCRQcwQQc2tS0KXnpPXF2A/1xhtvDM8//3xur1ycP0S0FjP21WXf1XyxlfI4fXAg5b8mTZpUrLro5CFal9TORBSQljgZUaekASaNMVGzvXr1iqnZ0vXKvE+cODGw1xc2atSo6NxKImmKCCAqlXJEEuOYGjFiRIyC5TyOKyJRcXIxLtIecx6hc4XpKZY7duwY70Fs/uabb8K5554b09qRbppIXRxnMOY+UtGxHy7tJgG1MmMoVAYxlb7xXUl77uKMO++882KkBM9wzz33jJETpLXu169fFHsR15s2bRrFaVItE51BdDRRuTjRGD8RvokHbSAOY0RKILRThnEjIFN31lFYqK+ek4AEJCABCUigGgk0X60aK7OqWkugxPeAeSkLBJlX887CxJTthmwuLCJlmxe2CEE4Jc0xczzSNrMIkWuIs2RyYd7IvYi/RN0i+h544IG5F/NBziEek+0mew22bKuSFiFWhjVicVrkSr9IE52E48rcbxkJSEACEpCABCQgAQlIQALlQMBI3XJ4CvZBAnWEAPvIIkCeffbZMRVwGla7du1i2mGcN1lLUaPpHPcNGzYsl1aN8ziBEGVJ7Ztv/fv3j+Jh/vn0mf5cddVVoXv37jFSIJ0/4IADwp133hmjWjmHeIkoyp5blTUcVJdddlksTnpkomaTJVGXeklnzH61nOMeHFI4qDbddNMwcODAeAtOJfoKH9LYIdam8qSQJnIWIZo0xwjHCME4uChPdCzRzZzjM/vfVtZSP7Pld91115hKmjq5TrtEWCO2EiFM1DUOOJ7pBhtsEJ577rkoivMseVZbbrllTNHMc0Qsp7+kjsaJRmQvQjw8MCJxSauHMf7BgwfHCGDaRah2n7OIxj8SkIAEJCCBOUNgpS3/287nbxqxO2eIl1crROgi6KbvQYHeIb6y2G/IkCG5q8zbmN+yNcgHH3wQ/vOf/8RrzPPI4oOxWJAFe+ka6ZGZJyMKMzdkrpgieeMNVfhTaD6bfztlWBR5//33x+1M+MwcdbPNNssv6mcJSEACEpCABCQgAQlIQAJlTWCe6atlYy5MUme2adOmxjpr/aXRykc+pQmUvloT35+Fxl9XodGf2x9W4XOpD0Sbso8ue2Cxgr5Jkyalis+1a/SR1M9EilbF2NsWgbZr164x4iC7b1ehehBBiVZFvM0aQiwRC/niJefZYza/PAIo5WkvCeJEGLAHGf0hBR1pnAtF6/Lve7E9jbN9Sse0g1iNUJuM50pb9ItryYi65VqWA0661FfGw/iJwiYygz3XMIRf+k30RTIEfKK6NQlIQAISkEA5EiDjxNprr12OXbNPEigLAoi+abFffoeY3zK3ZP43t4w+MH/On39XR3/YDsV/H6qDpHVIoG4S8N+IuvlcHZUEqoOA/z5UB0XrkEDdJDBl8pTQrPn/trlkG5r/eevr5pgdlQQkMBcIsPK9ZcuW8TUXmq90k+znNTuGsJkVN4vVhfMqX6ClLA6vQg4lzhcqTzri/JTERBoQ3ZAM8RThNd8QXatihfYo47k2btx4hmoKjSHLhvGwpxp1PvLIIzH9HucQ/Q87rOJiAQXdGfB6QgISkIAEJCABCdQaAqUEW+aDc9vKoQ9zm4HtS0ACEpCABCQgAQlIQAK1l4Cibu19dvZcAhKYSwTYR6wyqd7mRvdIl8yrHI00fKeddlpgz12ietl3V5OABCQgAQlIQAISkIAEJCABCUhAAhKQgAQkIAEJSGDmBBR1Z87IEhKQgAQqEMjfG7jCRT+UJEAKaPZc0yQgAQlIQAISkIAEJCABCUhAAhKQgAQkIAEJSEACEqg8gXkrX9SSEpCABCQgAQlIQAISkIAEJCABCUhAAhKQgAQkIAEJSEACEpCABCQwpwkYqTunidueBGoJgZ/bH1ZLemo3JSABCUhAAhKQgAQkIAEJSEACEpCABCQgAQlIQAISkEDdJmCkbt1+vo5OAhKQgAQkIAEJSEACEpCABCQgAQlIQAISkIAEJCABCUhAAhKo5QQUdWv5A7T7EpCABCQgAQlIQAISkIAEJCABCUhAAhKQgAQkIAEJSEACEpBA3SagqFu3n6+jk4AEJCABCUhAAhKQgAQkIAEJSEACEpCABCQgAQlIQAISkIAEajkBRd1a/gDtvgTmBIEJEybMiWZsQwISkIAEJCABCUhAAhKQgAQkIAEJSEACEpCABCQgAQlIoAABRd0CUDwlAQlIQAISkIAEJCABCUhAAhKQgAQkIAEJSEACEpCABCQgAQlIoFwIKOqWy5OwHxKQgAQkIAEJSEACEpCABCQgAQlIQAISkIAEJCABCUhAAhKQgAQKEFDULQDFUxKQgAQkIAEJSEACEpCABCQgAQlIQAISkIAEJCABCUhAAhKQgATKhUCDcumI/ZCABOoXgYXGX1e0a8VNAABAAElEQVRhwD+3P6zCZz9IQAISkIAEJCABCUhAAhKQgAQkIAEJSEACEpCABCQgAQn8l4CRun4TJCABCUhAAhKQgAQkIAEJSEACEpCABCQgAQlIQAISkIAEJCABCZQxAUXdMn44dk0CEpCABCQgAQlIQAISkIAEJCABCUhAAhKQgAQkIAEJSEACEpCAoq7fAQlIQAISkIAEJCABCUhAAhKQgAQkIAEJSEACEpCABCQgAQlIQAJlTEBRt4wfjl2TgAQqEujevXsYNmxYxZP//+mYY44JQ4YMiZ8effTRQNnHH398hrJjxowJPXr0CD/99FO8NmDAgHDGGWfMUM4TEpCABCQgAQlIQAISkIAEJCABCUhAAhKQgAQkIAEJSKBcCDQol47YDwlIQAIzIzB48OCw9NJLh912222GojfccENYcMEFQ7du3cJbb70VKDt69OjwwgsvhMUWWyxX/r333guDBg0Kl1xySVh44YXD2LFjw/jx40Pv3r1zZTyQgAQkIAEJSEAC9ZLAu6ND+PzNEH7/pV4Ov14Per4FQmi+WggrbVmvMTh4CUhAAhKQgAQkIAEJSEAC5UxAUbecn459k4AEZovA5MmTQ8+ePUOfPn1mq545ffMPP/wQ5ptvvtCwYcNqb/qrr74KjRo1CtOmTYt1L7LIItXeRlUq/P7770ODBg1qZKxV6Ud1lP3555/DL7/8EvlWR33WIQEJSEACEpijBBB0P3lljjZpY2VEACE/Pf8Swu5rr70WXn755fDrr7+GJZZYInTs2DHOfX777beYJWfKlClhnnnmCcsvv3zYdNNN4/HUqVMDmXS+/PLLOMddddVVwwYbbDDD4MmkQ7mvv/46lmvTpk1o165dLPf666+HF198MbbLgs0tt9wyNGnSZIY6PCEBCUhAAhKQgAQkIAEJSKAuEzD9cl1+uo5NAjVMoFB649RkqWupTE2/n3nmmaF///7hqaeeqtamTjnllHD88cdXqHPUqFFhu+22C5988kn417/+FSiTtauuumqGe7LXs8e33357eOihh7Knqu34yiuvDB988EG455574qvaKp7Fiv79738H2FXV7r777jBx4sSq3laj5Z955plw00031WgbVi4BCUhAAhKoMQJE6GoSKPE9+PDDD8Nzzz0Xhdbtt98+/Pnnn+HBBx+MzJjPffbZZ6FTp05RzCU7DmWxxx57LG590qVLl7DeeusFBNpJkybFa9k/999/f0Acpty6664bXnrppUA9iLzMs9Zaa614DdH4kUceyd7qsQQkIAEJSEACEpCABCQggXpBwEjdevGYHaQEaobA+eefHyveYostKjSAoMu1/PMVCs2BDwiv9913XzjiiCPC008/XW3RoEQenHzyyeH000+P6aAZCimdv/vuu7DUUktFR9W7775bYYTvvPNOePbZZyucm9kHHGU4tuaff/4KRf/444/w+++/z3CeQkRN5JcvdT5bMXUSIVxZy5bPHmfvJ3KV/uB8y1qxfmbLlDqGZ7NmzQKRHlkr1o9smXRcrA/F6oA7zySfEeXzx5fa8F0CEpCABCRQawiYcrnWPKoa7WiJ7wGiLtG5a6yxRuzC2muvHcaMGROPP/300yj2slUKRsQuguz6668fM5k0b948tGjRIjRt2jQKtClrTCw8/Q/zrB9//DEgFlOWFxHB1Juy16y22mphgQUWiPPtJAqPGzcuEAmM8Eu2m8UXXzzQL84zj6Ye6qS9ESNGhG+++SbO2+hn586dncOlB+C7BCQgAQlIQAISkIAEJFArCCjq1orHZCclUJ4EWJlPdCqWBNwk6KZV+3Oz54iJAwYMCBtttFG48MILwznnnFMt3dl9992jqEu0KIIxaXfZw7dv377VUj+VvPnmm7G/OLhILXfcccdFZ9d1110XPv7449gOqec4/8orr4QnnngiOqtwhuHsOvzww6PjjPMPP/xwvBcnFwJkvrHvMJG7OL6os3v37kXT2T355JNhwoQJMdoCB9qBBx4YBg4cGJ1w8IYNqfJIj3fXXXfF9hA8idrgO4JzD1Ywozypl5dZZpkwdOjQ2P+DDjoodo/vD47Dww47LL+78ZniuMMxx/uOO+4Yhg0bFqM5EF0ZJ/3CiVfIiKZmD2b6QN9I/0cdcC00losvvjgsueSSMaKE50EaQPZ1JnX0jTfeGL744otYD+0yHk0CEpCABCQgAQnURQLMmZgLJWMR40ILLRQ/suiNeWgy5olJuF1nnXViamZSK7MVCHPAlVZaKRWN7/POO2/Ya6+9cvWxWJK5GiIw8zDmqMOHD4+f2WKlffv28T5SNjNnRMhlwR9RwWPHjo0RwczLEHeZ45GpBtF32223jf1kTkv/V1555Qr98IMEJCABCUhAAhKQgAQkIIFyJmD65XJ+OvZNArWAAOIbUbmIubwQectB0E3ocCIRUYswRwq3qhrOJZxG6XXFFVfE6ABEQFIHY6NHT9+Dbroh9FWX4QQ78cQTw0knnRSFS0ReUth9/vnn4dRTTw2klsZZxnkiTnGQ0f5ZZ50VFl544Rg1wb5lPItddtkl9OzZM6asQ/TMGtEKOMj22WefWAaBlajjYkZbOMWWW265KLjefPPN0YmGYM6zhwll7r333rDhhhtGYXqzzTbLpcC+9dZbwyqrrBLbok3GgBHFgWONyF4MoRnnXCFDdEZARSimTbjwbHv06BHOPvvs6PS75ZZbCt0az/G8Fl100di3Aw44IIwfPz6Kz8XGQp9wAsIc0RrBGnEcIRkh/IwzzojPKo2laMNekIAEJCABCUhAArWYACIpiweZTzKfQlxl8STWsmXLOC9lz13mVh999FFOAEag5R4WwiHUcpwVgBMSInJZcEcaZxYcIuQyb+Qe5pe8s6CP+6kzGfNC5uqtWrUKiyyySFwwuOaaawYiexGLEX55Z/7GorwVVlghbLPNNkUXAKZ6fZeABCQgAQlIQAISkIAEJFBuBAwpKrcnYn8kUAsJIHaliN2aFHRx7BAlmm9EXmIpUiD/Ovvbsk8toh+RtVUx0rUhmCZLQuP+++8funXrFp1ZiKKUI4qgmCH+VcVWX331mN6Oexg3oiJOM0RXom+JSKDOJIIiUqZUxKSHxnmF4ItzjD3JMCITiErI2htvvBE/kp6aFw42HG5EYeD8KmQLLrhg2HXXXaMzjXZIi5eEYJxspEYmPTVC6x133BHeeuutWA0CMmI1gjh109/EjCgJnt/zzz8fIzdw2rHnWiEjuoP7U6QvzkMcfssuu2wsvvPOO8e9lHH+USbfSBnIPQj09OHoo4+O4y42Fu4nypi6eP6MibI8A/Z8o9+8OnToEJnnt+dnCUhAAhKQgAQkUFcIIIo+8MADcU639dZbx4V+jG2TTTaJwisL85grrrjiilHY5RpzQua2LPhDWGUuhfDLAr184zxZaEiPTP0Yc0nmvCmS9+23347z4TTHTemZKcscsVGjRhxGS1tktG3bNs5xn3rqqbjYkDTShdpP9/kuAQlIQAISkIAEJCABCUigHAko6pbjU7FPEqhlBBC8kpib0jDXxBDWWmut6ERCdCS9WjL2zcXS/l7pfHpHcLvmmmvCVlttVeUUzIccckiqpsI7IjZi62233RYdU6R5TkYEAxG1WcPBVRWjjnwjldzIkSOjQwynGFEMyYql/U2OLMpxnP3MOURY0uUReZsMp1spURcBGUvp94iKSPvMUg/P5p///Gd8J1Ka6An2E6YtLJXlOCscE61LOcaF2FpsTNyXNerN1pPqT+1ly3KMUw8BGAcjTkOceyntc/5Y2PsNwzmJZfkVazcW9I8EJCABCUigthGYb/rco8R+qrVtOPZ3FgnwPShiCKtsP8IcmEwwaX5EceZviKxJKCWDD9ljuIc5Y9prl3naUkstFQXW/GYQdF999dVAlpdsWmSyzyDcMqfHEIxZ5JhdeJlfV/5nFgxuvvnmsY73338/zv+oIy1MzS/vZwlIQAISkIAEJCABCUhAAuVIoHAYVjn21D5JQAJlTQAxtyYFXQbPPrEYKXDZy5SozrRXLs6lHXbYIV4v9IcoV/afzRdbKYtIjIMq/zVp0qRCVcVzOJaI1iW1MxELRGwmI2r09ddfD9dff32MCO3Vq1d45pln0uVZfifyFicWUcHsF4tzqphwSSOtW7eOEaX0BSNKNwmx8cT0P5QhYoI0dB07doz1IUCXElSTsEmEQ0rBx70430jFRxQrDrx99903CtApkrpx48axPHvhYuxvlq7xedNNNw047RBbcbrNzIjExRjDxIkTo2MPHtRP6r1Cwjjl+e489NBDUeQ/6qijolBL6uRCY8k6K7k3awjDOCyJmOZZkAZak4AEJCABCdRaAs1Xq7Vdt+PVSKDE94A5IgvpmPfyzlwsZaOZMmVKXOTJnOrbb78NCKfsm8v8inkl8zuukX2GbCfslcu9zKWYEzIfRdAlUwuL7KibF3NX5r1kk6FOjP8HwLKLPOOJEn9YOJgWodIvFimWmkeXqMpLEpCABCQgAQlIQAISkIAE5hoBI3XnGnobloAEqkqAPVhJ4cu+qaTMTdauXbuYbhfnUNay0Zuc5z72QWX/r2Q4mRBl995773Qq996/f/8oouZO5B3Qn6uuuiqwxyuRCMnYp/XOO+8Mxx57bDy18cYbB8TDWRV2k4hKel/6j0hMlAMRsDiniIhIZWgwHePoIjp56NCh8Rzpg9O11FeYkdoOoZNrON5IK13M8u+HweDBgwNRxFyjPcROBN8+ffrEc3xG9CQaIpVnX1osmx4ZoZxIX4RdnHmljBTTRC2zrxqRIuzHe/nll+fGcOCBBxa9HV433XRTjNrGUQgD9lxLfcuOBXG4mLG4gAjwc889NxZJEczFynteAhKQgAQkUNYEVtryv937/E0jdsv6QdVQ54jQRdBN34MCzSC+snBvyJAhuavM/5h3kZ3lgw8+CP/5z3/iNbKdkGUHY+EnC//SNdIjMz9GtGURJXNaDJGVRXLZhXJsfUEEMPP3xx57LJajzQ022CBGCufPTWOBvD+UISPM/fffH2699dY4X2QuTUSwJgEJSEACEpCABCQgAQlIoDYRmGf6atmYD5N9Ktu0aVNjfbf+0mjlI5/SBEpfrY3fn4XGX1dhUD+3P6zC51IfWMlPhCfiH4JhkyZNShWfa9foI2niEDiry3B+EeWAMwxBErE0KygXaodyRDcQzVzMKEOEbRIm2WuXz1lDACd1cSFDGM+v/7vvvoup8hBuaR/RNgntXKN8viPuX//6V1hzzTWjUE2UB/vz5huCb6HIjBQxW5kx4DSkD4jY9CtrhcaSvZ5/zNiI6C0V3Zx/j58lIAEJSKB2EiAzBCKTJgEJFCaA6Mt8r9C8iLkl55l/zYrx/wDMg9Ncb1bqoA/MA0st3JuVermHbT3892FW6XmfBOo+Af+NqPvP2BFKYFYJ+O/DrJLzPgnUfQJTJk8JzZr/bxtKthE0UrfuP3dHKIE6R4CV9S1btoyvch4c+4VVtyGQpuhWHGYzE3Rpn3L5gmt+vyiTdZCRGo9X1lK72XPpuFD9CM/J8h1n2WuUIQX2wIEDY9R0ippApEV4zbdp06bln4qfcRJWdgyIySkqJL+yQmPJL5P9nD+27DWPJSABCUhAAhKQQH0iUEqwrcy8tRQr/h8gO9crVbbYtdntQ7F6PS8BCUhAAhKQgAQkIAEJSGBOEFDUnROUbUMCEpBALSNAquc5aQippG5mX960jy1pkTtO36t3Vm1Oj2FW++l9EpCABCQgAQlIQAISkIAEJCABCUhAAhKQgAQkIIGZEVDUnRkhr0tAAhKQQI0TQMhlvzRNAhKQgAQkIAEJSEACEpCABCQgAQlIQAISkIAEJCCBGQnMO+Mpz0hAAhKQgAQkIAEJSEACEpCABCQgAQlIQAISkIAEJCABCUhAAhKQQLkQMFK3XJ6E/ZBAPSPwc/vD6tmIHa4EJCABCUhAAhKQgAQkIAEJSEACEpCABCQgAQlIQAISmDUCRurOGjfvkoAEJCABCUhAAhKQgAQkIAEJSEACEpCABCQgAQlIQAISkIAEJDBHCCjqzhHMNiIBCUhAAhKQgAQkIAEJSEACEpCABCQgAQlIQAISkIAEJCABCUhg1ggo6s4aN++SgAQkIAEJSEACEpCABCQgAQlIQAISkIAEJCABCUhAAhKQgAQkMEcIKOrOEcw2IgEJlCIwYcKEUpe9JgEJSEACEpCABCQgAQlIQAISkIAEJCABCUhAAhKQgATqNQFF3Xr9+B28BCQgAQlIQAISkIAEJCABCUhAAhKQgAQkIAEJSEACEpCABCRQ7gQUdcv9Cdk/CUhAAhKQgAQkIAEJSEACEpCABCQgAQlIQAISkIAEJCABCUigXhNQ1K3Xj9/BS0ACEpCABCQgAQlIQAISkIAEJCABCUhAAhKQgAQkIAEJSEAC5U6gQbl30P5JQAISmBUCDUeMrHDb1C6dKnz2gwQkIAEJSEACEpCABCQgAQlIQAISkIAEJCABCUhAAhKoLQSM1K0tT8p+SkACEpCABCQgAQlIQAISkIAEJCABCUhAAhKQgAQkIAEJSEAC9ZKAom69fOwOWgISkIAEJCABCUhAAhKQgAQkIAEJSEACEpCABCQgAQlIQAISqC0EFHVry5OynxKQgAQkIAEJSEACEpCABCQgAQlIQAISkIAEJCABCUhAAhKQQL0koKhbLx+7g5aABAoR6N69exg2bFihS+GYY44JQ4YMidceffTRQNnHH398hrJjxowJPXr0CD/99FO8NmDAgHDGGWfMUK4yJ6ZNmxb69esX9tlnn9CmTZvQtWvX0Lt37/DNN99U5vaiZcaNGxf7/9tvvxUtMzsXqDeNf3bqoY5ff/11dqrwXglIQAISkIAEJCABCUhAAhKQgAQkIAEJSEACEpBAnSCgqFsnHqODkIAEqoPA4MGDw/jx4wtWdcMNN4Rnn302XnvrrbcCZQ899NDw/fffVyj/3nvvhUGDBoVffvklnh87dmwYPnx4hTKV+fDpp5+GbbfdNpx88slhvvnmC4ccckho0aJFuOyyy0KHDh3Ca6+9VplqCpaZNGlS7P+ff/5Z8PrsnkT8btq0afjjjz9mq6rVV189jne2KvFmCUhAAhKQgARmm8AGjz0ReGkSkIAEJCABCUhAAhKQgAQkIAEJzD0CDeZe07YsAQlIoHYTmDx5cujZs2fo06dPtQ/krLPOCs8880wYMWJE2HLLLXP1I/J27tw5HHbYYeGJJ54I887r2pwcHA8kIAEJSEACEqgRAs9WIUvI+++/H8gKsvfee+f6QpaTzz//PPe5efPmYeuttw5k9yDzyZQpU8I888wTll9++bDpppvG41xhDyQgAQlIQAISkIAEJCABCUhAAhKIBFQD/CJIQAJlS6BQeuPU2VLXUpmafj/zzDND//79w1NPPVWtTb3zzjsx2hcBNyvo0kjr1q3DRRddFF588cUo+HJujz32CA8++GC49NJLwwYbbBCvkbqYtM/t27cPrVq1CnvttVd46aWXKJ6zO++8M2y88cYxAvgvf/lLeP3113PXfv7559CrV694f9u2bcNJJ51UIe0zkcrpXtro27dvIPL3ggsuCJdcckmsZ/vtt48pq++9996w3377hTfeeCO+k7oao8/bbbdd7B995DyppRk/53H+Xn311YF6fv/993jPLbfckruH87fddls8z59i7eQKeCABCUhAAhKQQI0R+PDDDwPi7ejRo6NYm23o448/DmussUYUbBFt11lnnXh51KhR4bPPPgudOnWK18h48txzz2Vv9VgCEpCABCQgAQlIQAISkIAEJCCB/yegqOtXQQISKFsC559/fsF9axF0uTa37fjjjw/t2rULRxxxRJg6dWq1defll1+OdSHWFrJddtklnkbYxeDx97//PQqqa6+9dkx9vPPOO0eRl/14EXfffvvtsM0224RPPvkk3sOfY489Nu7Xy720STrpZPvuu2+47rrrwuGHHx7L3X777VFcJaLmySefjALs+uuvH6655poYOYzAPXTo0Lj3L2mTMSKKibihTfYq3m233cJHH30UNtpoo/DKK6/EPYIbNmwY+42AjVB88cUXh8aNG8fU09RBXdSDcY3+UCfCNlE+Bx54YBR+uV6oHc5X1pJwnF8+/3z+51S+2B7FhcpzrlB66qruIZxfd6E+5JdJ/S3UVrF+0ddC5RHyC42DNoq1m9r3XQISkIAE6hYBsocsscQSYckll6wwMLak4Pdp5ZVXDvzuL7PMMnGuQiG2m1hrrbXC0ksvHVZYYYWw0korBYRdjMVa2QVnI0eOjAvXuMbcZ+DAgeHmm28Od9xxR7XOw6hfk4AEJCABCUhAAhKQgAQkIAEJlCMB0y+X41OxTxKQQCSQIjn5sMUWW8RzSdDl2ty2+eefPwwYMCCKlBdeeGE455xzqqVLpC3EWrZsWbC+hRdeOAqaRLQmwwH6/PPPh+WWWy46OknNzN62Xbt2jUU6duwYBVDKJMMRSrQrhjB32mmnhWnTpsUImQceeCBG2hD5i22++eYxavfhhx8OX3/9dTxH9O9mm20W22jSpEmAB4Lzd999F+65557wt7/9LaaHnjBhQiyP0Awn7O67745ROTfeeGMUcdM59iumLu69/PLLY6Qyx9T5j3/8Ixx88MHhqquuinV069YtCo2I0llBOttOLFjiD5G+RBaxNzIi5GKLLRbrQqxEsF5ttdWi4I0wft9998VoZ64tvvjikSfCMmmy4cX9MEBIX3XVVcMLL7wQOeDIpl4ikRdddNEoQqcUlDi2e/ToEaOS2beZCGnST8J9xx13LNhzWLC3Mk5z0lWy5zJR0zxzniOO8aOOOirWxTNOKS033HDD+LyJgMJRzjhwwO++++4xApyo6Px+UR/iPhFWGOM47rjjwoILLhijpNPezvSFcbLQodC4eaaaBCQgAQnUbQLMW3jxW/7FF1/kBpt+WxBf+e3hd26rrbaKcxZ+w3788cdcWRbJMRfBOEYQTvbDDz8E5kD8rk2aNClG9i6yyCLhscceC08//XRgrqNJQAISkIAEJCABCUhAAhKQgATqMgFF3br8dB2bBOoAgaywy3BIy1udUbGzi4j0gaeffnqMNiUStaqGMEoUbbJDDjkkF73y7bffhmbNmqVLuXfEQxykCIrJEBIRdDGiYLEk2HJMxCviI4bYi5H+MBnRMRiiYooARlTNN1JNE+GL05bIX8REnKhdunSJQmR++exnxMBkCK8Il4ihr776auwbomQxITMJ2HvuuWeqIr6zX9/w4cPDBx98kDufbSd3ssgBzmJEUiKA4YmwOmjQoIBgDAvETPYvJpKZ9NUIsEsttVQsRypoxGQEUsRzvgs4rIlqRlSlX6SdXmWVVSJz6iWd9pdffhnYM5m2r7jiiuiYRmxH8OW7xFh5RjDF2Z1vCK0p4ol+X3nllTF6+uijj47leW608dBDD8VytIVzHdEWkZpIJ9jvsMMOMYX32LFjoyBdqF98z3ideuqpoUGDBjFC+s0334wOd6Kn+C4g9DIOHPWkzy40bsReTQISkIAE6icB5m2Irwi5/NYxt2ORHr+RzCf4XeE8Yi4ZPRB9S1n6bWSRGYuj+L0slE2iVB1ek4AEJCABCUhAAhKQgAQkIAEJ1EYCirq18anZZwnUMwKk9kXMxWoyQhdxKkWVZhGnlMULLbRQ9nTu+JRTTolCHoIfqZirYgivX331Ve4W0iendhA5SVWYbynaNqU55jopiZMRyYIRNVrKSIFYyBAzsST0pjLsq7vuuuvGPXjTnr5ExxDJyV66pFA+99xzU/EZ3okgTYbgSFQv6asRF9M+u+l6/nuK2iFCNGvpc1boz7aTLVvsGNEVpzBGX6699tpcSmHSOzdq1CjuEUi5ZZddNpZDlGY/ZSJV4ci+whgps+GXUmgTOcSLKCSE1SS8s/8x9SFKk2qSPZCpC3GUKN8k0MZKi/zZeuuto+MbkZk+tmjRIpbEGY5g/O6770YnOmmxMZzg9It26RORTrR18PTo5/TM8/vF9w82fBeJaEZMpm7+O2F/57SwAHGftNzsm4zljxshmqhgTQISkIAE6h8Bfnd4JSP7Bxk7mK9ssskmUZAlywO/6SuuuGIUdlPZQu9kh+D3i8VF/B4xb8ouVCt0j+ckIAEJSEACEpCABCQgAQlIQAJ1gYCibl14io5BAnWcAKmXk5ib0jDXxJDZ043IUcS3bIQsaXexNdZYo2CzOBNJ1UsESlVTMBOZm29E4iLukqoY8ZD96ZIhqJ133nkxOjKlVuZaVsBFJMSI2CV6FHvvvfdidCbpjmdmSSwmCjWJyoiOvXv3Dq1atYqRqUSTnnDCCVHERAgkgpZI0FKiblbUgxdjJEo0Rdxcf/31RbuWxkT5rON2zJgx8R6cwOPGjYvH2XaKVpi5kC2fPaYIYimWUhXHD9P/pD4jcmbvIVKIKCPKUyaJuNwHV+oj6hVxFUf0TTfdFCOqEUURjIkG5rmliOgk1KZ2s++pXUTc1J/sdfrA9zgJ0fSFF8+0Q4cOUURGiIUpCycK9YvxEdlL6mZen332WWyCunkl4zuLFRu3om4i5bsEJCCB+keA3zt+p8gWgaVIXH4b+F1hwVinTp3iNSJ4SbGcLPtbwxwIYyEXv6n8drLwjoVHo0ePjpG/6T7fJSABCUhAAhKQgAQkIAEJSEACdZGAYTN18ak6JgnUQQKIuTUp6IKMVLYYe4wifhIRm/bKJYqXKM5ittFGG8W9RtO+cdlyiMREpOS/2A+ukOH4RCjlOmMeNmxYTE2I4EyKZ/a17dOnTwWxN1sP0b9EUCIYI3Ti6DzxxBOjoJginrPl849Jq4xIuv/++0dHKdEz3I8QS2QM+8+y/y4iLn3EWfvpp5/GyE3qStGzjDftD5zfBql8ccQiYnI/++XilJ08eXJM4Uv5BRZYID4DHLyM54ADDgg9e/YM7BNLRCj7GcOJdMukdZxVmzhxYm6f4FGjRkXBHME0OZ2pl6hUyhFVjYN5xIgRsU3OE4WLyI1zmjEThcx5hE6inUlPzT1w5Hn069cviqop1TYiMN837mNhAKmbaTsJqLM6LgRc+sZ3CMc3fNOiAFIt831GjCcKmu9IoX6REpPvQvpOEdHLWPgeJB60gTicOBUaN89bk4AEJCCB+kmA3wm2gGC7A35DyObA7wILncgawcI9hFq2nWDekBZyQYvP/K6QLYIFZhhbLrD1AZG+ZOdgwRn1ahKQgAQkIAEJSEACEpCABCQggbpOQC9rXX/Cjk8CEqg0AfalZU/Qs88+O6a/TTeSIphUu02bNk2n4nuKlEwnuQ8BFmEyGU5LRFDS7OYbdSKYFTKiUZ977rnYD/acS4aYRuQwqXeLGfvS3XPPPXH/V0RCbKeddgoDBw6MTtR0X1a0TMeMCTEVcRKRu3PnzrE4oiB7wuKAZR9gBG+E3mRE3ZK2GKMs42JfWpiQJjHfSNWMQJ2ibhGSEYoR0UnnzHUihYn8veuuu6IjuG/fvrFvRx55ZK46BN0UHZ3/PHKFZnLAeC+77LJYiojngw46qIKgywXGRDpj9quFFfeQmhlnMmOALQZ7vkd8V3hGiLWpPDxIlYwzu1evXjHCl+8H++wilhK1y1gQh7k/RTTFimfyJz2/bLFdd901PhPq5DqpL4k2R2SGKd8jInH5frPHLt+3/H7hbOc7zXkWGyy++OLR+U5kL4J+2neZiGLE4WLjzvbLYwlIQAISqH0E1s9kDalq79migD3q77zzzngrv7VpHkNGEUTa//znP/EavydkTknGvIz5B7+XaQEXv2csOuL3Kf3+kYFCk4AEJCABCUhAAhKQgAQkIAEJ1HUC80xfFR2XNRMp1aZNmxobr/WXRisf+ZQmUPqq358Z+TQcMbLCyald/pvWr8LJIh+ICCGKlGhGUtc2adKkSMk5c5rIFCJV2NsUUa0qhjMUh2dV70ttEAVDSuHGjRunU7l3ompgxJ6y+YJ3rlCJAwRFOFN3ctQS1cznQumEU1XcR2QwYjFO3tmxW2+9NQq0pLJmPCndcrE6aRsBFvE2awix3J/Gka5xnueXX56oJb5n2faIMiKKCcEYpkTwForW5bc67buc2in1Tr9woGdZ0TZt0a9s6u5C/eL5JzaMh/ETkU7UFHshYjjW6TfpwrFi444X/SMBCUigFhMgSwELmbSqEyBbBL8//MblG9dYnJX9rbrttttiZghE3PzfUe5nMRH3/R979wEuRZE2bLhUDGBEwIQ5oALm/CmKYsCMObtmMburu2ZFdM0YfpXFHEDMGMAVsyIqiglFVMQsZkyoiPH3Kb+ar8/QM5wIc8556roOM9Ohuvru0enut98qfntr+2BXcTv8rEBdBBhCw/8/1EXQdRVo2gL+P6JpH1/3ToG6CPj/h7roua4CTVvg4/Efh7bt2hZ2kiH76nY3vFCVbxRQQIGmI0BAsX379vGvEvaKseVKjec7tfZlx+Od2rJ58/NuoqbluCmbxmtN02ryyo3b4vWzYxmXqov1OD71WQhsZoObpepm23km3EwuDuhSB9Pzls9btjj4TvCUwGtx4YZ4TUrezXO+43mB+rx2ZW3YH76P1Pnwww/H7rOZRnD/gAMOKDSr1H4XFvCNAgoooECzE+Dhn1Kl1Dx+G/N+R6mH4R7SkA+l6nW6AgoooIACCiiggAIKKKCAAk1JwKBuUzqa7osCCiigQI0EunfvXui6sUYrToOFyUzirxIL3WPSXTbdX5JtXKob8Upsu21SQAEFFGgcAnTbnPcAUuNova1UQAEFFFBAAQUUUEABBRRQoP4FDOrWv6k1KqCAAgo0EoHadBvdSHatwZtJF9CMhWhRQAEFFFCgIQSWWmqphqjWOhVQQAEFFFBAAQUUUEABBRRotAIzNtqW23AFFFBAAQUUUEABBRRQQAEFFFBAAQUUUEABBRRQQAEFFFCgGQiYqdsMDrK7qEBzFJjUvVtz3G33WQEFFFBAAQUUUEABBRRQQAEFFFBAAQUUUEABBZqggJm6TfCguksKKKCAAgoooIACCiiggAIKKKCAAgoooIACCiiggAIKKNB0BAzqNp1j6Z4ooIACCiiggAIKKKCAAgoooIACCiiggAIKKKCAAgoooEATFDCo2wQPqrukgAIKKKCAAgoooIACCiiggAIKKKCAAgoooIACCiiggAJNR8CgbtM5lu6JAgqUEBgzZkyJOU5WQAEFFFBAAQUUUEABBRRQQAEFFFBAAQUUUEABBSpfwKBu5R8jW6iAAgoooIACCiiggAIKKKCAAgoooIACCiiggAIKKKCAAs1YwKBuMz747roCCiiggAIKKKCAAgoooIACCiiggAIKKKCAAgoooIACClS+gEHdyj9GtlABBRRQQAEFFFBAAQUUUEABBRRQQAEFFFBAAQUUUEABBZqxQItmvO/uugIKKFBrgZZDH6my7qTu3ap89oMCCiiggAIKKKCAAgoooIACCiiggAIKKKCAAgooUF8CZurWl6T1KKCAAgoooIACCiiggAIKKKCAAgoooIACCiiggAIKKKCAAg0gYFC3AVCtUgEFFFBAAQUUUEABBRRQQAEFFFBAAQUUUEABBRRQQAEFFKgvAYO69SVpPQoooIACCiiggAIKKKCAAgoooIACCiiggAIKKKCAAgoooEADCBjUbQBUq1RAAQXyBPbff/8waNCgvFnhsMMOCzfffHOc9+ijjwaWHTZs2BTLPvnkk+HAAw8MP/74Y5zXr1+/cOKJJ06xXHUmTJ48OVx++eVh1113DR07dgw9evQIZ511Vvjmm2+qs3rJZUaMGBHb/+uvv5Zcpi4zqDftf13qoY5ffvmlLlW4rgIKKKCAAgoooIACCiiggAIKKKCAAgoooIAC00TAoO40YXYjCiigQAgDBw4ML774Yi7FtddeG0aOHBnnjR07Ni673377hYkTJ1ZZ/r333gsDBgwIP//8c5w+fPjwcPfdd1dZpjofPvvss7DpppuGY489Nsw000xh3333DfPNN1+4+OKLw+qrrx5ee+216lSTu8y7774b2//HH3/kzq/rRILfbdq0Cb///nudqlpuueXi/tapEldWQAEFFFCgGQis+fhTgT+LAgoooIACCiiggAIKKKCAAgpMP4EW02/TblkBBRRQoJzA+PHjQ69evUKfPn3KLVareSeffHJ47rnnwtChQ8MGG2xQqIMg78YbbxwOOOCA8NRTT4UZZ/TZnwJOLd58//33MWjesmXLWqxdfpWvvvoqzDXXXIGMa8rss89efgXnKqCAAgooUEuBkTXoxeP9998P9Nqxyy67FLb28ssvhzFjxgR622jdunXYcMMNwxxzzFGY7xsFFFBAAQUUUEABBRRQQAEFFJi6gHfrp27kEgoooMB0ETjppJNC3759wzPPPFOv23/77bdjti8B3GxAl4106NAhnHvuuYGbrwR8KTvuuGN44IEHwkUXXRTWXHPNOI+ui+n2edVVVw2LLrpo2HnnncOoUaPi8umfu+66K6yzzjoxA3irrbYKr7/+epoVfvrpp9C7d++4/oorrhj+8Y9/VOn2mazmtC7buPDCCwOZv2effXY4//zzYz2bb7557LJ6yJAhYY899ghvvPFGfKXragpt3myzzWL7aCPT6Vqa/Wf6F198Ea644opAPb/99ltcp3///oV1mH777bfH6fxTajuFBXLe3HHHHeHBBx/MmVP3SZdddln44IMPwuDBg+Nf3Wu0BgUUUEABBWov8OGHHwaGkHjiiSdi8DbVxPRXXnklnkPw4BjnEI8//nia7asCCiiggAIKKKCAAgoooIACClRTwKBuNaFcTAEFFJjWAkceeWRYeeWVw8EHHxwmTZpUb5vnxiqFYG1e2XbbbeNkArsUxvY95ZRTYkB1hRVWiF0fb7PNNjHIy3i8BHfHjRsXNtlkk/Dpp5/Gdfjn8MMPj+P1si7bpDvpVHbfffdw9dVXh4MOOiguR/CTICoZPE8//XQMwK6xxhrhyiuvjJnDBLhvueWWOPYv3SZTuDG82GKLxW0yVvH2228fPvroo7D22muHV199NY4RTIYsgWAC2ASKzzvvvJghRNfTFOqiHgrzaA91Ethu165d2HvvvWPgl/nsW/F2mF6dQkA6b/xeupDOm06dNZ2ebUcKUmenlXufXZ425XVtnV0m1cVyeWMnl2o7y1a37rSNvO2meb4qoIACClSOAL17zDPPPGH++eev0qivv/46PmC19NJLh4UWWii0b98+PtzFQgw9kQ3wjh49uvBQGQ+DMeTEDTfcEB/iogcTiwIKKKCAAgoooIACCiiggALNWcDul5vz0XffFVCgogVmnnnm0K9fvxikPOecc8Lpp59eL+2lW0QKN1XzSqtWrWJAk4zWVBjL94UXXgiLLLJIDPLSNTNj2/bo0SMu0rVr1xgAZZlUuAlLoJZCIO/444+PXQU///zz4f7774+ZPGT+Urp06RKzdh966KHAzV8K2b/rrbde3Ma8884b8CDg/N1338XM1GOOOSZ2D013jhQCzThR7r333tCtW7dw3XXXxSBumsZ4xdTFupdccknMVOY9dZ522mlhn332Cf/5z39iHbvttlsMrBKUzgaks9uJC07lnzfffDMeOwzY9hFHHBE9CGp/8sknce0555wzTicYjS1dKv/www9hlllmiYFmxjtmOj7UM/fccxeyi7Obf+mll6INwVPqJDuZbeYVbqQ/+eSTcR/ZFjfiOb7cUCcI/T//8z+he/fusY033nhjbA/HYIcddojB9TvvvDMG61mW7wwBccZ6ZnxoMrFnmGGGmJW15ZZbhs8//zxOJzuLwo19AuZ8vuaaa8KXX34Zl6etiy++eDyWNdmXvP1zmgIKKKDAtBXgvII/fmv5/3oq9MhBmTBhQpz3zjvvhLXWWitO46E1foNS4feD3wZ+W/id4vdimWWWCc8++2wYPnx4lS6d0zq+KqCAAgoooIACCiiggAIKKNBcBAzqNpcj7X4qoECjFFhppZXCCSecELNNyUStaSEwShZtKvvuu2/MtOXzt99+G9q2bZtmFV7JjKRrYjJVUyEjl4AfhcAjJQVseU/GK2P0Ugj2UtZdd934yj8E6ijcrE0ZwARViwtdTZPhy01hMn/pgpmAMcHFFAAuXid9JliaCoFXlid4TJCSthEUJcCYV1IAe6eddqoym/EA77777tjNcZqR3U6aVu6VAO3RRx8dF6ELa4K82GN83HHHhRYtWsTMYKaT4cpYuXvttVfMGKaLZQKvGNCd9HbbbRf4ThDcZX+yha6laStdUXMTnONAhhMZ33mFbbEOgWy8CYh//PHH4V//+lc8RnShiTvBeW7Ic7y5wX7rrbeGf/7zn7G77b/97W/x2BKYxZj9YoxEvrOY0gbq4Dgw/i8Z02Q8k4GNC4FhAtBkexPMJ6C+wAILxHbVZF/y9s9pCiiggAKVJUCgN2Xbcj5QncLvykwzzRQf1OIBIYsCCiiggAIKKKCAAgoooIACzVnAoG5zPvruuwIKTFMBMidTVml2w6nL4tlmmy07ufCeIBvdEx944IGxK+bCjGq8IRBHkDAVuk9O2yEouNRSS6VZhdeUbZu6OWYGXRKn8v3338e3ZG2WK3R9nFfSjdwU6E3LMK7uKqusEsfgTWP60iUjGa2pC+UzzjgjLT7F64ILLliYxji2ZPXSffUWW2wRM1YLM3PeEGCkzDrrrFXmps/Z7q+z26mycIkPOJIFS+E7gB9dRNMFJceAsQYJbJLlSiEoSlYSBXcylgj44okPhe6j6aY6WxhTmEI2E39kPnEDncxeusTMK2T8LrnkknEW2bYEwmefffYYwCe4TwYz2//ss89igJgFyZ6im2vWvemmm+L6dJVNsJkA+muvvRYuvfTSuA+HHnpovBlPkJpuNAnupgA6+0zWOIF2nAnmpu9ZbfYlb/+cpoACCihQOQLLLrts4I/fAx4E6ty5c8nG0dsDD3axHGPHE9jlHCb9TpRc0RkKKKCAAgoooIACCiiggAIKNGEBg7pN+OC6awooUFkC3LwkqEWgLZshe99998WGLr/88rkNJghLZuOGG25Y4y6YycwtLgTruDFKZiYZrSngyHIEFs8888wYfExdKzM9G8BNQUAydgnkUeiemYAg3R1PraRgMV0ap6AygcOzzjorjrk3ZMiQGPg76qij4ri/ZLeSQXvFFVeEckHdbOASL/aRrhq5EUwhm7RUSfvE8tkMY7JkKUsssUQYMWJEfJ/dTpwwlX/oQrm4sJ1HHnkkdj9JF5TZ7CMyd/MKN7hT4X32M9MJtrKvKaOaaViXC+oW11G8bdalLLroogVH6qc7aLKPCb4SxL3nnntiV8xk7i688MIxi5fvR8q85oY833u+IzxoQDCYQpv5SyWNn1ubfUl1+KqAAgooUFkCQ4cOjcMJbLTRRrFh/I6k3h2YkP0dSA9R8XtADw/0PkG2LkM38MAXv9c8IGVRQAEFFFBAAQUUUEABBRRQoDkK5KfuNEcJ91kBBRRoYAHGHKUwJinBTzJi01i53KAko7RUIbOTbn/psre4ECxjDNniv3fffbd40fiZwB+BUuavv/76YdCgQTETlIAzXTzTtW+fPn2qBHuzFRGUo2tmAsYEOp944okY4OPm62abbZZdNPc93SoTJN1zzz1jpipjpxIgJBBLhurEiRPj+LsEcWkj2c1kinbo0CHWl7Jn2d80PnDxhghOkgE9atSouD7j5ZIVS7ePdDlMIdjKMRg2bFjcH7JJe/XqFbsbJljJeMY44U72an0WMm8xSJZkL2dvahdvi30n8E12E4Us3RRwTcuyDDfBF/+zq2u6a6Y+bIsDtWn56rwS8MeJuqiTIDzHm2xjAux020wX32TqEpjme02WNA8gHHLIITHwzHTc+a4xPY2ZTPtZP43rS8YyGcCUhtiX6uyvyyiggAIK1L8AvyX8/50u/vk9IUDLQ0XpoTJ+Fwjm8vufftd5yIxgMA+N0TNEx44dY8PK/VbWf8utUQEFFFBAAQUUUEABBRRQQIHKEshPB6qsNtoaBRRQoEkIMC4tAcVTTz010C1tKnQR3Ldv38JYt2l6cUYo6xGATePRsRwBO26CMvZrcaFOAod5hWxUbqrSDrJgUiGoSuZwyqZJ07OvdA9M5iXdQROko2y99dbhxhtvrBJAzGaBpvfsE0FCArIEuTfeeOO4Pl0sMv4rgWGChARb0zi0LEDW7VVXXVVYlv3abbfdouX8888fp2f/YexWAtQp65ZA8vHHHx+D6HTnzHwyhQlMkmVKN8MXXnhhbFvPnj0LVRHQPf300+Pn4uNRWKgGb5LD6quvHo9l7969YwYsN6wZM7dbt25VMnDT8mR2Y33LLbfE+WROp3lp823atInHjcAq83DGqFwprqP4M+vyvR04cGDMemY+7SBzl3F7CXrzkAABWrq7pg3XX399NGMan+lqs1OnTjFLnYAv+8r3li7Fd9xxx5hBzXFgGvNod232pdx+Ok8BBRRQoG4Ca/zvMAK1qYXfPB7O4qExCr+nXbp0KQwNwO/FbbfdFn+7WrduHceXZ8gBzkl4kIiHrwjm8tvDeYJFAQUUUEABBRRQQAEFFFBAgeYqMMOfT0XHfg/JhEpPQDcEhvWXV9VHn/IC5ef6/Zn2Pi2HPlJlo5O6d6vyudwHsinJIp0wYULsqnbeeectt3iDzyMDlMwYxnglqFaTQpCaQF9N10vbIOPzl19+CdzELS5k7WDEjV2CfDUtjNmKM3WnTFuymvmcumTOq5P1uPlMsLguWa55dWensd/sIzeouaFNti7j2pYrLMdYueW6nmQZjinBdwpZx3zOFvZrxRVXzE6a6nseHijeLmMRp31IQW9uvBMkJzibHVeZNvBdYRrrsTyZ1GkMYT6TIU5wOI0pXLwvU22kCyiggAINLPDWW2/FB40aeDNNsnp+98jATb/J7CQBW35fuv7ZGwS/D+m3JAFwzsTvB/Ma8jc5bc9XBeoiwNATPIhoUUABBfIE/H9EnorTFFAAAf//4PdAAQVKCXw8/uPQtl3bwmyGujNTt8DhGwUUUGDaCBBQpNtZ/iqhEEgsNZ7v1NqXuk6c2nKl5qfAY958buAyPmttCzd/i9fPjmVcql7WmxbHhmzbNFYxN7GnFtClvSxXHFgt3g+WyboSOOcvW9J2s9Om9j5vu3SFnbrDTuuXCvJn9y+7zs033xwWW2yx2C0zbU/jLFNf8b6kbfiqgAIKKND4BLK/e8WtzwZ6s/M4Z8r7/cku43sFFFBAAQUUUEABBRRQQAEFmouAQd3mcqTdTwUUUECBZilAt5eVWmjbkksuGd55553YVXhtMrIrdd9slwIKKKDA1AXoop/sXYsCCiiggAIKKKCAAgoooIACCkxdwKDu1I1cQgEFFFBAAQUaSIDux6d3F+QNtGtWq4ACCigwFQGGOrAooIACCiiggAIKKKCAAgoooED1BGas3mIupYACCiiggAIKKKCAAgoooIACCiiggAIKKKCAAgoooIACCigwPQTM1J0e6m5TAQUavcCk7t0a/T64AwoooIACCiiggAIKKKCAAgoooIACCiiggAIKKNA4BMzUbRzHyVYqoIACCiiggAIKKKCAAgoooIACCiiggAIKKKCAAgoooEAzFTCo20wPvLutgAIKKKCAAgoooIACCiiggAIKKKCAAgoooIACCiiggAKNQ8CgbuM4TrZSAQUUUEABBRRQQAEFFFBAAQUUUEABBRRQQAEFFFBAAQWaqYBB3WZ64N1tBZqTQMeOHZvT7rqvCiiggAIKKKCAAgoooIACCiiggAIKKKCAAgoo0MQEDOo2sQPq7iiggAIKKKCAAgoooIACCiiggAIKKKCAAgoooIACCiigQNMSMKjbtI6ne6OAAgoooIACCiiggAIKKKCAAgoooIACCiiggAIKKKCAAk1MwKBuEzug7o4CCiiggAIKKKCAAgoooIACCiiggAIKKKCAAgoooIACCjQtgRZNa3fcGwUUUOAvgQfP3rcKxaYnXFflsx8UUEABBRRQQAEFFFBAAQUUUEABBRRQQAEFFFBAgcYiYKZuYzlStlMBBRRQQAEFFFBAAQUUUEABBRRQQAEFFFBAAQUUUEABBZqlgEHdZnnY3WkFFFBAAQUUUEABBRRQQAEFFFBAAQUUUEABBRRQQAEFFGgsAgZ1G8uRsp0KKKCAAgoooIACCiiggAIKKKCAAgoooIACCiiggAIKKNAsBQzqNsvD7k4r0DgEhg0bFlq2bBnOPPPMadLg7777Luy///7x75lnnqmyzccee6wwb/LkyeH3338PBx10UJzWp0+fKsu+8847hWV//PHHMHbs2MJn3ldKeeKJJ0LPnj1Djx49wgUXXFApzbIdCiiggAIKKKCAAgoooIACCiiggAIKKKCAAgooUCTQouizHxVQQIGKE/j3v/8d23TyySc3aNtGjRoVBg4cGLdBsDNbBg8eHOe1a9cuzDrrrDFQ279//8Ii++yzT2jTpk38/OyzzxaWbdWqVRg+fHih3nPPPbewzvR8Q3C5e/fuhSassMIKhfe+UUABBRRQQIF8gRnCDPkznKqAAs1ewP8/NPuvgAAKlBVojv+PeGXIteGjUU+GX3/+qayNM2sv0GKW2cLCK3UJK261X+0rcc3pLtAc//8w3dFtgAKNWMCgbiM+eDZdgaYusP7664cHHnggbLbZZmFaBHZfeumlAmmnTp0K73mTMndpE4UAcLbcfvvtMeuVaameLl26xEVGjhwZX9u3bx/atm0b30/vf2gvZeWVVw4PP/xwmG222aZ3k9y+AgoooIACCiiggAIKKKCAAs1SgF6+Hn300fD111+HmWaaKXTs2DFer2cxnn766fDzzz+Hrl27FiYz7d133w1//PFHmH/++cOGG24YWrSoerv3119/DfSE9vHHH4cZZpghLLbYYmHdddeN7wsV1fMbArrvjXyonmu1umIBAubJ2cBusY6fFVBAgaYpYPfLTfO4ulcKNBkBgqgnnXRS3B8Cu1yINFR57rnnYtUEOsmwTYWLq5dffjl+XHPNNeNrCtSmZa699tr0NpCpS1ljjTXia/q83nrrxc/V/eeDDz6IXTwvuuiisRvqVVddNWS3s8cee8SANxd+qey9995x2oMPPhi4cNtqq63i50GDBsVuluebb754kXfJJZfEVcaPHx+oZ8YZ/TlIhr4qoIACCiiggAIKKKCAAgooMC0F/vvf/8ZreHrUWmWVVeKD5O+9915swujRo8PQoUPDW2+9FYO6qV2vvvpqGDduXFhnnXXCRhttFL744ovw5JNPptmFV4aT+vzzz0O3bt1iMJd6n3/++cL8hnhDhq5l2gnoPe2s3ZICCigwvQWqPro1vVvj9hVQQIEcgdTtMkFdsnbJ3k0ZszmL13pSChhzQZQtXEClQmCVkgK1jMF7zTXXBC6myN7ladoUHGZZxul9/fXX4zopIBw/TOWf3377LV6UEXRdbbXVwv/8z/+Ee+65Jxx22GGhc+fOYamllgoEainnn39+fP3mm29CysClm2e6WH7kkUfivLRvs88+e/jpp5/CxIkT4/QFFlgg8MfTutUttI0nh/NKdl72fXZZgs3FTw4zP295xi7mr3j5X375Jcw888zZasu+L647rw3Fy6QK87ZVql1Mp57itvHUNH95wfNS203b91UBBRRQQAEFFFBAAQUUUKDpCnAd+cMPP4TNN988MOQTf6+88kr47LPPwuKLLx6vL3lA+/vvv6+C8Pbbb4eFF144LLnkknE69wpYr7hQDw+vL7jggnEWGbsEdnkQ/d57743b4zPXvtxr4Hr2jTfeKNTJvQ2CwgSHuZ/Ade2KK64YVlpp274jzAAAQABJREFUpeJNFT7b5XKBYpq80XuaMLsRBRRQoCIEDOpWxGGwEQooMDWBhg7sfvLJJ/GpVtqx+uqrV2nOiy++WPjM2LOTJ08uBG579OgRPv3003DfffeFm266Key1116FZbnIIdibSgoIp8+8Euj79ttvs5NiV8gfffRRIKBLIZC76667hssuuyxw0UYQMHXxzPzll1+el0I2Me+ZloK+fP7b3/4Wu4emm2Xav/baazM5Bshbt24d35f7h2Dxhx9+GIPBbH/OOecM++23XxxH+Oyzz44XiAS6t91229j1EwFu9m3uuecOZA9zUco+DRgwIJD5TBB5gw02iIFr7G+88cZ4EcvF4w477BCD43feeWe8IKUeMqcPOuig+FQy2cpcSFIHgfItt9wyt+kE1C+++OLYBRUXrQSiCdg/9dRTMVDMBe0hhxwS67rhhhsKXVGttdZa8WKaJ5eHDBlSCMbSLi6S89qFx9VXXx3YFwqfjzjiiDj+MnavvfZanE53WASUjzzyyLhs3n7HBf1HAQUUUEABBRRQQAEFFFCgWQgQJN15550LwyJxLcs1b5s2beL+L7vssvGVrpm5Hk+Fa/u55porfYzvs/PTDK6FCRqnMmnSpHhfgM9cn5MBTHfMPPzNtfyss84aGE6K3sO4p8G9DK6juZ9ARjDdPdObGfcdZpllllStrwoooIACCigwDQTsb3MaILsJBRSofIHUvTIt5QnWbEldLXPBQpAyZd6yDIHbfffdNy5+/fXXFzJ4l1lmmTDPPPOEbECYgGBxefPNN+PTsgQY0x+BPt4TGKQQPGXMGy7gTj/99BiYTPUSpExZoWkagU4uwlLgl0D05ZdfHvdrueWWK0xfYoklQnUCurSBcXu4sDzwwAPDKaecEi8WCdBSeJqXbRN4ZjkuAlnu1FNPjfvQv3//uByvbPO0006LXUE//vjj8aKRgCptZN/IxL711lvjE8jUQ0CY5eedd94YSH/iiSfCHHPMEZclgM528y5a2SBPOxNA5UnjXr16xX1lvKFDDz00HHXUUTGoOmHChHDXXXfF5Xhw4OCDD47H8J133olZzljSLgK9w4cPjxe+ee0iAExXV8cdd1zsLpyLZI4t3x2+L4cffng44YQT4oU0F+eUvP3G0qKAAgoooIACCiiggAIKKNC8BFq2bBkfXCYjdvDgwfFaeumlly6LwDVvtjeoUj1qtW/fPl6f8rAx19A8cM26qXCfgOvmdC+E7p+5dud+B4XrarbDtSzX/DwI3xC9p6X2+KqAAgoooIACpQXM1C1t4xwFFKgggTPPPDPQ/TKlIbpf5snUVDp06JDexoAlF1SUlBGagqdkn9IF0qabbhozUQnqnXjiiXFZnnKlpIAwQUuCkcWFzFsusLKFQCLdJLOdq666KnapzJOwZMTydCz7n7p4ZtlUUhfLBCApBDApBFuzF3dp7JzUxrhQNf7hgnKhhRaKS26xxRaxbelCkKd1uRAkUMlydAFF2WabbULfvn0DwVMCnYzxS1u4SMSZi0OeDKY7qBQkJjOXi0wC6GQ/05UU3ULRtRNdYXMheumllwYC5wRos/sWN1r0D20jq5dupnmKmWNGYRoXpARw8b7lllvidOqjyyr2g+xjsnzZ1j777BOD5Xntoi5sOD5kNLNf1D1mzJi4n3xXKAThOS4EyPP2m+8DjhYFFFBAAQUUUEABBRRQQIHmJcA9ADJjecib69ipFQKtXHumkn2fpvHKcE48QMyD3zwATsCWa+5UuB7OFq55KdmA8XrrrRe7X3744YfjtTT3MXj43KKAAgoooIAC01bAoO609XZrCihQCwGClQ0Z0KVJ2YuYhx56KHa/SwboOeecUxh/lgAl5YUXXoivdEdEIVOWsXWzy6YunFNglaAg3TRnC5m4BIpTsDg775hjjolPwZI9SqZov379wt///veABRdqKYDLxRiFQC3BXgrbphum1M5s4Jf5qU2pjUyrTsle0KX3BGApKVDK5zSP6SngmjJQs2Pj0r002cyURRddtLDsIossEus7+uij4zg+BHEZT5hAK91IEzAmW5aL3WeeeSZmwabtx8qK/kntIfCa2pNdhDa3bdu2EIhm+/zxpDJGbB8zMnVPOumkkNcuAs+MX0xAnT+erqZQdzLic8oqTsHwvP1mOYsCCiiggAIKKKCAAgoooEDzESCgy0PMBE+5Fq1OIbv3m2++KSz61Vdfhew1d5rB9SkPVnfr1i1O4n4CQxzVpHANyz0RrmnplYprcnql6tSpU241LWaZLTjOay5Ng0zE26KAAgoo0DwE7H65eRxn91KBRivAxQZd8lIIqDVUFz9du3aN2+Cf7bffPgYVyaw966yz4nSCiWSLUggkUrJB0T333DNOS/8w5gwXTmlcXMa3JQCb/WMM1lKFCyTGjqU74IEDB4ZHH300LrraaqvFizSCkBS6QmbsnRRgZhpdJhV3Ec10CmPkpHl5Y/z+tVT+v2Qz0wU05bHHHovdQaUgKQFTCtm3LMfFJMHMoUOHxoA5Y8mybNoPArTsF90/MwYPy3IMuHili+Xvv/8+nHHGGTGLmf3DHs/rrrsuPPjgg2HDDTeM4+Gy3RRAjQ2oxT8EcBlfiO9WGnOXLFuyw8kwJit5p512ioFyxszNaxcXtRzbzTffPGZt0y0V+0QwP3mwjRRQJ5idt988NW1RQAEFFFBAAQUUUEABBRRoPgIESgnocr3Pg788FM1fehi4lAQPPPPwONetXEO/8cYb8XqU5ceNG1cYHorep3gInN6zvv322/D+++/HHrFK1Zs3nQzdESNGBALJDE3FtXj2AebidRZe6a+H4Iun+7lhBPRuGFdrVUABBSpRwEzdSjwqtkkBBaJAcUCXrNWGKgQTCUD+85//jBmgBD9TIXBKliyFC6UUFE3jzTCd9QlKMk4spWPHjrEr3vihxD/lgqqXXXZZHE+WrGH+KAQdr7zyyviesVt79uwZg7Rsk+DvFVdcEefRltSVMRdbdDmcClmnqeSN8Zvm5b0ShLz44ovjLLKTCXSnkoK6BEXpzviSSy6JF3msw7i4zCcwevvtt8cLQdbv3r17zHKme2gCvGTCshwBWy5k6f74oosuisFgLma33Xbb0KZNm3D9n2MXk73MND4vu+yyqRlTfU3tzC643Xbbxa6kqZP5bBc3jicZwvfdd1/MjuZ40w1WXrtYj8B97969Y3vproqLZh5EoOtsPChkFJNFTcnb72zGeFzIfxRQQAEFFFBAAQUUUEABBZq0AA8qEyClB640XBI7zDBO5e4bMEQRw/8MGTIk+sw222yxq2U+ELglmEtPUiz3wQcfhNtuuy0ux3VpTe8H0AMYww299957sa30PMZDzKXKilvtF2d9NOpJM3ZLIdXDdDJ0Cegm73qo0ioUUEABBSpcYIY/n9KKfWcy7h9BiIYq1l9eVh99yguUn9tUvz8pqEtgrKYB3QfP3rcK2qYnXFflc7kPZGPypCvZlIyTmrrvLbdOQ81jrFmepOWiK3VVnLZF4JlxfBdffPEGbyNj2xKg7dGjR3y6NxsoTu3JvtJFNNmqeeMI024uAItL3nQCoDxNzPbSceBilzFpaQ9PCePDWLTFhcBwymgunpf3me0QbM52V8UT02yL/WBeKnnt4knq1FYCzuw/x4eLbMYwohD4pd2pK2+m5e030y0KKKCAApUnMO6tcaHzCp0rr2G2SAEFprvA6FdH+/+H6X4UbIAClSvQkP+PoKcprl25Pi5XWI7r6uw1b7nli+dxLU4PVFwb28tUsY6fFai9QEP+/6H2rXJNBRSoBIGPx38c2rb7q8dO2kMPombqVsKRsQ0KKJArQGYqQbJpXcjG5K8SCt0W85dXCIzmBUfzlq2vaVy8ZYObperlIjEvoMvypdqcN50LxeKLRbJiyYRNhQAygdfikjJii6eX+px3AUyX0XQRXVzy2pW14UKZMYqok26q6E6baTwscMABB1SpLm+/qyzgBwUUUEABBRRQQAEFFFBAAQVKCPDgcHVKdZcrVRfX4qWu80ut43QFFFBAAQUUqF8Bg7r162ltCiigQJMUoKtkLuAqsdAFc9c/u0quxEKG9fHHHx8Yc5dsY8bdtSiggAIKKKCAAgoooIACCiiggAIKKKCAAgooUFMBg7o1FXN5BRRQoBkKEDi11E6AcY0Yw8iigAIKKKCAAgoooIACCiiggAIKKKCAAgoooEBtBWas7Yqup4ACCiiggAIKKKCAAgoooIACCiiggAIKKKCAAgoooIACCijQ8AJm6ja8sVtQQIHpILDpCddNh626SQUUUEABBRRQQAEFFFBAAQUUUEABBRRQQAEFFFCg/gXM1K1/U2tUQAEFFFBAAQUUUEABBRRQQAEFFFBAAQUUUEABBRRQQAEF6k3AoG69UVqRAgoooIACCiiggAIKKKCAAgoooIACCiiggAIKKKCAAgooUP8CBnXr39QaFVBAAQUUUEABBRRQQAEFFFBAAQUUUEABBRRQQAEFFFBAgXoTMKhbb5RWpMD0E+jYsWODbryx19+gOFaugAIKKKCAAgoooIACCiiggAIKKKCAAgoooIACCjSwgEHdBga2egUUUEABBRRQQAEFFFBAAQUUUEABBRRQQAEFFFBAAQUUUKAuAgZ166LnugoooIACCiiggAIKKKCAAgoooIACCiiggAIKKKCAAgoooEADCxjUbWBgq1dAAQUUUEABBRRQQAEFFFBAAQUUUEABBRRQQAEFFFBAAQXqItCiLiu7rgIKTD+BlkMfqbLxSd27VfnsBwUUUEABBRRQQAEFFFBAAQUUUEABBRRQQAEFFFBAgaYhYKZu0ziO7oUCCiiggAIKKKCAAgoooIACCiiggAIKKKCAAgoooIACCjRRAYO6TfTAulsKKKCAAgoooIACCiiggAIKKKCAAgoooIACCiiggAIKKNA0BAzqNo3j6F4ooIACCiiggAIKKKCAAgoooIACCiiggAIKKKCAAgoooEATFTCo20QPrLulQJ7A/vvvHwYNGpQ3Kxx22GHh5ptvjvMeffTRwLLDhg2bYtknn3wyHHjggeHHH3+M8/r16xdOPPHEKZarzoTJkyeHyy+/POy6666hY8eOoUePHuGss84K33zzTXVWL7nMiBEjYvt//fXXksvUZQb1pv2vSz3U8csvv9SlCtdVQAEFFFBAAQUUUEABBRRQQAEFFFBAAQUUUECBZiBgULcZHGR3UYEkMHDgwPDiiy+mj1Ver7322jBy5Mg4bezYsYFl99tvvzBx4sQqy7333nthwIAB4eeff47Thw8fHu6+++4qy1Tnw2effRY23XTTcOyxx4aZZpop7LvvvmG++eYLF198cVh99dXDa6+9Vp1qcpd59913Y/v/+OOP3Pl1nUjwu02bNuH333+vU1XLLbdc3N86VeLKCiiggAIKKKBAPQocNmp0mGvIA/GP9xYFFFBAAQUUUEABBRRQQAEFFKgMgRaV0QxboYAClSgwfvz40KtXr9CnT596b97JJ58cnnvuuTB06NCwwQYbFOonyLvxxhuHAw44IDz11FNhxhl99qSAU4s333//fQyat2zZshZrl1/lq6++CnPNNVcg45oy++yzl1/BuQoooIACCihQ0QIEcfu++36hjen95St1Lkwr9eb9998P9Jayyy67TLHI559/Hs/5dtxxx9CqVasp5tNLzBdffFGY3q5du7DRRhvFz/QSQ908rMcDgBtuuGGYZZZZCsv6RgEFFFBAAQUUUEABBRRQQIHmImC0pLkcafezIgXyujdODS03Ly3T0K8nnXRS6Nu3b3jmmWfqdVNvv/12zPYlgJsN6LKRDh06hHPPPTe8/PLL8eYf07gB+MADD4SLLroorLnmmnEeXRfT7fOqq64aFl100bDzzjuHUaNGsXih3HXXXWGdddaJNwC32mqr8Prrrxfm/fTTT6F3795x/RVXXDH84x//qNLtM5nKaV22ceGFF8abiWeffXY4//zzYz2bb7557LJ6yJAhYY899ghvvPFGfKXragpt3myzzWL7aCPT6Vqa/Wc6Ny+vuOKKQD2//fZbXKd///6FdZh+++23x+n8U2o7hQVy3txxxx3hwQcfzJlT90mXXXZZ+OCDD8LgwYPjX91r/KuG559/Pjz++ONTre7KK6+sl26wp7ohF1BAAQUUUKCZCPT/cPwUe5o3LbvQhx9+GAjKPvHEEyFv6AvOcZhPULZULyeffPJJWH755cO6664b/1ZaaaW4iVdffTXQA8v6668fg7mcO9X3eWl2X3yvgAIKKKCAAgoooIACCiigQCULmKlbyUfHtjV5gX//+99xH7lRlS0EdJlXPD27zLR4f+SRR4b77rsvHHzwweHZZ58N9ZXt+corr8TmE6zNK9tuu22cTGB3iy22iGP7Ejyk6+ett946dn28zTbbxEze008/PWaLEuDbZJNNQqqbCg4//PBAYJpsXwKxdCedbgTuvvvugeAhgWHmn3nmmXEe2SBkEBOAZezg4447Ljz99NOxngUXXDCO/Uu3yW+99VbMKF5sscXCmDFj4ljFL730UiCzZM899wzchGSMYIK3BIInTJgQ65p//vljl9N0Pc1xpi4yTijnnXdeOO2008Jee+0V9tlnn3D//feHvffeO5ARyzH49NNPp9hOXLEa/3AjlRutM888c5WlubnKzdbi6SzEeL81mZ6tmDrpVrs6pXg7H3/8cfTq2rVrYfW8dn700UcxSzgv46ew4v++Kd5G8Xw/K6CAAgoooEAIE/88VyguedOyy3AeNc8888Tzhi+//DI7K77n3GrhhReOD7VNMfPPCQzpwTnKUkstFXjornXr1oWeWugNZNZZZ40PyLEuv/n8plPuvffeeN7F+SHTWJ/zFh6yo3Tu3Dk+vEeW8GOPPRbrpq08zJeCxnFB/1FAAQUUUEABBRRQQAEFFFCgkQgY1G0kB8pmNk2BlMnJ3qUAbgroMm96F26M9evXL6y99trhnHPOCQRQ66PQhR6lffv2udVxw47gKBmtqXDD7oUXXgiLLLJIDIbSNTNj2xI4pRAAJADKMqnccMMNMQuWzwQFjz/++BgEJJhLwJSMEjJ/KV26dIk3/h566KHw9ddfx2lk/6633npxG/POO2+8UUjA+bvvvouZqcccc0y86UhQl0KgGScKNxq7desWrrvuunhzMk1jvGLqYt1LLrkkZirznjoJ6BLM/c9//hPr2G233eJNylNOOSUGpOPEP//JbidNK/f65ptvxmOHAds+4ogjosfVV18dyIyhzDnnnHE6wWhsuYn6ww8/xO4NDzrooJjtzHR8qGfuuecuZBdnt01gm8xdbs5SJ8FxtplXCFIzljM3cGeYYYZ4LPjOcXwol156aejZs2fIayfZ3BTGYCZLmqzsnXbaKSy55JIxE4jv6j//+c+YnU2GM0FtbuTusMMO8SZvXNl/FFBAAQUUUKDOApzP8cc5TnFQlyxezjU4p8qe12U3mrpdvvPOO+PvNecEPPDGOR8PvxGk5SFDpjOsBOdmFHpt4SE7snsnTpwYe2whAMw5HQ8Dck5Dbyucv8w222yxO2eyfnlokKxgu3DOHgXfK6CAAgoooIACCiiggAIKNAYBg7qN4SjZxiYtkA3ssqNkdk6aNKli9plMhhNOOCFmm26//fY1bhc38caNG1dYb999942Ztkz49ttvQ9u2bQvz0huyPLnBR2A3lV133TXe3OMzN+kodE+cCjf9yLClEOylcJMvlcUXXzy+JYDIzTwKQdXiQiYvGb7cnCTzly6YCRh37969EAAuXid9JliaCoFXAsYEj0ePHh3bxk3FLbfcMi1S5TXd6CQwmS2MS3f33XfHm5NpenY7aVq5VwK0Rx99dFyELqwJ8mKPMZnILVq0iF1eM51MFzKDyRYmC5kulsmwwYDv6nbbbRezWwjusj/ZQtfStJUg69JLLx2Pw4ABAwIZ33mFoPocc8wRv1/sP8eN9nBjlsA6QXoCvHntJEBPNvshhxwSA860O9vlI4Fn/h555JF4HMj4Zvzm4cOHG9TNOxhOU0ABBRRQoJ4FyMDlYUUCtOV67+C8d/bZZ4/LcV7A+QbrcT7BOQG/55xjpDqYxti6FM7/yNClMAzHKqusEpZYYomYOcwDgZwb8FAX53+0Z/XVV69yfhlX9B8FFFBAAQUUUEABBRRQQAEFGomAQd1GcqBsZtMWoItggrmUhszQJXMyZZVmRcmYpJDFkFf+9a9/BcZmpTtiugGuSSHwSpAwlRVWWKGwHYKC6UZcms9ryrblRl0qBBhTIUuDktc1cFqG11LdRXNjj5ICvfHDn/8wri43A7lRmMb0ZWxXMkXpQpkxgM8444y0+BSvdM+cCuPYktW78sorxy6k0zi7aX7xK4FXChkm2ZI+ZwP92e1kly31Hke6RaTwHcCP7OuFFlooBmbJouGmJzc7KdxQXWaZZeJ73MmEIeCLJz4Uuo+mW+psSd0d0lU3f2T6krHDzVhuqBYXsmRee+21mJHL9g499NCYNcNx5cYtGTSl2plceM2rO22L4DJtoUtntkEmtEUBBRRQQAEFGl6Ah8I4d6C3jPHjx8cNkrXLuUU2S5bfav5SIdOWHk84X6EHkLnmmiueU5GpSzfKPMSXzh8JBmcLPYlQsucGZPay3sMPPxyzfXlwL3temV3f9woooIACCiiggAIKKKCAAgpUsoBB3Uo+Orat2QjQ9XIK5qZumBti5xlbjMxRAm3ZDFm6tKMQZMsrBHsZs5ZMi5p2wUxmbnEhE5fgLl0Vk9GaAo4sR2CR8W0JPqaulZmeDeDSxS6FjN00JhrZGGTG0t3x1EoKFjPGbropSODyrLPOimO20V0vmaNHHXVUYNxfslvJoL3iiivKBnWzNxDxYh/JDE2ZJddcc03JpqV9YvlshjE3RClknYwYMSK+z24nTpjKP9kbp2lRtkMW61prrRX/GG8uFTJ38wo3U1PhffYz07lpy77SXWIqWJcK6jKmHWPskVnDsUxZ0mldXsu1M7tc9n0aa49pdLdMVg7BY4LQ1MdDFBYFFFBAAQUUmFJgzj/PAYrH0GVabQoPdxGY5XwjFX7rCfTy+58KDxxy/rDsssvGSen8gvMHhqdg2TSNB/LoWrkmhXo43+T8k4fUOO94/fXXQ6dOnWpSjcsqoIACCiiggAIKKKCAAgooMN0Fpkydmu5NsgEKNE8BgrkNGdBFlbFRKQS6CH6SEZvGyiWIShe1pQoZk3T7m8Y9yy5HkJiMiuI/xi3LK9y4I1DKfPZ50KBB8SYbAWe6eKZr3z59+lQJ9mbrIfuXrpkJGBPopBtfuhcmkyNlPGeXL35Pt8oESffcc8+YqUoWCOsTiCWbk2796N6XIC5t5GbjZ599Fjp06BCrSlmi7G8aH7h4GwRGyYDmxiHrM14umclkqtCFIIVgK8eALgbZH7o87tWrV2AsYLJeGc8YJ9yLM1GKt1fTz9zUxCBZkr1MULZUYd8JfHMTlEKAlJuk2cIy3DDlhivdNVMftqWCxHwHyWjmYQG6UeaGbQoup66Up9bOFMAl6J+6sCZwmwoPCEyYMCF+twnMkxGd1knL+KqAAgoooIACfwnstUj7KSjypk2xUM4EAqkMpZD+WITzPIK0nDty/kNPJAR/yb4lgMu5Az1scO7AeR0P/nGuRa8vnGPwEFipnlhymhAnkaHL+SLr8QAj5xvlznlK1eN0BRRQQAEFFFBAAQUUUEABBaa3QO0eu57erXb7CihQKwHGpSWgeOqpp8aublMldBHct2/fwli3aXpxRijrEYBNXeixHDfdCIIy9mtxoU4Ch3mFbFTGS6XLXcZMS4WgKpnDG220UZo0xSvdAw8ePDh2B01AkLL11luHG2+8sUoAMWV1MD+9Z58IphKQJci98cYbMzuOncv4r9xAZBxggq1pHFrmk3V71VVX8TYuy37ttttu0XL++eeP07P/0FUzNy5T1i2BZALFBNHpzpn5ZArTnfM999wTb2ReeOGFsW09e/YsVEVAN2VHFx+PwkI1eJMcyF7lWPbu3Ttmx9BdIdni3bp1K1hRbVqezG6sb7nlljiNIGqalzbfpk2beNwI1jIPZ4xKFbZ1/fXXx/0jQMz6ZOnwnu8GHnwP8tpJVjY3ehnzl23gTICYG8HUkwrBZXz5ThEo5ruezfpOy/mqgAIKKKCAAiFcvlLnyND/w7+6Syagm6bVpw9BWh6c4/xq1VVXDXTLfNddd8VN8DudzgPpivm///1vPO9jJvPSuVt128M5Aw/W0asLwVweZOR806KAAgoooIACCiiggAIKKKBAYxOY4c+no2NqFplkHTt2bLD2W395Wn30KS8w5dyWQ/+vKzvmTurebcqFSkwh04EsUjIYyZaYd955Syw5bSaTAUoWBmO8prHQqrtlgtQEEGu6XqqfbgHJ3GzdunWaVHglewQjMjuygcLCAlN5QxARZ+pOmbZkpvA5dcmcVwXrkRlMsLhUlmveejWdxn6zjwSyCaSSrduqVauy1bAcGTXcEC1VWIZjSvCdQtYxn7OF/aL7ZW6ukplDALhU5k1120kWLnbJOm2P7zvboD0GdJOKrwoooIACtREY99a40HmFvwKftVnfdUoLMAQHv9l55wP8xjNvaucppWrnfIPzF84DUo8rpZZ1ugK1FRj96mj//1BbPNdToBkI+P+IZnCQ3UUFaing/x9qCedqCjQDgY/Hfxzatmtb2FOGNDJTt8DhGwWajwABxfbt28e/SthrbtCVGs93au3Ljsc7tWXz5qfAY948bipmx3zLW6bcNAKXxetnxzIutS7rcXwaunBjMwU5yQKuzo1SlisX0KXNLJN1JXDOX7ak7VYnIF/ddnKTNu9GLd/3vKB9tj2+V0ABBRRQQIHpK8ADXqVK3u97qWXzpnO+kT03yVvGaQoooIACCiiggAIKKKCAAgpUuoBB3Uo/QrZPAQUUaOQCdPVsUUABBRRQQAEFFFBAAQUUUEABBRRQQAEFFFBAgdoLzFj7VV1TAQUUUEABBRRQQAEFFFBAAQUUUEABBRRQQAEFFFBAAQUUUKChBQzqNrSw9SuggAIKKKCAAgoooIACCiiggAIKKKCAAgoooIACCiiggAJ1ELD75TrguaoC01NgUvdu03PzblsBBRRQQAEFFFBAAQUUUEABBRRQQAEFFFBAAQUUUGAaCZipO42g3YwCCiiggAIKKKCAAgoooIACCiiggAIKKKCAAgoooIACCihQGwGDurVRcx0FFFBAAQUUUEABBRRQQAEFFFBAAQUUUEABBRRQQAEFFFBgGgkY1J1G0G5GAQUUUEABBRRQQAEFFFBAAQUUUEABBRRQQAEFFFBAAQUUqI2AQd3aqLmOAhUmMGbMmAprkc1RQAEFFFBAAQUUUEABBRRQQAEFFFBAAQUUUEABBRSoLwGDuvUlaT0KKKCAAgoooIACCiiggAIKKKCAAgoooIACCiiggAIKKKBAAwgY1G0AVKtUQAEFFFBAAQUUUEABBRRQQAEFFFBAAQUUUEABBRRQQAEF6kvAoG59SVqPAgoooIACCiiggAIKKKCAAgoooIACCiiggAIKKKCAAgoo0AACLRqgTqtUQIEmINBy6CNV9mJS925VPvtBAQUUUEABBRRQQAEFFFBAAQUUUEABBRRQQAEFFFBg2giYqTttnN2KAgoooIACCiiggAIKKKCAAgoooIACCiiggAIKKKCAAgooUCsBg7q1YnMlBRRQQAEFFFBAAQUUUEABBRRQQAEFFFBAAQUUUEABBRRQYNoIGNSdNs5uRQEFFFBAAQUUUEABBRRQQAEFFFBAAQUUUEABBRRQQAEFFKiVgEHdWrG5kgIK5Ansv//+YdCgQXmzwmGHHRZuvvnmOO/RRx8NLDts2LApln3yySfDgQceGH788cc4r1+/fuHEE0+cYrnqTJg8eXK4/PLLw6677ho6duwYevToEc4666zwzTffVGf1ksuMGDEitv/XX38tuUxdZlBv2v+61EMdv/zyS12qcF0FFFBAAQUUUEABBRRQQAEFFFBAAQUUUEABBRSoAAGDuhVwEGyCAk1FYODAgeHFF1/M3Z1rr702jBw5Ms4bO3ZsYNn99tsvTJw4scry7733XhgwYED4+eef4/Thw4eHu+++u8oy1fnw2WefhU033TQce+yxYaaZZgr77rtvmG+++cLFF18cVl999fDaa69Vp5rcZd59993Y/j/++CN3fl0nEvxu06ZN+P333+tU1XLLLRf3t06VuLICCiiggAIKNCuBw0aNDnMNeSD+8d6igAIKKKCAAgoooIACCiiggAKVIdCiMpphKxRQoDkKjB8/PvTq1Sv06dOn3nf/5JNPDs8991wYOnRo2GCDDQr1E+TdeOONwwEHHBCeeuqpMOOMPttSwKmgNwT7W7RoEVq2bFlBrbIpCiiggAIKNG0Bgrh9332/sJPp/eUrdS5MK/Xm/fffD/RmsssuuxQWefnll8OYMWMCvZC0bt06bLjhhmGOOeYozE9vyi13++23V3nQrXPnzqFTp05pVV8VUEABBRRQQAEFFFBAAQUUaDYCRjOazaF2RxWoPIGTTjop9O3bNzzzzDP12ri33347ZvsSwM0GdNlIhw4dwrnnnhu4eUjAl7LjjjuGBx54IFx00UVhzTXXjPPouphun1ddddWw6KKLhp133jmMGjUqLp/+ueuuu8I666wTM4C32mqr8Prrr6dZ4aeffgq9e/eO66+44orhH//4R5Vun8lUTuuyjQsvvDCQ+Xv22WeH888/P9az+eabxy6rhwwZEvbYY4/wxhtvxFe6rqbQ5s022yy2jzYyna6l2X+mf/HFF+GKK64I1PPbb7/Fdfr3719Yh+ncKE2l1HbS/Gn5euutt4bHHntsWm7SbSmggAIKKNDsBfp/OH4Kg7xp2YU+/PDDwNAaTzzxRAzepnlMf+WVV+K5FQ/UcW71+OOPp9mF13LL8ZAX66277rqFv8UWW6ywrm8UUEABBRRQQAEFFFBAAQUUaE4CZuo2p6PtvipQYQJHHnlkuO+++8LBBx8cnn322XrLyuQGIoVgbV7Zdttt42QCu1tssUUc2/eDDz4IdP289dZbx66Pt9lmm5jJe/rpp4e55porXHnllWGTTTaJNydTnYcffnggME22L4FYupNOAerdd989PP/88zEwzPwzzzwzzmPMYDKICcAydvBxxx0Xnn766VjPggsuGMf+pdvkt956K2YUc+OSDBfGKn7ppZdCu3btwp577hleffXVOEYwwVsCwRMmTIh1zT///LHLabqeZsxi6iIrhnLeeeeF0047Ley1115hn332Cffff3/Ye++9w1dffRWPwaeffjrFdtK+Tu2VsXtnnnnmKRYjmEz318WF6bjMMMMMVWaVqqfKQkUfstsgE4gM3+KSXSbNYxrbL87WLtUGugRnH4vbnFc32yBITxfaefuf2uCrAgoooIAClSQw8c/f0eKSNy27DL+j88wzT+D388svvyzM+vrrr+ODZ0svvXSc1r59+8C5RnEpt9znn38eZptttjDvvPPGoTnYTir33ntvPC/i/I1tL7XUUvF3mofgKGT08uAcdfCgGA/c0VYetltppZVSNb4qoIACCiiggAIKKKCAAgoo0GgEprzz3WiabkMVUKCxCxAg69evX1h77bXDOeecEwig1keh+z8KNw/zSqtWreJNQDJaU+GG4AsvvBAWWWSRGAyla2bGtu3Ro0dcpGvXrjEAyjKp3HDDDTELls8E744//vgwefLkGMwlYErGCpm/lC5dusQbiw899FDg5iWF7N/11lsvboOblXgQcP7uu+/C4MGDwzHHHBNvPhLUpRBoxonCjcxu3bqF6667LnZnmKYxXjF1se4ll1wSM5V5T50EdAnm/uc//4l17LbbbvEm6CmnnBID0nHin/9kt5OmlXolcE2GLwFMbpTusMMO8SYqAWj2gSDrnHPOGYPYBFsZ05jgNVk5BEfxXWWVVWJAnexlbrjiwLILLbRQqc2GW265JXz77beBsZPZxrLLLhuzlPlMO3bdddcY0M5rB90+ksFMJjOF7RBg5zNjP9MG2sax23LLLWPm9j333BOznZmO+/rrrx8++uijQObzpEmTAt8p5mG3/PLLB5ZP40vznWJMZ4O7JQ+nMxRQQAEFGrEA51v8cQ6SDeoSPKXw4Bnz3nnnnbDWWmtNsaflliMgy7lV6llk1llnDfSOwm85Gbw8BEcWLxm99KjCfM65eFiPB+AI6nJOR2B4o402Cu+++278Xee3epZZZpmiLU5QQAEFFFBAAQUUUEABBRRQoJIFDOpW8tGxbQo0AwEyJU444YSYbbr99tvXeI8JjI4bN66wHsGzNm3axM8E/dq2bVuYl96QWUkAj6zXVAgCEnyjcBOQQvfEqZDxSoYthWAvhZuIqSy++OLxLQFBMoApBFWLC5m8ZPhy85PMX7pgJmDcvXv3QgC4eJ30+YgjjkhvY/CQoCPB49GjR8e2cdOSIGReSQHsnXbaqcpsxr27++67483PNCO7nTSt1OsjjzwS203GM91ZDx8+PCy88MKxTrqMJjsHrwEDBsSgOAFY9p1M5TvuuCOwPkHdm266KSyzzDIxu5q2EiwtV3DmxvHRRx8dM40Jxq688sqhZ8+e4cYbb4zZzwsssEBuO+iSmxvMjLtM9u2ll14ab/ISsOcmMd9H2kC7OS4ErbkJTVb0ww8/HDOuCeqyHYLJ2223XXwggCA2mUIEkskW//vf/x5vGF9++eWxq2yMLAoooIACCjQ3AX6vx4//q1tnfr9LlbzlOGfjfI1zJdb973//G881+H2mcH5Ghi6FoC7nFEsssUTMHOaBPc47eNiLdfnNX3311auc/8UV/UcBBRRQQAEFFFBAAQUUUECBRiJgULeRHCibqUBjECAjM2WVZtubutojSyKv/Otf/4oBPrIl6Yq5JoXAK90Hp7LCCivEbAw+E+RMN/rSfF5Tti03AlPJjs/2/fffx8lkjJYrLVu2zJ2dblimQG9aiHF1udk433zzxcAvQVDGlrv66qtjUJsxgM8444y0+BSvZLim8uCDD8asXgKZBAvTOLtpfvErWS4UMliyJX0m2zSV7HbStFKvBG3pOvvjjz+OQVkygVNQm+n8/fDDDzEASzYzhWA2N1g7deoUA/KMA0z7CEgzneAu3UhPrZBlQ9fYs88+e1yUDByyYcm85UZu6n6xuB0peM8YyrSfwPaSSy4ZM35ee+21GOSlDYceemisj+PCjeI777wzZhqxMdrMcU5tXmONNQpjNPNQAO0gyEshg5e2GNSNHP6jgAIKKNDMBHgAir/XX389PoRGt8h5vVfkLUePJqlw3sW6PMyWSjoHSJ/nnnvu+JbziVSog+6XeTCL32QeLsue96XlfFVAAQUUUEABBRRQQAEFFFCg0gUM6lb6EbJ9CjQiAW60kTlKpkU2Q5ZxcykE4fIKwV7GrGXs15p2wUxmbnEhq4PgLl0V0x1udvw1sjQY35YAdOpamfWzAVwCfBSCc2nMNYKEZMbS3fHUSgoWM8ZuCirTReBZZ50Vx5Yj85NM0KOOOipmphJcJIOWLoHLBXWzNyjxYh/JjE03Rq+55pqSTUv7xPLZDGPG+KWQ1TJixIj4PrudOKHMP3S3TNYLwVDGBqb+FFxNwVNWxyQFdZM1N1YpdN1MSfvB++q0IS2f6kn1sj6FelmmuB0EghnLmGxaHkK4/vrrY1Y2WdNkGRPA5diTVU1gl6A732e+C9wsHjlyZGFf/trSX/+m/WO73HhO2+WVbVoUUEABBRSodIE5/xz+oHgMXabVpvDwGl0cc15A4feQXk/oSYWhIlIptxwPRfEAFg/EUfjNT+cNaf2pvfL7zPkg54dvvvlm/J0nwMzDZRYFFFBAAQUUUEABBRRQQAEFGpPA/z3C3JhabVsVUKAiBQ466KDYLgJ9BD/JiE1j5RJELZepyLi6dPubxjnN7iBBYsaQLf5jXLS8QiCPQCnz6SZ30KBB8SYeAWe6eGZc2z59+lQJ9mbrIfuXrv4IGBPoZGxcuvklMEcXvFMrZKISJN1zzz1jtjDd8bI+gVgyQBn3jfF3CeLSRgKLjAXboUOHWHXKnmV/0/jAxdtkzFkyoAlAsj7j5ZKZTPeGZJFSuJHKMRg2bFjcn7322iv06tUrMBYwN0kZzxgn3IszXYq3V+ozAXK6MubYEpgm45Z958bp4n92Sd21a9d48xUD2pxXWrduHdvKTV3KJ598Evctb9maTMMzrx0cU7pEJhiduutmfFy+s2RA83DBIYccEm8cc3x4EGD33XePXTCnrHPaTBCZNnOzmGA226KwXYL4q622Wvz+0T04Y/tZFFBAAQUUqHSBvRZpP0UT86ZNsVDOBB6q4/eV3jwIxD7//PPxt5XpnNtxfkJPIeWW47yQ31iGN6CHDM55ssNn5Gx2iklk6PLbzwNXPGBYm8DwFJU6QQEFFFBAAQUUUEABBRRQQIHpIJB/h306NMRNKqBA4xdgXFoCiqeeemrMcEx7RBfBffv2LYx1m6YXZ2OyHgHYNO4ayxEIJAhKF7nFhToJIOYVslG5eUimJWO7pkJQlczhlDWSpmdfGVeVrnPpDpoAH2XrrbeOY6hmA5MpQ5T56T37RDCVgCxB7o033pjZcexcxpUlMMw4wARbCfSmQtbtVVddFT+SMcp+7bbbbtEyrytiugQmQJ2ybgkkEygmiE5mKfPJFCbz95577gnfffdduPDCC2PbGHc2FQK6KTu6+HikZcq9ErSlfkwZt45jzVi2+BIkxQUP9qVc4bszcODAQtfNxVm35dYtnpeOBWMr57WD9tElc+/evWNGMMeUcXa5WUzWLh4EalmfwCwZuzwEQL1k8rIcWckEem+55Zbw4osvxrF42U/+yFgfO3ZsuOCCC+I6HHMC/BYFFFBAAQUqXeDylTrHJvb/8K8xcAnopmk1bTsPT/HQGg/TUTjP6NKlS3xl6AwenOL8p9xyPJzHA1ScI1B4SJBpNSn0tMKDb/S6QnCZOjgftCiggAIKKKCAAgoooIACCijQ2ARm+PPp6NjvJU89d+zYscHab/3lafXRp7xA+bkN8f1pOfSRKhud1L1blc/lPpCxSEYjGZwEwbJd7JVbr6HmkTVJxitjraax1qq7LYLUBPNqul6qn/F5yS4hs7O4kJ2CEZkjBBBrWgii4kzdKdOWzBc+p66J8+pkPW6yEizOBqnzlq3ONI43QWOC4dlgLIFR7Jle3UI93GxNgVkyiqkjW2jziiuumJ1U9n2pdjDWL23Pdo3MzV7aQHCW45IK0/jM/rEe77lJzY1oMowI9BLEPemkkwqmHHfqLzWWdKrbVwUUUECBxiMw7q1xofMKfwU+G0+rp29L+T2k14t0rlKqNeWW45yJ3//seUapevKm8/vO7zfrpx5R8pZzmgJ1ERj96mj//1AXQNdVoIkL+P+IJn6A3T0F6iDg/x/qgOeqCjRxgY/Hfxzatmtb2EuSj8zULXD4RgEF6kuAgGL79u3jX33VWZd6WrVqVXI836nVS8CuLqVcQJPAIEHv2hZubhavnx3LuFS9rMfxqa/C8c4LWpORU27/87afDbAyn6A4f9lS0xu6pdqRd3O5VAA/2660HllGdOO86KKLxq4l6dIR21RoZ03bmtb1VQEFFFBAgaYiUN3fw3LLZR+0qo0Lv+81PSepzXZcRwEFFFBAAQUUUEABBRRQQIGGFPi/u88NuRXrVkABBRRQoBYCZMJWaqFLacbKJdua7sHresO5UvfTdimggAIKKKCAAgoooIACCiiggAIKKKCAAgpMfwGDutP/GNgCBRRQQIFGKkCWLn8WBRRQQAEFFFBAAQUUUEABBRRQQAEFFFBAAQUaUmDGhqzcuhVQQAEFFFBAAQUUUEABBRRQQAEFFFBAAQUUUEABBRRQQAEF6iZgpm7d/FxbgSYrMKl7tya7b+6YAgoooIACCiiggAIKKKCAAgoooIACCiiggAIKKNCYBMzUbUxHy7YqoIACCiiggAIKKKCAAgoooIACCiiggAIKKKCAAgoooECzEzCo2+wOuTusgAIKKKCAAgoooIACCiiggAIKKKCAAgoooIACCiiggAKNScCgbmM6WrZVAQUUUEABBRRQQAEFFFBAAQUUUEABBRRQQAEFFFBAAQWancA0C+p27NixQXGtvzyvPvqUF3CuAgoooIACCiiggAIKKKCAAgoooIACCiiggAIKKKBApQpMs6BupQLYLgUUUEABBRRQQAEFFFBAAQUUUEABBRRQQAEFFFBAAQUUUKCSBQzqVvLRsW0KKKCAAgoooIACCiiggAIKKKCAAgoooIACCiiggAIKKNDsBQzqNvuvgAAKKKCAAgoooIACCiiggAIKKKCAAgoooIACCiiggAIKKFDJAi0asnEzvn9Tlep/X2yPKp/9oIACCiiggAIKKKCAAgoooIACCiiggAIKKKCAAgoooIACCihQXsBM3fI+zlVAAQUUUEABBRRQQAEFFFBAAQUUUEABBRRQQAEFFFBAAQWmq4BB3enK78YVUEABBRRQQAEFFFBAAQUUUEABBRRQQAEFFFBAAQUUUECB8gIGdcv7OFcBBRRQQAEFFFBAAQUUUEABBRRQQAEFFFBAAQUUUEABBRSYrgIVF9Tdf//9w6BBg3JRDjvssHDzzTfHeY8++mhg2WHDhk2x7JNPPhkOPPDA8OOPP8Z5/fr1CyeeeOIUy01tQnXbMrV60vz33nsvtvmCCy5Ik3xVQAEFFFBAAQUUUEABBRRQQAEFFFBAAQUUUEABBRRQQAEFygpUXFB34MCB4cUXX8xt9LXXXhtGjhwZ540dOzaw7H777RcmTpxYZXmCpwMGDAg///xznD58+PBw9913V1mmOh+q25bq1MUytIk6TznllPDFF19UdzWXU0ABBRRQQAEFFFBAAQWmi8Dv374Vfn77pvjHe4sCCiiggAIKKKCAAgoooIACCkwfgRbTZ7P1t9Xx48eHXr16hT59+tRfpQ1Q06+//hquvPLKmKl7zTXXhFtuuSUcccQRDbClulX51Vdfhbnmmiu0aNHovxp1g/jftb/55pvw22+/hTZt2tRLfTWp5KeffooPJnA86lJ++OGHMMMMM4RWrVrVpRrXVUABBRRQQAEFFGiGAr9++VwIv/4U95z3s8y9TK7CbbfdFv74448q8xZYYIGwwQYbVJk2adKkQK9LEyZMCDPNNFNYZpllwpprrlllmaeffjqeB3ft2rXKdD8ooIACCiiggAIKKKCAAgoo0JwFKi5Tt6YH46STTgp9+/YNzzzzTE1XrZflJ0+eHLbaaqtAoDZb/t//+39hzz33LEx65JFHYnbuoYceGnr06BGuuuqqKW56FBaupzf33ntveOutmj1Nf9lll4UPPvigbAsITqeurcsuWMEzq7MPDz74YLj44ovDE088MV325LnnngvXX3992W1X5xiTpX7fffeVrceZCiiggAIKKKCAAgrkCvxvQDfOy74vWpjAbPpbZZVVAtdJc889d9FSITz++OPxWqJ79+5htdVWC6+//np4991343KjR48OQ4cOjdcwqdelKSpwggIKKKCAAgoooIACCiiggALNVKDRB3WPPPLIsPLKK4eDDz448NT3tC6zzjprzIC85JJLCpv+/fffA+PmLrbYYoVp1113XWxnx44dw2677RZvVDz77LOF+dV9Q9ZoqVI87+233652N8+//PJLbrXsS/G8jz76KN6kya7ATZfiJ/Oz84vfZ9uafZ9drni72Xml3ufVxT6QKZ0tefuQnc/7N954I6y//vph++23rzIru43s++xCbJO/VIq3n6bnvVJndt3sMsU3t/KOMdsqtX6p9uYdP+rIazfHuVQ92bb6XgEFFFBAAQUUUKD5CCy++OJhiSWWiH8EahdeeOF4/VMswHlnu3btwnzzzRezdOlRhgAwZeaZZ47TZ5999iqrvf/+++Gee+4JPHR54403hptvvjlwPn/77beHG264IZAlnB46HTZsWFyG6Xfeeed0uUas0ng/KKCAAgoooIACCiiggAIKKFBPAo2+j10u/Pv16xfWXnvtcM4554TTTz+9nmiqXw0Zubvsskt49dVXwworrBCef/75GEzdeeedYyWffvppvAlx4YUXxs+bbLJJmHPOOeMNCNpdncJNCrKBv/zyy9iV7rzzzhu4cbLNNtuEl156KQwePDgG4Kh3//33jzc2vv766/ikO69bbrll7maeeuqp8NBDD8UgIE/Sp2AdAdWrr746fPLJJ3E96qW76HPPPTd+JoN1jz32iDdPuMHCetyQ6datWwyE5m2MbtTGjBkT1yEAv/fee8cbLnQPzHHcYYcdAkFvxkRm7GG6H2Z6y5Ytw0orrRSf/L/oootid9vU/+abb4YhQ4aEY445JraTGzzFdXEj55VXXokBZ7ofPuigg8Kll15aZR86dOgwRXPZd6zJ0qUdo0aNijelCMRvu+22MZuAaQQ4cWNfuDl13nnnxa6aP/zwwziP4/vyyy/Hm0mzzTZbOPzww2P31lNs8M8JjA1N8D8dY+pN3WCTkfvCCy/EOpn2t7/9Ldx///0he4zXWGONwLjT6YbW0ksvHdvFtt5555343wbHiWPJWNR0KU3b8o5fnhvfOZZNY14vssgiYd99943d5uXtj9MUUEABBRRQQAEFmp8A5/LffvttIBM3r3BeT+CVLpgZ+oXz/SWXXDIuuuyyy8ZXznHTdQkTCAQzLArXBVxLsT49IXEezznpY489Fq/FeE/W77rrrhsIDJMVzPm73ThHVv9RQAEFFFBAAQUUUEABBRRo5AKNPlMXf24MnHDCCTGgRqCtpoXg66qrrlr4S0G/6taz6aabxkAZgTcKr8svv3xsF59vvfVWXmJ2Lhm8l19+eWjbtm24/s+udbnhUZ1CkI2syRNPPDH07NkzjkFFsJGbG3Svu+uuu8Zg50ILLRQGDBgQA7sEBQmybrbZZrmbYByrBx54IAYpe/05LnHnzp1j0JCFU2D6uOOOC3RxTRCWIOrxxx8f6zrkkEMCQUOCqmuttVYMGK633nplu8EmUEzXztxsOeCAA2JQmyA4gXjaiBPL3HTTTbFu2sR+fffdd3E6AdRsBio3etJT/TyJX1zX999/H4OxBFxPO+20QFCSLo2L9yEPh6Apy5Opy/GlXQQzaQ83lfieHXjggeHUU0+Nx75///6xGubRrlNOOSU+aEC34HTPzWfaT4C5VBk0aFDhGB999NGFrAKOMceDNmFF8JibUwTvs8eYIC/j79Imgtfjxo0r+HD8aC/tYBm+I5S844cp+1fsxsMDtP/vf/974HvBzTa+PxYFFFBAAQUUUEABBZIA59v0WESPRnmFc3vOi3mQkesZ3vNg5tQKD5BuvPHGYcEFF4zXE7PMMktYZ511YkYw5+2c7zJGL4XzVM6TCSzz0KhFAQUUUEABBRRQQAEFFFBAgaYgUHGZumQRks1ZXMh2pZDtmFf+9a9/hTvuuCMGruiKuSZl8803j0+Jp3UIDlKq2xbatNdee8VgJMHlW265JdAtNIWbFFdccUWsa/jw4XEa/6QMTAJ5ZDtOrdDlGNm23BxZYIEFCl0700UwhSAff9wQ4QYJNzRmnHHG+OR72lbxNgjS8rQ7Y15RCF6STUshw5QAMZm8ZJ0SUCZgmW7O8Er9xx57bAwAEnQeO3ZsXLfcP6y33XbbxUAtGaWfffZZIcCYgp4EFdlX6l9mmWXC/PPPX67KknXRJRs3cwgS8/Q/maw8AEC9lLQPeZWTMVDst9FGG4XlllsuBqMJaNOlHIVsacZ1JvBL6dKlS/QneE12bfo+zTPPPNEwLpTzD1HULDEAAD2kSURBVM7ceOL7xN/qq68eA+msR5CXTPARI0ZEM76bxW3kO0hXdwR36ZaZkrpPpr0cT8oWW2wRx3QmQJ53/HDJcyMQzPeKrHAKN9b4/lGfRQEFFFBAAQUUUEABHkYkuMoDrqUKDw9yTs2DoTwMyXUED0/yMGq5kq5vWIb3XMekks7vuW7g+oFzYq4pOacma9eigAIKKKCAAgoooIACCiigQFMQqLigLtmiBKUITJLNmsp9990X35a6QcAF+5VXXhk23HDDmM2Y1qvOa6mgak3awji5BPboPnf8+PFhxx13jJsmSEoXYAR66bY3FQKY3HCgzaW2n5blleX5SyV1R8Y0bmoQQEyFmyTZjNY0Pe+VwFwqvE+fCUDTpRk3W/j7/PPP02KFV9pA5jHHiWApgcCRI0cW5ue9mWOOOeLk1L5FF100tp+J7ANP2VPYp1TSTZr0Ob2mIGqpuhini2AogcfXXnstdh1MpikZr7Up1EfBPNum1NZ0fNJnLLPLTW2bperl+8T3pFOnTvEGWMpOLq4vdd285pprBh5UIJidSrYd6T0B31LHL8+Nurh5lr5rvJL1a1FAAQUUUEABBRRQAAEe8uSB0nTeXKzCQ6Kcu5NtS+G8mQdWufarj0JAmWshMnh5KJgHVBlOhWFjLAoooIACCiiggAIKKKCAAgo0doGK636ZbmMpjK9KkIpMxzRWLtmJ5bICyS5l3NcvvvhiiuPCjQK6RS7+I+BaqtSkLWRVEqRlzFTGeUpZkXQLTLuLu0Am4Me4poxpWq5L3tS29u3bhyeffDJmg5LRSRYqhXGkCK4u/uf4ul27do0BR7rJTdm5KfCZ6sm+si7ZsjzJTiEAnQKkZPEuscQSMThId7+pa7S0PvXSrRk3ZnbfffcY+E3Z1GmZvNcUNCb7lC7TCGTS7qWWWirecOEGENOHDh0aV2dM31Rvehr/vffei+0kM5lSqi66Xz7jjDMCdnSxTaZuNjhdziZWXPRPajtub731Vszupv20lTG7aHddCpm/jA9GsBVvulymkHVL3TvttFPsPo59SAFk5qf9IPhLd9E82MCxoaTjSXvTNMYc4ztJ13d5x4//VvLc0vdltdVWi9uhe2e607YooIACCiiggAIKNGGBFpmekrLvc3aZ81TOzYsL13Rcc3BOy3UK2boEYDlf59qmTZs2xavU6jPnpgwvQr0EjnmANHveXKtKXUkBBRRQQAEFFFBAAQUUUECBChGouExdxiyl2y7GBT300EMLTCuvvHLMhC2+4E9Zh2lB1qNLYwJcqXDjYOLEiWGXXXZJkwqvZNcSvMwrNW0LGbeMebvnnnvG6tgmY62yH2QSFxeyeQmekVG54oorFs+u8pllr7nmmrg8+0NWLDdF8KBbYALgBB2ZRtYwhbGsyLYlmNejR48q9fGBDFsCgGQRsy7d+abAJUFqHHv37h2foGd7jJ9KFig3ai677LI4vizv+/TpE9cjKEkwkifi87o5S3WnhuA7cODAQFYw82gLwdE0nYA3JQWo6RaY4O+1114bM2AJNqeS1snWxU0cuh2+6KKL4j4Q4EzZ0mkfsCqV/Z3qTq+p/Tz5/84774RLLrkkthtzxp/NK2mdvHnF03iQgYxcvhOUlNVMhi6BWMbTpT66lSNIS9fV2WPMcmS5P/jgg/H7gRtdktM+/i6++OJYL8c5jRmcd/wI6Oe5kY1N9gXZvbSDLN30XY8V+48CCiiggAIKKKBAkxNo0XbN8OuXz8X94n25QjCVc/Diwjkk546cd/MQItmzt912W1yM6ZxflyvVOadmGc5hOZflOiatw3WNRQEFFFBAAQUUUEABBRRQQIGmIDDDn09Ixz59GXOoY8eO9bpPM77/f92/UvHvi1W/2yuyT8nQnDBhQhy7NHXLW68NrGZlldAWsjYJ8pENTCCbQCoBSj5TCFiSdZsCgdld+/bbbwtjrGanc8OFwC7rMhYv2ZvZQgYoT9Bzo4VlCNi2atUqu0h8T8YnWbQEC6mHY5bXhRrfr7zgNsHv4m1TMfUynWA2mc8pS5vlCfASqCwueXXRXXHaj+KHAKZmU1x/9nPKqM0zzy6Xfc93icyE4tK6devCwwUYsn8pmM2y+OPBsWAfuGGWt12+A9zA4niw3yzLcaFkj2ec8L//FB8/1mW9Um7Uw37kHctsvb5XQAEFFFBAAQWamsC4t8aFzit0bmq7NV32h/NWznfzzunr2iDOY+mRhgdGi8//61q36ytQSmD0q6P9/0MpHKcroEDw/xF+CRRQoJSA/38oJeN0BRT4ePzHoW27/xum9plnngkVl6mbDhPjK9FtLn/Tu1RKW26++eaYmUnmLTcnyFpNhc95QT7mE3wkcFdcuNlBYd28oCrBwBQQZJm8gC7rE2hMhRsndJmctz0CgXklb9ssl603u16p5Vkmbx4BUv7yytRs8tZJ07gJVco8LZP3mmeTbR+GxQV/smpTKbXd7DHK1sl62eOZ6uE165zddim3UvVk6/S9AgoooIACCiiggALlBLLnreWWq828UuextanLdRRQQAEFFFBAAQUUUEABBRSoFIGKDepWClCltINuw5ZccsnY7S/dRRd3Q12unSzb9c9xa6dVodsz/uqr0HV0Ci7XV52pnmltwwMC0/JYpP30VQEFFFBAAQUUUEABBRRQQAEFFFBAAQUUUEABBRRQoPEKGNRtRMeOLqinZzfU04uKLqItCiiggAIKKKCAAgoooIACCiiggAIKKKCAAgoooIACCjRXgRmb64673woooIACCiiggAIKKKCAAgoooIACCiiggAIKKKCAAgoooEBjEGjQTN3fF9ujMRjYRgUUUEABBRRQQAEFFFBAAQUUUEABBRRQQAEFFFBAAQUUUKBiBczUrdhDY8MUUEABBRRQQAEFFFBAAQUUUEABBRRQQAEFFFBAAQUUUECBEAzq+i1QQAEFFFBAAQUUUEABBRRQQAEFFFBAAQUUUEABBRRQQAEFKljAoG4FHxybpoACCiiggAIKKKCAAgoooIACCiiggAIKKKCAAgoooIACChjU9TuggAIKKKCAAgoooIACCiiggAIKKKCAAgoooIACCiiggAIKVLCAQd0KPjg2TQEFFFBAAQUUUEABBRRQQAEFFFBAAQUUUEABBRRQQAEFFDCo63dAAQUUUEABBRRQQAEFFFBAAQUUUEABBRRQQAEFFFBAAQUUqGABg7oVfHBsmgIKKKCAAgoooIACCiiggAIKKKCAAgoooIACCiiggAIKKNCiIQlmfP+mKtX/vtgeVT77QQEFFFBAAQUUUEABBRRQQAEFFFBAAQUUUEABBRRQQAEFFFCgvICZuuV9nKuAAgoooIACCiiggAIKKKCAAgoooIACCiiggAIKKKCAAgpMVwGDutOV340roIACCiiggAIKKKCAAgoooIACCiiggAIKKKCAAgoooIAC5QUM6pb3ca4CCiiggAIKKKCAAgoooIACCiiggAIKKKCAAgoooIACCigwXQWmGtQdNmxYaNmyZTjzzDOnSUO/++67sP/++8e/Z555pso2H3vsscK8yZMnh99//z0cdNBBcVqfPn2qLPvOO+8Ulv3xxx/D2LFjC595X5NyyimnxHWvu+66KquNHz++UOerr75aZd7UPjz88MOFdV9++eWpLe58BRRQQAEFFFBAAQUUUEABBRRQQAEFFFBAAQUUUEABBRRopgItqrvf//73v+OiJ598cnVXqdVyo0aNCgMHDozr9uzZs0odgwcPjvPatWsXZp111hio7d+/f2GZffbZJ7Rp0yZ+fvbZZwvLtmrVKgwfPrxQ77nnnltYZ2pvJk2aFC644IK42AorrFBl8bQNJtbE5Ycffgj77bdf+OKLL2J9q622Wlh55ZWr1O0HBRRQQAEFFFBAAQUUUKASBX55/97YrJkX26YSm2ebFFBAAQUUUEABBRRQQAEFFGiSAlMN6q6//vrhgQceCJtttlmYFoHdl156qQDdqVOnwnvepMxd2kQhAJwtt99+e0iB4FRPly5d4iIjR46Mr+3btw9t27bNrlb2/ZgxYwrzV1111cJ73rzwwgvx8/9v707ArZz2B46vUiRkSChDyZzMZar7v+b54hqjXNPFFXl4rrGehO7j4pqnS2bKELpCNzJThmTOlFBRyNAgM/n3Xe7a3rN79z6n4XR29V3Pc87e+x3Wu97Pe3rZ72/91lpqqaVCq1at4vua/LrkkksKAV22zx6jJvsvaNt8//334ccffwxNmjRZ0E7N81FAAQUUUEABBRRQYIET+PX73zqnljsxvpsxslIqbdu2DcXf737++efAyFATJkwI9erVCy1btgwdOnSI79N+viqggAIKKKCAAgoooIACCiigwG8C1Q6/zGYEUXv06BH3ILDLF+/aKsOHD49Vk7lKhm0qDKGchinefPPN4+IUqE3b3HjjjeltIIuW0r59+/iaPnfs2DF+rumvl19+ubDphhtuWHjPm2yd1157bQx89+7du7BN//7947JOnToFHlhQGBY6BccPOeSQuGxWh26OOxX9GjFiRHjyySeLls78sU+fPgHLSipc85tvvrlsk2p6fmUrcaUCCiiggAIKKKCAAgrUusDXX38dv3MQoE0/BGyLC9PrTJw4MWy//fZxuzFjxgT+v9+igAIKKKCAAgoooIACCiiggAIzC1SbqZt2ScMLE5Aka5fs3ZQxm7aZG68pYLzVVltVqW7kyJGFzyljNgVVmYP3hhtuCARHyd5t06ZNSMFhtmWe3rfffjvunwLChcqqeZMCx2uttVZYZpllClv/9NNPYdiwYYU6CZTS9l9++SUwBy/ZpyeffHLMyGW+3wYNfqM+/fTT4z777LNPOPjggwPDR9NWerHXr1+jGHvcn+M3bNiw0B56t3/55Zdhm222KSyjTtqT3e7jjz8OzEecDZgXdih6U3yMotU1/kgbFllkkZm2Zzk98vMKmbu0O63PO79ff/01uuXVnVenyxRQQAEFFFBAAQUUUKD2BQjUNmrUKCy33HJxRJ7s96js0T/77LM4DU3z5s3jYv6fn8AuHXPvv//+wLQ7fOZ7yRprrBG/H7zzzjtxWzJ/+a7HsQgO8/2L71N0xN1oo42yh/G9AgoooIACCiiggAIKKKCAAguEQI2DupxtbQd2P/nkk8KwxO3atasCnM2YZW5bApMpcLv33nuHTz/9NAwaNCj069cvpAxYKuBLfTYTNgWEs5UTHJwyZUp2UXwIwYOI559/Pi7feuutq6xPDxNYuMkmmwTmyaXwIILSt2/feC4M90zQmTJkyJDAvMCUXr16VQl0jh8/Pqy66qpxXblfnCcZyTy0IOBJkJrgZ+rRfsUVV8QhqK+//vqAJ4Xhobt16xbSXMKXXnpp6Ny5c/jPf/4T9t9//9C6deuAwdlnnx1OOeWUGAB/8MEH4zIejOy7776BhyZ5hWtA4Pu4446Lq9mPeYj32GOPcN5558Whrpk7mLZuueWWYddddw303L/pppvCF198EZcvvfTShaA32dgDBw6MwWj2odc+55o9P86FbdLfBG6HH354Fc+8trpMAQUUUEABBRRQQAEFal+AQCvf1xiCmbLYYovF7wdLLrlklYPTOTN9j2IF3yPYj0Kn2ffeey9m8PL9gc671MP0OuPGjYvf8fhuR0dbvrdtt9124cMPP4yjO6233nph0UUXjfX4SwEFFFBAAQUUUEABBRRQQIEFRaDmqaHz4IzT8MociuGXsyVlzPIFnSBgyrxlGwK3BPUoN88Yxjdl8Kbs2hT8Y31ecPLdd98N9A7P/tx6661h8uTJ8UEC+5ULMvMwYbXVVmOz+CCBBxHnnHNO/HzBBRfEhw8sO/HEE+MysmmnTZtWCLqykDbUpDz11FOBhyEEYAlec27UR2902nDMMcfEACiB1NNOOy0Om83DEepPWcLHHntsWHPNNWOP9zQsNMcms5efxx57LAaLOcYWW2wRhg4dWrJp7J8evLAR7wnCUg+B4qZNm8YANm1lTuTRo0eHAQMGxOGou3fvHk1oXyoEhTkmx2aobPYhsJs9P+ZLfv3118NJJ50Uz3HSpEkxczzV4asCCiiggAIKKKCAAgrUnQAj8pBle8ABB4Q999wzdtjM+05BB1i+p7z55pvxew2jCvE9IpV11103Zuim74Z0pl199dXj9z+24bsInVD5/sFIP3xnq43RpFJ7fFVAAQUUUEABBRRQQAEFFFCgLgVmKVP3H//4R2E+2NoYfpme2Kmsvfba6W0MPqYM19133z0uT4FaHhassMIKYaeddooPDghmEiykMH8TJQWEyfAt7h3O+vfffz/wQCFbyIBleSrFwWCybimbbbZZPC4BzFSYt5Z2sI4sYsq///3vGPDlPXPfprbxmTJq1Kiwww47/PahzG+C2jz0ICOXoHXXrl1jL3SydenpTo90MmJbtGgRe61/9NFH8WEHDzno2U7htdxQzwR8CYyTdcwxDjvssLjf7Pzaa6+9Yruoc8UVV4xtp0277LJLIRuahy8pqM2Q1fTCv/fee6MJx+S8sudH5jXL0t8EGb1kTu+2226z00T3UUABBRRQQAEFFFBAgbkoQOfMVBZffPHYsTY7nU5ax2hIDK1Mp02+oxCwJbCbyhJLLJHexlc691Ky32U4FsMvP/roo3EUIL7X5c3fG3f0lwIKKKCAAgoooIACCiiggALzsUCNg7rMF8t8upTaCOhSb/ZL+yOPPBKH6qWXN8P4MuQWhZ7elJdeeim+MvwWhaAfwxxnt03Ztc8++2zchgAlwxdnC0MTEyhOweLsumw2MEM7M7cTwUTOn2xTyn777RdfCS6ncuqpp8a3//znP+MDB4ZBPuOMM+Iy5gpmPqhUqIsA8FtvvZUWlX0lK3mVVVaJgU+Cm2SyHn/88VX2oRc82bZkvPLD8GfVFR6mpMJwy9gRPMaO+nr06JFWl33NZv6yYfaBC3ZcTwLgxcvZlnUXXnhhHLKZzFwe2qSAPOtTYX8eDqXhqnlt0qRJWu2rAgoooIACCiiggAIK1KEA3yHo1EnnWwqdMLOdYFPT+J5C9i0j81D4ztm4ceO0ukavZPambGA6itJBlO9x66+/fo32dyMFFFBAAQUUUEABBRRQQAEF5heBGg2/zJfrnXfeOZ4Twb3aGtKKYYRT2WeffeJDADJrzz333Lj40EMPjYFVPhDMpKTALe+7dOnCS6EwLDIPCpivlkIglt7f2R/mni1V1llnnbgt6wk20haCiSn7liAxwx1TeFBBFm0qBIlTwDnNRUwAmXlsr7vuusIPGauU7Ly/qY68V+aiJUt42223DQyjzHFT0DYFVHmYwTkyfy3BZoYjyz5ESQFcAuEpGzk7HBoZ2V9++WXMfGXOXYZUTvsUt4mHLlOnTo3bMB8Wwytny+DBg+NH2khwG1OC0vxN0d7sfLkMo0xG8cEHHxyD0cUB+HR+ZHEzxxaZ0Pwtckzm1bIooIACCiiggAIKKKBA3QvQaZXvF3yH4P/36cCaOsHy/+5puhxGBqKTK9OxTJkyJYwdOza0bt16lk6ADN3nn38+fk/j+1ipAPIsVerGCiiggAIKKKCAAgoooIACClSgQLWZusUB3RSgrI1zIYP1oYceCqecckoMcqbsXI7Vs2fPOIcq75mPNmXRpvmVWM7+BIYZ3pjSpk2bOARx/FDiF4HfUoVsUtpzwgknzDRnK8HO888/Pz48SPsTbEztSnPqDh8+PNx+++1xE7ZPQ4alfejBTmG7mhR6sd88Y95g5pylVzpz1hIo5f2IESPCxRdfHLbbbrsYwKYNZMdyTB6WMKT0MsssE6688spw0EEHxSGgCRDzUIV6UsFw4MCBgexkAqkYEwDOKxgTuCXwzgMU6s+WDz74IJx11lmxfWxLj3kyaxmiunfv3nHTNCT2csstF/e/6KKLYl0Ef3kINGzYsNCqVavC+TE3McNVE2jnmGTpFgf0s23wvQIKKKCAAgoooIACCsw9gXqNfh+lKK9WOl7yPSp9D6Jza+oYTOCWYC4jCjE6D50z+/fvH6shs7d42pu8+rPL+I7D94UxY8bEjqwci863FgUUUEABBRRQQAEFFFBAAQUWNIF6M3pFx8lg6T1N0K24pKAuGbqzGtCtP7Zfleqmt+xc5XO5D2R1ki1KkJD5YbPD9Zbbr7bWTZ48OWaaMmctQUle66qQdUt2LG0gcziv0CueHu8EPAn4EhzNG8qMLFwCt9mhr6mPoZA5BgFXArrMbZUygrPH42+mUaNGAR+Ola4TWbsEsXv16hV4z7EbNKjah4DlzJ1VvJzjcl4cl214n+rNHptzpJ0c36KAAgoooIACCiigQG0LjH5vdGi7QdvaPswCUz/fR/h//VIdRNOJMloP/79f/L0gra/ule9HfG/gOHy/sChQFwIj3xjp/aEu4D2mAvOJgPeI+eRC2UwF6kDA+0MdoHtIBeYTgQnjJ4Tlmy1faC0jGFeNshVW/f6GHtV8GZ/XpXnz5oGfSikEl4uzUOuqbWSnFmf8FreFBxrp4QkPSPICuuzDQ4+8Bx9k+C677LKFagkKE2wtLgRVKeVsSs13WxxITnVnty+1DdtmzzHt66sCCiiggAIKKKCAAgpUhkCpDqjFrZvTDrN8P0qj/xTX7WcFFFBAAQUUUEABBRRQQAEFFhSBaoO6C8qJeh5zJsAw0Wmo6JrUxAOcww47LA7/XJPt3UYBBRRQQAEFFFBAAQUUUEABBRRQQAEFFFBAAQUUUEABBfIF6ucvdqkCcyZAdnDr1q3nrBL3VkABBRRQQAEFFFBAAQUUUEABBRRQQAEFFFBAAQUUUECBYFDXPwIFFFBAAQUUUEABBRRQQAEFFFBAAQUUUEABBRRQQAEFFFCgggVqdfjl6S07V/Cp2zQFFFBAAQUUUEABBRRQQAEFFFBAAQUUUEABBRRQQAEFFFCg8gXM1K38a2QLFVBAAQUUUEABBRRQQAEFFFBAAQUUUEABBRRQQAEFFFBgIRYwqLsQX3xPXQEFFFBAAQUUUEABBRRQQAEFFFBAAQUUUEABBRRQQAEFKl/AoG7lXyNbqIACCiiggAIKKKCAAgoooIACCiiggAIKKKCAAgoooIACC7GAQd2F+OJ76goooIACCiiggAIKKKCAAgoooIACCiiggAIKKKCAAgooUPkCBnUr/xrZQgUUUEABBRRQQAEFFFBAAQUUUEABBRRQQAEFFFBAAQUUWIgFDOouxBffU1dAAQUUUEABBRRQQAEFFFBAAQUUUEABBRRQQAEFFFBAgcoXMKhb+dfIFiqggAIKKKCAAgoooIACCiiggAIKKKCAAgoooIACCiigwEIs0KA2z73+2H5Vqp/esnOVz35QQAEFFFBAAQUUUEABBRRQQAEFFFBAAQUUUEABBRRQQAEFFCgvYKZueR/XKqCAAgoooIACCiiggAIKKKCAAgoooIACCiiggAIKKKCAAnUqYFC3Tvk9uAIKKKCAAgoooIACCiiggAIKKKCAAgoooIACCiiggAIKKFBewKBueR/XKqCAAgoooIACCiiggAIKKKCAAgoooIACCiiggAIKKKCAAnUqUHFB3SOPPDIMGDAgF+W4444Ld9xxR1z3+OOPB7Z9+umnZ9r2mWeeCUcddVT49ttv47prrrkmdO/efabtqltQ07ZUV09aP2bMmNjmCy+8MC3yVQEFFFBAAQUUUEABBRRQQAEFFFBAAQUUUEABBRRQQAEFFCgrUHFB3dtvvz28/PLLuY2+8cYbw4svvhjXjRo1KrDtEUccEb7++usq2xM87du3b/jxxx/j8qFDh4b77ruvyjY1+VDTttSkLrahTdTZs2fP8Pnnn9d0N7dTQAEFFFBAAQUUUEABBRRQQAEFFFBAAQUUUEABBRRYQAV+Gnt/4MeiQDmBigvqlmts3rrx48eHs846K29VRS37+eefQ58+fWKmLg278847K6p9qTFfffVVoK2W3wQmT54cvvzyyzrh+P7778PUqVPn+NjffPNNIWt9jiuzAgUUUEABBRRQQAEFFFBAAQUUUEABBRRQQAEFKljg448/Dv379w+33npruPvuuwNxpHKFBEFGiSWZsLgwsmze8uLt5vTzr99/HvixKFBOYL4P6vbo0SNcffXV4bnnnit3nrW27ocffgh77LFHuOGGG6oc4/LLLw9dunQpLHvsscdidm7Xrl3D3nvvHa677rrw66+/FtbXxpv7778/vPfee7NU9ZVXXhnGjRtXdh+C02lo67IbVvDKmpzDkCFDwqWXXhqeeuqpOjmT4cOHh5tvvrnssWtyjclSHzRoUNl6XKmAAgoooIACCiiggAIKKKCAAgoooIACCiigwPwuQMyG6TtbtWoVdtlll7DUUksF4jPlypNPPhlHfk0Jb8RuiDkR0GWk2F9++aXc7q5TYJ4JzPdB3RNOOCFsvPHG4ZhjjgnffffdPINLB1psscVC48aNw2WXXZYWhenTpwfmzW3ZsmVh2U033RTb2aZNm3DQQQfFYOsLL7xQWF/TN+VuHsXr3n///RoP8/zTTz/lNoFzKV5HLxdujNlCT5ZZCVJn25p9n62z+LjZdaXe59XFOaSbcdov7xzSuvT6zjvvhP/7v/8L++yzT1oUX7PHyL7PbsQx+Uml+Phped4rdWb3zW6ThhRPy/KuMccqtX+p9uZdP+rIazfXuVQ9qV2+KqCAAgoooIACCiiggAIKKKCAAgoooIACCigwrwWmTJkSllhiibD55puHFVZYIay33noxdlHqmTbP2BkxkzhPthD7ITBcv37VMBqJVgR8yewlE3jYsGGBBC3e85OmF504cWK46667wi233BJuu+228Nprr2Wr970CsyXQYLb2qqCdGjZsGK655pqw5ZZbhvPOOy+cffbZ87x1ZOQeeOCB4Y033ggbbLBBGDFiRAymHnDAAbEtn376aRg4cGC4+OKL4+cdd9wx9g7hHzPtrkkhM5Zs4C+++CLUq1cvLLfccvGGsueee4ZXXnklPPDAAzEAR6+TI488Mg4tMGnSpPDQQw8FXnfffffcw3DDeeSRR2IQcOmlly4E6wioXn/99eGTTz6J+1Fvt27dwvnnnx8/k8HauXPnmLHLuXFDpF3bb799DITmHezZZ58Nb731VtyHAPxf/vKXeJNjeGCu47777hsIejMnMnMPM/wwyxdffPGw0UYbxZvwJZdcUhhu+9133w0PPvhg+Pvf/x7byQ2zuK577703vP766/GmzU356KOPDldccUWVc1h77bVnai7njjVZurSDGy6dBwjE77XXXuHDDz+Mywhw4sa5NGvWLFxwwQWhadOm4aOPPorH5Pq++uqrscNBo0aNwvHHHx+aNGky0/FYQI8fgv/pGlNvgwa//RPlPxQvvfRSrJNlhx56aBg8eHC8tukat2/fPjDvdMqiXnPNNWO7qPuDDz6I/za4TlxL5qKmnbQt7/rlufE3x7bpP0qrrrpqOPzww8MiiyzCISwKKKCAAgoooIACCiiggAIKKKCAAgoooIACCtSpAIFcYg081yce8fbbbweeZec9xyZO8fzzz4fddtutSjYvsY5NN900ngdxiGzh+TsjpHbo0CE+0yd2QAD4D3/4QxwFlTgR+xJ7ISaw3XbbxXgCz+IJMC+66KLZ6nyvwCwJVO1iMEu7Vs7GBPzOOOOMGFCbnd4OBF/5R5Z+UtCvpme40047xUAZgTcKr/zjpF0UemNQ+IdOBu9VV10Vll9++XDzjKF16TVSk0KQjazJ7t27h7/97W9xnlduSsz5yvC6nTp1isHOFi1ahL59+8bALkFBgqw777xz7iGYK/bhhx+OQcqzZsxL3LZt2xg0ZOMUmD7ttNMCQ1xzc+Pmdfrpp8e6jj322EDQkKDqFltsEQOGHTt2LDsMNoFihnbmBvrXv/419lAhCE4gnjbixDb9+vWLddMmzoteMiwngJrNQCVAmTKGCZAX1zVt2rQYeCXg2qtXrxgIp8dM8Tnk4RA0JYhJpi7Xl+MTzKQ9ZLXyd3bUUUeFM888M157etpQWEe7evbsGQP29NhheG4+034CzKUKQzmka3ziiScWMs+5xlwP2oQVwWOCywTvs9eYIC8BY9pE8Hr06NEFH64f7aUdbMPfCCXv+mHK+RW70XmA9p900kmBvws6C/D3Y1FAAQUUUEABBRRQQAEFFFBAAQUUUEABBRRQoJIECL6SQMbzen6ysYXUzkcffTTGIpZddtm0qEav6667blhjjTViIhg7bLLJJmH11VcPG264Ydyf5/xk+BLDIWbQrl27kslwNTqgGynwP4Hf0gAriIMsQnpPFBeyXSn0bMgrp556arjnnnti4IqhmGel7LrrruGrr74q7EJwkFLTttCmQw45JAYjCS7feeedgWGhKQTyrr322ljX0KFD4zJ+pQxMAnlkO1ZXxo4dG7Nt6fGx0korFYZ2ZohgCkE+fshUJdOTXifcNMh0TccqPgZBWrJgueFQCF6STUshw5QAMb1JyDrlJsTNh+NTeKX+k08+OQYACTrXZLJw9vvzn/8cA7XcVD/77LNCgDEFPQkqkllM/WuttVZYccUV4zFL/SLom1cXQywT9CRI3Lp160AmK4F26qWkc8irF7diP3rUcLMmgExAe5VVVom7ki3NvM4Efin0yMGf4DXZtenvaZlllomGcaOcXzgzxj9/T/xwo+casR9BXnr40GsIM/42i9vI3yC9jgjuMmQEhetGob1cTwq9jpjTmf+I5V0/XPLcCARzXmSFU+itxN8f9VkUUEABBRRQQAEFFFBAAQUUUEABBRRQQAEFFKgUAZK2mFqRxDoS48aPHx+f2af28eydxCVG6GQdz/eJEzGiJs/fyxWGd84WnqdTUuyB9yTBPfHEE4HAMc/SV1555UJch/UWBWZHoOKCumSLEpQiMEk2ayqDBg2Kb8mAzSsEwfr06RO23XbbmM2Yt02pZaWCqrPSFubJJbDH8LncAPbbb794OIKkDNVLoJdhe1MhgEnAkjaXOn7alle25ycVepZQWJYCiGkdgce8XidpffaVm0kqvE+fCUAzeThZuPww/ntxoQ1kHnOdCJZy43rxxReLN6vyeckll4yfU/tWW2212H4WEgTlRkvhnFLJ3gjTMl5TELVUXQyzQDCUwOObb74Zhw4m05SM19kp1EfBPNum1NZ0fdJnLLPbVXfMUvXy98Tfyfrrrx+Dyik7ubi+NHQzcwXQUYFgdirZdqT3BHxLXb88N+qiEwDXicJrqaGk4wb+UkABBRRQQAEFFFBAAQUUUEABBRRQQAEFFFBgHgoQAyD5iSkzKcQtSHxj5NL0bJvlBG8pBF4pPJ9nGkOSqYiJzGkhbkFCGHEUAsiMjkm7eM5vUWB2BSpu+GWGjaUw5jlBKjId01y59I4olxVIdinzvn7++eczeRAkZljk4h8CrqXKrLSFrEqCtMyZypy5KSuSrE7aXTwEMgE/5jVlHPVyQ/KmttGL45lnnomBTDI6yUKlMB8sN4VWMybs3mabbeKNh2FyU3ZuCnymerKv7EuGKzcSCgHoFCDlJsNwAQQHGe6XYQJS0JJtqZdeLGTvHnzwwfEml7KpWV+qpKAx2aeMHU+dtJuhCpi/lsApy5knlsKcvqleAoqUMTOGTKCdZCZTStXF8Mu9e/eOPWAYYptM3WxwupxNrLjoV2o7bgylTa8d2k9b6Zkzp2Phk/n79NNPx+xavBlymULWLXXvv//+cc5hzqH4WrAdwV+Gi6ZjA9eGkq4n7U3L+I8Uf5NkOOddP/6t5Lmlv5fNNtssHofhnRlO26KAAgoooIACCiiggAIKKKCAAgoooIACCiigQCUIkITG8/WRI0fG5+g8GyfBiRFBeeUZPHEHYjpMQZh+eMbPsrkR0MWBDF1G3iSuQbIi8YXsc/1KsLIN859AxWXqMmcpc4gyL2jXrl0LoqTAkwnbtGnTwjLepKzDtJD9GNKYAFcqBDjpdZF6ZqTlvFInwcu8MqttIeOWOW+7dOkSq+OYzLXKeZBJXFzI5iV4RkZlGmu9eJv0mW1vuOGGuD3nQ+8SAn14MCwwAXBuCiwja5jSsmXLmG1LMG/vvfdOVRVeubkRACSLmH3pgZICl9y8cDznnHNi1izHY/5UskAJol555ZVxflneX3TRRXE/gpLcLBmymUnCi0uqOy3H9/bbbw9kBbOOtnDjTMsJeFNSgJphgQn+3njjjfG6E2xOJe2TrYssYIYdvuSSS+I5EOBM2dLpHLAqlf2d6k6vqf1bbbVV7LFz2WWXxXZjzo0/r6R98tYVL6MjAxm5/E1QUlYzPXcIxDKfLvXxHx/+Q8QwzNlrzHZkuQ8ZMqTQ+4ghyWkfP5deemmsl+uc5gzOu34E9PPcyMZmiG2ye2kHWbrpbz1W7C8FFFBAAQUUUEABBRRQQAEFFFBAAQUUUEABBepQgIQ7nm+TMMgPhRhA8+bNw3fffRdHViXewefaLMRSiJWQpEYwl0QrEgNLlXqNfo93lNrG5QrUm/FHHMf0ZR7bNm3azFWR+mN/H/6Viqe37Fzj+sk+JUOTlHiChWlY3hpXMBc3rIS2kLVJkI9/9ASyCaQSoEw3AQKWZN2mQGD29BkzPs2xml1O0JPALvsyFy83lWwhk5WbHME7tiFg27hx4+wm8T0Zn/Q2IVhIPVwzsj2LC39fecHtUmPUUy9tIpjNjThlabM9AV4ClcUlry6GK07nUdwJoDqb4vqzn+nVg0meeXa77Hv+lhhmobgwEXvqXIAh55eC2WyLPx5cC86BLOS84/I3QMCV68F5sy3XhZK9nnHB/34VXz/2Zb9SbtTDeeRdy2y9vldAAQUUUEABBRY0gdHvjQ5tN2i7oJ2W56OAAnNBYOQbI70/zAVHq1BgQRXwHrGgXlnPS4E5F/D+MOeGpWpIMRMSyWYl+apUfbOznGAuz/t5Rs8zf4sCsyIwYfyEsHyz36epfe6550LFZeqmE2JeUoYc5qeuS6W05Y477oiZmWTeEnQjazUVPucF+VhP8JHAXXFJc7Oyb3FAl2250aSAINvkBXTZLjuvKjdIhi7IOx6BwLySd+zierP7ldqebfLWcbMsdcOsziZ73OL3BF1LmRdvm/2cZ5NtH4bFBX+yalMpddzsNcrWyX7Z65nq4bX4+qV1pdxK1ZP281UBBRRQQAEFFFBAAQUUUEABBRRQQAEFFFBAgboUKBczmVftIphc6ln+vGqDx1mwBCo2qLtgMc/52TAccuvWreOwv2R0Fg9DXe4IbLvNjHlr51VhaAN+5lZh6OgUXJ5bdaZ65rUNHQTm5bVI5+mrAgoooIACCiiggAIKKKCAAgoooIACCiiggAIKKKDA/CtgUHc+unYMQV2Xw1DXFRVDRFsUUEABBRRQQAEFFFBAAQUUUEABBRRQQAEFFFBAAQUUWFgF6i+sJ+55K6CAAgoooIACCiiggAIKKKCAAgoooIACCiiggAIKKKCAAvODQK1m6k5v2Xl+MLCNCiiggAIKKKCAAgoooIACCiiggAIKKKCAAgoooIACCiigQMUKmKlbsZfGhimggAIKKKCAAgoooIACCiiggAIKKKCAAgoooIACCiiggAIhGNT1r0ABBRRQQAEFFFBAAQUUUEABBRRQQAEFFFBAAQUUUEABBRSoYAGDuhV8cWyaAgoooIACCiiggAIKKKCAAgoooIACCiiggAIKKKCAAgooYFDXvwEFFFBAAQUUUEABBRRQQAEFFFBAAQUUUEABBRRQQAEFFFCgggUM6lbwxbFpCiiggAIKKKCAAgoooIACCiiggAIKKKCAAgoooIACCiiggEFd/wYUUEABBRRQQAEFFFBAAQUUUEABBRRQQAEFFFBAAQUUUECBChYwqFvBF8emKaCAAgoooIACCiiggAIKKKCAAgoooIACCiiggAIKKKCAAg1qk6D+2H5Vqp/esnOVz35QQAEFFFBAAQUUUEABBRRQQAEFFFBAAQUUUEABBRRQQAEFFCgvYKZueR/XKqCAAgoooIACCiiggAIKKKCAAgoooIACCiiggAIKKKCAAnUqYFC3Tvk9uAIKKKCAAgoooIACCiiggAIKKKCAAgoooIACCiiggAIKKFBewKBueR/XKqCAAgoooIACCiiggAIKKKCAAgoooIACCiiggAIKKKCAAnUqUHFB3SOPPDIMGDAgF+W4444Ld9xxR1z3+OOPB7Z9+umnZ9r2mWeeCUcddVT49ttv47prrrkmdO/efabtqltQ07ZUV09aP2bMmNjmCy+8MC3yVQEFFFBAAQUUUEABBRRQQAEFFFBAAQUUUEABBRRQQAEFFCgr0KDs2jpYefvtt4fmzZuHffbZZ6aj33jjjWGxxRYLBx10UBg1alRg26eeeiq88sorYamllipsT/C0b9++4V//+ldo3LhxGDp0aHj55ZfDueeeW9imJm9q2paa1MU2tIk6KYceemho1qxZfO8vBRRQQAEFFFBAAQUUUEABBRRQQAEFFFBAAQUUUEABBbICP3/2bJg+dXQI03/KLvb9gipQv2Go32TN0GDFrXPPsOKCurmtLLNw/Pjx4ayzzgoXXXRRma3qftXPP/8c+vTpEzN1b7jhhnDnnXeGbt261WnDfv311/DFF1+E5ZdfPtSrV2+ut+WXX34JkyZNivXP9cqtUAEFFFBAAQUUUEABBRRQQAEFFFBAAQUUUEABBRY6gU8++SQMGzYsjta6+OKLhy233DKsuuqqgTgMo7tOmDAhxjxatmwZOnToUCX+MXbs2PD888+HAw88MNft+++/D0888USMnSyyyCJh7bXXDu3atYvbljpubkVzYWEM6E5+ey7UZBXzjcCM4P30Gdf859jgVjM1u+KGX56phdUs6NGjR7j66qvDc889V82WtbP6hx9+CHvssUcgUJstl19+eejSpUth0WOPPRY+//zz0LVr17D33nuH6667LhBUrcvy448/hiuuuCLwWhvlq6++CjiUK9wEU/Zyue1cp4ACCiiggAIKKKCAAgoooIACCiiggAIKKKCAAgu3AEHXRx55JKy00kph9913jyO/EoRNwdiJEyeG7bffPgZzGdV1xIgREeyjjz4KTOvJ6K8Ef0sV6po6dWrYcccdYzD3zTffDKNHj471lzpuqbrmdHnM0J3TStx/vhQode3n+0zdE044IQwaNCgcc8wx4YUXXgj0ypiXheGgGeL5sssui1m4HHv69OmBeXMPOeSQQlNuuummsPHGG4c2bdrE4aPpBUJ76UEyq4UMWHqIULLvs/VwU2rQYObLm91+0UUXDUcffXQc0jq7b9777H5567PLOP9SAWsCyA0bNiz0jPn666/D+++/n909vmc72mdRQAEFFFBAAQUUUEABBRRQQAEFFFBAAQUUUEABBRAgeY7SsWPH+EqMhRgDSWafffZZjMMwxSeFjF0Cu+3btw/169cPyyyzTPjpp59iFm7cIOcX9W+11VYxaEzgmIAuP8SCKHnHHTduXPjuu+/iyKXTpk0LSy+9dNhggw1iRjCxGqbi3HXXXQNJgg899FCYPHlyjJHQzh122KEQL5mpOQ65PBPJQrOgxLWfOeo3n4kQILzmmmticPS8884LZ5999jw/AzJyCdK+8cYb8R8qPT/4h3/AAQfEtnz66adh4MCB4eKLL46f6eHBHMC33HJLjYO6t912W1hiiSXC22+/HdZYY42wzjrrhAceeCD2KKGuI488Miy33HJh+PDhYfDgwTHYi02nTp3CWmutFecdLt5+ySWXDNdff3046aSTwqWXXhoOP/zwsNpqq8UbC5bHH3984GZUvB/HySsEcxlW+t13341B3eycwa+++mo0IDjMUM/0lGE4hH79+sVtGUK7V69e8VgvvfRSXEZQmrmHGSLBooACCiiggAIKKKCAAgoooIACCiiggAIKKKCAAgu3wCqrrFKIvSBBwJVC3IJkuG+++SZ+5heBVgKplJVXXjn+jBo1qmRQl4AvCWsEZVMh/sI0luWO+8477wQygQnkMt3lk08+GYYOHRo222yzmHzHcM+MWkq8haDvTjvtFNv57LPPhg8++CDGfNLxfFWgnMB8P/wyJ7fRRhuFM844I1xwwQXhtddeK3e+uesIvm666aaFH4YknpXCP0D+Yd9///1xN17XW2+92C4W3HXXXXH5e++9FzN4r7rqqvgP++abbw5TpkyJ66r7xY2Hc9tuu+3CH//4x3DffffFgC3B0BYtWoS+ffvG3h0PPvhg+NOf/hQDpAR+77nnnrg8b3tuTgRiGzVqFNtDQJjyyiuvxGXcAPP2K9VWMo+5ITLEdM+ePWNGbtqWdm2xxRYx6E5PFobLJli73377xe1OP/30aEFAnEAuwXmCwtRpUUABBRRQQAEFFFBAAQUUUEABBRRQQAEFFFBAAQVIGiOmQSGYSgyBeW9ZRuCWpDOGTH755ZfDxx9/HGMgNVUjXkIhqzcV4iQsL3dctiUQTJyJxDkS9IjbrL/++jFBj/q+/fbbWC+Jb4xg2qpVqzjEczY5Lh3TVwVKCVRcpi7B0bfeemum9pLtSkn/WIs3OPXUU2MA86ijjopDMRevL/eZtHdS81OhNwWlpm2hTQy1TNYpwWWyVRkWmkLg9Nprr4110TMjlTQ08oABA2KGbFpe7rV169Yx7Z9eHRRuVvzQ84SeImTxMvw0Nw4KAVPGkX/99dfj5+Lt0w2KlQwn8N///jduR1CXOrghUvL2y97U4kYzfnGzJCt4xRVXjIt22223mAnMh5NPPjkGpe+9994Y+GUZdaQhCzDk58QTT4wZz5wjQyVwDSwKKKCAAgoooIACCiiggAIKKKCAAgoooIACCiigAAIERh999NFA3Ih4ToqJbL311nF4ZWIcxB5WX331GNitqVqa9jI75y7ZuykeUuq41J+dGpTtmzRpUjgsAWHKhhtuGGM5JL3xw3DQjGpqUaCmAhUX1G3btm0cPpggJWnqqTBvLoUM2LxCQLBPnz5h2223neUhmBl2OK/MSlsOOuigcPXVVwfmzh0/fnwMqFIn6fMffvhhDPTutddehcMQ7CUASptLHb+w8f/eJA/25ebC8MWprLvuuvFmlW4uLOdmQ0+UUtuzPBWynckwJpuYGyFDSo8cOTL3OASDs8dJdVBfujmxLN0AudExxzDt5zj0WHnxxRfTboVX3PCg9wrnk4ZFKGzgGwUUUEABBRRQQAEFFFBAAQUUUEABBRRQQAEFFFioBUhQI9uVUUuz00VOnDgxbLLJJoVA6dNPPx0aN25cYyuS8YhxkATIfLoURltNdZQ6bk0PQBLeH/7wh5jgNnbs2BjYHTZsWNh5553zq6jfMIQSc6vm7+DSBUaAa59Tfs8hz1lZF4uOPvroeNh99903BkiZXzXNlUvWJtmfpQoTYnfr1q0wUXZ2O4LEBC2Lfwi4liqz0pZ27drFIC3z0DJnLqn1FObNpd3F/yi5MRxxxBGBuWZTJm2pdqTlKWDKUAIESlvNSM/fZpttYtCWnicEicnaZVJwAq+c65AhQ+LQA3nbp6Ar9fOe/e++++4YfKXNpY6TsoxTu9Irwz0TFGaSbwo9ZSiTJk0KP/74Yzj44IPjEMwp65p1nBPBYH5o96KLLhr233//0KZNm8ANOBt4ZnuLAgoooIACCiiggAIKKKCAAgoooIACCiiggAIKLJwCzE1L0JURWIljkNzGD2XChAnh4YcfjnPpEowlcMoIqNUV4lCMhEpZdtll42iizMfLsYhvMKRyueNWV39aT7Ib7aPQriWXXLJsDKR+kzXTrr4uZAKlrn3FZep26tQpBgXPPPPMODdruk4bb7xxzIRt2rRpWhRfizNG2Y8hjcn6TIUgJL02DjzwwLSo8Ep2LSn4eWVW20LGbffu3WOWK/VxzNtuuy2eB5nExYXhkXv37h2HbSbtvrqSgroYMLcuWcEsIxBKpnDz5s1Dhw4dwq233hqr4obAOZTaPh0v1cu+DKG8ww47xFXV7Zf2T68E1dn/4osvju1ieAHqpqcMwwhcdNFF8TMTitMjhR4oDI1AALpXr15xyOonnngiZlqzH8M4EyRmGOY0pHM6lq8KKKCAAgoooIACCiiggAIKKKCAAgoooIACCiiwcAl89NFH8YRJasuWPfbYI44UOm7cuNC/f/+4aoUVVgiMyFpdGTVqVBwumZFiyaQdPHhwoQ7mvGVk0TT6aN5xU4yl3HHYpn379nEaTKby5DPJdh07diy5W4MVtw4/z1g7fepoM3ZLKi1gK2Zk6BLQ5dqH8RNmOrl6M3obxDF4mceW7Mi5WeqP7VeluuktO1f5XO4DmaVkdH755ZeBIGA2hb7cfrWxrpLakj0/gqFMrk3wNltYTi8SJuPOllLbZ7fJe1+8H0M6k0VbXPj7IXhNVi5m2THk2Xbq1KlxWcOGDWNGMeuLg/Ici+0ICLNu2rRpM51f8XH9rIACCiiggAIKKKDAvBAY/d7o0HaD6h8IzIu2eAwFFKgsgZFvjPT+UFmXxNYoUFEC3iMq6nLYGAUqSsD7Q+1cDmIUxBdKjTpak6MSeyGWwc/cLtTNKKXFMZy5fRzrm78FJswI6i7f7PdpapmHueIydRMxPRRWXnnl+JOW1dVrJbUla8BNqTigy3qW590MSm2frTPvffF+ZNkSeC0uBHIpZA7nlezE4HntYx+ORVZvKnnnl9b5qoACCiiggAIKKKCAAgoooIACCiiggAIKKKCAAgpkBUrFKLLbVPc+zaNb3Xazs742656d9rjP/CNQsUHd+Ydw4WvpmmuuGfixKKCAAgoooIACCiiggAIKKKCAAgoooIACCiiggAIKKKBA7QvUr/1DeAQFFFBAAQUUUEABBRRQQAEFFFBAAQUUUEABBRRQQAEFFFBAgdkVMKg7u3Lup4ACCiiggAIKKKCAAgoooIACCiiggAIKKKCAAgoooIACCtSyQKNGjWp3Tt3pLTvX8ilYvQIKKKCAAgoooIACCiiggAIKKKCAAgoooIACCiiggAIKKLDgCjRr1iyYqbvgXl/PTAEFFFBAAQUUUEABBRRQQAEFFFBAAQUUUEABBRRQQAEF5nOBFi1ahP8HS0GHP1LhWkgAAAAASUVORK5CYII=;" vertex="1" parent="1">
          <mxGeometry width="1909" height="844" as="geometry" />
        </mxCell>
      </root>
    </mxGraphModel>
  </diagram>
</mxfile>
